<?xml version="1.0" encoding="utf-8"?>
<!-- Generator: Adobe Illustrator 24.3.0, SVG Export Plug-In . SVG Version: 6.00 Build 0)  -->
<svg version="1.1" xmlns="http://www.w3.org/2000/svg" xmlns:xlink="http://www.w3.org/1999/xlink" x="0px" y="0px"
	 viewBox="0 0 344 668" style="enable-background:new 0 0 344 668;" xml:space="preserve">
<style type="text/css">
	.st0{fill:#231F20;}
	.st1{fill:#FFFFFF;}
	.st2{fill:none;stroke:#231F20;stroke-miterlimit:10;}
	.st3{fill:#FF7B55;}
	.st4{fill:#FFBDAA;}
	.st5{fill:#00C6AE;}
	.st6{fill:#FFBD12;}
	.st7{fill:#C3D5FC;}
	.st8{fill:#1D1D1B;}
	.st9{fill:#D7F9F2;}
	.st10{fill:#8490FF;}
	.st11{fill:#FFFFFF;stroke:#1D1D1B;stroke-width:2;stroke-linecap:round;stroke-miterlimit:10;}
	.st12{fill:#FFB5D4;}
	.st13{fill:#FFEEFE;}
	.st14{fill:none;stroke:#231F20;stroke-width:2;stroke-miterlimit:10;}
	.st15{display:none;}
	.st16{display:inline;fill:none;stroke:#231F20;stroke-miterlimit:10;}
</style>
<g id="Mapa_SS">
</g>
<g id="Mapa_PB">
</g>
<g id="Mapa_1P">
</g>
<g id="MapaEP">
</g>
<g id="Mapa_2P">
</g>
<g id="Mapa_3P">
	<g>
		<g>
			<g>
				<path class="st0" d="M343,651.5c0,8.8-7.2,16-16,16H17c-8.8,0-16-7.2-16-16V20C1,11.2,8.2,4,17,4h310c8.8,0,16,7.2,16,16V651.5z
					"/>
			</g>
			<g>
				<path class="st0" d="M327,668.5H17c-9.37,0-17-7.63-17-17V20C0,10.63,7.63,3,17,3h310c9.37,0,17,7.63,17,17v631.5
					C344,660.87,336.37,668.5,327,668.5z M17,5C8.73,5,2,11.73,2,20v631.5c0,8.27,6.73,15,15,15h310c8.27,0,15-6.73,15-15V20
					c0-8.27-6.73-15-15-15H17z"/>
			</g>
		</g>
		<g>
			<g>
				<path class="st1" d="M343,649.5c0,8.8-7.2,16-16,16H17c-8.8,0-16-7.2-16-16V18C1,9.2,8.2,2,17,2h310c8.8,0,16,7.2,16,16V649.5z"
					/>
			</g>
			<g>
				<path class="st0" d="M327,666.5H17c-9.37,0-17-7.63-17-17V18C0,8.63,7.63,1,17,1h310c9.37,0,17,7.63,17,17v631.5
					C344,658.87,336.37,666.5,327,666.5z M17,3C8.73,3,2,9.73,2,18v631.5c0,8.27,6.73,15,15,15h310c8.27,0,15-6.73,15-15V18
					c0-8.27-6.73-15-15-15H17z"/>
			</g>
		</g>
	</g>
	<g>
		<g>
			<g>
				<g>
					<path d="M227.25,416.5h-110c-4.42,0-8-3.58-8-8v-146c0-4.42,3.58-8,8-8h110c4.42,0,8,3.58,8,8v146
						C235.25,412.92,231.67,416.5,227.25,416.5z"/>
				</g>
				<g>
					<path d="M227.25,417h-110c-4.69,0-8.5-3.81-8.5-8.5v-146c0-4.69,3.81-8.5,8.5-8.5h110c4.69,0,8.5,3.81,8.5,8.5v146
						C235.75,413.19,231.94,417,227.25,417z M117.25,255c-4.14,0-7.5,3.36-7.5,7.5v146c0,4.14,3.36,7.5,7.5,7.5h110
						c4.14,0,7.5-3.36,7.5-7.5v-146c0-4.14-3.36-7.5-7.5-7.5H117.25z"/>
				</g>
			</g>
			<g>
				<g>
					<path class="st1" d="M227.25,415.5h-110c-4.42,0-8-3.58-8-8v-146c0-4.42,3.58-8,8-8h110c4.42,0,8,3.58,8,8v146
						C235.25,411.92,231.67,415.5,227.25,415.5z"/>
				</g>
				<g>
					<path class="st0" d="M227.25,416h-110c-4.69,0-8.5-3.81-8.5-8.5v-146c0-4.69,3.81-8.5,8.5-8.5h110c4.69,0,8.5,3.81,8.5,8.5v146
						C235.75,412.19,231.94,416,227.25,416z M117.25,254c-4.14,0-7.5,3.36-7.5,7.5v146c0,4.14,3.36,7.5,7.5,7.5h110
						c4.14,0,7.5-3.36,7.5-7.5v-146c0-4.14-3.36-7.5-7.5-7.5H117.25z"/>
				</g>
			</g>
		</g>
		<g>
			<g>
				<rect x="144.25" y="253" class="st0" width="2" height="162"/>
			</g>
			<g>
				<rect x="216.25" y="253" class="st0" width="2" height="162"/>
			</g>
			<g>
				<rect x="198.25" y="253" class="st0" width="2" height="162"/>
			</g>
			<g>
				<rect x="180.25" y="253" class="st0" width="2" height="162"/>
			</g>
			<g>
				<rect x="162.25" y="253" class="st0" width="2" height="162"/>
			</g>
			<g>
				<rect x="126.25" y="253" class="st0" width="2" height="162"/>
			</g>
		</g>
		<g>
			<rect x="108.63" y="270.5" class="st0" width="127" height="2"/>
		</g>
		<g>
			<rect x="108.63" y="288.5" class="st0" width="127" height="2"/>
		</g>
		<g>
			<rect x="108.63" y="306.5" class="st0" width="127" height="2"/>
		</g>
		<g>
			<rect x="108.63" y="324.5" class="st0" width="127" height="2"/>
		</g>
		<g>
			<rect x="108.63" y="342.5" class="st0" width="127" height="2"/>
		</g>
		<g>
			<rect x="108.63" y="360.5" class="st0" width="127" height="2"/>
		</g>
		<g>
			<rect x="108.63" y="378.5" class="st0" width="127" height="2"/>
		</g>
		<g>
			<rect x="108.63" y="396.5" class="st0" width="127" height="2"/>
		</g>
	</g>
	<g>
		<path class="st0" d="M191.5,93.3h-39c-4.69,0-8.5-3.81-8.5-8.5V74.3H91.5v-1H145v11.5c0,4.14,3.36,7.5,7.5,7.5h39
			c4.14,0,7.5-3.36,7.5-7.5V73.3h53.5v1H200v10.5C200,89.49,196.19,93.3,191.5,93.3z"/>
	</g>
	<g>
		<path class="st4" d="M252.5,91V2h74c8.84,0,16,7.16,16,16v73H252.5z"/>
		<path class="st0" d="M343,91.5h-91v-90h74.5c9.1,0,16.5,7.4,16.5,16.5V91.5z M253,90.5h89V18c0-8.55-6.95-15.5-15.5-15.5H253V90.5
			z"/>
	</g>
	<g>
		<path class="st0" d="M145,73.5H91v-72h54V73.5z M92,72.5h52v-70H92V72.5z"/>
	</g>
	<g>
		<g>
			<rect x="199.5" y="2" class="st4" width="53" height="35.5"/>
		</g>
		<g>
			<path class="st0" d="M253,38h-54V1.5h54V38z M200,37h52V2.5h-52V37z"/>
		</g>
	</g>
	<g>
		<path class="st0" d="M253,73.5h-54V37h54V73.5z M200,72.5h52V38h-52V72.5z"/>
	</g>
	<g>
		<g>
			<rect x="144.5" y="30.5" class="st3" width="55" height="29"/>
		</g>
		<g>
			<path class="st0" d="M200,60h-56V30h56V60z M145,59h54V31h-54V59z"/>
		</g>
	</g>
	<g>
		<path class="st0" d="M200,31h-56V1.5h56V31z M145,30h54V2.5h-54V30z"/>
	</g>
	<g>
		<g>
			<path class="st4" d="M144.5,59.5h55V84c0,4.42-3.58,8-8,8h-39c-4.42,0-8-3.58-8-8V59.5z"/>
		</g>
		<g>
			<path class="st0" d="M191.5,92.5h-39c-4.69,0-8.5-3.81-8.5-8.5V59h56v25C200,88.69,196.19,92.5,191.5,92.5z M145,60v24
				c0,4.14,3.36,7.5,7.5,7.5h39c4.14,0,7.5-3.36,7.5-7.5V60H145z"/>
		</g>
	</g>
	<g>
		<path class="st0" d="M92,145.5H1v-55h91V145.5z M2,144.5h89v-53H2V144.5z"/>
	</g>
	<g>
		<path class="st0" d="M92,199.5H1v-55h91V199.5z M2,198.5h89v-53H2V198.5z"/>
	</g>
	<g>
		<rect x="1.5" y="199" class="st4" width="90" height="54"/>
		<path class="st0" d="M92,253.5H1v-55h91V253.5z M2,252.5h89v-53H2V252.5z"/>
	</g>
	<g>
		<rect x="252.5" y="91" class="st3" width="90" height="54"/>
		<path class="st0" d="M343,145.5h-91v-55h91V145.5z M253,144.5h89v-53h-89V144.5z"/>
	</g>
	<g>
		<rect x="252.5" y="145" class="st1" width="90" height="162"/>
		<path class="st0" d="M343,307.5h-91v-163h91V307.5z M253,306.5h89v-161h-89V306.5z"/>
	</g>
	<g>
		<rect x="1.5" y="253" class="st4" width="90" height="54"/>
		<path class="st0" d="M92,307.5H1v-55h91V307.5z M2,306.5h89v-53H2V306.5z"/>
	</g>
	<g>
		<rect x="1.5" y="307" class="st3" width="90" height="54"/>
		<path class="st0" d="M92,361.5H1v-55h91V361.5z M2,360.5h89v-53H2V360.5z"/>
	</g>
	<g>
		<path class="st0" d="M92,415.5H1v-55h91V415.5z M2,414.5h89v-53H2V414.5z"/>
	</g>
	<g>
		<path class="st0" d="M92,577H1v-55h91V577z M2,576h89v-53H2V576z"/>
	</g>
	<g>
		<rect x="1.5" y="415" class="st4" width="90" height="54"/>
		<path class="st0" d="M92,469.5H1v-55h91V469.5z M2,468.5h89v-53H2V468.5z"/>
	</g>
	<g>
		<path class="st0" d="M343,361.5h-91v-55h91V361.5z M253,360.5h89v-53h-89V360.5z"/>
	</g>
	<g>
		<path class="st0" d="M343,415.5h-91v-55h91V415.5z M253,414.5h89v-53h-89V414.5z"/>
	</g>
	<g>
		<path class="st0" d="M343,469.5h-91v-55h91V469.5z M253,468.5h89v-53h-89V468.5z"/>
	</g>
	<g>
		<rect x="1.5" y="469" class="st4" width="90" height="54"/>
		<path class="st0" d="M92,523.5H1v-55h91V523.5z M2,522.5h89v-53H2V522.5z"/>
	</g>
	<g>
		<path class="st0" d="M326.5,666.5h-309C8.4,666.5,1,659.1,1,650V522.5h91v72h52V584c0-4.69,3.81-8.5,8.5-8.5h39
			c4.69,0,8.5,3.81,8.5,8.5v10.5h52v-72h91V650C343,659.1,335.6,666.5,326.5,666.5z M2,523.5V650c0,8.55,6.95,15.5,15.5,15.5h309
			c8.55,0,15.5-6.95,15.5-15.5V523.5h-89v72h-54V584c0-4.14-3.36-7.5-7.5-7.5h-39c-4.14,0-7.5,3.36-7.5,7.5v11.5H91v-72H2z"/>
	</g>
	<g>
		<rect x="252.5" y="469" class="st4" width="90" height="54"/>
		<path class="st0" d="M343,523.5h-91v-55h91V523.5z M253,522.5h89v-53h-89V522.5z"/>
	</g>
	<g>
		<path class="st3" d="M91.5,91h-90V18c0-8.84,7.16-16,16-16h74V91z"/>
		<path class="st0" d="M92,91.5H1V18C1,8.9,8.4,1.5,17.5,1.5H92V91.5z M2,90.5h89v-88H17.5C8.95,2.5,2,9.45,2,18V90.5z"/>
	</g>
	<g>
		<g>
			<g>
				<path d="M227,218.5H117c-4.42,0-8-3.58-8-8v-92c0-4.42,3.58-8,8-8h110c4.42,0,8,3.58,8,8v92C235,214.92,231.42,218.5,227,218.5z
					"/>
			</g>
			<g>
				<path d="M227,219H117c-4.69,0-8.5-3.81-8.5-8.5v-92c0-4.69,3.81-8.5,8.5-8.5h110c4.69,0,8.5,3.81,8.5,8.5v92
					C235.5,215.19,231.69,219,227,219z M117,111c-4.14,0-7.5,3.36-7.5,7.5v92c0,4.14,3.36,7.5,7.5,7.5h110c4.14,0,7.5-3.36,7.5-7.5
					v-92c0-4.14-3.36-7.5-7.5-7.5H117z"/>
			</g>
		</g>
		<g>
			<g>
				<path class="st1" d="M227,217.5H117c-4.42,0-8-3.58-8-8v-92c0-4.42,3.58-8,8-8h110c4.42,0,8,3.58,8,8v92
					C235,213.92,231.42,217.5,227,217.5z"/>
			</g>
			<g>
				<path class="st0" d="M227,218H117c-4.69,0-8.5-3.81-8.5-8.5v-92c0-4.69,3.81-8.5,8.5-8.5h110c4.69,0,8.5,3.81,8.5,8.5v92
					C235.5,214.19,231.69,218,227,218z M117,110c-4.14,0-7.5,3.36-7.5,7.5v92c0,4.14,3.36,7.5,7.5,7.5h110c4.14,0,7.5-3.36,7.5-7.5
					v-92c0-4.14-3.36-7.5-7.5-7.5H117z"/>
			</g>
		</g>
	</g>
	<g>
		<g>
			<g>
				<path d="M227.5,560h-110c-4.42,0-8-3.58-8-8v-92c0-4.42,3.58-8,8-8h110c4.42,0,8,3.58,8,8v92C235.5,556.42,231.92,560,227.5,560
					z"/>
			</g>
			<g>
				<path d="M227.5,560.5h-110c-4.69,0-8.5-3.81-8.5-8.5v-92c0-4.69,3.81-8.5,8.5-8.5h110c4.69,0,8.5,3.81,8.5,8.5v92
					C236,556.69,232.19,560.5,227.5,560.5z M117.5,452.5c-4.14,0-7.5,3.36-7.5,7.5v92c0,4.14,3.36,7.5,7.5,7.5h110
					c4.14,0,7.5-3.36,7.5-7.5v-92c0-4.14-3.36-7.5-7.5-7.5H117.5z"/>
			</g>
		</g>
		<g>
			<g>
				<path class="st1" d="M227.5,559h-110c-4.42,0-8-3.58-8-8v-92c0-4.42,3.58-8,8-8h110c4.42,0,8,3.58,8,8v92
					C235.5,555.42,231.92,559,227.5,559z"/>
			</g>
			<g>
				<path class="st0" d="M227.5,559.5h-110c-4.69,0-8.5-3.81-8.5-8.5v-92c0-4.69,3.81-8.5,8.5-8.5h110c4.69,0,8.5,3.81,8.5,8.5v92
					C236,555.69,232.19,559.5,227.5,559.5z M117.5,451.5c-4.14,0-7.5,3.36-7.5,7.5v92c0,4.14,3.36,7.5,7.5,7.5h110
					c4.14,0,7.5-3.36,7.5-7.5v-92c0-4.14-3.36-7.5-7.5-7.5H117.5z"/>
			</g>
		</g>
	</g>
	<g>
		<path d="M39.63,46.47c0.5,0.5,0.76,1.14,0.76,1.91c0,0.56-0.14,1.07-0.42,1.52s-0.7,0.81-1.25,1.08c-0.56,0.27-1.23,0.4-2.04,0.4
			c-0.7,0-1.37-0.11-2.02-0.31c-0.64-0.21-1.17-0.5-1.58-0.88l0.64-1.11c0.34,0.32,0.77,0.57,1.29,0.76
			c0.52,0.19,1.08,0.29,1.67,0.29c0.73,0,1.29-0.15,1.7-0.46c0.41-0.31,0.61-0.73,0.61-1.27c0-0.54-0.2-0.96-0.6-1.26
			s-1.01-0.45-1.82-0.45h-0.78v-0.98l2.46-3.02h-4.72v-1.22h6.47v0.95l-2.56,3.16C38.39,45.67,39.13,45.97,39.63,46.47z"/>
		<path d="M43.63,50.78c-0.6-0.4-1.08-0.97-1.42-1.73s-0.52-1.65-0.52-2.69s0.17-1.93,0.52-2.69c0.35-0.76,0.82-1.33,1.42-1.73
			s1.29-0.59,2.06-0.59c0.77,0,1.45,0.2,2.05,0.59s1.08,0.97,1.42,1.73c0.35,0.76,0.52,1.65,0.52,2.69s-0.17,1.93-0.52,2.69
			s-0.82,1.33-1.42,1.73s-1.29,0.59-2.05,0.59C44.92,51.38,44.23,51.18,43.63,50.78z M47.58,49.17c0.47-0.64,0.71-1.58,0.71-2.8
			s-0.24-2.16-0.71-2.8c-0.47-0.64-1.1-0.96-1.88-0.96c-0.79,0-1.43,0.32-1.9,0.96c-0.47,0.64-0.71,1.58-0.71,2.8
			s0.24,2.16,0.71,2.8s1.1,0.97,1.9,0.97C46.48,50.13,47.1,49.81,47.58,49.17z"/>
		<path d="M57.25,42.63c0.71,0.85,1.07,2.05,1.07,3.61c0,1.09-0.19,2.02-0.58,2.79s-0.93,1.35-1.62,1.75
			c-0.7,0.4-1.51,0.59-2.43,0.59c-0.48,0-0.92-0.05-1.34-0.15c-0.42-0.1-0.78-0.24-1.09-0.43l0.53-1.09
			c0.48,0.31,1.11,0.46,1.89,0.46c1.02,0,1.81-0.32,2.39-0.95c0.57-0.63,0.86-1.55,0.86-2.75v-0.35c-0.28,0.42-0.67,0.74-1.16,0.96
			c-0.49,0.22-1.05,0.33-1.67,0.33c-0.64,0-1.22-0.12-1.73-0.36c-0.51-0.24-0.91-0.59-1.19-1.04c-0.28-0.45-0.43-0.97-0.43-1.56
			c0-0.62,0.15-1.16,0.46-1.62c0.3-0.47,0.72-0.83,1.24-1.08c0.52-0.26,1.11-0.38,1.76-0.38C55.52,41.35,56.54,41.78,57.25,42.63z
			 M55.51,46.03c0.35-0.17,0.61-0.4,0.81-0.69c0.19-0.29,0.29-0.61,0.29-0.97c0-0.35-0.09-0.66-0.27-0.95
			c-0.18-0.28-0.45-0.51-0.8-0.69c-0.35-0.17-0.77-0.26-1.27-0.26c-0.64,0-1.16,0.17-1.56,0.52c-0.4,0.34-0.6,0.81-0.6,1.38
			c0,0.58,0.2,1.04,0.6,1.38c0.4,0.34,0.94,0.51,1.62,0.51C54.77,46.28,55.16,46.2,55.51,46.03z"/>
	</g>
	<g>
		<path d="M168.01,18.47c0.5,0.5,0.76,1.14,0.76,1.91c0,0.56-0.14,1.07-0.42,1.52c-0.28,0.45-0.7,0.81-1.25,1.08
			c-0.56,0.27-1.23,0.4-2.04,0.4c-0.7,0-1.37-0.11-2.02-0.32s-1.17-0.5-1.58-0.88l0.64-1.11c0.34,0.32,0.77,0.57,1.29,0.76
			c0.52,0.19,1.08,0.29,1.67,0.29c0.73,0,1.29-0.15,1.7-0.46c0.41-0.31,0.61-0.73,0.61-1.27s-0.2-0.96-0.6-1.26
			s-1.01-0.45-1.82-0.45h-0.78v-0.98l2.46-3.02h-4.72v-1.22h6.47v0.95l-2.56,3.16C166.77,17.67,167.51,17.97,168.01,18.47z"/>
		<path d="M173.11,13.46v9.8h-1.39v-8.58h-2.21v-1.22H173.11z"/>
		<path d="M181.13,18.16c0.66,0.53,0.99,1.25,0.99,2.16c0,0.58-0.14,1.1-0.41,1.56s-0.69,0.83-1.25,1.09
			c-0.55,0.27-1.24,0.4-2.05,0.4c-0.69,0-1.36-0.11-2-0.32s-1.18-0.5-1.6-0.88l0.64-1.11c0.34,0.32,0.76,0.57,1.29,0.76
			c0.52,0.19,1.07,0.29,1.65,0.29c0.74,0,1.31-0.16,1.71-0.47s0.61-0.74,0.61-1.28c0-0.59-0.22-1.03-0.67-1.34
			c-0.45-0.3-1.21-0.45-2.3-0.45h-2.23l0.52-5.12h5.53v1.22h-4.35l-0.27,2.69h1.09C179.45,17.37,180.48,17.63,181.13,18.16z"/>
	</g>
	<g>
		<path d="M113.36,46.47c0.5,0.5,0.76,1.14,0.76,1.91c0,0.56-0.14,1.07-0.42,1.52s-0.7,0.81-1.25,1.08c-0.56,0.27-1.23,0.4-2.04,0.4
			c-0.7,0-1.37-0.11-2.02-0.31c-0.64-0.21-1.17-0.5-1.58-0.88l0.64-1.11c0.34,0.32,0.77,0.57,1.29,0.76
			c0.52,0.19,1.08,0.29,1.67,0.29c0.73,0,1.29-0.15,1.7-0.46c0.41-0.31,0.61-0.73,0.61-1.27c0-0.54-0.2-0.96-0.6-1.26
			s-1.01-0.45-1.82-0.45h-0.78v-0.98l2.46-3.02h-4.72v-1.22h6.47v0.95l-2.56,3.16C112.12,45.67,112.86,45.97,113.36,46.47z"/>
		<path d="M118.46,41.46v9.8h-1.39v-8.58h-2.21v-1.22H118.46z"/>
		<path d="M122.54,50.78c-0.6-0.4-1.08-0.97-1.42-1.73s-0.52-1.65-0.52-2.69s0.17-1.93,0.52-2.69c0.35-0.76,0.82-1.33,1.42-1.73
			s1.29-0.59,2.06-0.59c0.77,0,1.45,0.2,2.05,0.59s1.08,0.97,1.42,1.73c0.35,0.76,0.52,1.65,0.52,2.69s-0.17,1.93-0.52,2.69
			s-0.82,1.33-1.42,1.73s-1.29,0.59-2.05,0.59C123.83,51.38,123.14,51.18,122.54,50.78z M126.48,49.17c0.47-0.64,0.71-1.58,0.71-2.8
			s-0.24-2.16-0.71-2.8c-0.47-0.64-1.1-0.96-1.88-0.96c-0.79,0-1.43,0.32-1.9,0.96c-0.47,0.64-0.71,1.58-0.71,2.8
			s0.24,2.16,0.71,2.8s1.1,0.97,1.9,0.97C125.38,50.13,126.01,49.81,126.48,49.17z"/>
	</g>
	<g>
		<path d="M168.01,73.47c0.5,0.5,0.76,1.14,0.76,1.91c0,0.56-0.14,1.07-0.42,1.52c-0.28,0.45-0.7,0.81-1.25,1.08
			c-0.56,0.27-1.23,0.4-2.04,0.4c-0.7,0-1.37-0.11-2.02-0.32s-1.17-0.5-1.58-0.88l0.64-1.11c0.34,0.32,0.77,0.57,1.29,0.76
			c0.52,0.19,1.08,0.29,1.67,0.29c0.73,0,1.29-0.15,1.7-0.46c0.41-0.31,0.61-0.73,0.61-1.27s-0.2-0.96-0.6-1.26
			s-1.01-0.45-1.82-0.45h-0.78v-0.98l2.46-3.02h-4.72v-1.22h6.47v0.95l-2.56,3.16C166.77,72.67,167.51,72.97,168.01,73.47z"/>
		<path d="M173.11,68.46v9.8h-1.39v-8.58h-2.21v-1.22H173.11z"/>
		<path d="M182.14,77.05v1.22h-7.04v-0.95l3.99-3.85c0.49-0.47,0.81-0.87,0.98-1.21c0.17-0.34,0.25-0.68,0.25-1.03
			c0-0.51-0.18-0.91-0.54-1.2c-0.36-0.28-0.88-0.43-1.55-0.43c-1.08,0-1.92,0.35-2.51,1.06l-0.95-0.83
			c0.38-0.47,0.88-0.83,1.51-1.09c0.62-0.26,1.31-0.39,2.08-0.39c1.03,0,1.84,0.25,2.45,0.74s0.91,1.15,0.91,1.99
			c0,0.52-0.11,1.02-0.34,1.48s-0.65,1-1.27,1.6l-3,2.88H182.14z"/>
	</g>
	<g>
		<path d="M168.02,45.97c0.5,0.5,0.76,1.14,0.76,1.91c0,0.56-0.14,1.07-0.42,1.52c-0.28,0.45-0.7,0.81-1.25,1.08
			c-0.56,0.27-1.23,0.4-2.04,0.4c-0.7,0-1.37-0.11-2.02-0.32s-1.17-0.5-1.58-0.88l0.64-1.11c0.34,0.32,0.77,0.57,1.29,0.76
			c0.52,0.19,1.08,0.29,1.67,0.29c0.73,0,1.29-0.15,1.7-0.46c0.41-0.31,0.61-0.73,0.61-1.27s-0.2-0.96-0.6-1.26
			s-1.01-0.45-1.82-0.45h-0.78v-0.98l2.46-3.02h-4.72v-1.22h6.47v0.95l-2.56,3.16C166.79,45.17,167.52,45.47,168.02,45.97z"/>
		<path d="M173.12,40.96v9.8h-1.39v-8.58h-2.21v-1.22H173.12z"/>
		<path d="M181.21,45.97c0.5,0.5,0.76,1.14,0.76,1.91c0,0.56-0.14,1.07-0.42,1.52c-0.28,0.45-0.7,0.81-1.25,1.08
			c-0.56,0.27-1.23,0.4-2.04,0.4c-0.7,0-1.37-0.11-2.02-0.32c-0.64-0.21-1.17-0.5-1.58-0.88l0.64-1.11
			c0.34,0.32,0.76,0.57,1.29,0.76c0.52,0.19,1.08,0.29,1.67,0.29c0.73,0,1.29-0.15,1.7-0.46c0.41-0.31,0.61-0.73,0.61-1.27
			s-0.2-0.96-0.6-1.26s-1.01-0.45-1.82-0.45h-0.79v-0.98l2.46-3.02h-4.72v-1.22h6.47v0.95l-2.56,3.16
			C179.97,45.17,180.71,45.47,181.21,45.97z"/>
	</g>
	<g>
		<path d="M221.35,55.47c0.5,0.5,0.76,1.14,0.76,1.91c0,0.56-0.14,1.07-0.42,1.52c-0.28,0.45-0.7,0.81-1.25,1.08
			c-0.55,0.27-1.23,0.4-2.04,0.4c-0.7,0-1.37-0.11-2.02-0.31c-0.64-0.21-1.17-0.5-1.58-0.88l0.64-1.11
			c0.34,0.32,0.76,0.57,1.29,0.76c0.52,0.19,1.08,0.29,1.67,0.29c0.73,0,1.29-0.15,1.7-0.46s0.61-0.73,0.61-1.27
			c0-0.54-0.2-0.96-0.6-1.26c-0.4-0.3-1.01-0.45-1.82-0.45h-0.78v-0.98l2.46-3.02h-4.72v-1.22h6.47v0.95l-2.56,3.16
			C220.11,54.67,220.84,54.97,221.35,55.47z"/>
		<path d="M226.44,50.46v9.8h-1.39v-8.58h-2.21v-1.22H226.44z"/>
		<path d="M237.11,57.86h-1.86v2.41h-1.36v-2.41h-5.45v-0.98l5.01-6.41h1.51l-4.8,6.19h3.77v-2.13h1.32v2.13h1.86V57.86z"/>
	</g>
	<g>
		<path d="M221.71,18.47c0.5,0.5,0.76,1.14,0.76,1.91c0,0.56-0.14,1.07-0.42,1.52c-0.28,0.45-0.7,0.81-1.25,1.08
			c-0.56,0.27-1.23,0.4-2.04,0.4c-0.7,0-1.37-0.11-2.02-0.31c-0.64-0.21-1.17-0.5-1.58-0.88l0.64-1.11
			c0.34,0.32,0.77,0.57,1.29,0.76c0.52,0.19,1.08,0.29,1.67,0.29c0.73,0,1.29-0.15,1.7-0.46c0.41-0.31,0.61-0.73,0.61-1.27
			c0-0.54-0.2-0.96-0.6-1.26c-0.4-0.3-1.01-0.45-1.82-0.45h-0.78v-0.98l2.46-3.02h-4.72v-1.22h6.47v0.95l-2.56,3.16
			C220.47,17.67,221.21,17.97,221.71,18.47z"/>
		<path d="M226.8,13.46v9.8h-1.38v-8.58h-2.21v-1.22H226.8z"/>
		<path d="M234.9,17.68c0.51,0.24,0.91,0.59,1.2,1.04c0.29,0.45,0.43,0.97,0.43,1.56c0,0.62-0.15,1.16-0.46,1.62
			c-0.3,0.47-0.72,0.83-1.25,1.08s-1.12,0.38-1.77,0.38c-1.32,0-2.33-0.42-3.04-1.27s-1.07-2.05-1.07-3.61
			c0-1.09,0.19-2.02,0.58-2.79s0.93-1.35,1.62-1.75s1.5-0.59,2.43-0.59c0.48,0,0.92,0.05,1.34,0.15s0.78,0.24,1.09,0.43l-0.53,1.09
			c-0.47-0.31-1.09-0.46-1.88-0.46c-1.02,0-1.82,0.32-2.39,0.95c-0.58,0.63-0.87,1.55-0.87,2.75c0,0.15,0,0.27,0.01,0.35
			c0.28-0.42,0.67-0.74,1.16-0.96c0.49-0.22,1.04-0.33,1.66-0.33C233.82,17.31,234.4,17.44,234.9,17.68z M234.58,21.72
			c0.4-0.34,0.6-0.81,0.6-1.38c0-0.58-0.2-1.04-0.61-1.38s-0.95-0.51-1.63-0.51c-0.44,0-0.83,0.08-1.17,0.25s-0.61,0.4-0.8,0.69
			c-0.19,0.29-0.29,0.61-0.29,0.97c0,0.35,0.09,0.66,0.27,0.95c0.18,0.28,0.45,0.51,0.8,0.69c0.35,0.17,0.77,0.26,1.25,0.26
			C233.65,22.24,234.17,22.07,234.58,21.72z"/>
	</g>
	<g>
		<path d="M293.84,46.47c0.5,0.5,0.76,1.14,0.76,1.91c0,0.56-0.14,1.07-0.42,1.52c-0.28,0.45-0.7,0.81-1.25,1.08
			c-0.56,0.27-1.23,0.4-2.04,0.4c-0.7,0-1.37-0.11-2.02-0.31c-0.64-0.21-1.17-0.5-1.58-0.88l0.64-1.11
			c0.34,0.32,0.77,0.57,1.29,0.76c0.52,0.19,1.08,0.29,1.67,0.29c0.73,0,1.29-0.15,1.7-0.46c0.41-0.31,0.61-0.73,0.61-1.27
			c0-0.54-0.2-0.96-0.6-1.26c-0.4-0.3-1.01-0.45-1.82-0.45h-0.78v-0.98l2.46-3.02h-4.72v-1.22h6.47v0.95l-2.56,3.16
			C292.61,45.67,293.34,45.97,293.84,46.47z"/>
		<path d="M298.94,41.46v9.8h-1.38v-8.58h-2.21v-1.22H298.94z"/>
		<path d="M308.22,41.46v0.95l-3.96,8.85h-1.48l3.88-8.58h-4.48v1.75h-1.34v-2.97H308.22z"/>
	</g>
	<g>
		<path d="M293.52,118.47c0.5,0.5,0.76,1.14,0.76,1.91c0,0.56-0.14,1.07-0.42,1.52c-0.28,0.45-0.7,0.81-1.25,1.08
			c-0.56,0.27-1.23,0.4-2.04,0.4c-0.7,0-1.37-0.11-2.02-0.31c-0.64-0.21-1.17-0.5-1.58-0.88l0.64-1.11
			c0.34,0.32,0.77,0.57,1.29,0.76c0.52,0.19,1.08,0.29,1.67,0.29c0.73,0,1.29-0.15,1.7-0.46c0.41-0.31,0.61-0.73,0.61-1.27
			c0-0.54-0.2-0.96-0.6-1.26c-0.4-0.3-1.01-0.45-1.82-0.45h-0.78v-0.98l2.46-3.02h-4.72v-1.22h6.47v0.95l-2.56,3.16
			C292.28,117.67,293.02,117.97,293.52,118.47z"/>
		<path d="M298.62,113.46v9.8h-1.38v-8.58h-2.21v-1.22H298.62z"/>
		<path d="M308.04,119.05c0.3,0.4,0.45,0.88,0.45,1.44c0,0.59-0.16,1.1-0.48,1.53c-0.32,0.43-0.77,0.77-1.36,1s-1.28,0.35-2.07,0.35
			c-0.78,0-1.47-0.12-2.05-0.35c-0.58-0.23-1.03-0.57-1.35-1c-0.32-0.43-0.48-0.95-0.48-1.53c0-0.56,0.15-1.04,0.44-1.44
			c0.29-0.4,0.72-0.71,1.28-0.92c-0.45-0.21-0.79-0.5-1.02-0.85c-0.23-0.36-0.35-0.78-0.35-1.26c0-0.54,0.15-1.01,0.44-1.41
			c0.29-0.4,0.71-0.71,1.24-0.92c0.53-0.21,1.15-0.32,1.85-0.32c0.71,0,1.33,0.11,1.87,0.32c0.54,0.21,0.95,0.52,1.25,0.92
			c0.29,0.4,0.44,0.87,0.44,1.41c0,0.48-0.12,0.89-0.36,1.25s-0.58,0.65-1.03,0.86C307.31,118.34,307.74,118.65,308.04,119.05z
			 M306.41,121.76c0.45-0.32,0.67-0.76,0.67-1.31c0-0.54-0.22-0.97-0.67-1.28c-0.45-0.31-1.06-0.47-1.83-0.47
			c-0.78,0-1.38,0.16-1.82,0.47c-0.44,0.31-0.66,0.74-0.66,1.28c0,0.55,0.22,0.99,0.66,1.31c0.44,0.32,1.04,0.48,1.82,0.48
			C305.35,122.24,305.97,122.08,306.41,121.76z M303.01,114.91c-0.38,0.29-0.57,0.67-0.57,1.16s0.19,0.87,0.57,1.15
			c0.38,0.28,0.9,0.42,1.58,0.42c0.68,0,1.21-0.14,1.6-0.42c0.39-0.28,0.58-0.66,0.58-1.15s-0.2-0.87-0.59-1.16
			c-0.4-0.29-0.93-0.43-1.59-0.43C303.92,114.49,303.39,114.63,303.01,114.91z"/>
	</g>
	<g>
		<path d="M275.5,221.55v1.22h-7.11v-9.8h6.92v1.22h-5.52v3.01h4.91v1.19h-4.91v3.16H275.5z"/>
		<path d="M283.81,222.76l-2.94-4.05l-2.9,4.05h-1.61l3.68-5.03l-3.46-4.77h1.6l2.74,3.77l2.72-3.77h1.53l-3.46,4.73l3.71,5.07
			H283.81z"/>
		<path d="M297.08,220.31h-5.21l-1.08,2.45h-1.44l4.44-9.8h1.39l4.45,9.8h-1.47L297.08,220.31z M296.59,219.2l-2.11-4.8l-2.11,4.8
			H296.59z"/>
		<path d="M301.89,221.76c-0.73-0.75-1.09-1.82-1.09-3.22v-5.57h1.4v5.52c0,2.1,0.92,3.15,2.76,3.15c0.9,0,1.58-0.26,2.06-0.78
			s0.71-1.31,0.71-2.37v-5.52h1.36v5.57c0,1.41-0.36,2.48-1.09,3.23c-0.73,0.74-1.75,1.11-3.05,1.11S302.61,222.5,301.89,221.76z"/>
		<path d="M311.95,212.96h1.4v8.58h5.31v1.22h-6.71V212.96z"/>
		<path d="M326.55,220.31h-5.21l-1.08,2.45h-1.44l4.44-9.8h1.39l4.45,9.8h-1.47L326.55,220.31z M326.06,219.2l-2.11-4.8l-2.11,4.8
			H326.06z"/>
		<path d="M280.61,237.76l-0.01-7.14l-3.54,5.95h-0.64l-3.54-5.91v7.1h-1.34v-9.8h1.15l4.09,6.89l4.03-6.89h1.15l0.01,9.8H280.61z"
			/>
		<path d="M291.13,235.31h-5.21l-1.08,2.45h-1.44l4.44-9.8h1.39l4.45,9.8h-1.47L291.13,235.31z M290.64,234.2l-2.11-4.8l-2.11,4.8
			H290.64z"/>
		<path d="M301.79,232.81h1.34v3.82c-0.49,0.4-1.05,0.71-1.69,0.92c-0.64,0.21-1.32,0.32-2.02,0.32c-0.99,0-1.88-0.22-2.67-0.65
			c-0.79-0.43-1.42-1.03-1.87-1.79c-0.45-0.76-0.68-1.62-0.68-2.57c0-0.95,0.23-1.81,0.68-2.58c0.45-0.77,1.08-1.36,1.88-1.79
			c0.8-0.43,1.7-0.64,2.7-0.64c0.78,0,1.5,0.13,2.13,0.39c0.64,0.26,1.18,0.63,1.63,1.13l-0.87,0.87c-0.78-0.76-1.73-1.13-2.84-1.13
			c-0.75,0-1.42,0.16-2.01,0.48c-0.59,0.32-1.06,0.77-1.39,1.34s-0.5,1.22-0.5,1.94c0,0.71,0.17,1.35,0.5,1.92
			c0.34,0.57,0.8,1.03,1.39,1.35c0.59,0.33,1.26,0.49,1.99,0.49c0.88,0,1.64-0.21,2.3-0.63V232.81z"/>
		<path d="M314.23,227.96v9.8h-1.15l-5.88-7.31v7.31h-1.4v-9.8h1.15l5.88,7.31v-7.31H314.23z"/>
		<path d="M323.42,235.31h-5.21l-1.08,2.45h-1.44l4.44-9.8h1.39l4.45,9.8h-1.47L323.42,235.31z M322.93,234.2l-2.11-4.8l-2.11,4.8
			H322.93z"/>
	</g>
	<g>
		<path d="M293.71,334.47c0.5,0.5,0.76,1.14,0.76,1.91c0,0.56-0.14,1.07-0.42,1.52c-0.28,0.45-0.7,0.81-1.25,1.08
			c-0.56,0.27-1.23,0.4-2.04,0.4c-0.7,0-1.37-0.11-2.02-0.31c-0.64-0.21-1.17-0.5-1.58-0.88l0.64-1.11
			c0.34,0.32,0.77,0.57,1.29,0.76c0.52,0.19,1.08,0.29,1.67,0.29c0.73,0,1.29-0.15,1.7-0.46c0.41-0.31,0.61-0.73,0.61-1.27
			c0-0.54-0.2-0.96-0.6-1.26c-0.4-0.3-1.01-0.45-1.82-0.45h-0.78v-0.98l2.46-3.02h-4.72v-1.22h6.47v0.95l-2.56,3.16
			C292.47,333.67,293.21,333.97,293.71,334.47z"/>
		<path d="M298.8,329.46v9.8h-1.38v-8.58h-2.21v-1.22H298.8z"/>
		<path d="M307.17,330.63c0.71,0.85,1.07,2.05,1.07,3.61c0,1.09-0.19,2.02-0.58,2.79s-0.93,1.35-1.62,1.75
			c-0.7,0.4-1.51,0.59-2.43,0.59c-0.48,0-0.92-0.05-1.34-0.15s-0.78-0.24-1.09-0.43l0.53-1.09c0.48,0.31,1.11,0.46,1.89,0.46
			c1.02,0,1.81-0.32,2.39-0.95c0.57-0.63,0.86-1.55,0.86-2.75v-0.35c-0.28,0.42-0.67,0.74-1.16,0.96c-0.5,0.22-1.05,0.33-1.67,0.33
			c-0.64,0-1.22-0.12-1.73-0.36c-0.51-0.24-0.91-0.59-1.19-1.04c-0.28-0.45-0.43-0.97-0.43-1.56c0-0.62,0.15-1.16,0.46-1.62
			c0.3-0.47,0.71-0.83,1.24-1.08c0.52-0.26,1.11-0.38,1.76-0.38C305.44,329.35,306.46,329.78,307.17,330.63z M305.43,334.03
			c0.34-0.17,0.61-0.4,0.8-0.69c0.19-0.29,0.29-0.61,0.29-0.97c0-0.35-0.09-0.66-0.27-0.95c-0.18-0.28-0.45-0.51-0.8-0.69
			c-0.35-0.17-0.77-0.26-1.27-0.26c-0.64,0-1.16,0.17-1.56,0.52c-0.4,0.34-0.6,0.81-0.6,1.38c0,0.58,0.2,1.04,0.6,1.38
			c0.4,0.34,0.94,0.51,1.63,0.51C304.69,334.28,305.08,334.2,305.43,334.03z"/>
	</g>
	<g>
		<path d="M291.99,388.47c0.5,0.5,0.76,1.14,0.76,1.91c0,0.56-0.14,1.07-0.42,1.52s-0.7,0.81-1.25,1.08
			c-0.56,0.27-1.23,0.4-2.04,0.4c-0.7,0-1.37-0.11-2.02-0.31c-0.64-0.21-1.17-0.5-1.58-0.88l0.64-1.11
			c0.34,0.32,0.76,0.57,1.29,0.76c0.52,0.19,1.08,0.29,1.67,0.29c0.73,0,1.29-0.15,1.7-0.46s0.61-0.73,0.61-1.27
			c0-0.54-0.2-0.96-0.6-1.26s-1.01-0.45-1.82-0.45h-0.79v-0.98l2.46-3.02h-4.72v-1.22h6.47v0.95l-2.56,3.16
			C290.75,387.67,291.48,387.97,291.99,388.47z"/>
		<path d="M300.86,392.05v1.22h-7.04v-0.95l3.99-3.85c0.49-0.47,0.81-0.87,0.98-1.21c0.17-0.34,0.25-0.68,0.25-1.03
			c0-0.51-0.18-0.91-0.54-1.2s-0.88-0.43-1.55-0.43c-1.08,0-1.92,0.35-2.51,1.06l-0.95-0.83c0.38-0.47,0.88-0.83,1.5-1.09
			s1.31-0.39,2.08-0.39c1.03,0,1.84,0.24,2.45,0.73c0.61,0.49,0.91,1.16,0.91,2c0,0.52-0.11,1.02-0.34,1.48
			c-0.22,0.47-0.65,1-1.27,1.6l-3,2.88H300.86z"/>
		<path d="M303.91,392.78c-0.6-0.4-1.08-0.97-1.42-1.73c-0.34-0.76-0.52-1.65-0.52-2.69s0.17-1.93,0.52-2.69
			c0.35-0.76,0.82-1.33,1.42-1.73c0.6-0.4,1.29-0.59,2.06-0.59c0.77,0,1.45,0.2,2.05,0.59c0.6,0.4,1.08,0.97,1.42,1.73
			c0.34,0.76,0.52,1.65,0.52,2.69s-0.17,1.93-0.52,2.69c-0.35,0.76-0.82,1.33-1.42,1.73c-0.6,0.4-1.29,0.59-2.05,0.59
			C305.2,393.38,304.51,393.18,303.91,392.78z M307.86,391.17c0.47-0.64,0.71-1.58,0.71-2.8s-0.24-2.16-0.71-2.8
			c-0.47-0.64-1.1-0.96-1.88-0.96c-0.79,0-1.43,0.32-1.9,0.96c-0.47,0.64-0.71,1.58-0.71,2.8s0.24,2.16,0.71,2.8
			c0.47,0.64,1.1,0.97,1.9,0.97C306.76,392.13,307.38,391.81,307.86,391.17z"/>
	</g>
	<g>
		<path d="M294.04,442.47c0.5,0.5,0.76,1.14,0.76,1.91c0,0.56-0.14,1.07-0.42,1.52s-0.7,0.81-1.25,1.08
			c-0.56,0.27-1.23,0.4-2.04,0.4c-0.7,0-1.37-0.11-2.02-0.31c-0.64-0.21-1.17-0.5-1.58-0.88l0.64-1.11
			c0.34,0.32,0.77,0.57,1.29,0.76s1.08,0.29,1.67,0.29c0.73,0,1.29-0.15,1.7-0.46c0.41-0.31,0.61-0.73,0.61-1.27
			c0-0.54-0.2-0.96-0.6-1.26s-1.01-0.45-1.82-0.45h-0.78v-0.98l2.46-3.02h-4.72v-1.22h6.47v0.95l-2.56,3.16
			C292.81,441.67,293.54,441.97,294.04,442.47z"/>
		<path d="M302.92,446.05v1.22h-7.04v-0.95l3.99-3.85c0.48-0.47,0.81-0.87,0.98-1.21c0.17-0.34,0.25-0.68,0.25-1.03
			c0-0.51-0.18-0.91-0.54-1.2c-0.36-0.28-0.88-0.43-1.55-0.43c-1.08,0-1.92,0.35-2.51,1.06l-0.95-0.83
			c0.38-0.47,0.88-0.83,1.51-1.09c0.62-0.26,1.31-0.39,2.08-0.39c1.03,0,1.84,0.24,2.45,0.73s0.91,1.16,0.91,2
			c0,0.52-0.11,1.02-0.34,1.48c-0.22,0.47-0.65,1-1.27,1.6l-3,2.88H302.92z"/>
		<path d="M307.11,437.46v9.8h-1.39v-8.58h-2.21v-1.22H307.11z"/>
	</g>
	<g>
		<path d="M283.61,482.46v9.8h-1.4v-4.37h-5.63v4.37h-1.4v-9.8h1.4v4.21h5.63v-4.21H283.61z"/>
		<path d="M293.66,491.05v1.22h-7.11v-9.8h6.92v1.22h-5.52v3.01h4.91v1.19h-4.91v3.16H293.66z"/>
		<path d="M305.01,492.26l-0.01-7.14l-3.54,5.95h-0.64l-3.54-5.91v7.1h-1.34v-9.8h1.15l4.09,6.89l4.03-6.89h1.15l0.01,9.8H305.01z"
			/>
		<path d="M316.41,491.05v1.22h-7.11v-9.8h6.92v1.22h-5.52v3.01h4.91v1.19h-4.91v3.16H316.41z"/>
		<path d="M317.73,487.84h3.77V489h-3.77V487.84z"/>
		<path d="M276.28,507.26l-2.11-3.01c-0.26,0.02-0.47,0.03-0.62,0.03h-2.42v2.98h-1.4v-9.8h3.82c1.27,0,2.27,0.3,3,0.91
			c0.73,0.61,1.09,1.44,1.09,2.51c0,0.76-0.19,1.4-0.56,1.93c-0.37,0.53-0.91,0.92-1.6,1.16l2.32,3.29H276.28z M275.54,502.52
			c0.47-0.38,0.7-0.93,0.7-1.64s-0.23-1.25-0.7-1.63c-0.47-0.38-1.14-0.57-2.03-0.57h-2.38v4.41h2.38
			C274.39,503.09,275.07,502.9,275.54,502.52z"/>
		<path d="M281.66,506.73c-0.79-0.43-1.42-1.03-1.87-1.8c-0.45-0.76-0.68-1.62-0.68-2.56c0-0.94,0.23-1.8,0.68-2.56
			c0.45-0.77,1.08-1.37,1.87-1.8c0.79-0.43,1.68-0.65,2.67-0.65c0.98,0,1.87,0.22,2.66,0.65c0.79,0.43,1.41,1.03,1.86,1.79
			c0.45,0.76,0.67,1.62,0.67,2.57c0,0.95-0.22,1.81-0.67,2.57c-0.45,0.76-1.07,1.36-1.86,1.79c-0.79,0.43-1.68,0.65-2.66,0.65
			C283.34,507.38,282.45,507.16,281.66,506.73z M286.27,505.64c0.57-0.33,1.03-0.78,1.36-1.35c0.33-0.57,0.5-1.21,0.5-1.92
			c0-0.71-0.17-1.35-0.5-1.93s-0.78-1.02-1.36-1.35s-1.22-0.49-1.94-0.49s-1.37,0.16-1.95,0.49s-1.04,0.78-1.37,1.35
			c-0.33,0.57-0.5,1.22-0.5,1.93c0,0.71,0.17,1.35,0.5,1.92c0.33,0.57,0.79,1.03,1.37,1.35s1.23,0.49,1.95,0.49
			S285.69,505.97,286.27,505.64z"/>
		<path d="M293.47,498.68h-3.36v-1.22h8.11v1.22h-3.36v8.58h-1.39V498.68z"/>
		<path d="M306.85,506.05v1.22h-7.11v-9.8h6.92v1.22h-5.52v3.01h4.91v1.19h-4.91v3.16H306.85z"/>
		<path d="M310.81,506.73c-0.79-0.43-1.41-1.03-1.86-1.79c-0.45-0.76-0.67-1.62-0.67-2.57c0-0.95,0.22-1.81,0.67-2.57
			c0.45-0.76,1.07-1.36,1.86-1.79s1.68-0.65,2.66-0.65c0.77,0,1.46,0.13,2.1,0.39c0.63,0.26,1.18,0.64,1.63,1.14l-0.91,0.88
			c-0.74-0.77-1.66-1.16-2.76-1.16c-0.73,0-1.39,0.16-1.97,0.49s-1.05,0.78-1.38,1.35c-0.33,0.57-0.5,1.22-0.5,1.93
			c0,0.71,0.17,1.35,0.5,1.92c0.33,0.57,0.79,1.03,1.38,1.35s1.25,0.49,1.97,0.49c1.09,0,2.01-0.39,2.76-1.18l0.91,0.88
			c-0.45,0.5-0.99,0.89-1.63,1.15c-0.64,0.26-1.34,0.39-2.11,0.39C312.48,507.38,311.6,507.16,310.81,506.73z"/>
		<path d="M325.21,504.81H320l-1.08,2.45h-1.44l4.44-9.8h1.39l4.45,9.8h-1.47L325.21,504.81z M324.72,503.7l-2.11-4.8l-2.11,4.8
			H324.72z"/>
	</g>
	<g>
		<path d="M125.6,626.05v1.22h-7.11v-9.8h6.92v1.22h-5.52v3.01h4.91v1.19h-4.91v3.16H125.6z"/>
		<path d="M133.92,627.26l-2.94-4.05l-2.9,4.05h-1.61l3.68-5.03l-3.46-4.77h1.6l2.74,3.77l2.72-3.77h1.53l-3.46,4.73l3.71,5.07
			H133.92z"/>
		<path d="M148.89,623.04c0.33,0.42,0.49,0.94,0.49,1.58c0,0.85-0.32,1.5-0.96,1.96c-0.64,0.46-1.57,0.69-2.79,0.69h-4.68v-9.8h4.4
			c1.12,0,1.99,0.22,2.6,0.67c0.61,0.45,0.92,1.07,0.92,1.86c0,0.51-0.12,0.96-0.36,1.33c-0.24,0.37-0.56,0.66-0.96,0.85
			C148.11,622.34,148.56,622.63,148.89,623.04z M142.35,618.6v3.14h2.87c0.72,0,1.27-0.13,1.66-0.4s0.58-0.66,0.58-1.17
			c0-0.51-0.19-0.9-0.58-1.17c-0.39-0.27-0.94-0.4-1.66-0.4H142.35z M147.36,625.74c0.4-0.26,0.6-0.67,0.6-1.23
			c0-1.09-0.8-1.64-2.39-1.64h-3.22v3.26h3.22C146.36,626.13,146.96,626,147.36,625.74z"/>
		<path d="M151.55,617.46h1.4v9.8h-1.4V617.46z"/>
		<path d="M163.82,623.04c0.33,0.42,0.49,0.94,0.49,1.58c0,0.85-0.32,1.5-0.96,1.96c-0.64,0.46-1.57,0.69-2.79,0.69h-4.68v-9.8h4.4
			c1.12,0,1.99,0.22,2.6,0.67c0.61,0.45,0.92,1.07,0.92,1.86c0,0.51-0.12,0.96-0.36,1.33c-0.24,0.37-0.56,0.66-0.96,0.85
			C163.05,622.34,163.5,622.63,163.82,623.04z M157.29,618.6v3.14h2.87c0.72,0,1.27-0.13,1.66-0.4s0.58-0.66,0.58-1.17
			c0-0.51-0.19-0.9-0.58-1.17c-0.39-0.27-0.94-0.4-1.66-0.4H157.29z M162.3,625.74c0.4-0.26,0.6-0.67,0.6-1.23
			c0-1.09-0.8-1.64-2.39-1.64h-3.22v3.26h3.22C161.3,626.13,161.9,626,162.3,625.74z"/>
		<path d="M166.48,617.46h1.4v8.58h5.31v1.22h-6.71V617.46z"/>
		<path d="M174.8,617.46h1.4v9.8h-1.4V617.46z"/>
		<path d="M180.89,626.73c-0.79-0.43-1.42-1.03-1.87-1.8c-0.45-0.76-0.68-1.62-0.68-2.56c0-0.94,0.23-1.8,0.68-2.56
			c0.45-0.77,1.08-1.37,1.87-1.8c0.79-0.43,1.68-0.65,2.67-0.65c0.98,0,1.87,0.22,2.66,0.65c0.79,0.43,1.41,1.03,1.86,1.79
			c0.45,0.76,0.67,1.62,0.67,2.57c0,0.95-0.22,1.81-0.67,2.57s-1.07,1.36-1.86,1.79c-0.79,0.43-1.68,0.65-2.66,0.65
			C182.57,627.38,181.68,627.16,180.89,626.73z M185.5,625.64c0.57-0.33,1.03-0.78,1.36-1.35c0.33-0.57,0.5-1.21,0.5-1.92
			c0-0.71-0.17-1.35-0.5-1.93c-0.33-0.57-0.78-1.02-1.36-1.35s-1.22-0.49-1.94-0.49s-1.37,0.16-1.95,0.49
			c-0.58,0.33-1.04,0.78-1.37,1.35s-0.5,1.22-0.5,1.93c0,0.71,0.17,1.35,0.5,1.92c0.33,0.57,0.79,1.03,1.37,1.35
			c0.58,0.33,1.23,0.49,1.95,0.49S184.93,625.97,185.5,625.64z"/>
		<path d="M192.71,618.68h-3.36v-1.22h8.11v1.22h-3.36v8.58h-1.39V618.68z"/>
		<path d="M206.09,626.05v1.22h-7.11v-9.8h6.92v1.22h-5.52v3.01h4.91v1.19h-4.91v3.16H206.09z"/>
		<path d="M210.04,626.73c-0.79-0.43-1.41-1.03-1.86-1.79s-0.67-1.62-0.67-2.57c0-0.95,0.22-1.81,0.67-2.57
			c0.45-0.76,1.07-1.36,1.86-1.79c0.79-0.43,1.68-0.65,2.66-0.65c0.76,0,1.46,0.13,2.1,0.39c0.63,0.26,1.18,0.64,1.62,1.14
			l-0.91,0.88c-0.74-0.77-1.66-1.16-2.76-1.16c-0.73,0-1.39,0.16-1.97,0.49c-0.59,0.33-1.05,0.78-1.38,1.35
			c-0.33,0.57-0.5,1.22-0.5,1.93c0,0.71,0.17,1.35,0.5,1.92c0.33,0.57,0.79,1.03,1.38,1.35c0.59,0.33,1.25,0.49,1.97,0.49
			c1.09,0,2.01-0.39,2.76-1.18l0.91,0.88c-0.45,0.5-0.99,0.89-1.63,1.15c-0.64,0.26-1.34,0.39-2.11,0.39
			C211.72,627.38,210.83,627.16,210.04,626.73z"/>
		<path d="M224.44,624.81h-5.21l-1.08,2.45h-1.44l4.44-9.8h1.39l4.45,9.8h-1.47L224.44,624.81z M223.95,623.7l-2.11-4.8l-2.11,4.8
			H223.95z"/>
	</g>
	<g>
		<path d="M41.38,496.47c0.5,0.5,0.76,1.14,0.76,1.91c0,0.56-0.14,1.07-0.42,1.52s-0.7,0.81-1.25,1.08c-0.56,0.27-1.23,0.4-2.04,0.4
			c-0.7,0-1.37-0.11-2.02-0.31c-0.64-0.21-1.17-0.5-1.58-0.88l0.64-1.11c0.34,0.32,0.77,0.57,1.29,0.76
			c0.52,0.19,1.08,0.29,1.67,0.29c0.73,0,1.29-0.15,1.7-0.46c0.41-0.31,0.61-0.73,0.61-1.27c0-0.54-0.2-0.96-0.6-1.26
			s-1.01-0.45-1.82-0.45h-0.78v-0.98l2.46-3.02h-4.72v-1.22h6.47v0.95l-2.56,3.16C40.14,495.67,40.88,495.97,41.38,496.47z"/>
		<path d="M45.38,500.78c-0.6-0.4-1.08-0.97-1.42-1.73s-0.52-1.65-0.52-2.69s0.17-1.93,0.52-2.69c0.35-0.76,0.82-1.33,1.42-1.73
			s1.29-0.59,2.06-0.59c0.77,0,1.45,0.2,2.05,0.59s1.08,0.97,1.42,1.73c0.35,0.76,0.52,1.65,0.52,2.69s-0.17,1.93-0.52,2.69
			s-0.82,1.33-1.42,1.73s-1.29,0.59-2.05,0.59C46.67,501.38,45.98,501.18,45.38,500.78z M49.33,499.17c0.47-0.64,0.71-1.58,0.71-2.8
			s-0.24-2.16-0.71-2.8c-0.47-0.64-1.1-0.96-1.88-0.96c-0.79,0-1.43,0.32-1.9,0.96c-0.47,0.64-0.71,1.58-0.71,2.8
			s0.24,2.16,0.71,2.8s1.1,0.97,1.9,0.97C48.23,500.13,48.85,499.81,49.33,499.17z"/>
		<path d="M55.77,491.46v9.8h-1.39v-8.58h-2.21v-1.22H55.77z"/>
	</g>
	<g>
		<path d="M25.18,546.23c-0.79-0.43-1.41-1.03-1.85-1.79c-0.45-0.76-0.67-1.62-0.67-2.57c0-0.95,0.22-1.81,0.67-2.57
			c0.45-0.76,1.07-1.36,1.86-1.79c0.79-0.43,1.68-0.65,2.66-0.65c0.77,0,1.46,0.13,2.1,0.39c0.63,0.26,1.18,0.64,1.62,1.14
			l-0.91,0.88c-0.74-0.77-1.66-1.16-2.76-1.16c-0.73,0-1.39,0.16-1.97,0.49c-0.59,0.33-1.05,0.78-1.38,1.35
			c-0.33,0.57-0.5,1.22-0.5,1.93c0,0.71,0.17,1.35,0.5,1.92c0.33,0.57,0.79,1.03,1.38,1.35c0.59,0.33,1.25,0.49,1.97,0.49
			c1.09,0,2.01-0.39,2.76-1.18l0.91,0.88c-0.45,0.5-0.99,0.89-1.63,1.15c-0.64,0.26-1.34,0.39-2.11,0.39
			C26.86,546.88,25.97,546.66,25.18,546.23z"/>
		<path d="M33.58,536.96h1.4v9.8h-1.4V536.96z"/>
		<path d="M46.34,536.96v9.8H45.2l-5.88-7.31v7.31h-1.4v-9.8h1.15l5.88,7.31v-7.31H46.34z"/>
		<path d="M56.4,545.55v1.22h-7.11v-9.8h6.92v1.22h-5.52v3.01h4.91v1.19h-4.91v3.16H56.4z"/>
		<path d="M66.18,543.38v3.39H64.8v-3.42l-3.89-6.38h1.5l3.14,5.17l3.15-5.17h1.39L66.18,543.38z"/>
		<path d="M32.6,551.96l-4.3,9.8h-1.39l-4.31-9.8h1.51l3.53,8.05l3.56-8.05H32.6z"/>
		<path d="M33.85,551.96h1.4v9.8h-1.4V551.96z"/>
		<path d="M38.19,551.96h4.13c1.04,0,1.96,0.21,2.76,0.62c0.8,0.41,1.43,0.99,1.87,1.73c0.44,0.74,0.67,1.59,0.67,2.56
			c0,0.96-0.22,1.81-0.67,2.55s-1.07,1.32-1.87,1.73c-0.8,0.41-1.72,0.62-2.76,0.62h-4.13V551.96z M42.23,560.55
			c0.79,0,1.49-0.15,2.09-0.46c0.6-0.31,1.07-0.74,1.39-1.29c0.33-0.55,0.49-1.2,0.49-1.92c0-0.73-0.16-1.37-0.49-1.93
			c-0.33-0.55-0.79-0.99-1.39-1.29s-1.3-0.46-2.09-0.46h-2.65v7.36H42.23z"/>
		<path d="M56.86,560.55v1.22h-7.11v-9.8h6.92v1.22h-5.52v3.01h4.91v1.19h-4.91v3.16H56.86z"/>
		<path d="M60.84,561.23c-0.79-0.43-1.42-1.03-1.87-1.8c-0.45-0.76-0.68-1.62-0.68-2.56c0-0.94,0.23-1.8,0.68-2.56
			c0.45-0.77,1.08-1.37,1.87-1.8c0.79-0.43,1.68-0.65,2.67-0.65c0.98,0,1.87,0.22,2.66,0.65c0.79,0.43,1.41,1.03,1.86,1.79
			c0.45,0.76,0.67,1.62,0.67,2.57c0,0.95-0.22,1.81-0.67,2.57c-0.45,0.76-1.07,1.36-1.86,1.79c-0.79,0.43-1.68,0.65-2.66,0.65
			C62.52,561.88,61.63,561.66,60.84,561.23z M65.45,560.14c0.57-0.33,1.03-0.78,1.36-1.35c0.33-0.57,0.5-1.21,0.5-1.92
			c0-0.71-0.17-1.35-0.5-1.93c-0.33-0.57-0.78-1.02-1.36-1.35s-1.22-0.49-1.94-0.49s-1.37,0.16-1.95,0.49s-1.04,0.78-1.37,1.35
			c-0.33,0.57-0.5,1.22-0.5,1.93c0,0.71,0.17,1.35,0.5,1.92c0.33,0.57,0.79,1.03,1.37,1.35s1.23,0.49,1.95,0.49
			S64.88,560.47,65.45,560.14z"/>
	</g>
	<g>
		<path d="M166.62,496.47c0.5,0.5,0.76,1.14,0.76,1.91c0,0.56-0.14,1.07-0.42,1.52s-0.7,0.81-1.25,1.08
			c-0.56,0.27-1.23,0.4-2.04,0.4c-0.7,0-1.37-0.11-2.02-0.31c-0.64-0.21-1.17-0.5-1.58-0.88l0.64-1.11
			c0.34,0.32,0.77,0.57,1.29,0.76c0.52,0.19,1.08,0.29,1.67,0.29c0.73,0,1.29-0.15,1.7-0.46c0.41-0.31,0.61-0.73,0.61-1.27
			c0-0.54-0.2-0.96-0.6-1.26s-1.01-0.45-1.82-0.45h-0.78v-0.98l2.46-3.02h-4.72v-1.22h6.47v0.95l-2.56,3.16
			C165.38,495.67,166.11,495.97,166.62,496.47z"/>
		<path d="M175.49,500.05v1.22h-7.04v-0.95l3.99-3.85c0.49-0.47,0.81-0.87,0.98-1.21c0.17-0.34,0.25-0.68,0.25-1.03
			c0-0.51-0.18-0.91-0.54-1.2c-0.36-0.28-0.88-0.43-1.55-0.43c-1.08,0-1.92,0.35-2.51,1.06l-0.95-0.83
			c0.38-0.47,0.88-0.83,1.51-1.09c0.62-0.26,1.31-0.39,2.08-0.39c1.03,0,1.84,0.24,2.45,0.73s0.91,1.16,0.91,2
			c0,0.52-0.11,1.02-0.34,1.48c-0.22,0.47-0.65,1-1.27,1.6l-3,2.88H175.49z"/>
		<path d="M183.53,500.05v1.22h-7.04v-0.95l3.99-3.85c0.49-0.47,0.81-0.87,0.98-1.21c0.17-0.34,0.25-0.68,0.25-1.03
			c0-0.51-0.18-0.91-0.54-1.2s-0.88-0.43-1.55-0.43c-1.08,0-1.92,0.35-2.51,1.06l-0.95-0.83c0.38-0.47,0.88-0.83,1.51-1.09
			s1.31-0.39,2.08-0.39c1.03,0,1.84,0.24,2.45,0.73c0.61,0.49,0.91,1.16,0.91,2c0,0.52-0.11,1.02-0.34,1.48
			c-0.22,0.47-0.65,1-1.28,1.6l-3,2.88H183.53z"/>
	</g>
	<g>
		<path d="M39.95,442.47c0.5,0.5,0.76,1.14,0.76,1.91c0,0.56-0.14,1.07-0.42,1.52s-0.7,0.81-1.25,1.08c-0.56,0.27-1.23,0.4-2.04,0.4
			c-0.7,0-1.37-0.11-2.02-0.31c-0.64-0.21-1.17-0.5-1.58-0.88l0.64-1.11c0.34,0.32,0.77,0.57,1.29,0.76
			c0.52,0.19,1.08,0.29,1.67,0.29c0.73,0,1.29-0.15,1.7-0.46c0.41-0.31,0.61-0.73,0.61-1.27c0-0.54-0.2-0.96-0.6-1.26
			s-1.01-0.45-1.82-0.45H36.1v-0.98l2.46-3.02h-4.72v-1.22h6.47v0.95l-2.56,3.16C38.72,441.67,39.45,441.97,39.95,442.47z"/>
		<path d="M43.95,446.78c-0.6-0.4-1.08-0.97-1.42-1.73s-0.52-1.65-0.52-2.69s0.17-1.93,0.52-2.69c0.35-0.76,0.82-1.33,1.42-1.73
			s1.29-0.59,2.06-0.59c0.77,0,1.45,0.2,2.05,0.59s1.08,0.97,1.42,1.73c0.35,0.76,0.52,1.65,0.52,2.69s-0.17,1.93-0.52,2.69
			s-0.82,1.33-1.42,1.73s-1.29,0.59-2.05,0.59C45.24,447.38,44.55,447.18,43.95,446.78z M47.9,445.17c0.47-0.64,0.71-1.58,0.71-2.8
			s-0.24-2.16-0.71-2.8c-0.47-0.64-1.1-0.96-1.88-0.96c-0.79,0-1.43,0.32-1.9,0.96c-0.47,0.64-0.71,1.58-0.71,2.8
			s0.24,2.16,0.71,2.8s1.1,0.97,1.9,0.97C46.8,446.13,47.43,445.81,47.9,445.17z"/>
		<path d="M58.19,446.05v1.22h-7.04v-0.95l3.99-3.85c0.49-0.47,0.81-0.87,0.98-1.21c0.17-0.34,0.25-0.68,0.25-1.03
			c0-0.51-0.18-0.91-0.54-1.2c-0.36-0.28-0.88-0.43-1.55-0.43c-1.08,0-1.92,0.35-2.51,1.06l-0.95-0.83
			c0.38-0.47,0.88-0.83,1.51-1.09c0.62-0.26,1.31-0.39,2.08-0.39c1.03,0,1.84,0.24,2.45,0.73c0.61,0.49,0.91,1.16,0.91,2
			c0,0.52-0.11,1.02-0.34,1.48c-0.22,0.47-0.65,1-1.27,1.6l-3,2.88H58.19z"/>
	</g>
	<g>
		<path d="M40.02,388.47c0.5,0.5,0.76,1.14,0.76,1.91c0,0.56-0.14,1.07-0.42,1.52s-0.7,0.81-1.25,1.08c-0.56,0.27-1.23,0.4-2.04,0.4
			c-0.7,0-1.37-0.11-2.02-0.31c-0.64-0.21-1.17-0.5-1.58-0.88l0.64-1.11c0.34,0.32,0.77,0.57,1.29,0.76
			c0.52,0.19,1.08,0.29,1.67,0.29c0.73,0,1.29-0.15,1.7-0.46c0.41-0.31,0.61-0.73,0.61-1.27c0-0.54-0.2-0.96-0.6-1.26
			s-1.01-0.45-1.82-0.45h-0.78v-0.98l2.46-3.02h-4.72v-1.22h6.47v0.95l-2.56,3.16C38.78,387.67,39.51,387.97,40.02,388.47z"/>
		<path d="M44.01,392.78c-0.6-0.4-1.08-0.97-1.42-1.73s-0.52-1.65-0.52-2.69s0.17-1.93,0.52-2.69c0.35-0.76,0.82-1.33,1.42-1.73
			s1.29-0.59,2.06-0.59c0.77,0,1.45,0.2,2.05,0.59s1.08,0.97,1.42,1.73c0.35,0.76,0.52,1.65,0.52,2.69s-0.17,1.93-0.52,2.69
			s-0.82,1.33-1.42,1.73s-1.29,0.59-2.05,0.59C45.3,393.38,44.61,393.18,44.01,392.78z M47.96,391.17c0.47-0.64,0.71-1.58,0.71-2.8
			s-0.24-2.16-0.71-2.8c-0.47-0.64-1.1-0.96-1.88-0.96c-0.79,0-1.43,0.32-1.9,0.96c-0.47,0.64-0.71,1.58-0.71,2.8
			s0.24,2.16,0.71,2.8s1.1,0.97,1.9,0.97C46.86,392.13,47.49,391.81,47.96,391.17z"/>
		<path d="M57.22,388.47c0.5,0.5,0.76,1.14,0.76,1.91c0,0.56-0.14,1.07-0.42,1.52s-0.7,0.81-1.25,1.08c-0.56,0.27-1.23,0.4-2.04,0.4
			c-0.7,0-1.37-0.11-2.02-0.31c-0.64-0.21-1.17-0.5-1.58-0.88l0.64-1.11c0.34,0.32,0.77,0.57,1.29,0.76
			c0.52,0.19,1.08,0.29,1.67,0.29c0.73,0,1.29-0.15,1.7-0.46c0.41-0.31,0.61-0.73,0.61-1.27c0-0.54-0.2-0.96-0.6-1.26
			s-1.01-0.45-1.82-0.45h-0.78v-0.98l2.46-3.02h-4.72v-1.22h6.47v0.95l-2.56,3.16C55.98,387.67,56.72,387.97,57.22,388.47z"/>
	</g>
	<g>
		<path d="M39.27,334.47c0.5,0.5,0.76,1.14,0.76,1.91c0,0.56-0.14,1.07-0.42,1.52s-0.7,0.81-1.25,1.08c-0.56,0.27-1.23,0.4-2.04,0.4
			c-0.7,0-1.37-0.11-2.02-0.31c-0.64-0.21-1.17-0.5-1.58-0.88l0.64-1.11c0.34,0.32,0.77,0.57,1.29,0.76
			c0.52,0.19,1.08,0.29,1.67,0.29c0.73,0,1.29-0.15,1.7-0.46c0.41-0.31,0.61-0.73,0.61-1.27c0-0.54-0.2-0.96-0.6-1.26
			s-1.01-0.45-1.82-0.45h-0.78v-0.98l2.46-3.02h-4.72v-1.22h6.47v0.95l-2.56,3.16C38.03,333.67,38.76,333.97,39.27,334.47z"/>
		<path d="M43.26,338.78c-0.6-0.4-1.08-0.97-1.42-1.73s-0.52-1.65-0.52-2.69s0.17-1.93,0.52-2.69c0.35-0.76,0.82-1.33,1.42-1.73
			s1.29-0.59,2.06-0.59c0.77,0,1.45,0.2,2.05,0.59s1.08,0.97,1.42,1.73c0.35,0.76,0.52,1.65,0.52,2.69s-0.17,1.93-0.52,2.69
			s-0.82,1.33-1.42,1.73s-1.29,0.59-2.05,0.59C44.55,339.38,43.86,339.18,43.26,338.78z M47.21,337.17c0.47-0.64,0.71-1.58,0.71-2.8
			s-0.24-2.16-0.71-2.8c-0.47-0.64-1.1-0.96-1.88-0.96c-0.79,0-1.43,0.32-1.9,0.96c-0.47,0.64-0.71,1.58-0.71,2.8
			s0.24,2.16,0.71,2.8s1.1,0.97,1.9,0.97C46.11,338.13,46.74,337.81,47.21,337.17z"/>
		<path d="M59.19,336.86h-1.86v2.41h-1.36v-2.41h-5.45v-0.98l5.01-6.41h1.51l-4.8,6.19h3.77v-2.13h1.32v2.13h1.86V336.86z"/>
	</g>
	<g>
		<path d="M39.93,280.47c0.5,0.5,0.76,1.14,0.76,1.91c0,0.56-0.14,1.07-0.42,1.52s-0.7,0.81-1.25,1.08c-0.56,0.27-1.23,0.4-2.04,0.4
			c-0.7,0-1.37-0.11-2.02-0.31c-0.64-0.21-1.17-0.5-1.58-0.88l0.64-1.11c0.34,0.32,0.77,0.57,1.29,0.76
			c0.52,0.19,1.08,0.29,1.67,0.29c0.73,0,1.29-0.15,1.7-0.46c0.41-0.31,0.61-0.73,0.61-1.27c0-0.54-0.2-0.96-0.6-1.26
			s-1.01-0.45-1.82-0.45h-0.78v-0.98l2.46-3.02h-4.72v-1.22h6.47v0.95l-2.56,3.16C38.69,279.67,39.43,279.97,39.93,280.47z"/>
		<path d="M43.93,284.78c-0.6-0.4-1.08-0.97-1.42-1.73s-0.52-1.65-0.52-2.69s0.17-1.93,0.52-2.69c0.35-0.76,0.82-1.33,1.42-1.73
			s1.29-0.59,2.06-0.59c0.77,0,1.45,0.2,2.05,0.59s1.08,0.97,1.42,1.73c0.35,0.76,0.52,1.65,0.52,2.69s-0.17,1.93-0.52,2.69
			s-0.82,1.33-1.42,1.73s-1.29,0.59-2.05,0.59C45.22,285.38,44.53,285.18,43.93,284.78z M47.88,283.17c0.47-0.64,0.71-1.58,0.71-2.8
			s-0.24-2.16-0.71-2.8c-0.47-0.64-1.1-0.96-1.88-0.96c-0.79,0-1.43,0.32-1.9,0.96c-0.47,0.64-0.71,1.58-0.71,2.8
			s0.24,2.16,0.71,2.8s1.1,0.97,1.9,0.97C46.78,284.13,47.4,283.81,47.88,283.17z"/>
		<path d="M57.21,280.16c0.66,0.53,0.99,1.25,0.99,2.16c0,0.58-0.14,1.1-0.41,1.56c-0.28,0.46-0.69,0.83-1.25,1.09
			c-0.56,0.27-1.24,0.4-2.05,0.4c-0.69,0-1.36-0.11-2-0.31c-0.64-0.21-1.18-0.5-1.6-0.88l0.64-1.11c0.34,0.32,0.77,0.57,1.29,0.76
			c0.52,0.19,1.07,0.29,1.65,0.29c0.74,0,1.31-0.16,1.72-0.47c0.41-0.31,0.61-0.74,0.61-1.28c0-0.59-0.22-1.03-0.67-1.34
			c-0.45-0.3-1.21-0.45-2.3-0.45h-2.23l0.52-5.13h5.53v1.22H53.3l-0.27,2.69h1.09C55.53,279.37,56.56,279.63,57.21,280.16z"/>
	</g>
	<g>
		<path d="M39.63,226.47c0.5,0.5,0.76,1.14,0.76,1.91c0,0.56-0.14,1.07-0.42,1.52s-0.7,0.81-1.25,1.08c-0.56,0.27-1.23,0.4-2.04,0.4
			c-0.7,0-1.37-0.11-2.02-0.31c-0.64-0.21-1.17-0.5-1.58-0.88l0.64-1.11c0.34,0.32,0.77,0.57,1.29,0.76
			c0.52,0.19,1.08,0.29,1.67,0.29c0.73,0,1.29-0.15,1.7-0.46c0.41-0.31,0.61-0.73,0.61-1.27c0-0.54-0.2-0.96-0.6-1.26
			s-1.01-0.45-1.82-0.45h-0.78v-0.98l2.46-3.02h-4.72v-1.22h6.47v0.95l-2.56,3.16C38.39,225.67,39.13,225.97,39.63,226.47z"/>
		<path d="M43.63,230.78c-0.6-0.4-1.08-0.97-1.42-1.73s-0.52-1.65-0.52-2.69s0.17-1.93,0.52-2.69c0.35-0.76,0.82-1.33,1.42-1.73
			s1.29-0.59,2.06-0.59c0.77,0,1.45,0.2,2.05,0.59s1.08,0.97,1.42,1.73c0.35,0.76,0.52,1.65,0.52,2.69s-0.17,1.93-0.52,2.69
			s-0.82,1.33-1.42,1.73s-1.29,0.59-2.05,0.59C44.92,231.38,44.23,231.18,43.63,230.78z M47.58,229.17c0.47-0.64,0.71-1.58,0.71-2.8
			s-0.24-2.16-0.71-2.8c-0.47-0.64-1.1-0.96-1.88-0.96c-0.79,0-1.43,0.32-1.9,0.96c-0.47,0.64-0.71,1.58-0.71,2.8
			s0.24,2.16,0.71,2.8s1.1,0.97,1.9,0.97C46.48,230.13,47.1,229.81,47.58,229.17z"/>
		<path d="M56.98,225.68c0.51,0.24,0.91,0.59,1.2,1.04c0.29,0.45,0.43,0.97,0.43,1.56c0,0.62-0.15,1.16-0.45,1.62
			c-0.3,0.47-0.72,0.83-1.25,1.08s-1.12,0.38-1.77,0.38c-1.32,0-2.33-0.42-3.04-1.27c-0.71-0.85-1.07-2.05-1.07-3.61
			c0-1.09,0.19-2.02,0.58-2.79s0.93-1.35,1.62-1.75s1.5-0.59,2.43-0.59c0.48,0,0.92,0.05,1.34,0.15s0.78,0.24,1.09,0.43l-0.53,1.09
			c-0.47-0.31-1.09-0.46-1.88-0.46c-1.02,0-1.82,0.32-2.39,0.95c-0.58,0.63-0.87,1.55-0.87,2.75c0,0.15,0,0.27,0.01,0.35
			c0.28-0.42,0.67-0.74,1.16-0.96c0.49-0.22,1.04-0.33,1.66-0.33C55.9,225.31,56.47,225.44,56.98,225.68z M56.65,229.72
			c0.4-0.34,0.6-0.81,0.6-1.38c0-0.58-0.2-1.04-0.61-1.38c-0.41-0.34-0.95-0.51-1.63-0.51c-0.44,0-0.83,0.08-1.17,0.25
			c-0.34,0.17-0.61,0.4-0.8,0.69c-0.19,0.29-0.29,0.61-0.29,0.97c0,0.35,0.09,0.66,0.27,0.95c0.18,0.28,0.45,0.51,0.8,0.69
			c0.35,0.17,0.77,0.26,1.25,0.26C55.73,230.24,56.25,230.07,56.65,229.72z"/>
	</g>
	<g>
		<path d="M39.81,172.47c0.5,0.5,0.76,1.14,0.76,1.91c0,0.56-0.14,1.07-0.42,1.52s-0.7,0.81-1.25,1.08c-0.56,0.27-1.23,0.4-2.04,0.4
			c-0.7,0-1.37-0.11-2.02-0.31c-0.64-0.21-1.17-0.5-1.58-0.88l0.64-1.11c0.34,0.32,0.77,0.57,1.29,0.76
			c0.52,0.19,1.08,0.29,1.67,0.29c0.73,0,1.29-0.15,1.7-0.46c0.41-0.31,0.61-0.73,0.61-1.27c0-0.54-0.2-0.96-0.6-1.26
			s-1.01-0.45-1.82-0.45h-0.78v-0.98l2.46-3.02h-4.72v-1.22h6.47v0.95l-2.56,3.16C38.58,171.67,39.31,171.97,39.81,172.47z"/>
		<path d="M43.81,176.78c-0.6-0.4-1.08-0.97-1.42-1.73s-0.52-1.65-0.52-2.69s0.17-1.93,0.52-2.69c0.35-0.76,0.82-1.33,1.42-1.73
			s1.29-0.59,2.06-0.59c0.77,0,1.45,0.2,2.05,0.59s1.08,0.97,1.42,1.73c0.35,0.76,0.52,1.65,0.52,2.69s-0.17,1.93-0.52,2.69
			s-0.82,1.33-1.42,1.73s-1.29,0.59-2.05,0.59C45.1,177.38,44.41,177.18,43.81,176.78z M47.76,175.17c0.47-0.64,0.71-1.58,0.71-2.8
			s-0.24-2.16-0.71-2.8c-0.47-0.64-1.1-0.96-1.88-0.96c-0.79,0-1.43,0.32-1.9,0.96c-0.47,0.64-0.71,1.58-0.71,2.8
			s0.24,2.16,0.71,2.8s1.1,0.97,1.9,0.97C46.66,176.13,47.29,175.81,47.76,175.17z"/>
		<path d="M58.25,167.46v0.95l-3.96,8.85H52.8l3.88-8.58H52.2v1.75h-1.34v-2.97H58.25z"/>
	</g>
	<g>
		<path d="M39.44,118.47c0.5,0.5,0.76,1.14,0.76,1.91c0,0.56-0.14,1.07-0.42,1.52s-0.7,0.81-1.25,1.08c-0.56,0.27-1.23,0.4-2.04,0.4
			c-0.7,0-1.37-0.11-2.02-0.31c-0.64-0.21-1.17-0.5-1.58-0.88l0.64-1.11c0.34,0.32,0.77,0.57,1.29,0.76
			c0.52,0.19,1.08,0.29,1.67,0.29c0.73,0,1.29-0.15,1.7-0.46c0.41-0.31,0.61-0.73,0.61-1.27c0-0.54-0.2-0.96-0.6-1.26
			s-1.01-0.45-1.82-0.45h-0.78v-0.98l2.46-3.02h-4.72v-1.22h6.47v0.95l-2.56,3.16C38.2,117.67,38.94,117.97,39.44,118.47z"/>
		<path d="M43.44,122.78c-0.6-0.4-1.08-0.97-1.42-1.73s-0.52-1.65-0.52-2.69s0.17-1.93,0.52-2.69c0.35-0.76,0.82-1.33,1.42-1.73
			s1.29-0.59,2.06-0.59c0.77,0,1.45,0.2,2.05,0.59s1.08,0.97,1.42,1.73c0.35,0.76,0.52,1.65,0.52,2.69s-0.17,1.93-0.52,2.69
			s-0.82,1.33-1.42,1.73s-1.29,0.59-2.05,0.59C44.73,123.38,44.04,123.18,43.44,122.78z M47.39,121.17c0.47-0.64,0.71-1.58,0.71-2.8
			s-0.24-2.16-0.71-2.8c-0.47-0.64-1.1-0.96-1.88-0.96c-0.79,0-1.43,0.32-1.9,0.96c-0.47,0.64-0.71,1.58-0.71,2.8
			s0.24,2.16,0.71,2.8s1.1,0.97,1.9,0.97C46.29,122.13,46.91,121.81,47.39,121.17z"/>
		<path d="M58.12,119.05c0.3,0.4,0.45,0.88,0.45,1.44c0,0.59-0.16,1.1-0.48,1.53c-0.32,0.43-0.77,0.77-1.36,1s-1.28,0.35-2.07,0.35
			c-0.78,0-1.47-0.12-2.05-0.35s-1.03-0.57-1.35-1c-0.32-0.43-0.48-0.95-0.48-1.53c0-0.56,0.15-1.04,0.44-1.44
			c0.29-0.4,0.72-0.71,1.28-0.92c-0.45-0.21-0.79-0.5-1.02-0.85c-0.23-0.36-0.35-0.78-0.35-1.26c0-0.54,0.15-1.01,0.44-1.41
			c0.29-0.4,0.71-0.71,1.24-0.92s1.15-0.32,1.85-0.32c0.71,0,1.33,0.11,1.87,0.32s0.95,0.52,1.25,0.92c0.29,0.4,0.44,0.87,0.44,1.41
			c0,0.48-0.12,0.89-0.36,1.25c-0.24,0.36-0.58,0.65-1.03,0.86C57.39,118.34,57.82,118.65,58.12,119.05z M56.49,121.76
			c0.45-0.32,0.67-0.76,0.67-1.31c0-0.54-0.22-0.97-0.67-1.28c-0.45-0.31-1.06-0.47-1.83-0.47c-0.77,0-1.38,0.16-1.82,0.47
			c-0.44,0.31-0.66,0.74-0.66,1.28c0,0.55,0.22,0.99,0.66,1.31c0.44,0.32,1.05,0.48,1.82,0.48
			C55.43,122.24,56.04,122.08,56.49,121.76z M53.09,114.91c-0.38,0.29-0.57,0.67-0.57,1.16s0.19,0.87,0.57,1.15
			c0.38,0.28,0.9,0.42,1.58,0.42c0.68,0,1.22-0.14,1.6-0.42c0.39-0.28,0.58-0.66,0.58-1.15s-0.2-0.87-0.6-1.16
			c-0.4-0.29-0.93-0.43-1.59-0.43C54,114.49,53.47,114.63,53.09,114.91z"/>
	</g>
	<g>
		<path class="st5" d="M109.5,199h35v-46c0-4.42-3.58-8-8-8h-27"/>
		<path class="st0" d="M145,199.5h-35.5v-1H144V153c0-4.14-3.36-7.5-7.5-7.5h-27v-1h27c4.69,0,8.5,3.81,8.5,8.5V199.5z"/>
	</g>
	<g>
		<path class="st5" d="M234.5,199h-35v-46c0-4.42,3.58-8,8-8h27"/>
		<path class="st0" d="M234.5,199.5H199V153c0-4.69,3.81-8.5,8.5-8.5h27v1h-27c-4.14,0-7.5,3.36-7.5,7.5v45.5h34.5V199.5z"/>
	</g>
	<g>
		<path class="st5" d="M235,469h-35.5v46c0,4.42,3.63,8,8.11,8H235"/>
		<path class="st0" d="M235,523.5h-27.39c-4.75,0-8.61-3.81-8.61-8.5v-46.5h36v1h-35V515c0,4.14,3.42,7.5,7.61,7.5H235V523.5z"/>
	</g>
	<g>
		<path class="st5" d="M109.5,469h35v46c0,4.42-3.58,8-8,8h-27"/>
		<path class="st0" d="M136.5,523.5h-27v-1h27c4.14,0,7.5-3.36,7.5-7.5v-45.5h-34.5v-1H145V515C145,519.69,141.19,523.5,136.5,523.5
			z"/>
	</g>
	<g>
		<rect x="109" y="198.5" class="st0" width="126" height="1"/>
	</g>
	<g>
		<rect x="109" y="468.5" class="st0" width="126" height="1"/>
	</g>
	<g>
		<rect x="199" y="199" class="st0" width="1" height="18"/>
	</g>
	<g>
		<rect x="144" y="199" class="st0" width="1" height="18"/>
	</g>
	<g>
		<rect x="163.03" y="199" class="st0" width="1" height="18.5"/>
	</g>
	<g>
		<rect x="181.03" y="199" class="st0" width="1" height="18.5"/>
	</g>
	<g>
		<rect x="199" y="451" class="st0" width="1" height="18"/>
	</g>
	<g>
		<rect x="144" y="451" class="st0" width="1" height="18"/>
	</g>
	<g>
		<rect x="163.03" y="451" class="st0" width="1" height="18.5"/>
	</g>
	<g>
		<rect x="181.03" y="451" class="st0" width="1" height="18.5"/>
	</g>
	<g>
		<rect x="109" y="396.5" class="st0" width="0.5" height="1"/>
	</g>
	<g>
		<path class="st0" d="M227.5,559.5h-110c-4.69,0-8.5-3.81-8.5-8.5v-92c0-4.69,3.81-8.5,8.5-8.5h110c4.69,0,8.5,3.81,8.5,8.5v92
			C236,555.69,232.19,559.5,227.5,559.5z M117.5,451.5c-4.14,0-7.5,3.36-7.5,7.5v92c0,4.14,3.36,7.5,7.5,7.5h110
			c4.14,0,7.5-3.36,7.5-7.5v-92c0-4.14-3.36-7.5-7.5-7.5H117.5z"/>
	</g>
	<g>
		<path class="st0" d="M227,218H117c-4.69,0-8.5-3.81-8.5-8.5v-92c0-4.69,3.81-8.5,8.5-8.5h110c4.69,0,8.5,3.81,8.5,8.5v92
			C235.5,214.19,231.69,218,227,218z M117,110c-4.14,0-7.5,3.36-7.5,7.5v92c0,4.14,3.36,7.5,7.5,7.5h110c4.14,0,7.5-3.36,7.5-7.5
			v-92c0-4.14-3.36-7.5-7.5-7.5H117z"/>
	</g>
	<g>
		<rect x="199" y="37" width="0.5" height="1"/>
	</g>
	<g>
		<rect x="144" y="30" width="0.5" height="1"/>
	</g>
	<g>
		<rect x="144" y="59" width="0.5" height="1"/>
	</g>
	<g>
		<g>
			<g>
				<g>
					<rect x="116.35" y="170.21" class="st1" width="13.98" height="11.55"/>
				</g>
				<g>
					<path class="st8" d="M130.53,181.95h-14.37v-11.94h14.37V181.95z M116.55,181.55h13.58V170.4h-13.58V181.55z"/>
				</g>
			</g>
			<g>
				<g>
					<path class="st1" d="M133.72,161.25c-0.09,0-0.18,0.01-0.26,0.03h-14.35v14.84c2.56,0,5.13,0.01,7.69,0.02
						c1.29,0.01,2.6,0.01,3.89,0.06c1.08,0.04,2.17,0.05,3.22-0.23c0.93-0.25,1.64-0.95,2.05-1.81c0.61-1.28,0.76-2.76,0.82-4.16
						c0.02-0.43,0.02-0.87,0.02-1.3C136.8,164.58,135.42,161.25,133.72,161.25z"/>
				</g>
				<g>
					<path class="st8" d="M131.64,176.42c-0.31,0-0.63-0.01-0.96-0.02c-1.23-0.05-2.48-0.06-3.7-0.06l-0.18,0
						c-2.47-0.01-5.1-0.02-7.69-0.02h-0.2v-15.23h14.52c0.08-0.02,0.18-0.03,0.28-0.03c1.84,0,3.28,3.36,3.28,7.65
						c0,0.52-0.01,0.93-0.02,1.31c-0.05,1.34-0.2,2.9-0.84,4.24c-0.47,0.97-1.26,1.67-2.18,1.91
						C133.22,176.36,132.47,176.42,131.64,176.42z M119.31,175.92c2.52,0,5.08,0.01,7.49,0.02l0.18,0c1.22,0,2.48,0.01,3.71,0.06
						c1.2,0.05,2.2,0.03,3.16-0.22c0.81-0.21,1.51-0.83,1.92-1.7c0.61-1.28,0.75-2.78,0.8-4.08c0.02-0.38,0.02-0.78,0.02-1.3
						c0-3.93-1.32-7.25-2.88-7.25c-0.08,0-0.16,0.01-0.23,0.03l-0.04,0h-14.15V175.92z"/>
				</g>
			</g>
			<g>
				<g>
					<g>
						<ellipse class="st9" cx="119.28" cy="168.7" rx="3.08" ry="7.45"/>
					</g>
				</g>
				<g>
					<g>
						<path d="M119.28,176.35c-1.84,0-3.28-3.36-3.28-7.65s1.44-7.65,3.28-7.65c1.84,0,3.28,3.36,3.28,7.65
							S121.11,176.35,119.28,176.35z M119.28,161.45c-1.56,0-2.88,3.32-2.88,7.25s1.32,7.25,2.88,7.25s2.88-3.32,2.88-7.25
							S120.84,161.45,119.28,161.45z"/>
					</g>
				</g>
			</g>
			<g>
				<g>
					<ellipse class="st8" cx="118.78" cy="168.61" rx="0.98" ry="3.03"/>
				</g>
			</g>
			<g>
				<g>
					<ellipse class="st8" cx="127.74" cy="167.64" rx="1.86" ry="2.28"/>
				</g>
			</g>
			<g>
				<g>
					<ellipse class="st8" cx="134.97" cy="167.52" rx="1.86" ry="2.28"/>
				</g>
			</g>
			<g>
				<g>
					<path class="st8" d="M126.75,170.47c-1.64,0-2.97-1.33-2.97-2.97c0-1.64,1.33-2.97,2.97-2.97c1.64,0,2.97,1.33,2.97,2.97
						C129.72,169.14,128.39,170.47,126.75,170.47z M126.75,164.93c-1.42,0-2.57,1.15-2.57,2.57c0,1.42,1.15,2.57,2.57,2.57
						c1.42,0,2.57-1.15,2.57-2.57C129.32,166.08,128.17,164.93,126.75,164.93z"/>
				</g>
			</g>
			<g>
				<g>
					<path class="st8" d="M134.02,170.47c-1.64,0-2.97-1.33-2.97-2.97c0-1.64,1.33-2.97,2.97-2.97c1.64,0,2.97,1.33,2.97,2.97
						C136.99,169.14,135.65,170.47,134.02,170.47z M134.02,164.93c-1.42,0-2.57,1.15-2.57,2.57c0,1.42,1.15,2.57,2.57,2.57
						c1.42,0,2.57-1.15,2.57-2.57C136.59,166.08,135.43,164.93,134.02,164.93z"/>
				</g>
			</g>
		</g>
		<g>
			<g>
				<g>
					<rect x="207.35" y="170.21" class="st1" width="13.98" height="11.55"/>
				</g>
				<g>
					<path class="st8" d="M221.53,181.95h-14.37v-11.94h14.37V181.95z M207.55,181.55h13.58V170.4h-13.58V181.55z"/>
				</g>
			</g>
			<g>
				<g>
					<path class="st1" d="M224.72,161.25c-0.09,0-0.18,0.01-0.26,0.03h-14.35v14.84c2.56,0,5.13,0.01,7.69,0.02
						c1.29,0.01,2.6,0.01,3.89,0.06c1.08,0.04,2.17,0.05,3.22-0.23c0.93-0.25,1.64-0.95,2.05-1.81c0.61-1.28,0.76-2.76,0.82-4.16
						c0.02-0.43,0.02-0.87,0.02-1.3C227.8,164.58,226.42,161.25,224.72,161.25z"/>
				</g>
				<g>
					<path class="st8" d="M222.64,176.42c-0.31,0-0.63-0.01-0.96-0.02c-1.23-0.05-2.48-0.06-3.7-0.06l-0.18,0
						c-2.47-0.01-5.1-0.02-7.69-0.02h-0.2v-15.23h14.52c0.08-0.02,0.18-0.03,0.28-0.03c1.84,0,3.28,3.36,3.28,7.65
						c0,0.52-0.01,0.93-0.02,1.31c-0.05,1.34-0.2,2.9-0.84,4.24c-0.47,0.97-1.26,1.67-2.18,1.91
						C224.22,176.36,223.47,176.42,222.64,176.42z M210.31,175.92c2.52,0,5.08,0.01,7.49,0.02l0.18,0c1.22,0,2.48,0.01,3.71,0.06
						c1.2,0.05,2.2,0.03,3.16-0.22c0.81-0.21,1.51-0.83,1.92-1.7c0.61-1.28,0.75-2.78,0.8-4.08c0.02-0.38,0.02-0.78,0.02-1.3
						c0-3.93-1.32-7.25-2.88-7.25c-0.08,0-0.16,0.01-0.23,0.03l-0.04,0h-14.15V175.92z"/>
				</g>
			</g>
			<g>
				<g>
					<g>
						<ellipse class="st9" cx="210.28" cy="168.7" rx="3.08" ry="7.45"/>
					</g>
				</g>
				<g>
					<g>
						<path d="M210.28,176.35c-1.84,0-3.28-3.36-3.28-7.65s1.44-7.65,3.28-7.65s3.28,3.36,3.28,7.65S212.11,176.35,210.28,176.35z
							 M210.28,161.45c-1.56,0-2.88,3.32-2.88,7.25s1.32,7.25,2.88,7.25s2.88-3.32,2.88-7.25S211.84,161.45,210.28,161.45z"/>
					</g>
				</g>
			</g>
			<g>
				<g>
					<ellipse class="st8" cx="209.78" cy="168.61" rx="0.98" ry="3.03"/>
				</g>
			</g>
			<g>
				<g>
					<ellipse class="st8" cx="218.74" cy="167.64" rx="1.86" ry="2.28"/>
				</g>
			</g>
			<g>
				<g>
					<ellipse class="st8" cx="225.97" cy="167.52" rx="1.86" ry="2.28"/>
				</g>
			</g>
			<g>
				<g>
					<path class="st8" d="M217.75,170.47c-1.64,0-2.97-1.33-2.97-2.97c0-1.64,1.33-2.97,2.97-2.97c1.64,0,2.97,1.33,2.97,2.97
						C220.72,169.14,219.39,170.47,217.75,170.47z M217.75,164.93c-1.42,0-2.57,1.15-2.57,2.57c0,1.42,1.15,2.57,2.57,2.57
						c1.42,0,2.57-1.15,2.57-2.57C220.32,166.08,219.17,164.93,217.75,164.93z"/>
				</g>
			</g>
			<g>
				<g>
					<path class="st8" d="M225.02,170.47c-1.64,0-2.97-1.33-2.97-2.97c0-1.64,1.33-2.97,2.97-2.97c1.64,0,2.97,1.33,2.97,2.97
						C227.99,169.14,226.65,170.47,225.02,170.47z M225.02,164.93c-1.42,0-2.57,1.15-2.57,2.57c0,1.42,1.15,2.57,2.57,2.57
						c1.42,0,2.57-1.15,2.57-2.57C227.59,166.08,226.43,164.93,225.02,164.93z"/>
				</g>
			</g>
		</g>
		<g>
			<g>
				<g>
					<rect x="116.35" y="495.21" class="st1" width="13.98" height="11.55"/>
				</g>
				<g>
					<path class="st8" d="M130.53,506.95h-14.37v-11.94h14.37V506.95z M116.55,506.55h13.58V495.4h-13.58V506.55z"/>
				</g>
			</g>
			<g>
				<g>
					<path class="st1" d="M133.72,486.25c-0.09,0-0.18,0.01-0.26,0.03h-14.35v14.84c2.56,0,5.13,0.01,7.69,0.02
						c1.29,0.01,2.6,0.01,3.89,0.06c1.08,0.04,2.17,0.05,3.22-0.23c0.93-0.25,1.64-0.95,2.05-1.81c0.61-1.28,0.76-2.76,0.82-4.16
						c0.02-0.43,0.02-0.87,0.02-1.3C136.8,489.58,135.42,486.25,133.72,486.25z"/>
				</g>
				<g>
					<path class="st8" d="M131.64,501.42c-0.31,0-0.63-0.01-0.96-0.02c-1.23-0.05-2.48-0.06-3.7-0.06l-0.18,0
						c-2.47-0.01-5.1-0.02-7.69-0.02h-0.2v-15.23h14.52c0.08-0.02,0.18-0.03,0.28-0.03c1.84,0,3.28,3.36,3.28,7.65
						c0,0.52-0.01,0.93-0.02,1.31c-0.05,1.34-0.2,2.9-0.84,4.24c-0.47,0.97-1.26,1.67-2.18,1.91
						C133.22,501.36,132.47,501.42,131.64,501.42z M119.31,500.92c2.52,0,5.08,0.01,7.49,0.02l0.18,0c1.22,0,2.48,0.01,3.71,0.06
						c1.2,0.05,2.2,0.03,3.16-0.22c0.81-0.21,1.51-0.83,1.92-1.7c0.61-1.28,0.75-2.78,0.8-4.08c0.02-0.38,0.02-0.78,0.02-1.3
						c0-3.93-1.32-7.25-2.88-7.25c-0.08,0-0.16,0.01-0.23,0.03l-0.04,0h-14.15V500.92z"/>
				</g>
			</g>
			<g>
				<g>
					<g>
						<ellipse class="st9" cx="119.28" cy="493.7" rx="3.08" ry="7.45"/>
					</g>
				</g>
				<g>
					<g>
						<path d="M119.28,501.35c-1.84,0-3.28-3.36-3.28-7.65c0-4.29,1.44-7.65,3.28-7.65c1.84,0,3.28,3.36,3.28,7.65
							C122.55,497.99,121.11,501.35,119.28,501.35z M119.28,486.45c-1.56,0-2.88,3.32-2.88,7.25c0,3.93,1.32,7.25,2.88,7.25
							s2.88-3.32,2.88-7.25C122.16,489.77,120.84,486.45,119.28,486.45z"/>
					</g>
				</g>
			</g>
			<g>
				<g>
					<ellipse class="st8" cx="118.78" cy="493.61" rx="0.98" ry="3.03"/>
				</g>
			</g>
			<g>
				<g>
					<ellipse class="st8" cx="127.74" cy="492.64" rx="1.86" ry="2.28"/>
				</g>
			</g>
			<g>
				<g>
					<ellipse class="st8" cx="134.97" cy="492.52" rx="1.86" ry="2.28"/>
				</g>
			</g>
			<g>
				<g>
					<path class="st8" d="M126.75,495.47c-1.64,0-2.97-1.33-2.97-2.97c0-1.64,1.33-2.97,2.97-2.97c1.64,0,2.97,1.33,2.97,2.97
						C129.72,494.14,128.39,495.47,126.75,495.47z M126.75,489.93c-1.42,0-2.57,1.15-2.57,2.57c0,1.42,1.15,2.57,2.57,2.57
						c1.42,0,2.57-1.15,2.57-2.57C129.32,491.08,128.17,489.93,126.75,489.93z"/>
				</g>
			</g>
			<g>
				<g>
					<path class="st8" d="M134.02,495.47c-1.64,0-2.97-1.33-2.97-2.97c0-1.64,1.33-2.97,2.97-2.97c1.64,0,2.97,1.33,2.97,2.97
						C136.99,494.14,135.65,495.47,134.02,495.47z M134.02,489.93c-1.42,0-2.57,1.15-2.57,2.57c0,1.42,1.15,2.57,2.57,2.57
						c1.42,0,2.57-1.15,2.57-2.57C136.59,491.08,135.43,489.93,134.02,489.93z"/>
				</g>
			</g>
		</g>
		<g>
			<g>
				<g>
					<rect x="207.35" y="495.21" class="st1" width="13.98" height="11.55"/>
				</g>
				<g>
					<path class="st8" d="M221.53,506.95h-14.37v-11.94h14.37V506.95z M207.55,506.55h13.58V495.4h-13.58V506.55z"/>
				</g>
			</g>
			<g>
				<g>
					<path class="st1" d="M224.72,486.25c-0.09,0-0.18,0.01-0.26,0.03h-14.35v14.84c2.56,0,5.13,0.01,7.69,0.02
						c1.29,0.01,2.6,0.01,3.89,0.06c1.08,0.04,2.17,0.05,3.22-0.23c0.93-0.25,1.64-0.95,2.05-1.81c0.61-1.28,0.76-2.76,0.82-4.16
						c0.02-0.43,0.02-0.87,0.02-1.3C227.8,489.58,226.42,486.25,224.72,486.25z"/>
				</g>
				<g>
					<path class="st8" d="M222.64,501.42c-0.31,0-0.63-0.01-0.96-0.02c-1.23-0.05-2.48-0.06-3.7-0.06l-0.18,0
						c-2.47-0.01-5.1-0.02-7.69-0.02h-0.2v-15.23h14.52c0.08-0.02,0.18-0.03,0.28-0.03c1.84,0,3.28,3.36,3.28,7.65
						c0,0.52-0.01,0.93-0.02,1.31c-0.05,1.34-0.2,2.9-0.84,4.24c-0.47,0.97-1.26,1.67-2.18,1.91
						C224.22,501.36,223.47,501.42,222.64,501.42z M210.31,500.92c2.52,0,5.08,0.01,7.49,0.02l0.18,0c1.22,0,2.48,0.01,3.71,0.06
						c1.2,0.05,2.2,0.03,3.16-0.22c0.81-0.21,1.51-0.83,1.92-1.7c0.61-1.28,0.75-2.78,0.8-4.08c0.02-0.38,0.02-0.78,0.02-1.3
						c0-3.93-1.32-7.25-2.88-7.25c-0.08,0-0.16,0.01-0.23,0.03l-0.04,0h-14.15V500.92z"/>
				</g>
			</g>
			<g>
				<g>
					<g>
						<ellipse class="st9" cx="210.28" cy="493.7" rx="3.08" ry="7.45"/>
					</g>
				</g>
				<g>
					<g>
						<path d="M210.28,501.35c-1.84,0-3.28-3.36-3.28-7.65c0-4.29,1.44-7.65,3.28-7.65s3.28,3.36,3.28,7.65
							C213.55,497.99,212.11,501.35,210.28,501.35z M210.28,486.45c-1.56,0-2.88,3.32-2.88,7.25c0,3.93,1.32,7.25,2.88,7.25
							s2.88-3.32,2.88-7.25C213.16,489.77,211.84,486.45,210.28,486.45z"/>
					</g>
				</g>
			</g>
			<g>
				<g>
					<ellipse class="st8" cx="209.78" cy="493.61" rx="0.98" ry="3.03"/>
				</g>
			</g>
			<g>
				<g>
					<ellipse class="st8" cx="218.74" cy="492.64" rx="1.86" ry="2.28"/>
				</g>
			</g>
			<g>
				<g>
					<ellipse class="st8" cx="225.97" cy="492.52" rx="1.86" ry="2.28"/>
				</g>
			</g>
			<g>
				<g>
					<path class="st8" d="M217.75,495.47c-1.64,0-2.97-1.33-2.97-2.97c0-1.64,1.33-2.97,2.97-2.97c1.64,0,2.97,1.33,2.97,2.97
						C220.72,494.14,219.39,495.47,217.75,495.47z M217.75,489.93c-1.42,0-2.57,1.15-2.57,2.57c0,1.42,1.15,2.57,2.57,2.57
						c1.42,0,2.57-1.15,2.57-2.57C220.32,491.08,219.17,489.93,217.75,489.93z"/>
				</g>
			</g>
			<g>
				<g>
					<path class="st8" d="M225.02,495.47c-1.64,0-2.97-1.33-2.97-2.97c0-1.64,1.33-2.97,2.97-2.97c1.64,0,2.97,1.33,2.97,2.97
						C227.99,494.14,226.65,495.47,225.02,495.47z M225.02,489.93c-1.42,0-2.57,1.15-2.57,2.57c0,1.42,1.15,2.57,2.57,2.57
						c1.42,0,2.57-1.15,2.57-2.57C227.59,491.08,226.43,489.93,225.02,489.93z"/>
				</g>
			</g>
		</g>
	</g>
</g>
<g id="Bordes">
	<g>
		<path class="st14" d="M343,649.69c0,8.8-7.2,16-16,16H17c-8.8,0-16-7.2-16-16V18.19c0-8.8,7.2-16,16-16h310c8.8,0,16,7.2,16,16
			V649.69z"/>
	</g>
</g>
<g id="Layer_8" class="st15">
</g>
</svg>
