<?xml version="1.0" encoding="utf-8"?>
<!-- Generator: Adobe Illustrator 24.3.0, SVG Export Plug-In . SVG Version: 6.00 Build 0)  -->
<svg version="1.1" xmlns="http://www.w3.org/2000/svg" xmlns:xlink="http://www.w3.org/1999/xlink" x="0px" y="0px"
	 viewBox="0 0 344 668" style="enable-background:new 0 0 344 668;" xml:space="preserve">
<style type="text/css">
	.st0{fill:#231F20;}
	.st1{fill:#FFFFFF;}
	.st2{fill:none;stroke:#231F20;stroke-miterlimit:10;}
	.st3{fill:#FF7B55;}
	.st4{fill:#FFBDAA;}
	.st5{fill:#00C6AE;}
	.st6{fill:#FFBD12;}
	.st7{fill:#C3D5FC;}
	.st8{fill:#1D1D1B;}
	.st9{fill:#D7F9F2;}
	.st10{fill:#8490FF;}
	.st11{fill:#FFFFFF;stroke:#1D1D1B;stroke-width:2;stroke-linecap:round;stroke-miterlimit:10;}
	.st12{fill:#FFB5D4;}
	.st13{fill:#FFEEFE;}
	.st14{fill:none;stroke:#231F20;stroke-width:2;stroke-miterlimit:10;}
	.st15{display:none;}
	.st16{display:inline;fill:none;stroke:#231F20;stroke-miterlimit:10;}
</style>
<g id="Mapa_SS">
</g>
<g id="Mapa_PB">
</g>
<g id="Mapa_PB_B_L_C">
</g>
<g id="Mapa_PB_B_L">
</g>
<g id="Mapa_PB_BIBLIOTECA">
</g>
<g id="Mapa_PB_COMEDOR">
</g>
<g id="Mapa_PB_LIBRERIA">
</g>
<g id="Mapa_PB_BANO">
	<g>
		<g>
			<g>
				<g>
					<g>
						<path class="st0" d="M343,650.56c0,8.8-7.2,16-16,16H17c-8.8,0-16-7.2-16-16V19.06c0-8.8,7.2-16,16-16h310c8.8,0,16,7.2,16,16
							V650.56z"/>
					</g>
				</g>
				<g>
					<g>
						<path class="st0" d="M327,667.56H17c-9.37,0-17-7.63-17-17V19.06c0-9.37,7.63-17,17-17h310c9.37,0,17,7.63,17,17v631.5
							C344,659.94,336.37,667.56,327,667.56z M17,4.06c-8.27,0-15,6.73-15,15v631.5c0,8.27,6.73,15,15,15h310c8.27,0,15-6.73,15-15
							V19.06c0-8.27-6.73-15-15-15H17z"/>
					</g>
				</g>
			</g>
			<g>
				<g>
					<g>
						<path class="st1" d="M343,648.56c0,8.8-7.2,16-16,16H17c-8.8,0-16-7.2-16-16V17.06c0-8.8,7.2-16,16-16h310c8.8,0,16,7.2,16,16
							V648.56z"/>
					</g>
				</g>
				<g>
					<g>
						<path class="st0" d="M327,665.56H17c-9.37,0-17-7.63-17-17V17.06c0-9.37,7.63-17,17-17h310c9.37,0,17,7.63,17,17v631.5
							C344,657.94,336.37,665.56,327,665.56z M17,2.06c-8.27,0-15,6.73-15,15v631.5c0,8.27,6.73,15,15,15h310c8.27,0,15-6.73,15-15
							V17.06c0-8.27-6.73-15-15-15H17z"/>
					</g>
				</g>
			</g>
		</g>
		<g>
			<g>
				<path class="st1" d="M91,395.5h-9c-4.97,0-9-4.03-9-9v0c0-4.97,4.03-9,9-9h9"/>
			</g>
			<g>
				<path class="st0" d="M91,396h-9c-5.24,0-9.5-4.26-9.5-9.5s4.26-9.5,9.5-9.5h9v1h-9c-4.69,0-8.5,3.81-8.5,8.5s3.81,8.5,8.5,8.5h9
					V396z"/>
			</g>
		</g>
		<g>
			<g>
				<path class="st0" d="M191,91.86h-39c-4.69,0-8.5-3.81-8.5-8.5v-10.5H91v-1h53.5v11.5c0,4.14,3.36,7.5,7.5,7.5h39
					c4.14,0,7.5-3.36,7.5-7.5v-11.5H252v1h-52.5v10.5C199.5,88.05,195.69,91.86,191,91.86z"/>
			</g>
		</g>
		<g>
			<g>
				<g>
					<path class="st1" d="M252,0.56v71h-53v11c0,4.42-3.58,8-8,8h-39c-4.42,0-8-3.58-8-8v-11H91v-71H252z"/>
				</g>
			</g>
			<g>
				<g>
					<path class="st0" d="M191,91.06h-39c-4.69,0-8.5-3.81-8.5-8.5v-10.5h-53v-72h162v72h-53v10.5
						C199.5,87.25,195.69,91.06,191,91.06z M91.5,71.06h53v11.5c0,4.14,3.36,7.5,7.5,7.5h39c4.14,0,7.5-3.36,7.5-7.5v-11.5h53v-70
						h-160V71.06z"/>
				</g>
			</g>
		</g>
		<g>
			<g>
				<path class="st0" d="M91.5,198.06h-91v-109h91V198.06z M1.5,197.06h89v-107h-89V197.06z"/>
			</g>
		</g>
		<g>
			<g>
				<path class="st0" d="M91.5,252.06h-91v-55h91V252.06z M1.5,251.06h89v-53h-89V251.06z"/>
			</g>
		</g>
		<g>
			<g>
				<g>
					<g>
						<path d="M1,252.56h90v46c0,4.42-3.58,8-8,8H1V252.56z"/>
					</g>
				</g>
				<g>
					<g>
						<path d="M83,307.06H0.5v-55h91v46.5C91.5,303.25,87.69,307.06,83,307.06z M1.5,306.06H83c4.14,0,7.5-3.36,7.5-7.5v-45.5h-89
							V306.06z"/>
					</g>
				</g>
			</g>
			<g>
				<g>
					<g>
						<path class="st1" d="M1,251.56h90v46c0,4.42-3.58,8-8,8H1V251.56z"/>
					</g>
				</g>
				<g>
					<g>
						<path class="st0" d="M83,306.06H0.5v-55h91v46.5C91.5,302.25,87.69,306.06,83,306.06z M1.5,305.06H83c4.14,0,7.5-3.36,7.5-7.5
							v-45.5h-89V305.06z"/>
					</g>
				</g>
			</g>
		</g>
		<g>
			<g>
				<path class="st0" d="M91.5,414.06h-91v-55H83c4.69,0,8.5,3.81,8.5,8.5V414.06z M1.5,413.06h89v-45.5c0-4.14-3.36-7.5-7.5-7.5
					H1.5V413.06z"/>
			</g>
		</g>
		<g>
			<g>
				<path class="st0" d="M91.5,522.06h-91v-109h91V522.06z M1.5,521.06h89v-107h-89V521.06z"/>
			</g>
		</g>
		<g>
			<g>
				<g>
					<g>
						<path d="M342,17.56v505h-90v-154c0-4.42,3.58-8,8-8h37.5v-108H260c-4.42,0-8-3.58-8-8v-243h74C334.84,1.56,342,8.72,342,17.56
							z"/>
					</g>
				</g>
				<g>
					<g>
						<path d="M342.5,523.06h-91v-154.5c0-4.69,3.81-8.5,8.5-8.5h37v-107h-37c-4.69,0-8.5-3.81-8.5-8.5V1.06H326
							c9.1,0,16.5,7.4,16.5,16.5V523.06z M252.5,522.06h89V17.56c0-8.55-6.95-15.5-15.5-15.5h-73.5v242.5c0,4.14,3.36,7.5,7.5,7.5
							h38v109h-38c-4.14,0-7.5,3.36-7.5,7.5V522.06z"/>
					</g>
				</g>
			</g>
			<g>
				<g>
					<g>
						<path class="st1" d="M342,16.56v505h-90v-154c0-4.42,3.58-8,8-8h37.5v-108H260c-4.42,0-8-3.58-8-8v-243h74
							C334.84,0.56,342,7.72,342,16.56z"/>
					</g>
				</g>
				<g>
					<g>
						<path class="st0" d="M342.5,522.06h-91v-154.5c0-4.69,3.81-8.5,8.5-8.5h37v-107h-37c-4.69,0-8.5-3.81-8.5-8.5V0.06H326
							c9.1,0,16.5,7.4,16.5,16.5V522.06z M252.5,521.06h89V16.56c0-8.55-6.95-15.5-15.5-15.5h-73.5v242.5c0,4.14,3.36,7.5,7.5,7.5
							h38v109h-38c-4.14,0-7.5,3.36-7.5,7.5V521.06z"/>
					</g>
				</g>
			</g>
		</g>
		<g>
			<g>
				<path class="st0" d="M91.5,90.06h-91v-73.5c0-9.1,7.4-16.5,16.5-16.5h74.5V90.06z M1.5,89.06h89v-88H17
					c-8.55,0-15.5,6.95-15.5,15.5V89.06z"/>
			</g>
		</g>
		<g>
			<g>
				<g>
					<g>
						<path d="M226.5,217.06h-110c-4.42,0-8-3.58-8-8v-92c0-4.42,3.58-8,8-8h110c4.42,0,8,3.58,8,8v92
							C234.5,213.48,230.92,217.06,226.5,217.06z"/>
					</g>
				</g>
				<g>
					<g>
						<path d="M226.5,217.56h-110c-4.69,0-8.5-3.81-8.5-8.5v-92c0-4.69,3.81-8.5,8.5-8.5h110c4.69,0,8.5,3.81,8.5,8.5v92
							C235,213.75,231.19,217.56,226.5,217.56z M116.5,109.56c-4.14,0-7.5,3.36-7.5,7.5v92c0,4.14,3.36,7.5,7.5,7.5h110
							c4.14,0,7.5-3.36,7.5-7.5v-92c0-4.14-3.36-7.5-7.5-7.5H116.5z"/>
					</g>
				</g>
			</g>
			<g>
				<g>
					<g>
						<path class="st1" d="M226.5,216.06h-110c-4.42,0-8-3.58-8-8v-92c0-4.42,3.58-8,8-8h110c4.42,0,8,3.58,8,8v92
							C234.5,212.48,230.92,216.06,226.5,216.06z"/>
					</g>
				</g>
				<g>
					<g>
						<path class="st0" d="M226.5,216.56h-110c-4.69,0-8.5-3.81-8.5-8.5v-92c0-4.69,3.81-8.5,8.5-8.5h110c4.69,0,8.5,3.81,8.5,8.5
							v92C235,212.75,231.19,216.56,226.5,216.56z M116.5,108.56c-4.14,0-7.5,3.36-7.5,7.5v92c0,4.14,3.36,7.5,7.5,7.5h110
							c4.14,0,7.5-3.36,7.5-7.5v-92c0-4.14-3.36-7.5-7.5-7.5H116.5z"/>
					</g>
				</g>
			</g>
		</g>
		<g>
			<g>
				<g>
					<g>
						<path d="M227,558.56H117c-4.42,0-8-3.58-8-8v-92c0-4.42,3.58-8,8-8h110c4.42,0,8,3.58,8,8v92
							C235,554.98,231.42,558.56,227,558.56z"/>
					</g>
				</g>
				<g>
					<g>
						<path d="M227,559.06H117c-4.69,0-8.5-3.81-8.5-8.5v-92c0-4.69,3.81-8.5,8.5-8.5h110c4.69,0,8.5,3.81,8.5,8.5v92
							C235.5,555.25,231.69,559.06,227,559.06z M117,451.06c-4.14,0-7.5,3.36-7.5,7.5v92c0,4.14,3.36,7.5,7.5,7.5h110
							c4.14,0,7.5-3.36,7.5-7.5v-92c0-4.14-3.36-7.5-7.5-7.5H117z"/>
					</g>
				</g>
			</g>
			<g>
				<g>
					<g>
						<path class="st1" d="M227,557.56H117c-4.42,0-8-3.58-8-8v-92c0-4.42,3.58-8,8-8h110c4.42,0,8,3.58,8,8v92
							C235,553.98,231.42,557.56,227,557.56z"/>
					</g>
				</g>
				<g>
					<g>
						<path class="st0" d="M227,558.06H117c-4.69,0-8.5-3.81-8.5-8.5v-92c0-4.69,3.81-8.5,8.5-8.5h110c4.69,0,8.5,3.81,8.5,8.5v92
							C235.5,554.25,231.69,558.06,227,558.06z M117,450.06c-4.14,0-7.5,3.36-7.5,7.5v92c0,4.14,3.36,7.5,7.5,7.5h110
							c4.14,0,7.5-3.36,7.5-7.5v-92c0-4.14-3.36-7.5-7.5-7.5H117z"/>
					</g>
				</g>
			</g>
		</g>
		<g>
			<g>
				<g>
					<g>
						<path d="M235,270.56v136c0,4.42-3.58,8-8,8H117c-4.42,0-8-3.58-8-8v-136h45.5c0,9.94,8.06,18,18,18s18-8.06,18-18H235z"/>
					</g>
				</g>
				<g>
					<g>
						<path d="M227,415.06H117c-4.69,0-8.5-3.81-8.5-8.5v-136.5H155v0.5c0,9.65,7.85,17.5,17.5,17.5s17.5-7.85,17.5-17.5v-0.5h45.5
							v136.5C235.5,411.25,231.69,415.06,227,415.06z M109.5,271.06v135.5c0,4.14,3.36,7.5,7.5,7.5h110c4.14,0,7.5-3.36,7.5-7.5
							v-135.5h-43.51c-0.27,9.97-8.46,18-18.49,18c-10.03,0-18.23-8.03-18.49-18H109.5z"/>
					</g>
				</g>
			</g>
			<g>
				<g>
					<g>
						<path class="st1" d="M235,269.56v136c0,4.42-3.58,8-8,8H117c-4.42,0-8-3.58-8-8v-136h45.5c0,9.94,8.06,18,18,18s18-8.06,18-18
							H235z"/>
					</g>
				</g>
				<g>
					<g>
						<path class="st0" d="M227,414.06H117c-4.69,0-8.5-3.81-8.5-8.5v-136.5H155v0.5c0,9.65,7.85,17.5,17.5,17.5
							s17.5-7.85,17.5-17.5v-0.5h45.5v136.5C235.5,410.25,231.69,414.06,227,414.06z M109.5,270.06v135.5c0,4.14,3.36,7.5,7.5,7.5
							h110c4.14,0,7.5-3.36,7.5-7.5v-135.5h-43.51c-0.27,9.97-8.46,18-18.49,18c-10.03,0-18.23-8.03-18.49-18H109.5z"/>
					</g>
				</g>
			</g>
		</g>
		<g>
			<g>
				<g>
					<g>
						<path d="M235,260.56v10h-44.5c0,9.94-8.06,18-18,18s-18-8.06-18-18H109v-10c0-4.42,3.58-8,8-8h110
							C231.42,252.56,235,256.14,235,260.56z"/>
					</g>
				</g>
				<g>
					<g>
						<path d="M172.5,289.06c-10.03,0-18.23-8.03-18.49-18H108.5v-10.5c0-4.69,3.81-8.5,8.5-8.5h110c4.69,0,8.5,3.81,8.5,8.5v10.5
							h-44.51C190.73,281.03,182.53,289.06,172.5,289.06z M109.5,270.06H155v0.5c0,9.65,7.85,17.5,17.5,17.5s17.5-7.85,17.5-17.5
							v-0.5h44.5v-9.5c0-4.14-3.36-7.5-7.5-7.5H117c-4.14,0-7.5,3.36-7.5,7.5V270.06z"/>
					</g>
				</g>
			</g>
			<g>
				<g>
					<g>
						<path class="st1" d="M235,259.56v10h-44.5c0,9.94-8.06,18-18,18s-18-8.06-18-18H109v-10c0-4.42,3.58-8,8-8h110
							C231.42,251.56,235,255.14,235,259.56z"/>
					</g>
				</g>
				<g>
					<g>
						<path class="st0" d="M172.5,288.06c-10.03,0-18.23-8.03-18.49-18H108.5v-10.5c0-4.69,3.81-8.5,8.5-8.5h110
							c4.69,0,8.5,3.81,8.5,8.5v10.5h-44.51C190.73,280.03,182.53,288.06,172.5,288.06z M109.5,269.06H155v0.5
							c0,9.65,7.85,17.5,17.5,17.5s17.5-7.85,17.5-17.5v-0.5h44.5v-9.5c0-4.14-3.36-7.5-7.5-7.5H117c-4.14,0-7.5,3.36-7.5,7.5
							V269.06z"/>
					</g>
				</g>
			</g>
		</g>
		<g>
			<g>
				<path d="M17.56,42.07c-0.69-0.23-1.23-0.52-1.62-0.89l0.52-1.09c0.37,0.34,0.85,0.61,1.44,0.82s1.18,0.32,1.8,0.32
					c0.81,0,1.42-0.14,1.82-0.41s0.6-0.64,0.6-1.1c0-0.34-0.11-0.61-0.33-0.82s-0.49-0.37-0.81-0.48c-0.32-0.11-0.78-0.24-1.36-0.38
					c-0.74-0.18-1.33-0.35-1.79-0.53c-0.45-0.18-0.84-0.45-1.16-0.82c-0.32-0.37-0.48-0.87-0.48-1.49c0-0.52,0.14-0.99,0.41-1.41
					c0.27-0.42,0.69-0.76,1.25-1.01s1.26-0.38,2.09-0.38c0.58,0,1.15,0.07,1.71,0.22s1.04,0.36,1.44,0.64l-0.46,1.12
					c-0.41-0.26-0.85-0.46-1.32-0.6c-0.47-0.13-0.92-0.2-1.37-0.2c-0.79,0-1.39,0.15-1.79,0.43c-0.4,0.29-0.59,0.66-0.59,1.12
					c0,0.34,0.11,0.61,0.34,0.82s0.5,0.37,0.83,0.49c0.33,0.12,0.78,0.24,1.35,0.37c0.74,0.18,1.33,0.35,1.78,0.53
					c0.45,0.18,0.83,0.45,1.16,0.81c0.32,0.36,0.48,0.85,0.48,1.47c0,0.51-0.14,0.98-0.42,1.41c-0.28,0.42-0.71,0.76-1.27,1.01
					c-0.57,0.25-1.27,0.37-2.1,0.37C18.96,42.41,18.25,42.3,17.56,42.07z"/>
			</g>
			<g>
				<path d="M31.78,39.85h-5.21l-1.08,2.45h-1.44l4.44-9.8h1.39l4.45,9.8h-1.47L31.78,39.85z M31.29,38.73l-2.11-4.8l-2.11,4.8
					H31.29z"/>
			</g>
			<g>
				<path d="M35.78,32.5h1.4v8.58h5.31v1.22h-6.71V32.5z"/>
			</g>
			<g>
				<path d="M50.39,39.85h-5.21L44.1,42.3h-1.44l4.44-9.8h1.39l4.45,9.8h-1.47L50.39,39.85z M49.9,38.73l-2.11-4.8l-2.11,4.8H49.9z"
					/>
			</g>
			<g>
				<path d="M58.16,32.5h4.13c1.04,0,1.96,0.21,2.76,0.62c0.8,0.41,1.43,0.99,1.87,1.73s0.67,1.59,0.67,2.55
					c0,0.96-0.22,1.81-0.67,2.55c-0.44,0.74-1.07,1.32-1.87,1.73c-0.8,0.41-1.72,0.62-2.76,0.62h-4.13V32.5z M62.2,41.08
					c0.79,0,1.49-0.15,2.09-0.46c0.6-0.31,1.07-0.74,1.39-1.29c0.33-0.55,0.49-1.2,0.49-1.92c0-0.73-0.16-1.37-0.49-1.92
					s-0.79-0.99-1.39-1.29c-0.6-0.31-1.3-0.46-2.09-0.46h-2.65v7.36H62.2z"/>
			</g>
			<g>
				<path d="M76.83,41.08v1.22h-7.11v-9.8h6.92v1.22h-5.52v3.01h4.91v1.19h-4.91v3.16H76.83z"/>
			</g>
			<g>
				<path d="M7.73,47.5h4.13c1.04,0,1.96,0.21,2.76,0.62c0.8,0.41,1.43,0.99,1.87,1.73s0.67,1.59,0.67,2.55
					c0,0.96-0.22,1.81-0.67,2.55c-0.44,0.74-1.07,1.32-1.87,1.73c-0.8,0.41-1.72,0.62-2.76,0.62H7.73V47.5z M11.77,56.08
					c0.79,0,1.49-0.15,2.09-0.46c0.6-0.31,1.07-0.74,1.39-1.29c0.33-0.55,0.49-1.2,0.49-1.92c0-0.73-0.16-1.37-0.49-1.92
					s-0.79-0.99-1.39-1.29c-0.6-0.31-1.3-0.46-2.09-0.46H9.13v7.36H11.77z"/>
			</g>
			<g>
				<path d="M21.04,56.76c-0.79-0.43-1.42-1.03-1.87-1.8c-0.45-0.77-0.68-1.62-0.68-2.56c0-0.94,0.23-1.8,0.68-2.56
					c0.45-0.77,1.08-1.37,1.87-1.8c0.79-0.43,1.68-0.65,2.67-0.65c0.98,0,1.87,0.22,2.66,0.65c0.79,0.43,1.41,1.03,1.86,1.79
					c0.45,0.76,0.67,1.62,0.67,2.57s-0.22,1.81-0.67,2.57c-0.45,0.76-1.07,1.36-1.86,1.79c-0.79,0.43-1.68,0.65-2.66,0.65
					C22.73,57.41,21.83,57.19,21.04,56.76z M25.65,55.68c0.57-0.33,1.03-0.78,1.36-1.35c0.33-0.57,0.5-1.21,0.5-1.92
					c0-0.71-0.17-1.35-0.5-1.92c-0.33-0.57-0.78-1.02-1.36-1.35c-0.57-0.33-1.22-0.49-1.94-0.49s-1.37,0.16-1.95,0.49
					c-0.58,0.33-1.04,0.78-1.37,1.35c-0.33,0.57-0.5,1.22-0.5,1.92c0,0.71,0.17,1.35,0.5,1.92c0.33,0.57,0.79,1.02,1.37,1.35
					c0.58,0.33,1.23,0.49,1.95,0.49S25.08,56,25.65,55.68z"/>
			</g>
			<g>
				<path d="M32.78,56.76c-0.79-0.43-1.41-1.03-1.85-1.79c-0.45-0.76-0.67-1.62-0.67-2.57s0.22-1.81,0.67-2.57
					c0.45-0.76,1.07-1.36,1.86-1.79c0.79-0.43,1.68-0.65,2.66-0.65c0.77,0,1.46,0.13,2.1,0.38s1.18,0.64,1.62,1.14l-0.91,0.88
					c-0.74-0.78-1.66-1.16-2.76-1.16c-0.73,0-1.39,0.16-1.97,0.49c-0.59,0.33-1.05,0.78-1.38,1.35c-0.33,0.57-0.5,1.22-0.5,1.92
					c0,0.71,0.17,1.35,0.5,1.92c0.33,0.57,0.79,1.02,1.38,1.35c0.59,0.33,1.25,0.49,1.97,0.49c1.09,0,2.01-0.39,2.76-1.18l0.91,0.88
					c-0.45,0.5-0.99,0.89-1.63,1.15c-0.64,0.26-1.34,0.39-2.11,0.39C34.45,57.41,33.57,57.19,32.78,56.76z"/>
			</g>
			<g>
				<path d="M48.29,56.08v1.22h-7.11v-9.8h6.92v1.22h-5.52v3.01h4.91v1.19h-4.91v3.16H48.29z"/>
			</g>
			<g>
				<path d="M58.98,47.5v9.8h-1.15l-5.88-7.31v7.31h-1.4v-9.8h1.15l5.88,7.31V47.5H58.98z"/>
			</g>
			<g>
				<path d="M63.87,48.72h-3.36V47.5h8.11v1.22h-3.36v8.58h-1.39V48.72z"/>
			</g>
			<g>
				<path d="M77.25,56.08v1.22h-7.11v-9.8h6.92v1.22h-5.52v3.01h4.91v1.19h-4.91v3.16H77.25z"/>
			</g>
			<g>
				<path d="M80.24,57.07c-0.69-0.23-1.23-0.52-1.62-0.89l0.52-1.09c0.37,0.34,0.85,0.61,1.44,0.82s1.18,0.32,1.8,0.32
					c0.81,0,1.42-0.14,1.82-0.41s0.6-0.64,0.6-1.1c0-0.34-0.11-0.61-0.33-0.82s-0.49-0.37-0.81-0.48c-0.32-0.11-0.78-0.24-1.36-0.38
					c-0.74-0.18-1.33-0.35-1.79-0.53c-0.45-0.18-0.84-0.45-1.16-0.82c-0.32-0.37-0.48-0.87-0.48-1.49c0-0.52,0.14-0.99,0.41-1.41
					c0.27-0.42,0.69-0.76,1.25-1.01s1.26-0.38,2.09-0.38c0.58,0,1.15,0.07,1.71,0.22s1.04,0.36,1.44,0.64l-0.46,1.12
					c-0.41-0.26-0.85-0.46-1.32-0.6c-0.47-0.13-0.92-0.2-1.37-0.2c-0.79,0-1.39,0.15-1.79,0.43c-0.4,0.29-0.59,0.66-0.59,1.12
					c0,0.34,0.11,0.61,0.34,0.82s0.5,0.37,0.83,0.49c0.33,0.12,0.78,0.24,1.35,0.37c0.74,0.18,1.33,0.35,1.78,0.53
					c0.45,0.18,0.83,0.45,1.16,0.81c0.32,0.36,0.48,0.85,0.48,1.47c0,0.51-0.14,0.98-0.42,1.41c-0.28,0.42-0.71,0.76-1.27,1.01
					c-0.57,0.25-1.27,0.37-2.1,0.37C81.64,57.41,80.93,57.3,80.24,57.07z"/>
			</g>
		</g>
		<g>
			<g>
				<path d="M29.92,463.98c-0.69-0.23-1.23-0.52-1.62-0.89l0.52-1.09c0.37,0.34,0.85,0.61,1.44,0.82s1.18,0.32,1.8,0.32
					c0.81,0,1.42-0.14,1.82-0.41s0.6-0.64,0.6-1.1c0-0.34-0.11-0.61-0.33-0.82s-0.49-0.37-0.81-0.48c-0.32-0.11-0.78-0.24-1.36-0.38
					c-0.74-0.18-1.33-0.35-1.79-0.53c-0.45-0.18-0.84-0.45-1.16-0.82c-0.32-0.37-0.48-0.87-0.48-1.49c0-0.52,0.14-0.99,0.41-1.41
					c0.27-0.42,0.69-0.76,1.25-1.01s1.26-0.38,2.09-0.38c0.58,0,1.15,0.07,1.71,0.22s1.04,0.36,1.44,0.64l-0.46,1.12
					c-0.41-0.26-0.85-0.46-1.32-0.6c-0.47-0.13-0.92-0.2-1.37-0.2c-0.79,0-1.39,0.15-1.79,0.43c-0.4,0.29-0.59,0.66-0.59,1.12
					c0,0.34,0.11,0.61,0.34,0.82s0.5,0.37,0.83,0.49c0.33,0.12,0.78,0.24,1.35,0.37c0.74,0.18,1.33,0.35,1.78,0.53
					c0.45,0.18,0.83,0.45,1.16,0.81c0.32,0.36,0.48,0.85,0.48,1.47c0,0.51-0.14,0.98-0.42,1.41c-0.28,0.42-0.71,0.76-1.27,1.01
					c-0.57,0.25-1.27,0.37-2.1,0.37C31.31,464.32,30.6,464.21,29.92,463.98z"/>
			</g>
			<g>
				<path d="M44.13,461.76h-5.21l-1.08,2.45h-1.44l4.44-9.8h1.39l4.45,9.8h-1.47L44.13,461.76z M43.64,460.64l-2.11-4.8l-2.11,4.8
					H43.64z"/>
			</g>
			<g>
				<path d="M48.14,454.41h1.4v8.58h5.31v1.22h-6.71V454.41z"/>
			</g>
			<g>
				<path d="M62.74,461.76h-5.21l-1.08,2.45h-1.44l4.44-9.8h1.39l4.45,9.8h-1.47L62.74,461.76z M62.25,460.64l-2.11-4.8l-2.11,4.8
					H62.25z"/>
			</g>
			<g>
				<path d="M23.5,474.99c0.33,0.42,0.49,0.94,0.49,1.58c0,0.85-0.32,1.5-0.96,1.96c-0.64,0.46-1.57,0.69-2.79,0.69h-4.68v-9.8h4.4
					c1.12,0,1.99,0.22,2.6,0.67c0.61,0.45,0.92,1.07,0.92,1.86c0,0.51-0.12,0.96-0.36,1.33c-0.24,0.37-0.56,0.66-0.96,0.85
					C22.72,474.29,23.17,474.57,23.5,474.99z M16.96,470.54v3.14h2.87c0.72,0,1.27-0.13,1.66-0.4c0.39-0.27,0.58-0.66,0.58-1.17
					c0-0.51-0.19-0.9-0.58-1.17c-0.39-0.27-0.94-0.4-1.66-0.4H16.96z M21.97,477.68c0.4-0.26,0.6-0.67,0.6-1.23
					c0-1.09-0.8-1.64-2.39-1.64h-3.22v3.26h3.22C20.97,478.08,21.57,477.94,21.97,477.68z"/>
			</g>
			<g>
				<path d="M32.4,476.76h-5.21l-1.08,2.45h-1.44l4.44-9.8h1.39l4.45,9.8h-1.47L32.4,476.76z M31.91,475.64l-2.11-4.8l-2.11,4.8
					H31.91z"/>
			</g>
			<g>
				<path d="M36.41,469.41h1.4v8.58h5.31v1.22h-6.71V469.41z"/>
			</g>
			<g>
				<path d="M44.72,469.41h1.4v9.8h-1.4V469.41z"/>
			</g>
			<g>
				<path d="M56.17,477.99v1.22h-7.11v-9.8h6.92v1.22h-5.52v3.01h4.91v1.19h-4.91v3.16H56.17z"/>
			</g>
			<g>
				<path d="M64.99,479.21l-2.11-3.01c-0.26,0.02-0.47,0.03-0.62,0.03h-2.42v2.98h-1.4v-9.8h3.82c1.27,0,2.27,0.3,3,0.91
					c0.73,0.61,1.09,1.44,1.09,2.51c0,0.76-0.19,1.4-0.56,1.93c-0.37,0.53-0.91,0.92-1.6,1.16l2.32,3.29H64.99z M64.25,474.46
					c0.47-0.38,0.7-0.93,0.7-1.64c0-0.71-0.23-1.25-0.7-1.63s-1.14-0.57-2.03-0.57h-2.38v4.41h2.38
					C63.11,475.04,63.78,474.85,64.25,474.46z"/>
			</g>
			<g>
				<path d="M70.37,478.67c-0.79-0.43-1.42-1.03-1.87-1.8c-0.45-0.77-0.68-1.62-0.68-2.56c0-0.94,0.23-1.8,0.68-2.56
					c0.45-0.77,1.08-1.37,1.87-1.8c0.79-0.43,1.68-0.65,2.67-0.65c0.98,0,1.87,0.22,2.66,0.65c0.79,0.43,1.41,1.03,1.86,1.79
					c0.45,0.76,0.67,1.62,0.67,2.57s-0.22,1.81-0.67,2.57c-0.45,0.76-1.07,1.36-1.86,1.79c-0.79,0.43-1.68,0.65-2.66,0.65
					C72.05,479.32,71.16,479.1,70.37,478.67z M74.98,477.58c0.57-0.33,1.03-0.78,1.36-1.35c0.33-0.57,0.5-1.21,0.5-1.92
					c0-0.71-0.17-1.35-0.5-1.92c-0.33-0.57-0.78-1.02-1.36-1.35c-0.57-0.33-1.22-0.49-1.94-0.49s-1.37,0.16-1.95,0.49
					c-0.58,0.33-1.04,0.78-1.37,1.35c-0.33,0.57-0.5,1.22-0.5,1.92c0,0.71,0.17,1.35,0.5,1.92c0.33,0.57,0.79,1.02,1.37,1.35
					c0.58,0.33,1.23,0.49,1.95,0.49S74.41,477.91,74.98,477.58z"/>
			</g>
		</g>
		<g>
			<g>
				<path d="M158.01,320.32c0.73,0.61,1.09,1.44,1.09,2.51c0,1.06-0.36,1.9-1.09,2.51s-1.73,0.91-3,0.91h-2.42v2.97h-1.4v-9.8h3.82
					C156.28,319.41,157.28,319.71,158.01,320.32z M157,324.46c0.47-0.38,0.7-0.92,0.7-1.63c0-0.71-0.23-1.25-0.7-1.63
					s-1.14-0.57-2.03-0.57h-2.38v4.4h2.38C155.86,325.02,156.54,324.83,157,324.46z"/>
			</g>
			<g>
				<path d="M166.92,326.76h-5.21l-1.08,2.45h-1.44l4.44-9.8h1.39l4.45,9.8h-1.47L166.92,326.76z M166.43,325.64l-2.11-4.8
					l-2.11,4.8H166.43z"/>
			</g>
			<g>
				<path d="M172.38,320.63h-3.36v-1.22h8.11v1.22h-3.36v8.58h-1.39V320.63z"/>
			</g>
			<g>
				<path d="M178.65,319.41h1.4v9.8h-1.4V319.41z"/>
			</g>
			<g>
				<path d="M184.74,328.67c-0.79-0.43-1.42-1.03-1.87-1.8c-0.45-0.77-0.68-1.62-0.68-2.56c0-0.94,0.23-1.8,0.68-2.56
					c0.45-0.77,1.08-1.37,1.87-1.8c0.79-0.43,1.68-0.65,2.67-0.65c0.98,0,1.87,0.22,2.66,0.65c0.79,0.43,1.41,1.03,1.86,1.79
					c0.45,0.76,0.67,1.62,0.67,2.57s-0.22,1.81-0.67,2.57c-0.45,0.76-1.07,1.36-1.86,1.79c-0.79,0.43-1.68,0.65-2.66,0.65
					C186.42,329.32,185.53,329.1,184.74,328.67z M189.35,327.58c0.57-0.33,1.03-0.78,1.36-1.35c0.33-0.57,0.5-1.21,0.5-1.92
					c0-0.71-0.17-1.35-0.5-1.92s-0.78-1.02-1.36-1.35c-0.57-0.33-1.22-0.49-1.94-0.49s-1.37,0.16-1.95,0.49
					c-0.58,0.33-1.04,0.78-1.37,1.35c-0.33,0.57-0.5,1.22-0.5,1.92c0,0.71,0.17,1.35,0.5,1.92c0.33,0.57,0.79,1.02,1.37,1.35
					c0.58,0.33,1.23,0.49,1.95,0.49S188.78,327.91,189.35,327.58z"/>
			</g>
			<g>
				<path d="M140.78,343.67c-0.79-0.43-1.41-1.03-1.85-1.79c-0.45-0.76-0.67-1.62-0.67-2.57s0.22-1.81,0.67-2.57
					c0.45-0.76,1.07-1.36,1.86-1.79c0.79-0.43,1.68-0.65,2.66-0.65c0.77,0,1.46,0.13,2.1,0.38s1.18,0.64,1.62,1.14l-0.91,0.88
					c-0.74-0.78-1.66-1.16-2.76-1.16c-0.73,0-1.39,0.16-1.97,0.49c-0.59,0.33-1.05,0.78-1.38,1.35c-0.33,0.57-0.5,1.22-0.5,1.92
					c0,0.71,0.17,1.35,0.5,1.92c0.33,0.57,0.79,1.02,1.38,1.35c0.59,0.33,1.25,0.49,1.97,0.49c1.09,0,2.01-0.39,2.76-1.18l0.91,0.88
					c-0.45,0.5-0.99,0.89-1.63,1.15c-0.64,0.26-1.34,0.39-2.11,0.39C142.46,344.32,141.57,344.1,140.78,343.67z"/>
			</g>
			<g>
				<path d="M156.29,342.99v1.22h-7.11v-9.8h6.92v1.22h-5.52v3.01h4.91v1.19h-4.91v3.16H156.29z"/>
			</g>
			<g>
				<path d="M166.99,334.41v9.8h-1.15l-5.88-7.31v7.31h-1.4v-9.8h1.15l5.88,7.31v-7.31H166.99z"/>
			</g>
			<g>
				<path d="M171.87,335.63h-3.36v-1.22h8.11v1.22h-3.36v8.58h-1.39V335.63z"/>
			</g>
			<g>
				<path d="M184.7,344.21l-2.11-3.01c-0.26,0.02-0.47,0.03-0.62,0.03h-2.42v2.98h-1.4v-9.8h3.82c1.27,0,2.27,0.3,3,0.91
					c0.73,0.61,1.09,1.44,1.09,2.51c0,0.76-0.19,1.4-0.56,1.93c-0.37,0.53-0.91,0.92-1.6,1.16l2.32,3.29H184.7z M183.95,339.46
					c0.47-0.38,0.7-0.93,0.7-1.64c0-0.71-0.23-1.25-0.7-1.63s-1.14-0.57-2.03-0.57h-2.38v4.41h2.38
					C182.81,340.04,183.49,339.85,183.95,339.46z"/>
			</g>
			<g>
				<path d="M194.56,341.76h-5.21l-1.08,2.45h-1.44l4.44-9.8h1.39l4.45,9.8h-1.47L194.56,341.76z M194.08,340.64l-2.11-4.8
					l-2.11,4.8H194.08z"/>
			</g>
			<g>
				<path d="M198.57,334.41h1.4v8.58h5.31v1.22h-6.71V334.41z"/>
			</g>
		</g>
		<g>
			<g>
				<path d="M13.67,275.35c-0.79-0.43-1.41-1.03-1.85-1.79c-0.45-0.76-0.67-1.62-0.67-2.57s0.22-1.81,0.67-2.57
					c0.45-0.76,1.07-1.36,1.86-1.79c0.79-0.43,1.68-0.65,2.66-0.65c0.77,0,1.46,0.13,2.1,0.38s1.18,0.64,1.62,1.14l-0.91,0.88
					c-0.74-0.78-1.66-1.16-2.76-1.16c-0.73,0-1.39,0.16-1.97,0.49c-0.59,0.33-1.05,0.78-1.38,1.35c-0.33,0.57-0.5,1.22-0.5,1.92
					c0,0.71,0.17,1.35,0.5,1.92c0.33,0.57,0.79,1.02,1.38,1.35c0.59,0.33,1.25,0.49,1.97,0.49c1.09,0,2.01-0.39,2.76-1.18l0.91,0.88
					c-0.45,0.5-0.99,0.89-1.63,1.15c-0.64,0.26-1.34,0.39-2.11,0.39C15.34,276,14.46,275.78,13.67,275.35z"/>
			</g>
			<g>
				<path d="M23.6,275.35c-0.79-0.43-1.42-1.03-1.87-1.8c-0.45-0.77-0.68-1.62-0.68-2.56c0-0.94,0.23-1.8,0.68-2.56
					c0.45-0.77,1.08-1.37,1.87-1.8c0.79-0.43,1.68-0.65,2.67-0.65c0.98,0,1.87,0.22,2.66,0.65c0.79,0.43,1.41,1.03,1.86,1.79
					c0.45,0.76,0.67,1.62,0.67,2.57s-0.22,1.81-0.67,2.57c-0.45,0.76-1.07,1.36-1.86,1.79c-0.79,0.43-1.68,0.65-2.66,0.65
					C25.29,276,24.4,275.78,23.6,275.35z M28.22,274.26c0.57-0.33,1.03-0.78,1.36-1.35c0.33-0.57,0.5-1.21,0.5-1.92
					c0-0.71-0.17-1.35-0.5-1.92c-0.33-0.57-0.78-1.02-1.36-1.35c-0.57-0.33-1.22-0.49-1.94-0.49s-1.37,0.16-1.95,0.49
					c-0.58,0.33-1.04,0.78-1.37,1.35c-0.33,0.57-0.5,1.22-0.5,1.92c0,0.71,0.17,1.35,0.5,1.92c0.33,0.57,0.79,1.02,1.37,1.35
					c0.58,0.33,1.23,0.49,1.95,0.49S27.64,274.59,28.22,274.26z"/>
			</g>
			<g>
				<path d="M42.04,266.09v9.8h-1.15l-5.88-7.31v7.31h-1.4v-9.8h1.15l5.88,7.31v-7.31H42.04z"/>
			</g>
			<g>
				<path d="M45.7,275.66c-0.69-0.23-1.23-0.52-1.62-0.89l0.52-1.09c0.37,0.34,0.85,0.61,1.44,0.82s1.18,0.32,1.8,0.32
					c0.81,0,1.42-0.14,1.82-0.41s0.6-0.64,0.6-1.1c0-0.34-0.11-0.61-0.33-0.82s-0.49-0.37-0.81-0.48c-0.32-0.11-0.78-0.24-1.36-0.38
					c-0.74-0.18-1.33-0.35-1.79-0.53c-0.45-0.18-0.84-0.45-1.16-0.82c-0.32-0.37-0.48-0.87-0.48-1.49c0-0.52,0.14-0.99,0.41-1.41
					c0.27-0.42,0.69-0.76,1.25-1.01s1.26-0.38,2.09-0.38c0.58,0,1.15,0.07,1.71,0.22s1.04,0.36,1.44,0.64l-0.46,1.12
					c-0.41-0.26-0.85-0.46-1.32-0.6c-0.47-0.13-0.92-0.2-1.37-0.2c-0.79,0-1.39,0.15-1.79,0.43c-0.4,0.29-0.59,0.66-0.59,1.12
					c0,0.34,0.11,0.61,0.34,0.82s0.5,0.37,0.83,0.49c0.33,0.12,0.78,0.24,1.35,0.37c0.74,0.18,1.33,0.35,1.78,0.53
					c0.45,0.18,0.83,0.45,1.16,0.81c0.32,0.36,0.48,0.85,0.48,1.47c0,0.51-0.14,0.98-0.42,1.41c-0.28,0.42-0.71,0.76-1.27,1.01
					c-0.57,0.25-1.27,0.37-2.1,0.37C47.1,276,46.39,275.89,45.7,275.66z"/>
			</g>
			<g>
				<path d="M60.79,274.67v1.22h-7.11v-9.8h6.92v1.22h-5.52v3.01h4.91v1.19h-4.91v3.16H60.79z"/>
			</g>
			<g>
				<path d="M62.68,275.63c-0.5-0.25-0.91-0.6-1.22-1.04l0.81-0.95c0.54,0.77,1.22,1.16,2.04,1.16c0.55,0,0.97-0.17,1.25-0.5
					c0.28-0.34,0.43-0.83,0.43-1.48v-5.5h-3.54v-1.22h4.93v6.65c0,1.08-0.26,1.9-0.78,2.44S65.32,276,64.32,276
					C63.73,276,63.18,275.88,62.68,275.63z"/>
			</g>
			<g>
				<path d="M71.99,275.35c-0.79-0.43-1.42-1.03-1.87-1.8c-0.45-0.77-0.68-1.62-0.68-2.56c0-0.94,0.23-1.8,0.68-2.56
					c0.45-0.77,1.08-1.37,1.87-1.8c0.79-0.43,1.68-0.65,2.67-0.65c0.98,0,1.87,0.22,2.66,0.65c0.79,0.43,1.41,1.03,1.86,1.79
					c0.45,0.76,0.67,1.62,0.67,2.57s-0.22,1.81-0.67,2.57c-0.45,0.76-1.07,1.36-1.86,1.79c-0.79,0.43-1.68,0.65-2.66,0.65
					C73.67,276,72.78,275.78,71.99,275.35z M76.6,274.26c0.57-0.33,1.03-0.78,1.36-1.35c0.33-0.57,0.5-1.21,0.5-1.92
					c0-0.71-0.17-1.35-0.5-1.92c-0.33-0.57-0.78-1.02-1.36-1.35c-0.57-0.33-1.22-0.49-1.94-0.49s-1.37,0.16-1.95,0.49
					c-0.58,0.33-1.04,0.78-1.37,1.35c-0.33,0.57-0.5,1.22-0.5,1.92c0,0.71,0.17,1.35,0.5,1.92c0.33,0.57,0.79,1.02,1.37,1.35
					c0.58,0.33,1.23,0.49,1.95,0.49S76.03,274.59,76.6,274.26z"/>
			</g>
			<g>
				<path d="M7.32,281.09h4.13c1.04,0,1.96,0.21,2.76,0.62c0.8,0.41,1.43,0.99,1.87,1.73s0.67,1.59,0.67,2.55
					c0,0.96-0.22,1.81-0.67,2.55c-0.44,0.74-1.07,1.32-1.87,1.73c-0.8,0.41-1.72,0.62-2.76,0.62H7.32V281.09z M11.36,289.67
					c0.79,0,1.49-0.15,2.09-0.46c0.6-0.31,1.07-0.74,1.39-1.29c0.33-0.55,0.49-1.2,0.49-1.92c0-0.73-0.16-1.37-0.49-1.92
					s-0.79-0.99-1.39-1.29c-0.6-0.31-1.3-0.46-2.09-0.46H8.72v7.36H11.36z"/>
			</g>
			<g>
				<path d="M18.88,281.09h1.4v9.8h-1.4V281.09z"/>
			</g>
			<g>
				<path d="M29.77,290.89l-2.11-3.01c-0.26,0.02-0.47,0.03-0.62,0.03h-2.42v2.98h-1.4v-9.8h3.82c1.27,0,2.27,0.3,3,0.91
					c0.73,0.61,1.09,1.44,1.09,2.51c0,0.76-0.19,1.4-0.56,1.93c-0.37,0.53-0.91,0.92-1.6,1.16l2.32,3.29H29.77z M29.03,286.14
					c0.47-0.38,0.7-0.93,0.7-1.64c0-0.71-0.23-1.25-0.7-1.63s-1.14-0.57-2.03-0.57h-2.38v4.41H27
					C27.89,286.72,28.56,286.52,29.03,286.14z"/>
			</g>
			<g>
				<path d="M40.51,289.67v1.22H33.4v-9.8h6.92v1.22H34.8v3.01h4.91v1.19H34.8v3.16H40.51z"/>
			</g>
			<g>
				<path d="M44.46,290.35c-0.79-0.43-1.41-1.03-1.85-1.79c-0.45-0.76-0.67-1.62-0.67-2.57s0.22-1.81,0.67-2.57
					c0.45-0.76,1.07-1.36,1.86-1.79c0.79-0.43,1.68-0.65,2.66-0.65c0.77,0,1.46,0.13,2.1,0.38s1.18,0.64,1.62,1.14l-0.91,0.88
					c-0.74-0.78-1.66-1.16-2.76-1.16c-0.73,0-1.39,0.16-1.97,0.49c-0.59,0.33-1.05,0.78-1.38,1.35c-0.33,0.57-0.5,1.22-0.5,1.92
					c0,0.71,0.17,1.35,0.5,1.92c0.33,0.57,0.79,1.02,1.38,1.35c0.59,0.33,1.25,0.49,1.97,0.49c1.09,0,2.01-0.39,2.76-1.18l0.91,0.88
					c-0.45,0.5-0.99,0.89-1.63,1.15c-0.64,0.26-1.34,0.39-2.11,0.39C46.14,291,45.25,290.78,44.46,290.35z"/>
			</g>
			<g>
				<path d="M54.69,282.31h-3.36v-1.22h8.11v1.22h-3.36v8.58h-1.39V282.31z"/>
			</g>
			<g>
				<path d="M60.96,281.09h1.4v9.8h-1.4V281.09z"/>
			</g>
			<g>
				<path d="M73.72,281.09l-4.3,9.8h-1.39l-4.31-9.8h1.51l3.53,8.05l3.56-8.05H73.72z"/>
			</g>
			<g>
				<path d="M76.61,290.35c-0.79-0.43-1.42-1.03-1.87-1.8c-0.45-0.77-0.68-1.62-0.68-2.56c0-0.94,0.23-1.8,0.68-2.56
					c0.45-0.77,1.08-1.37,1.87-1.8c0.79-0.43,1.68-0.65,2.67-0.65c0.98,0,1.87,0.22,2.66,0.65c0.79,0.43,1.41,1.03,1.86,1.79
					c0.45,0.76,0.67,1.62,0.67,2.57s-0.22,1.81-0.67,2.57c-0.45,0.76-1.07,1.36-1.86,1.79c-0.79,0.43-1.68,0.65-2.66,0.65
					C78.3,291,77.41,290.78,76.61,290.35z M81.23,289.26c0.57-0.33,1.03-0.78,1.36-1.35c0.33-0.57,0.5-1.21,0.5-1.92
					c0-0.71-0.17-1.35-0.5-1.92c-0.33-0.57-0.78-1.02-1.36-1.35c-0.57-0.33-1.22-0.49-1.94-0.49s-1.37,0.16-1.95,0.49
					c-0.58,0.33-1.04,0.78-1.37,1.35c-0.33,0.57-0.5,1.22-0.5,1.92c0,0.71,0.17,1.35,0.5,1.92c0.33,0.57,0.79,1.02,1.37,1.35
					c0.58,0.33,1.23,0.49,1.95,0.49S80.65,289.59,81.23,289.26z"/>
			</g>
		</g>
		<g>
			<g>
				<path d="M18.98,212.09h4.13c1.04,0,1.96,0.21,2.76,0.62c0.8,0.41,1.43,0.99,1.87,1.73s0.67,1.59,0.67,2.55
					c0,0.96-0.22,1.81-0.67,2.55c-0.44,0.74-1.07,1.32-1.87,1.73c-0.8,0.41-1.72,0.62-2.76,0.62h-4.13V212.09z M23.03,220.67
					c0.79,0,1.49-0.15,2.09-0.46c0.6-0.31,1.07-0.74,1.39-1.29c0.33-0.55,0.49-1.2,0.49-1.92c0-0.73-0.16-1.37-0.49-1.92
					s-0.79-0.99-1.39-1.29c-0.6-0.31-1.3-0.46-2.09-0.46h-2.65v7.36H23.03z"/>
			</g>
			<g>
				<path d="M32.35,213.31h-3.36v-1.22h8.11v1.22h-3.36v8.58h-1.39V213.31z"/>
			</g>
			<g>
				<path d="M40.24,221.35c-0.79-0.43-1.42-1.03-1.87-1.8c-0.45-0.77-0.68-1.62-0.68-2.56c0-0.94,0.23-1.8,0.68-2.56
					c0.45-0.77,1.08-1.37,1.87-1.8c0.79-0.43,1.68-0.65,2.67-0.65c0.98,0,1.87,0.22,2.66,0.65c0.79,0.43,1.41,1.03,1.86,1.79
					c0.45,0.76,0.67,1.62,0.67,2.57s-0.22,1.81-0.67,2.57c-0.45,0.76-1.07,1.36-1.86,1.79c-0.79,0.43-1.68,0.65-2.66,0.65
					C41.92,222,41.03,221.78,40.24,221.35z M44.85,220.26c0.57-0.33,1.03-0.78,1.36-1.35c0.33-0.57,0.5-1.21,0.5-1.92
					c0-0.71-0.17-1.35-0.5-1.92c-0.33-0.57-0.78-1.02-1.36-1.35c-0.57-0.33-1.22-0.49-1.94-0.49s-1.37,0.16-1.95,0.49
					c-0.58,0.33-1.04,0.78-1.37,1.35c-0.33,0.57-0.5,1.22-0.5,1.92c0,0.71,0.17,1.35,0.5,1.92c0.33,0.57,0.79,1.02,1.37,1.35
					c0.58,0.33,1.23,0.49,1.95,0.49S44.27,220.59,44.85,220.26z"/>
			</g>
			<g>
				<path d="M54.01,212.09h4.13c1.04,0,1.96,0.21,2.76,0.62c0.8,0.41,1.43,0.99,1.87,1.73s0.67,1.59,0.67,2.55
					c0,0.96-0.22,1.81-0.67,2.55c-0.44,0.74-1.07,1.32-1.87,1.73c-0.8,0.41-1.72,0.62-2.76,0.62h-4.13V212.09z M58.06,220.67
					c0.79,0,1.49-0.15,2.09-0.46c0.6-0.31,1.07-0.74,1.39-1.29c0.33-0.55,0.49-1.2,0.49-1.92c0-0.73-0.16-1.37-0.49-1.92
					s-0.79-0.99-1.39-1.29c-0.6-0.31-1.3-0.46-2.09-0.46h-2.65v7.36H58.06z"/>
			</g>
			<g>
				<path d="M72.69,220.67v1.22h-7.11v-9.8h6.92v1.22h-5.52v3.01h4.91v1.19h-4.91v3.16H72.69z"/>
			</g>
			<g>
				<path d="M17.14,234.44h-5.21l-1.08,2.45H9.42l4.44-9.8h1.39l4.45,9.8h-1.47L17.14,234.44z M16.65,233.32l-2.11-4.8l-2.11,4.8
					H16.65z"/>
			</g>
			<g>
				<path d="M21.15,227.09h1.4v8.58h5.31v1.22h-6.71V227.09z"/>
			</g>
			<g>
				<path d="M30.3,235.88c-0.73-0.75-1.09-1.82-1.09-3.22v-5.57h1.4v5.52c0,2.1,0.92,3.15,2.76,3.15c0.9,0,1.58-0.26,2.06-0.78
					c0.48-0.52,0.71-1.31,0.71-2.37v-5.52h1.36v5.57c0,1.41-0.36,2.49-1.09,3.23S34.66,237,33.35,237S31.03,236.63,30.3,235.88z"/>
			</g>
			<g>
				<path d="M49.46,236.89l-0.01-7.14l-3.54,5.95h-0.64l-3.54-5.91v7.1h-1.34v-9.8h1.15l4.09,6.89l4.03-6.89h1.15l0.01,9.8H49.46z"
					/>
			</g>
			<g>
				<path d="M62.17,227.09v9.8h-1.15l-5.88-7.31v7.31h-1.4v-9.8h1.15l5.88,7.31v-7.31H62.17z"/>
			</g>
			<g>
				<path d="M71.27,236.89l-2.94-4.05l-2.9,4.05h-1.61l3.68-5.03l-3.46-4.77h1.6l2.74,3.77l2.72-3.77h1.53l-3.46,4.73l3.71,5.07
					H71.27z"/>
			</g>
			<g>
				<path d="M75.07,236.66c-0.69-0.23-1.23-0.52-1.62-0.89l0.52-1.09c0.37,0.34,0.85,0.61,1.44,0.82s1.18,0.32,1.8,0.32
					c0.81,0,1.42-0.14,1.82-0.41s0.6-0.64,0.6-1.1c0-0.34-0.11-0.61-0.33-0.82s-0.49-0.37-0.81-0.48c-0.32-0.11-0.78-0.24-1.36-0.38
					c-0.74-0.18-1.33-0.35-1.79-0.53c-0.45-0.18-0.84-0.45-1.16-0.82c-0.32-0.37-0.48-0.87-0.48-1.49c0-0.52,0.14-0.99,0.41-1.41
					c0.27-0.42,0.69-0.76,1.25-1.01s1.26-0.38,2.09-0.38c0.58,0,1.15,0.07,1.71,0.22s1.04,0.36,1.44,0.64l-0.46,1.12
					c-0.41-0.26-0.85-0.46-1.32-0.6c-0.47-0.13-0.92-0.2-1.37-0.2c-0.79,0-1.39,0.15-1.79,0.43c-0.4,0.29-0.59,0.66-0.59,1.12
					c0,0.34,0.11,0.61,0.34,0.82s0.5,0.37,0.83,0.49c0.33,0.12,0.78,0.24,1.35,0.37c0.74,0.18,1.33,0.35,1.78,0.53
					c0.45,0.18,0.83,0.45,1.16,0.81c0.32,0.36,0.48,0.85,0.48,1.47c0,0.51-0.14,0.98-0.42,1.41c-0.28,0.42-0.71,0.76-1.27,1.01
					c-0.57,0.25-1.27,0.37-2.1,0.37C76.47,237,75.75,236.89,75.07,236.66z"/>
			</g>
		</g>
		<g>
			<g>
				<path d="M19.26,141c-0.5-0.25-0.91-0.6-1.22-1.04l0.81-0.95c0.54,0.77,1.22,1.16,2.04,1.16c0.55,0,0.97-0.17,1.25-0.5
					c0.28-0.34,0.43-0.83,0.43-1.48v-5.5h-3.54v-1.22h4.93v6.65c0,1.08-0.26,1.9-0.78,2.44s-1.28,0.82-2.29,0.82
					C20.31,141.37,19.76,141.24,19.26,141z"/>
			</g>
			<g>
				<path d="M32.85,138.8h-5.21l-1.08,2.45h-1.44l4.44-9.8h1.39l4.45,9.8h-1.47L32.85,138.8z M32.36,137.68l-2.11-4.8l-2.11,4.8
					H32.36z"/>
			</g>
			<g>
				<path d="M43.41,141.25l-2.11-3.01c-0.26,0.02-0.47,0.03-0.62,0.03h-2.42v2.98h-1.4v-9.8h3.82c1.27,0,2.27,0.3,3,0.91
					c0.73,0.61,1.09,1.44,1.09,2.51c0,0.76-0.19,1.4-0.56,1.93c-0.37,0.53-0.91,0.92-1.6,1.16l2.32,3.29H43.41z M42.67,136.51
					c0.47-0.38,0.7-0.93,0.7-1.64c0-0.71-0.23-1.25-0.7-1.63s-1.14-0.57-2.03-0.57h-2.38v4.41h2.38
					C41.52,137.08,42.2,136.89,42.67,136.51z"/>
			</g>
			<g>
				<path d="M47.03,131.46h4.13c1.04,0,1.96,0.21,2.76,0.62c0.8,0.41,1.43,0.99,1.87,1.73s0.67,1.59,0.67,2.55
					c0,0.96-0.22,1.81-0.67,2.55c-0.44,0.74-1.07,1.32-1.87,1.73c-0.8,0.41-1.72,0.62-2.76,0.62h-4.13V131.46z M51.08,140.04
					c0.79,0,1.49-0.15,2.09-0.46c0.6-0.31,1.07-0.74,1.39-1.29c0.33-0.55,0.49-1.2,0.49-1.92c0-0.73-0.16-1.37-0.49-1.92
					s-0.79-0.99-1.39-1.29c-0.6-0.31-1.3-0.46-2.09-0.46h-2.65v7.36H51.08z"/>
			</g>
			<g>
				<path d="M60.15,128.84h1.71l-2.35,1.82h-1.26L60.15,128.84z M58.6,131.46H60v9.8h-1.4V131.46z"/>
			</g>
			<g>
				<path d="M71.36,131.46v9.8h-1.15l-5.88-7.31v7.31h-1.4v-9.8h1.15l5.88,7.31v-7.31H71.36z"/>
			</g>
			<g>
				<path d="M15.64,156.25l-0.01-7.14l-3.54,5.95h-0.64l-3.54-5.91v7.1H6.55v-9.8H7.7l4.09,6.89l4.03-6.89h1.15l0.01,9.8H15.64z"/>
			</g>
			<g>
				<path d="M26.17,153.8h-5.21l-1.08,2.45h-1.44l4.44-9.8h1.39l4.45,9.8h-1.47L26.17,153.8z M25.68,152.68l-2.11-4.8l-2.11,4.8
					H25.68z"/>
			</g>
			<g>
				<path d="M31.63,147.67h-3.36v-1.22h8.11v1.22h-3.36v8.58h-1.39V147.67z"/>
			</g>
			<g>
				<path d="M45.01,155.04v1.22H37.9v-9.8h6.92v1.22H39.3v3.01h4.91v1.19H39.3v3.16H45.01z"/>
			</g>
			<g>
				<path d="M53.83,156.25l-2.11-3.01c-0.26,0.02-0.47,0.03-0.62,0.03h-2.42v2.98h-1.4v-9.8h3.82c1.27,0,2.27,0.3,3,0.91
					c0.73,0.61,1.09,1.44,1.09,2.51c0,0.76-0.19,1.4-0.56,1.93c-0.37,0.53-0.91,0.92-1.6,1.16l2.32,3.29H53.83z M53.09,151.51
					c0.47-0.38,0.7-0.93,0.7-1.64c0-0.71-0.23-1.25-0.7-1.63s-1.14-0.57-2.03-0.57h-2.38v4.41h2.38
					C51.94,152.08,52.62,151.89,53.09,151.51z"/>
			</g>
			<g>
				<path d="M65.88,146.46v9.8h-1.15l-5.88-7.31v7.31h-1.4v-9.8h1.15l5.88,7.31v-7.31H65.88z"/>
			</g>
			<g>
				<path d="M75.07,153.8h-5.21l-1.08,2.45h-1.44l4.44-9.8h1.39l4.45,9.8h-1.47L75.07,153.8z M74.58,152.68l-2.11-4.8l-2.11,4.8
					H74.58z"/>
			</g>
			<g>
				<path d="M79.07,146.46h1.4v8.58h5.31v1.22h-6.71V146.46z"/>
			</g>
		</g>
		<g>
			<g>
				<path class="st5" d="M109,197.56h35v-46c0-4.42-3.58-8-8-8h-27"/>
			</g>
			<g>
				<path class="st0" d="M144.5,198.06H109v-1h34.5v-45.5c0-4.14-3.36-7.5-7.5-7.5h-27v-1h27c4.69,0,8.5,3.81,8.5,8.5V198.06z"/>
			</g>
		</g>
		<g>
			<g>
				<path class="st5" d="M234,197.56h-35v-46c0-4.42,3.58-8,8-8h27"/>
			</g>
			<g>
				<path class="st0" d="M234,198.06h-35.5v-46.5c0-4.69,3.81-8.5,8.5-8.5h27v1h-27c-4.14,0-7.5,3.36-7.5,7.5v45.5H234V198.06z"/>
			</g>
		</g>
		<g>
			<g>
				<path class="st5" d="M234.5,467.56H199v46c0,4.42,3.63,8,8.11,8h27.39"/>
			</g>
			<g>
				<path class="st0" d="M234.5,522.06h-27.39c-4.75,0-8.61-3.81-8.61-8.5v-46.5h36v1h-35v45.5c0,4.14,3.42,7.5,7.61,7.5h27.39
					V522.06z"/>
			</g>
		</g>
		<g>
			<g>
				<path class="st5" d="M109,467.56h35V558h-27c-4.42,0-8-3.58-8-8V467.56"/>
			</g>
			<g>
				<path class="st0" d="M144.5,558.5H117c-4.69,0-8.5-3.81-8.5-8.5v-82.94h36V558.5z M109.5,468.06V550c0,4.14,3.36,7.5,7.5,7.5
					h26.5v-89.44H109.5z"/>
			</g>
		</g>
		<g>
			<g>
				<rect x="108.5" y="197.06" class="st0" width="126" height="1"/>
			</g>
		</g>
		<g>
			<g>
				<rect x="108.5" y="467.06" class="st0" width="126" height="1"/>
			</g>
		</g>
		<g>
			<g>
				<rect x="198.5" y="197.56" class="st0" width="1" height="18"/>
			</g>
		</g>
		<g>
			<g>
				<rect x="143.5" y="197.56" class="st0" width="1" height="18"/>
			</g>
		</g>
		<g>
			<g>
				<rect x="162.53" y="197.56" class="st0" width="1" height="18.5"/>
			</g>
		</g>
		<g>
			<g>
				<rect x="180.53" y="197.56" class="st0" width="1" height="18.5"/>
			</g>
		</g>
		<g>
			<g>
				<rect x="198.5" y="449.56" class="st0" width="1" height="18"/>
			</g>
		</g>
		<g>
			<g>
				<rect x="143.5" y="449.56" class="st0" width="1" height="18"/>
			</g>
		</g>
		<g>
			<g>
				<rect x="162.53" y="449.56" class="st0" width="1" height="18.5"/>
			</g>
		</g>
		<g>
			<g>
				<rect x="180.53" y="449.56" class="st0" width="1" height="18.5"/>
			</g>
		</g>
		<g>
			<g>
				<rect x="108.5" y="395.06" class="st0" width="0.5" height="1"/>
			</g>
		</g>
		<g>
			<g>
				<g>
					<g>
						<path d="M235,260.56v10h-44.5c0,9.94-8.06,18-18,18s-18-8.06-18-18H109v-10c0-4.42,3.58-8,8-8h110
							C231.42,252.56,235,256.14,235,260.56z"/>
					</g>
				</g>
				<g>
					<g>
						<path d="M172.5,289.06c-10.03,0-18.23-8.03-18.49-18H108.5v-10.5c0-4.69,3.81-8.5,8.5-8.5h110c4.69,0,8.5,3.81,8.5,8.5v10.5
							h-44.51C190.73,281.03,182.53,289.06,172.5,289.06z M109.5,270.06H155v0.5c0,9.65,7.85,17.5,17.5,17.5s17.5-7.85,17.5-17.5
							v-0.5h44.5v-9.5c0-4.14-3.36-7.5-7.5-7.5H117c-4.14,0-7.5,3.36-7.5,7.5V270.06z"/>
					</g>
				</g>
			</g>
			<g>
				<g>
					<g>
						<path class="st1" d="M235,259.56v10h-44.5c0,9.94-8.06,18-18,18s-18-8.06-18-18H109v-10c0-4.42,3.58-8,8-8h110
							C231.42,251.56,235,255.14,235,259.56z"/>
					</g>
				</g>
				<g>
					<g>
						<path class="st0" d="M172.5,288.06c-10.03,0-18.23-8.03-18.49-18H108.5v-10.5c0-4.69,3.81-8.5,8.5-8.5h110
							c4.69,0,8.5,3.81,8.5,8.5v10.5h-44.51C190.73,280.03,182.53,288.06,172.5,288.06z M109.5,269.06H155v0.5
							c0,9.65,7.85,17.5,17.5,17.5s17.5-7.85,17.5-17.5v-0.5h44.5v-9.5c0-4.14-3.36-7.5-7.5-7.5H117c-4.14,0-7.5,3.36-7.5,7.5
							V269.06z"/>
					</g>
				</g>
			</g>
		</g>
		<g>
			<g>
				<path class="st0" d="M227,558.06H117c-4.69,0-8.5-3.81-8.5-8.5v-92c0-4.69,3.81-8.5,8.5-8.5h110c4.69,0,8.5,3.81,8.5,8.5v92
					C235.5,554.25,231.69,558.06,227,558.06z M117,450.06c-4.14,0-7.5,3.36-7.5,7.5v92c0,4.14,3.36,7.5,7.5,7.5h110
					c4.14,0,7.5-3.36,7.5-7.5v-92c0-4.14-3.36-7.5-7.5-7.5H117z"/>
			</g>
		</g>
		<g>
			<g>
				<path class="st0" d="M226.5,216.56h-110c-4.69,0-8.5-3.81-8.5-8.5v-92c0-4.69,3.81-8.5,8.5-8.5h110c4.69,0,8.5,3.81,8.5,8.5v92
					C235,212.75,231.19,216.56,226.5,216.56z M116.5,108.56c-4.14,0-7.5,3.36-7.5,7.5v92c0,4.14,3.36,7.5,7.5,7.5h110
					c4.14,0,7.5-3.36,7.5-7.5v-92c0-4.14-3.36-7.5-7.5-7.5H116.5z"/>
			</g>
		</g>
		<g>
			<g>
				<path class="st1" d="M342,521.56v127c0,8.84-7.16,16-16,16H17c-8.84,0-16-7.16-16-16v-127h90v72h53v-11c0-4.42,3.58-8,8-8h39
					c4.42,0,8,3.58,8,8v11h53v-72H342z"/>
			</g>
			<g>
				<path class="st0" d="M326,665.06H17c-9.1,0-16.5-7.4-16.5-16.5v-127.5h91v72h52v-10.5c0-4.69,3.81-8.5,8.5-8.5h39
					c4.69,0,8.5,3.81,8.5,8.5v10.5h52v-72h91v127.5C342.5,657.66,335.1,665.06,326,665.06z M1.5,522.06v126.5
					c0,8.55,6.95,15.5,15.5,15.5h309c8.55,0,15.5-6.95,15.5-15.5v-126.5h-89v72h-54v-11.5c0-4.14-3.36-7.5-7.5-7.5h-39
					c-4.14,0-7.5,3.36-7.5,7.5v11.5h-54v-72H1.5z"/>
			</g>
		</g>
		<g>
			<g>
				<path d="M137.66,621.6c0.33,0.42,0.49,0.94,0.49,1.58c0,0.85-0.32,1.5-0.96,1.96c-0.64,0.46-1.57,0.69-2.79,0.69h-4.68v-9.8h4.4
					c1.12,0,1.99,0.22,2.6,0.67c0.61,0.45,0.92,1.07,0.92,1.86c0,0.51-0.12,0.96-0.36,1.33c-0.24,0.37-0.56,0.66-0.96,0.85
					C136.88,620.9,137.33,621.19,137.66,621.6z M131.12,617.16v3.14h2.87c0.72,0,1.27-0.13,1.66-0.4c0.39-0.27,0.58-0.66,0.58-1.17
					c0-0.51-0.19-0.9-0.58-1.17c-0.39-0.27-0.94-0.4-1.66-0.4H131.12z M136.13,624.3c0.4-0.26,0.6-0.67,0.6-1.23
					c0-1.09-0.8-1.64-2.39-1.64h-3.22v3.26h3.22C135.13,624.69,135.73,624.56,136.13,624.3z"/>
			</g>
			<g>
				<path d="M140.32,616.03h1.4v9.8h-1.4V616.03z"/>
			</g>
			<g>
				<path d="M152.6,621.6c0.33,0.42,0.49,0.94,0.49,1.58c0,0.85-0.32,1.5-0.96,1.96c-0.64,0.46-1.57,0.69-2.79,0.69h-4.68v-9.8h4.4
					c1.12,0,1.99,0.22,2.6,0.67c0.61,0.45,0.92,1.07,0.92,1.86c0,0.51-0.12,0.96-0.36,1.33c-0.24,0.37-0.56,0.66-0.96,0.85
					C151.82,620.9,152.27,621.19,152.6,621.6z M146.06,617.16v3.14h2.87c0.72,0,1.27-0.13,1.66-0.4c0.39-0.27,0.58-0.66,0.58-1.17
					c0-0.51-0.19-0.9-0.58-1.17c-0.39-0.27-0.94-0.4-1.66-0.4H146.06z M151.07,624.3c0.4-0.26,0.6-0.67,0.6-1.23
					c0-1.09-0.8-1.64-2.39-1.64h-3.22v3.26h3.22C150.07,624.69,150.67,624.56,151.07,624.3z"/>
			</g>
			<g>
				<path d="M155.26,616.03h1.4v8.58h5.31v1.22h-6.71V616.03z"/>
			</g>
			<g>
				<path d="M163.57,616.03h1.4v9.8h-1.4V616.03z"/>
			</g>
			<g>
				<path d="M169.66,625.29c-0.79-0.43-1.42-1.03-1.87-1.8c-0.45-0.77-0.68-1.62-0.68-2.56c0-0.94,0.23-1.8,0.68-2.56
					c0.45-0.77,1.08-1.37,1.87-1.8c0.79-0.43,1.68-0.65,2.67-0.65c0.98,0,1.87,0.22,2.66,0.65c0.79,0.43,1.41,1.03,1.86,1.79
					c0.45,0.76,0.67,1.62,0.67,2.57s-0.22,1.81-0.67,2.57c-0.45,0.76-1.07,1.36-1.86,1.79c-0.79,0.43-1.68,0.65-2.66,0.65
					C171.35,625.94,170.45,625.72,169.66,625.29z M174.27,624.2c0.57-0.33,1.03-0.78,1.36-1.35c0.33-0.57,0.5-1.21,0.5-1.92
					c0-0.71-0.17-1.35-0.5-1.92c-0.33-0.57-0.78-1.02-1.36-1.35c-0.57-0.33-1.22-0.49-1.94-0.49c-0.72,0-1.37,0.16-1.95,0.49
					c-0.58,0.33-1.04,0.78-1.37,1.35c-0.33,0.57-0.5,1.22-0.5,1.92c0,0.71,0.17,1.35,0.5,1.92c0.33,0.57,0.79,1.02,1.37,1.35
					c0.58,0.33,1.23,0.49,1.95,0.49C173.05,624.69,173.7,624.53,174.27,624.2z"/>
			</g>
			<g>
				<path d="M181.48,617.24h-3.36v-1.22h8.11v1.22h-3.36v8.58h-1.39V617.24z"/>
			</g>
			<g>
				<path d="M194.86,624.61v1.22h-7.11v-9.8h6.92v1.22h-5.52v3.01h4.91v1.19h-4.91v3.16H194.86z"/>
			</g>
			<g>
				<path d="M198.82,625.29c-0.79-0.43-1.41-1.03-1.86-1.79c-0.45-0.76-0.67-1.62-0.67-2.57s0.22-1.81,0.67-2.57
					c0.45-0.76,1.07-1.36,1.86-1.79c0.79-0.43,1.68-0.65,2.66-0.65c0.76,0,1.46,0.13,2.1,0.38s1.18,0.64,1.62,1.14l-0.91,0.88
					c-0.74-0.78-1.66-1.16-2.76-1.16c-0.73,0-1.39,0.16-1.97,0.49c-0.59,0.33-1.05,0.78-1.38,1.35c-0.33,0.57-0.5,1.22-0.5,1.92
					c0,0.71,0.17,1.35,0.5,1.92c0.33,0.57,0.79,1.02,1.38,1.35c0.59,0.33,1.25,0.49,1.97,0.49c1.09,0,2.01-0.39,2.76-1.18l0.91,0.88
					c-0.45,0.5-0.99,0.89-1.63,1.15c-0.64,0.26-1.34,0.39-2.11,0.39C200.49,625.94,199.61,625.72,198.82,625.29z"/>
			</g>
			<g>
				<path d="M213.21,623.38h-5.21l-1.08,2.45h-1.44l4.44-9.8h1.39l4.45,9.8h-1.47L213.21,623.38z M212.72,622.26l-2.11-4.8
					l-2.11,4.8H212.72z"/>
			</g>
		</g>
		<g>
			<g>
				<g>
					<g>
						<rect x="116.35" y="170.21" class="st1" width="13.98" height="11.55"/>
					</g>
					<g>
						<path class="st8" d="M130.53,181.95h-14.37v-11.94h14.37V181.95z M116.55,181.55h13.58V170.4h-13.58V181.55z"/>
					</g>
				</g>
				<g>
					<g>
						<path class="st1" d="M133.72,161.25c-0.09,0-0.18,0.01-0.26,0.03h-14.35v14.84c2.56,0,5.13,0.01,7.69,0.02
							c1.29,0.01,2.6,0.01,3.89,0.06c1.08,0.04,2.17,0.05,3.22-0.23c0.93-0.25,1.64-0.95,2.05-1.81c0.61-1.28,0.76-2.76,0.82-4.16
							c0.02-0.43,0.02-0.87,0.02-1.3C136.8,164.58,135.42,161.25,133.72,161.25z"/>
					</g>
					<g>
						<path class="st8" d="M131.64,176.42c-0.31,0-0.63-0.01-0.96-0.02c-1.23-0.05-2.48-0.06-3.7-0.06l-0.18,0
							c-2.47-0.01-5.1-0.02-7.69-0.02h-0.2v-15.23h14.52c0.08-0.02,0.18-0.03,0.28-0.03c1.84,0,3.28,3.36,3.28,7.65
							c0,0.52-0.01,0.93-0.02,1.31c-0.05,1.34-0.2,2.9-0.84,4.24c-0.47,0.97-1.26,1.67-2.18,1.91
							C133.22,176.36,132.47,176.42,131.64,176.42z M119.31,175.92c2.52,0,5.08,0.01,7.49,0.02l0.18,0c1.22,0,2.48,0.01,3.71,0.06
							c1.2,0.05,2.2,0.03,3.16-0.22c0.81-0.21,1.51-0.83,1.92-1.7c0.61-1.28,0.75-2.78,0.8-4.08c0.02-0.38,0.02-0.78,0.02-1.3
							c0-3.93-1.32-7.25-2.88-7.25c-0.08,0-0.16,0.01-0.23,0.03l-0.04,0h-14.15V175.92z"/>
					</g>
				</g>
				<g>
					<g>
						<g>
							<ellipse class="st9" cx="119.28" cy="168.7" rx="3.08" ry="7.45"/>
						</g>
					</g>
					<g>
						<g>
							<path d="M119.28,176.35c-1.84,0-3.28-3.36-3.28-7.65s1.44-7.65,3.28-7.65c1.84,0,3.28,3.36,3.28,7.65
								S121.11,176.35,119.28,176.35z M119.28,161.45c-1.56,0-2.88,3.32-2.88,7.25s1.32,7.25,2.88,7.25s2.88-3.32,2.88-7.25
								S120.84,161.45,119.28,161.45z"/>
						</g>
					</g>
				</g>
				<g>
					<g>
						<ellipse class="st8" cx="118.78" cy="168.61" rx="0.98" ry="3.03"/>
					</g>
				</g>
				<g>
					<g>
						<ellipse class="st8" cx="127.74" cy="167.64" rx="1.86" ry="2.28"/>
					</g>
				</g>
				<g>
					<g>
						<ellipse class="st8" cx="134.97" cy="167.52" rx="1.86" ry="2.28"/>
					</g>
				</g>
				<g>
					<g>
						<path class="st8" d="M126.75,170.47c-1.64,0-2.97-1.33-2.97-2.97c0-1.64,1.33-2.97,2.97-2.97c1.64,0,2.97,1.33,2.97,2.97
							C129.72,169.14,128.39,170.47,126.75,170.47z M126.75,164.93c-1.42,0-2.57,1.15-2.57,2.57c0,1.42,1.15,2.57,2.57,2.57
							c1.42,0,2.57-1.15,2.57-2.57C129.32,166.08,128.17,164.93,126.75,164.93z"/>
					</g>
				</g>
				<g>
					<g>
						<path class="st8" d="M134.02,170.47c-1.64,0-2.97-1.33-2.97-2.97c0-1.64,1.33-2.97,2.97-2.97c1.64,0,2.97,1.33,2.97,2.97
							C136.99,169.14,135.65,170.47,134.02,170.47z M134.02,164.93c-1.42,0-2.57,1.15-2.57,2.57c0,1.42,1.15,2.57,2.57,2.57
							c1.42,0,2.57-1.15,2.57-2.57C136.59,166.08,135.43,164.93,134.02,164.93z"/>
					</g>
				</g>
			</g>
			<g>
				<g>
					<g>
						<rect x="207.35" y="170.21" class="st1" width="13.98" height="11.55"/>
					</g>
					<g>
						<path class="st8" d="M221.53,181.95h-14.37v-11.94h14.37V181.95z M207.55,181.55h13.58V170.4h-13.58V181.55z"/>
					</g>
				</g>
				<g>
					<g>
						<path class="st1" d="M224.72,161.25c-0.09,0-0.18,0.01-0.26,0.03h-14.35v14.84c2.56,0,5.13,0.01,7.69,0.02
							c1.29,0.01,2.6,0.01,3.89,0.06c1.08,0.04,2.17,0.05,3.22-0.23c0.93-0.25,1.64-0.95,2.05-1.81c0.61-1.28,0.76-2.76,0.82-4.16
							c0.02-0.43,0.02-0.87,0.02-1.3C227.8,164.58,226.42,161.25,224.72,161.25z"/>
					</g>
					<g>
						<path class="st8" d="M222.64,176.42c-0.31,0-0.63-0.01-0.96-0.02c-1.23-0.05-2.48-0.06-3.7-0.06l-0.18,0
							c-2.47-0.01-5.1-0.02-7.69-0.02h-0.2v-15.23h14.52c0.08-0.02,0.18-0.03,0.28-0.03c1.84,0,3.28,3.36,3.28,7.65
							c0,0.52-0.01,0.93-0.02,1.31c-0.05,1.34-0.2,2.9-0.84,4.24c-0.47,0.97-1.26,1.67-2.18,1.91
							C224.22,176.36,223.47,176.42,222.64,176.42z M210.31,175.92c2.52,0,5.08,0.01,7.49,0.02l0.18,0c1.22,0,2.48,0.01,3.71,0.06
							c1.2,0.05,2.2,0.03,3.16-0.22c0.81-0.21,1.51-0.83,1.92-1.7c0.61-1.28,0.75-2.78,0.8-4.08c0.02-0.38,0.02-0.78,0.02-1.3
							c0-3.93-1.32-7.25-2.88-7.25c-0.08,0-0.16,0.01-0.23,0.03l-0.04,0h-14.15V175.92z"/>
					</g>
				</g>
				<g>
					<g>
						<g>
							<ellipse class="st9" cx="210.28" cy="168.7" rx="3.08" ry="7.45"/>
						</g>
					</g>
					<g>
						<g>
							<path d="M210.28,176.35c-1.84,0-3.28-3.36-3.28-7.65s1.44-7.65,3.28-7.65s3.28,3.36,3.28,7.65S212.11,176.35,210.28,176.35z
								 M210.28,161.45c-1.56,0-2.88,3.32-2.88,7.25s1.32,7.25,2.88,7.25s2.88-3.32,2.88-7.25S211.84,161.45,210.28,161.45z"/>
						</g>
					</g>
				</g>
				<g>
					<g>
						<ellipse class="st8" cx="209.78" cy="168.61" rx="0.98" ry="3.03"/>
					</g>
				</g>
				<g>
					<g>
						<ellipse class="st8" cx="218.74" cy="167.64" rx="1.86" ry="2.28"/>
					</g>
				</g>
				<g>
					<g>
						<ellipse class="st8" cx="225.97" cy="167.52" rx="1.86" ry="2.28"/>
					</g>
				</g>
				<g>
					<g>
						<path class="st8" d="M217.75,170.47c-1.64,0-2.97-1.33-2.97-2.97c0-1.64,1.33-2.97,2.97-2.97c1.64,0,2.97,1.33,2.97,2.97
							C220.72,169.14,219.39,170.47,217.75,170.47z M217.75,164.93c-1.42,0-2.57,1.15-2.57,2.57c0,1.42,1.15,2.57,2.57,2.57
							c1.42,0,2.57-1.15,2.57-2.57C220.32,166.08,219.17,164.93,217.75,164.93z"/>
					</g>
				</g>
				<g>
					<g>
						<path class="st8" d="M225.02,170.47c-1.64,0-2.97-1.33-2.97-2.97c0-1.64,1.33-2.97,2.97-2.97c1.64,0,2.97,1.33,2.97,2.97
							C227.99,169.14,226.65,170.47,225.02,170.47z M225.02,164.93c-1.42,0-2.57,1.15-2.57,2.57c0,1.42,1.15,2.57,2.57,2.57
							c1.42,0,2.57-1.15,2.57-2.57C227.59,166.08,226.43,164.93,225.02,164.93z"/>
					</g>
				</g>
			</g>
			<g>
				<g>
					<g>
						<rect x="116.35" y="495.21" class="st1" width="13.98" height="11.55"/>
					</g>
					<g>
						<path class="st8" d="M130.53,506.95h-14.37v-11.94h14.37V506.95z M116.55,506.55h13.58V495.4h-13.58V506.55z"/>
					</g>
				</g>
				<g>
					<g>
						<path class="st1" d="M133.72,486.25c-0.09,0-0.18,0.01-0.26,0.03h-14.35v14.84c2.56,0,5.13,0.01,7.69,0.02
							c1.29,0.01,2.6,0.01,3.89,0.06c1.08,0.04,2.17,0.05,3.22-0.23c0.93-0.25,1.64-0.95,2.05-1.81c0.61-1.28,0.76-2.76,0.82-4.16
							c0.02-0.43,0.02-0.87,0.02-1.3C136.8,489.58,135.42,486.25,133.72,486.25z"/>
					</g>
					<g>
						<path class="st8" d="M131.64,501.42c-0.31,0-0.63-0.01-0.96-0.02c-1.23-0.05-2.48-0.06-3.7-0.06l-0.18,0
							c-2.47-0.01-5.1-0.02-7.69-0.02h-0.2v-15.23h14.52c0.08-0.02,0.18-0.03,0.28-0.03c1.84,0,3.28,3.36,3.28,7.65
							c0,0.52-0.01,0.93-0.02,1.31c-0.05,1.34-0.2,2.9-0.84,4.24c-0.47,0.97-1.26,1.67-2.18,1.91
							C133.22,501.36,132.47,501.42,131.64,501.42z M119.31,500.92c2.52,0,5.08,0.01,7.49,0.02l0.18,0c1.22,0,2.48,0.01,3.71,0.06
							c1.2,0.05,2.2,0.03,3.16-0.22c0.81-0.21,1.51-0.83,1.92-1.7c0.61-1.28,0.75-2.78,0.8-4.08c0.02-0.38,0.02-0.78,0.02-1.3
							c0-3.93-1.32-7.25-2.88-7.25c-0.08,0-0.16,0.01-0.23,0.03l-0.04,0h-14.15V500.92z"/>
					</g>
				</g>
				<g>
					<g>
						<g>
							<ellipse class="st9" cx="119.28" cy="493.7" rx="3.08" ry="7.45"/>
						</g>
					</g>
					<g>
						<g>
							<path d="M119.28,501.35c-1.84,0-3.28-3.36-3.28-7.65c0-4.29,1.44-7.65,3.28-7.65c1.84,0,3.28,3.36,3.28,7.65
								C122.55,497.99,121.11,501.35,119.28,501.35z M119.28,486.45c-1.56,0-2.88,3.32-2.88,7.25c0,3.93,1.32,7.25,2.88,7.25
								s2.88-3.32,2.88-7.25C122.16,489.77,120.84,486.45,119.28,486.45z"/>
						</g>
					</g>
				</g>
				<g>
					<g>
						<ellipse class="st8" cx="118.78" cy="493.61" rx="0.98" ry="3.03"/>
					</g>
				</g>
				<g>
					<g>
						<ellipse class="st8" cx="127.74" cy="492.64" rx="1.86" ry="2.28"/>
					</g>
				</g>
				<g>
					<g>
						<ellipse class="st8" cx="134.97" cy="492.52" rx="1.86" ry="2.28"/>
					</g>
				</g>
				<g>
					<g>
						<path class="st8" d="M126.75,495.47c-1.64,0-2.97-1.33-2.97-2.97c0-1.64,1.33-2.97,2.97-2.97c1.64,0,2.97,1.33,2.97,2.97
							C129.72,494.14,128.39,495.47,126.75,495.47z M126.75,489.93c-1.42,0-2.57,1.15-2.57,2.57c0,1.42,1.15,2.57,2.57,2.57
							c1.42,0,2.57-1.15,2.57-2.57C129.32,491.08,128.17,489.93,126.75,489.93z"/>
					</g>
				</g>
				<g>
					<g>
						<path class="st8" d="M134.02,495.47c-1.64,0-2.97-1.33-2.97-2.97c0-1.64,1.33-2.97,2.97-2.97c1.64,0,2.97,1.33,2.97,2.97
							C136.99,494.14,135.65,495.47,134.02,495.47z M134.02,489.93c-1.42,0-2.57,1.15-2.57,2.57c0,1.42,1.15,2.57,2.57,2.57
							c1.42,0,2.57-1.15,2.57-2.57C136.59,491.08,135.43,489.93,134.02,489.93z"/>
					</g>
				</g>
			</g>
			<g>
				<g>
					<g>
						<rect x="207.35" y="495.21" class="st1" width="13.98" height="11.55"/>
					</g>
					<g>
						<path class="st8" d="M221.53,506.95h-14.37v-11.94h14.37V506.95z M207.55,506.55h13.58V495.4h-13.58V506.55z"/>
					</g>
				</g>
				<g>
					<g>
						<path class="st1" d="M224.72,486.25c-0.09,0-0.18,0.01-0.26,0.03h-14.35v14.84c2.56,0,5.13,0.01,7.69,0.02
							c1.29,0.01,2.6,0.01,3.89,0.06c1.08,0.04,2.17,0.05,3.22-0.23c0.93-0.25,1.64-0.95,2.05-1.81c0.61-1.28,0.76-2.76,0.82-4.16
							c0.02-0.43,0.02-0.87,0.02-1.3C227.8,489.58,226.42,486.25,224.72,486.25z"/>
					</g>
					<g>
						<path class="st8" d="M222.64,501.42c-0.31,0-0.63-0.01-0.96-0.02c-1.23-0.05-2.48-0.06-3.7-0.06l-0.18,0
							c-2.47-0.01-5.1-0.02-7.69-0.02h-0.2v-15.23h14.52c0.08-0.02,0.18-0.03,0.28-0.03c1.84,0,3.28,3.36,3.28,7.65
							c0,0.52-0.01,0.93-0.02,1.31c-0.05,1.34-0.2,2.9-0.84,4.24c-0.47,0.97-1.26,1.67-2.18,1.91
							C224.22,501.36,223.47,501.42,222.64,501.42z M210.31,500.92c2.52,0,5.08,0.01,7.49,0.02l0.18,0c1.22,0,2.48,0.01,3.71,0.06
							c1.2,0.05,2.2,0.03,3.16-0.22c0.81-0.21,1.51-0.83,1.92-1.7c0.61-1.28,0.75-2.78,0.8-4.08c0.02-0.38,0.02-0.78,0.02-1.3
							c0-3.93-1.32-7.25-2.88-7.25c-0.08,0-0.16,0.01-0.23,0.03l-0.04,0h-14.15V500.92z"/>
					</g>
				</g>
				<g>
					<g>
						<g>
							<ellipse class="st9" cx="210.28" cy="493.7" rx="3.08" ry="7.45"/>
						</g>
					</g>
					<g>
						<g>
							<path d="M210.28,501.35c-1.84,0-3.28-3.36-3.28-7.65c0-4.29,1.44-7.65,3.28-7.65s3.28,3.36,3.28,7.65
								C213.55,497.99,212.11,501.35,210.28,501.35z M210.28,486.45c-1.56,0-2.88,3.32-2.88,7.25c0,3.93,1.32,7.25,2.88,7.25
								s2.88-3.32,2.88-7.25C213.16,489.77,211.84,486.45,210.28,486.45z"/>
						</g>
					</g>
				</g>
				<g>
					<g>
						<ellipse class="st8" cx="209.78" cy="493.61" rx="0.98" ry="3.03"/>
					</g>
				</g>
				<g>
					<g>
						<ellipse class="st8" cx="218.74" cy="492.64" rx="1.86" ry="2.28"/>
					</g>
				</g>
				<g>
					<g>
						<ellipse class="st8" cx="225.97" cy="492.52" rx="1.86" ry="2.28"/>
					</g>
				</g>
				<g>
					<g>
						<path class="st8" d="M217.75,495.47c-1.64,0-2.97-1.33-2.97-2.97c0-1.64,1.33-2.97,2.97-2.97c1.64,0,2.97,1.33,2.97,2.97
							C220.72,494.14,219.39,495.47,217.75,495.47z M217.75,489.93c-1.42,0-2.57,1.15-2.57,2.57c0,1.42,1.15,2.57,2.57,2.57
							c1.42,0,2.57-1.15,2.57-2.57C220.32,491.08,219.17,489.93,217.75,489.93z"/>
					</g>
				</g>
				<g>
					<g>
						<path class="st8" d="M225.02,495.47c-1.64,0-2.97-1.33-2.97-2.97c0-1.64,1.33-2.97,2.97-2.97c1.64,0,2.97,1.33,2.97,2.97
							C227.99,494.14,226.65,495.47,225.02,495.47z M225.02,489.93c-1.42,0-2.57,1.15-2.57,2.57c0,1.42,1.15,2.57,2.57,2.57
							c1.42,0,2.57-1.15,2.57-2.57C227.59,491.08,226.43,489.93,225.02,489.93z"/>
					</g>
				</g>
			</g>
		</g>
	</g>
	<g>
		<path class="st14" d="M343,648.75c0,8.8-7.2,16-16,16H17c-8.8,0-16-7.2-16-16V17.25c0-8.8,7.2-16,16-16h310c8.8,0,16,7.2,16,16
			V648.75z"/>
	</g>
</g>
<g id="Mapa_PB_SIN_FILTRO">
</g>
<g id="Mapa_1P">
</g>
<g id="MapaEP">
</g>
<g id="Mapa_2P">
</g>
<g id="Mapa_3P">
</g>
<g id="Bordes">
</g>
<g id="Layer_8" class="st15">
</g>
</svg>
