<?xml version="1.0" encoding="utf-8"?>
<!-- Generator: Adobe Illustrator 24.3.0, SVG Export Plug-In . SVG Version: 6.00 Build 0)  -->
<svg version="1.1" xmlns="http://www.w3.org/2000/svg" xmlns:xlink="http://www.w3.org/1999/xlink" x="0px" y="0px"
	 viewBox="0 0 344 668" style="enable-background:new 0 0 344 668;" xml:space="preserve">
<style type="text/css">
	.st0{fill:#231F20;}
	.st1{fill:#FFFFFF;}
	.st2{fill:none;stroke:#231F20;stroke-miterlimit:10;}
	.st3{fill:#FF7B55;}
	.st4{fill:#FFBDAA;}
	.st5{fill:#00C6AE;}
	.st6{fill:#FFBD12;}
	.st7{fill:#C3D5FC;}
	.st8{fill:#1D1D1B;}
	.st9{fill:#D7F9F2;}
	.st10{fill:#8490FF;}
	.st11{fill:#FFFFFF;stroke:#1D1D1B;stroke-width:2;stroke-linecap:round;stroke-miterlimit:10;}
	.st12{fill:#FFB5D4;}
	.st13{fill:#FFEEFE;}
	.st14{fill:none;stroke:#231F20;stroke-width:2;stroke-miterlimit:10;}
	.st15{display:none;}
	.st16{display:inline;fill:none;stroke:#231F20;stroke-miterlimit:10;}
</style>
<g id="Mapa_SS">
</g>
<g id="Mapa_PB">
</g>
<g id="Mapa_1P">
</g>
<g id="MapaEP">
	<g>
		<g>
			<g>
				<path class="st0" d="M343,652c0,8.8-7.2,16-16,16H17c-8.8,0-16-7.2-16-16V20.5c0-8.8,7.2-16,16-16h310c8.8,0,16,7.2,16,16V652z"
					/>
			</g>
			<g>
				<path class="st0" d="M327,669H17c-9.37,0-17-7.63-17-17V20.5c0-9.37,7.63-17,17-17h310c9.37,0,17,7.63,17,17V652
					C344,661.37,336.37,669,327,669z M17,5.5c-8.27,0-15,6.73-15,15V652c0,8.27,6.73,15,15,15h310c8.27,0,15-6.73,15-15V20.5
					c0-8.27-6.73-15-15-15H17z"/>
			</g>
		</g>
		<g>
			<g>
				<path class="st1" d="M343,650c0,8.8-7.2,16-16,16H17c-8.8,0-16-7.2-16-16V18.5c0-8.8,7.2-16,16-16h310c8.8,0,16,7.2,16,16V650z"
					/>
			</g>
			<g>
				<path class="st0" d="M327,667H17c-9.37,0-17-7.63-17-17V18.5c0-9.37,7.63-17,17-17h310c9.37,0,17,7.63,17,17V650
					C344,659.37,336.37,667,327,667z M17,3.5c-8.27,0-15,6.73-15,15V650c0,8.27,6.73,15,15,15h310c8.27,0,15-6.73,15-15V18.5
					c0-8.27-6.73-15-15-15H17z"/>
			</g>
		</g>
	</g>
	<g>
		<g>
			<rect x="91" y="615.15" class="st1" width="161" height="50.5"/>
		</g>
		<g>
			<path class="st0" d="M252.5,666.15h-162v-51.5h162V666.15z M91.5,665.15h160v-49.5h-160V665.15z"/>
		</g>
	</g>
	<g>
		<path class="st0" d="M191,94.3h-39c-4.69,0-8.5-3.81-8.5-8.5V75.3H91v-1h53.5v11.5c0,4.14,3.36,7.5,7.5,7.5h39
			c4.14,0,7.5-3.36,7.5-7.5V74.3H252v1h-52.5v10.5C199.5,90.49,195.69,94.3,191,94.3z"/>
	</g>
	<g>
		<path class="st4" d="M252,92V3h74c8.84,0,16,7.16,16,16v73H252z"/>
		<path class="st0" d="M342.5,92.5h-91v-90H326c9.1,0,16.5,7.4,16.5,16.5V92.5z M252.5,91.5h89V19c0-8.55-6.95-15.5-15.5-15.5h-73.5
			V91.5z"/>
	</g>
	<g>
		<g>
			<path class="st4" d="M252,53.5V74h-53v11c0,4.42-3.58,8-8,8h-39c-4.42,0-8-3.58-8-8V74H91V53.5H252z"/>
		</g>
		<g>
			<path class="st0" d="M191,93.5h-39c-4.69,0-8.5-3.81-8.5-8.5V74.5h-53V53h162v21.5h-53V85C199.5,89.69,195.69,93.5,191,93.5z
				 M91.5,73.5h53V85c0,4.14,3.36,7.5,7.5,7.5h39c4.14,0,7.5-3.36,7.5-7.5V73.5h53V54h-160V73.5z"/>
		</g>
	</g>
	<g>
		<g>
			<rect x="91" y="3" class="st1" width="161" height="50.5"/>
		</g>
		<g>
			<path class="st0" d="M252.5,54h-162V2.5h162V54z M91.5,53h160V3.5h-160V53z"/>
		</g>
	</g>
	<g>
		<path class="st3" d="M91,577v89H17c-8.84,0-16-7.16-16-16v-73H91z"/>
		<path class="st0" d="M91.5,666.5H17c-9.1,0-16.5-7.4-16.5-16.5v-73.5h91V666.5z M1.5,577.5V650c0,8.55,6.95,15.5,15.5,15.5h73.5
			v-88H1.5z"/>
	</g>
	<g>
		<g>
			<g>
				<path d="M252,596v20.15H91V596h53v-11c0-4.42,3.58-8,8-8h39c4.42,0,8,3.58,8,8v11H252z"/>
			</g>
			<g>
				<path d="M252.5,616.65h-162V595.5h53V585c0-4.69,3.81-8.5,8.5-8.5h39c4.69,0,8.5,3.81,8.5,8.5v10.5h53V616.65z M91.5,615.65h160
					V596.5h-53V585c0-4.14-3.36-7.5-7.5-7.5h-39c-4.14,0-7.5,3.36-7.5,7.5v11.5h-53V615.65z"/>
			</g>
		</g>
		<g>
			<g>
				<path class="st3" d="M252,595v20.15H91V595h53v-11c0-4.42,3.58-8,8-8h39c4.42,0,8,3.58,8,8v11H252z"/>
			</g>
			<g>
				<path class="st0" d="M252.5,615.65h-162V594.5h53V584c0-4.69,3.81-8.5,8.5-8.5h39c4.69,0,8.5,3.81,8.5,8.5v10.5h53V615.65z
					 M91.5,614.65h160V595.5h-53V584c0-4.14-3.36-7.5-7.5-7.5h-39c-4.14,0-7.5,3.36-7.5,7.5v11.5h-53V614.65z"/>
			</g>
		</g>
	</g>
	<g>
		<rect x="1" y="92" class="st4" width="90" height="107"/>
		<path class="st0" d="M91.5,199.5h-91v-108h91V199.5z M1.5,198.5h89v-106h-89V198.5z"/>
	</g>
	<g>
		<path class="st0" d="M91.5,253.5h-91v-55h91V253.5z M1.5,252.5h89v-53h-89V252.5z"/>
	</g>
	<g>
		<path class="st0" d="M342.5,199.5h-91v-108h91V199.5z M252.5,198.5h89v-106h-89V198.5z"/>
	</g>
	<g>
		<rect x="252" y="199" class="st3" width="90" height="54"/>
		<path class="st0" d="M342.5,253.5h-91v-55h91V253.5z M252.5,252.5h89v-53h-89V252.5z"/>
	</g>
	<g>
		<path class="st0" d="M91.5,307.5h-91v-55h91V307.5z M1.5,306.5h89v-53h-89V306.5z"/>
	</g>
	<g>
		<path class="st0" d="M91.5,361.5h-91v-55h91V361.5z M1.5,360.5h89v-53h-89V360.5z"/>
	</g>
	<g>
		<rect x="1" y="361" class="st4" width="90" height="54"/>
		<path class="st0" d="M91.5,415.5h-91v-55h91V415.5z M1.5,414.5h89v-53h-89V414.5z"/>
	</g>
	<g>
		<rect x="1" y="415" class="st1" width="90" height="54"/>
		<path class="st0" d="M91.5,469.5h-91v-55h91V469.5z M1.5,468.5h89v-53h-89V468.5z"/>
	</g>
	<g>
		<rect x="252" y="253" class="st4" width="90" height="54"/>
		<path class="st0" d="M342.5,307.5h-91v-55h91V307.5z M252.5,306.5h89v-53h-89V306.5z"/>
	</g>
	<g>
		<rect x="252" y="307" class="st1" width="90" height="54"/>
		<path class="st0" d="M342.5,361.5h-91v-55h91V361.5z M252.5,360.5h89v-53h-89V360.5z"/>
	</g>
	<g>
		<rect x="252" y="361" class="st1" width="90" height="54"/>
		<path class="st0" d="M342.5,415.5h-91v-55h91V415.5z M252.5,414.5h89v-53h-89V414.5z"/>
	</g>
	<g>
		<rect x="252" y="415" class="st1" width="90" height="54"/>
		<path class="st0" d="M342.5,469.5h-91v-55h91V469.5z M252.5,468.5h89v-53h-89V468.5z"/>
	</g>
	<g>
		<path class="st0" d="M91.5,577.5h-91v-109h91V577.5z M1.5,576.5h89v-107h-89V576.5z"/>
	</g>
	<g>
		<path class="st0" d="M342.5,577.5h-91v-109h91V577.5z M252.5,576.5h89v-107h-89V576.5z"/>
	</g>
	<g>
		<path class="st0" d="M91.5,92.5h-91V19C0.5,9.9,7.9,2.5,17,2.5h74.5V92.5z M1.5,91.5h89v-88H17C8.45,3.5,1.5,10.45,1.5,19V91.5z"
			/>
	</g>
	<g>
		<g>
			<g>
				<path d="M226.5,218.5h-110c-4.42,0-8-3.58-8-8v-92c0-4.42,3.58-8,8-8h110c4.42,0,8,3.58,8,8v92
					C234.5,214.92,230.92,218.5,226.5,218.5z"/>
			</g>
			<g>
				<path d="M226.5,219h-110c-4.69,0-8.5-3.81-8.5-8.5v-92c0-4.69,3.81-8.5,8.5-8.5h110c4.69,0,8.5,3.81,8.5,8.5v92
					C235,215.19,231.19,219,226.5,219z M116.5,111c-4.14,0-7.5,3.36-7.5,7.5v92c0,4.14,3.36,7.5,7.5,7.5h110
					c4.14,0,7.5-3.36,7.5-7.5v-92c0-4.14-3.36-7.5-7.5-7.5H116.5z"/>
			</g>
		</g>
		<g>
			<g>
				<path class="st1" d="M226.5,217.5h-110c-4.42,0-8-3.58-8-8v-92c0-4.42,3.58-8,8-8h110c4.42,0,8,3.58,8,8v92
					C234.5,213.92,230.92,217.5,226.5,217.5z"/>
			</g>
			<g>
				<path class="st0" d="M226.5,218h-110c-4.69,0-8.5-3.81-8.5-8.5v-92c0-4.69,3.81-8.5,8.5-8.5h110c4.69,0,8.5,3.81,8.5,8.5v92
					C235,214.19,231.19,218,226.5,218z M116.5,110c-4.14,0-7.5,3.36-7.5,7.5v92c0,4.14,3.36,7.5,7.5,7.5h110
					c4.14,0,7.5-3.36,7.5-7.5v-92c0-4.14-3.36-7.5-7.5-7.5H116.5z"/>
			</g>
		</g>
	</g>
	<g>
		<g>
			<g>
				<path d="M227,560H117c-4.42,0-8-3.58-8-8v-92c0-4.42,3.58-8,8-8h110c4.42,0,8,3.58,8,8v92C235,556.42,231.42,560,227,560z"/>
			</g>
			<g>
				<path d="M227,560.5H117c-4.69,0-8.5-3.81-8.5-8.5v-92c0-4.69,3.81-8.5,8.5-8.5h110c4.69,0,8.5,3.81,8.5,8.5v92
					C235.5,556.69,231.69,560.5,227,560.5z M117,452.5c-4.14,0-7.5,3.36-7.5,7.5v92c0,4.14,3.36,7.5,7.5,7.5h110
					c4.14,0,7.5-3.36,7.5-7.5v-92c0-4.14-3.36-7.5-7.5-7.5H117z"/>
			</g>
		</g>
		<g>
			<g>
				<path class="st1" d="M227,559H117c-4.42,0-8-3.58-8-8v-92c0-4.42,3.58-8,8-8h110c4.42,0,8,3.58,8,8v92
					C235,555.42,231.42,559,227,559z"/>
			</g>
			<g>
				<path class="st0" d="M227,559.5H117c-4.69,0-8.5-3.81-8.5-8.5v-92c0-4.69,3.81-8.5,8.5-8.5h110c4.69,0,8.5,3.81,8.5,8.5v92
					C235.5,555.69,231.69,559.5,227,559.5z M117,451.5c-4.14,0-7.5,3.36-7.5,7.5v92c0,4.14,3.36,7.5,7.5,7.5h110
					c4.14,0,7.5-3.36,7.5-7.5v-92c0-4.14-3.36-7.5-7.5-7.5H117z"/>
			</g>
		</g>
	</g>
	<g>
		<g>
			<g>
				<path d="M235,262v146c0,4.42-3.58,8-8,8H117c-4.42,0-8-3.58-8-8V262c0-4.42,3.58-8,8-8h110C231.42,254,235,257.58,235,262z"/>
			</g>
			<g>
				<path d="M227,416.5H117c-4.69,0-8.5-3.81-8.5-8.5V262c0-4.69,3.81-8.5,8.5-8.5h110c4.69,0,8.5,3.81,8.5,8.5v146
					C235.5,412.69,231.69,416.5,227,416.5z M117,254.5c-4.14,0-7.5,3.36-7.5,7.5v146c0,4.14,3.36,7.5,7.5,7.5h110
					c4.14,0,7.5-3.36,7.5-7.5V262c0-4.14-3.36-7.5-7.5-7.5H117z"/>
			</g>
		</g>
		<g>
			<g>
				<path class="st1" d="M235,261v146c0,4.42-3.58,8-8,8H117c-4.42,0-8-3.58-8-8V261c0-4.42,3.58-8,8-8h110
					C231.42,253,235,256.58,235,261z"/>
			</g>
			<g>
				<path class="st0" d="M227,415.5H117c-4.69,0-8.5-3.81-8.5-8.5V261c0-4.69,3.81-8.5,8.5-8.5h110c4.69,0,8.5,3.81,8.5,8.5v146
					C235.5,411.69,231.69,415.5,227,415.5z M117,253.5c-4.14,0-7.5,3.36-7.5,7.5v146c0,4.14,3.36,7.5,7.5,7.5h110
					c4.14,0,7.5-3.36,7.5-7.5V261c0-4.14-3.36-7.5-7.5-7.5H117z"/>
			</g>
		</g>
	</g>
	<g>
		<path d="M36.14,51.05v1.22h-7.11v-9.8h6.92v1.22h-5.52v3.01h4.91v1.19h-4.91v3.16H36.14z"/>
		<path d="M40.65,42.47v9.8h-1.39v-8.58h-2.21v-1.22H40.65z"/>
		<path d="M45.83,42.47v9.8h-1.39v-8.58h-2.21v-1.22H45.83z"/>
		<path d="M54.86,51.05v1.22h-7.04v-0.95l3.99-3.85c0.49-0.47,0.81-0.87,0.98-1.21c0.17-0.34,0.25-0.68,0.25-1.03
			c0-0.51-0.18-0.91-0.54-1.2c-0.36-0.29-0.88-0.43-1.55-0.43c-1.08,0-1.92,0.36-2.51,1.06l-0.95-0.83
			c0.38-0.47,0.88-0.83,1.51-1.09c0.62-0.26,1.31-0.39,2.08-0.39c1.03,0,1.84,0.25,2.45,0.74c0.61,0.49,0.91,1.16,0.91,2
			c0,0.52-0.11,1.02-0.34,1.48c-0.22,0.47-0.65,1-1.27,1.6l-3,2.88H54.86z"/>
		<path d="M60.57,42.47h1.4v9.8h-1.4V42.47z"/>
	</g>
	<g>
		<path d="M159.97,79.05v1.22h-7.11v-9.8h6.92v1.22h-5.52v3.01h4.91v1.19h-4.91v3.16H159.97z"/>
		<path d="M164.48,70.47v9.8h-1.39v-8.58h-2.21v-1.22H164.48z"/>
		<path d="M169.66,70.47v9.8h-1.39v-8.58h-2.21v-1.22H169.66z"/>
		<path d="M178.69,79.05v1.22h-7.04v-0.95l3.99-3.85c0.49-0.47,0.81-0.87,0.98-1.21c0.17-0.34,0.25-0.68,0.25-1.03
			c0-0.51-0.18-0.91-0.54-1.2c-0.36-0.29-0.88-0.43-1.55-0.43c-1.08,0-1.92,0.36-2.51,1.06l-0.95-0.83
			c0.38-0.47,0.88-0.83,1.51-1.09c0.62-0.26,1.31-0.39,2.08-0.39c1.03,0,1.84,0.25,2.45,0.74c0.61,0.49,0.91,1.16,0.91,2
			c0,0.52-0.11,1.02-0.34,1.48c-0.22,0.47-0.65,1-1.28,1.6l-3,2.88H178.69z"/>
		<path d="M184.4,70.47h1.4v9.8h-1.4V70.47z"/>
		<path d="M188.74,70.47h1.4v9.8h-1.4V70.47z"/>
	</g>
	<g>
		<path d="M283.8,51.05v1.22h-7.11v-9.8h6.92v1.22h-5.52v3.01H283v1.19h-4.91v3.16H283.8z"/>
		<path d="M288.31,42.47v9.8h-1.39v-8.58h-2.21v-1.22H288.31z"/>
		<path d="M293.49,42.47v9.8h-1.39v-8.58h-2.21v-1.22H293.49z"/>
		<path d="M302.52,51.05v1.22h-7.04v-0.95l3.99-3.85c0.49-0.47,0.81-0.87,0.98-1.21c0.17-0.34,0.25-0.68,0.25-1.03
			c0-0.51-0.18-0.91-0.54-1.2c-0.36-0.29-0.88-0.43-1.55-0.43c-1.08,0-1.92,0.36-2.51,1.06l-0.95-0.83c0.38-0.47,0.88-0.83,1.5-1.09
			c0.62-0.26,1.31-0.39,2.08-0.39c1.03,0,1.84,0.25,2.45,0.74c0.61,0.49,0.91,1.16,0.91,2c0,0.52-0.11,1.02-0.34,1.48
			c-0.22,0.47-0.65,1-1.27,1.6l-3,2.88H302.52z"/>
		<path d="M308.23,42.47h1.4v9.8h-1.4V42.47z"/>
		<path d="M312.57,42.47h1.4v9.8h-1.4V42.47z"/>
		<path d="M316.91,42.47h1.4v9.8h-1.4V42.47z"/>
	</g>
	<g>
		<path d="M291.53,149.05v1.22h-7.11v-9.8h6.92v1.22h-5.52v3.01h4.91v1.19h-4.91v3.16H291.53z"/>
		<path d="M296.04,140.47v9.8h-1.39v-8.58h-2.21v-1.22H296.04z"/>
		<path d="M301.22,140.47v9.8h-1.39v-8.58h-2.21v-1.22H301.22z"/>
		<path d="M311.88,147.86h-1.86v2.41h-1.36v-2.41h-5.45v-0.98l5.01-6.41h1.51l-4.8,6.19h3.77v-2.13h1.32v2.13h1.86V147.86z"/>
	</g>
	<g>
		<path d="M291.89,230.05v1.22h-7.11v-9.8h6.92v1.22h-5.52v3.01h4.91v1.19h-4.91v3.16H291.89z"/>
		<path d="M296.4,221.47v9.8h-1.39v-8.58h-2.21v-1.22H296.4z"/>
		<path d="M301.58,221.47v9.8h-1.39v-8.58h-2.21v-1.22H301.58z"/>
		<path d="M309.68,225.68c0.51,0.24,0.91,0.59,1.2,1.04s0.43,0.97,0.43,1.56c0,0.62-0.15,1.16-0.45,1.63
			c-0.3,0.47-0.72,0.83-1.25,1.08c-0.53,0.26-1.12,0.38-1.77,0.38c-1.32,0-2.33-0.42-3.04-1.27s-1.07-2.05-1.07-3.61
			c0-1.09,0.19-2.02,0.58-2.79c0.39-0.77,0.93-1.35,1.62-1.75s1.5-0.6,2.43-0.6c0.48,0,0.92,0.05,1.34,0.15
			c0.42,0.1,0.78,0.24,1.09,0.43l-0.53,1.09c-0.47-0.31-1.09-0.46-1.88-0.46c-1.02,0-1.82,0.32-2.39,0.94
			c-0.58,0.63-0.87,1.55-0.87,2.75c0,0.15,0,0.27,0.01,0.35c0.28-0.42,0.67-0.74,1.16-0.96c0.49-0.22,1.04-0.33,1.66-0.33
			C308.59,225.32,309.17,225.44,309.68,225.68z M309.35,229.73c0.4-0.34,0.6-0.81,0.6-1.39s-0.2-1.04-0.61-1.38
			c-0.41-0.34-0.95-0.51-1.63-0.51c-0.44,0-0.83,0.08-1.17,0.25s-0.61,0.4-0.8,0.69c-0.19,0.29-0.29,0.61-0.29,0.97
			c0,0.35,0.09,0.66,0.27,0.95c0.18,0.29,0.45,0.51,0.8,0.69c0.35,0.17,0.77,0.26,1.25,0.26
			C308.43,230.24,308.95,230.07,309.35,229.73z"/>
	</g>
	<g>
		<path d="M292.03,284.05v1.22h-7.11v-9.8h6.92v1.22h-5.52v3.01h4.91v1.19h-4.91v3.16H292.03z"/>
		<path d="M296.53,275.47v9.8h-1.39v-8.58h-2.21v-1.22H296.53z"/>
		<path d="M301.71,275.47v9.8h-1.39v-8.58h-2.21v-1.22H301.71z"/>
		<path d="M311,275.47v0.95l-3.96,8.85h-1.48l3.88-8.58h-4.48v1.75h-1.34v-2.97H311z"/>
	</g>
	<g>
		<path d="M291.7,338.05v1.22h-7.11v-9.8h6.92v1.22h-5.52v3.01h4.91v1.19h-4.91v3.16H291.7z"/>
		<path d="M296.21,329.47v9.8h-1.39v-8.58h-2.21v-1.22H296.21z"/>
		<path d="M301.39,329.47v9.8h-1.39v-8.58h-2.21v-1.22H301.39z"/>
		<path d="M310.81,335.05c0.3,0.4,0.45,0.88,0.45,1.44c0,0.59-0.16,1.1-0.48,1.53c-0.32,0.43-0.77,0.77-1.36,1
			c-0.59,0.23-1.28,0.35-2.07,0.35c-0.78,0-1.47-0.12-2.05-0.35c-0.58-0.23-1.03-0.57-1.35-1c-0.32-0.43-0.48-0.95-0.48-1.53
			c0-0.56,0.15-1.04,0.44-1.44s0.72-0.71,1.28-0.92c-0.45-0.21-0.79-0.5-1.02-0.85c-0.23-0.35-0.35-0.77-0.35-1.26
			c0-0.54,0.15-1.01,0.44-1.41s0.71-0.71,1.24-0.92s1.15-0.32,1.85-0.32c0.71,0,1.33,0.11,1.87,0.32c0.54,0.21,0.95,0.52,1.25,0.92
			s0.44,0.87,0.44,1.41c0,0.48-0.12,0.89-0.36,1.25s-0.58,0.65-1.03,0.86C310.09,334.34,310.51,334.65,310.81,335.05z
			 M309.19,337.76c0.45-0.32,0.67-0.76,0.67-1.31c0-0.54-0.22-0.97-0.67-1.28c-0.45-0.31-1.06-0.47-1.83-0.47s-1.38,0.16-1.82,0.47
			c-0.44,0.31-0.66,0.74-0.66,1.28c0,0.55,0.22,0.99,0.66,1.31c0.44,0.32,1.05,0.48,1.82,0.48S308.74,338.08,309.19,337.76z
			 M305.79,330.91c-0.38,0.29-0.57,0.67-0.57,1.16c0,0.48,0.19,0.87,0.57,1.15s0.9,0.42,1.58,0.42c0.68,0,1.22-0.14,1.6-0.42
			c0.39-0.28,0.58-0.66,0.58-1.15c0-0.49-0.2-0.87-0.6-1.16c-0.4-0.28-0.93-0.43-1.59-0.43S306.17,330.63,305.79,330.91z"/>
	</g>
	<g>
		<path d="M291.89,392.05v1.22h-7.11v-9.8h6.92v1.22h-5.52v3.01h4.91v1.19h-4.91v3.16H291.89z"/>
		<path d="M296.4,383.47v9.8h-1.39v-8.58h-2.21v-1.22H296.4z"/>
		<path d="M301.58,383.47v9.8h-1.39v-8.58h-2.21v-1.22H301.58z"/>
		<path d="M309.95,384.63c0.71,0.85,1.07,2.05,1.07,3.61c0,1.09-0.19,2.02-0.58,2.79c-0.39,0.77-0.93,1.35-1.62,1.75
			c-0.7,0.4-1.51,0.59-2.43,0.59c-0.48,0-0.92-0.05-1.34-0.15s-0.78-0.24-1.09-0.43l0.53-1.09c0.48,0.31,1.11,0.46,1.89,0.46
			c1.02,0,1.81-0.32,2.39-0.95s0.86-1.55,0.86-2.75v-0.35c-0.28,0.42-0.67,0.74-1.16,0.96c-0.5,0.22-1.05,0.33-1.67,0.33
			c-0.64,0-1.22-0.12-1.73-0.36s-0.91-0.59-1.19-1.04c-0.29-0.45-0.43-0.97-0.43-1.56c0-0.62,0.15-1.16,0.46-1.62
			c0.3-0.47,0.72-0.83,1.24-1.09c0.52-0.26,1.11-0.38,1.76-0.38C308.22,383.35,309.23,383.78,309.95,384.63z M308.2,388.03
			c0.34-0.17,0.61-0.4,0.8-0.69s0.29-0.61,0.29-0.97c0-0.34-0.09-0.66-0.27-0.94c-0.18-0.28-0.45-0.51-0.8-0.69
			c-0.35-0.17-0.77-0.26-1.27-0.26c-0.64,0-1.16,0.17-1.56,0.52c-0.4,0.35-0.6,0.81-0.6,1.39s0.2,1.04,0.6,1.38s0.94,0.51,1.62,0.51
			C307.47,388.28,307.86,388.2,308.2,388.03z"/>
	</g>
	<g>
		<path d="M290.14,446.05v1.22h-7.11v-9.8h6.92v1.22h-5.52v3.01h4.91v1.19h-4.91v3.16H290.14z"/>
		<path d="M294.64,437.47v9.8h-1.39v-8.58h-2.21v-1.22H294.64z"/>
		<path d="M303.67,446.05v1.22h-7.04v-0.95l3.99-3.85c0.49-0.47,0.81-0.87,0.98-1.21c0.17-0.34,0.25-0.68,0.25-1.03
			c0-0.51-0.18-0.91-0.54-1.2c-0.36-0.29-0.88-0.43-1.55-0.43c-1.08,0-1.92,0.36-2.51,1.06l-0.95-0.83c0.38-0.47,0.88-0.83,1.5-1.09
			c0.62-0.26,1.31-0.39,2.08-0.39c1.03,0,1.84,0.25,2.45,0.74c0.61,0.49,0.91,1.16,0.91,2c0,0.52-0.11,1.02-0.34,1.48
			c-0.22,0.47-0.65,1-1.27,1.6l-3,2.88H303.67z"/>
		<path d="M306.72,446.78c-0.6-0.4-1.08-0.97-1.42-1.73c-0.34-0.76-0.52-1.65-0.52-2.69c0-1.04,0.17-1.93,0.52-2.69
			c0.35-0.76,0.82-1.33,1.42-1.73c0.6-0.4,1.29-0.6,2.07-0.6c0.77,0,1.45,0.2,2.05,0.6c0.6,0.4,1.08,0.97,1.42,1.73
			c0.35,0.76,0.52,1.65,0.52,2.69c0,1.04-0.17,1.93-0.52,2.69c-0.34,0.76-0.82,1.33-1.42,1.73c-0.6,0.4-1.29,0.59-2.05,0.59
			C308.01,447.38,307.32,447.18,306.72,446.78z M310.67,445.17c0.47-0.64,0.71-1.58,0.71-2.8s-0.24-2.16-0.71-2.8
			s-1.1-0.97-1.88-0.97c-0.79,0-1.43,0.32-1.9,0.97c-0.47,0.64-0.71,1.58-0.71,2.8s0.24,2.16,0.71,2.8c0.47,0.64,1.1,0.97,1.9,0.97
			C309.57,446.13,310.2,445.81,310.67,445.17z"/>
	</g>
	<g>
		<path d="M290.77,527.05v1.22h-7.11v-9.8h6.92v1.22h-5.52v3.01h4.91v1.19h-4.91v3.16H290.77z"/>
		<path d="M295.27,518.46v9.8h-1.39v-8.58h-2.21v-1.22H295.27z"/>
		<path d="M304.3,527.05v1.22h-7.04v-0.95l3.99-3.85c0.49-0.47,0.81-0.87,0.98-1.21c0.17-0.34,0.25-0.68,0.25-1.03
			c0-0.51-0.18-0.91-0.54-1.2s-0.88-0.43-1.55-0.43c-1.08,0-1.92,0.35-2.51,1.06l-0.95-0.83c0.38-0.47,0.88-0.83,1.5-1.09
			s1.31-0.39,2.08-0.39c1.03,0,1.84,0.24,2.45,0.73c0.61,0.49,0.91,1.16,0.91,2c0,0.52-0.11,1.02-0.34,1.48
			c-0.22,0.47-0.65,1-1.27,1.6l-3,2.88H304.3z"/>
		<path d="M312.34,527.05v1.22h-7.04v-0.95l3.99-3.85c0.49-0.47,0.81-0.87,0.98-1.21c0.17-0.34,0.25-0.68,0.25-1.03
			c0-0.51-0.18-0.91-0.54-1.2c-0.36-0.28-0.88-0.43-1.55-0.43c-1.08,0-1.92,0.35-2.51,1.06l-0.95-0.83
			c0.38-0.47,0.88-0.83,1.51-1.09c0.62-0.26,1.31-0.39,2.08-0.39c1.03,0,1.84,0.24,2.45,0.73s0.91,1.16,0.91,2
			c0,0.52-0.11,1.02-0.34,1.48c-0.22,0.47-0.65,1-1.27,1.6l-3,2.88H312.34z"/>
	</g>
	<g>
		<path d="M158.01,597.05v1.22h-7.11v-9.8h6.92v1.22h-5.52v3.01h4.91v1.19h-4.91v3.16H158.01z"/>
		<path d="M162.52,588.46v9.8h-1.39v-8.58h-2.21v-1.22H162.52z"/>
		<path d="M171.55,597.05v1.22h-7.04v-0.95l3.99-3.85c0.49-0.47,0.81-0.87,0.98-1.21c0.17-0.34,0.25-0.68,0.25-1.03
			c0-0.51-0.18-0.91-0.54-1.2c-0.36-0.28-0.88-0.43-1.55-0.43c-1.08,0-1.92,0.35-2.51,1.06l-0.95-0.83
			c0.38-0.47,0.88-0.83,1.51-1.09c0.62-0.26,1.31-0.39,2.08-0.39c1.03,0,1.84,0.24,2.45,0.73c0.61,0.49,0.91,1.16,0.91,2
			c0,0.52-0.11,1.02-0.34,1.48c-0.22,0.47-0.65,1-1.27,1.6l-3,2.88H171.55z"/>
		<path d="M180.96,595.86h-1.86v2.41h-1.36v-2.41h-5.45v-0.98l5.01-6.41h1.51l-4.8,6.19h3.77v-2.13h1.32v2.13h1.86V595.86z"/>
		<path d="M186.36,588.46h1.4v9.8h-1.4V588.46z"/>
		<path d="M190.7,588.46h1.4v9.8h-1.4V588.46z"/>
	</g>
	<g>
		<path d="M34.18,626.05v1.22h-7.11v-9.8h6.92v1.22h-5.52v3.01h4.91v1.19h-4.91v3.16H34.18z"/>
		<path d="M38.69,617.46v9.8H37.3v-8.58h-2.21v-1.22H38.69z"/>
		<path d="M47.72,626.05v1.22h-7.04v-0.95l3.99-3.85c0.49-0.47,0.81-0.87,0.98-1.21c0.17-0.34,0.25-0.68,0.25-1.03
			c0-0.51-0.18-0.91-0.54-1.2c-0.36-0.28-0.88-0.43-1.55-0.43c-1.08,0-1.92,0.35-2.51,1.06l-0.95-0.83
			c0.38-0.47,0.88-0.83,1.51-1.09c0.62-0.26,1.31-0.39,2.08-0.39c1.03,0,1.84,0.24,2.45,0.73c0.61,0.49,0.91,1.16,0.91,2
			c0,0.52-0.11,1.02-0.34,1.48c-0.22,0.47-0.65,1-1.27,1.6l-3,2.88H47.72z"/>
		<path d="M57.13,624.86h-1.86v2.41h-1.36v-2.41h-5.45v-0.98l5.01-6.41h1.51l-4.8,6.19h3.77v-2.13h1.32v2.13h1.86V624.86z"/>
		<path d="M62.53,617.46h1.4v9.8h-1.4V617.46z"/>
	</g>
	<g>
		<path d="M38.14,527.05v1.22h-7.11v-9.8h6.92v1.22h-5.52v3.01h4.91v1.19h-4.91v3.16H38.14z"/>
		<path d="M42.64,518.46v9.8h-1.39v-8.58h-2.21v-1.22H42.64z"/>
		<path d="M46.73,527.78c-0.6-0.4-1.08-0.97-1.42-1.73s-0.52-1.65-0.52-2.69s0.17-1.93,0.52-2.69c0.35-0.76,0.82-1.33,1.42-1.73
			s1.29-0.59,2.06-0.59c0.77,0,1.45,0.2,2.05,0.59s1.08,0.97,1.42,1.73c0.35,0.76,0.52,1.65,0.52,2.69s-0.17,1.93-0.52,2.69
			s-0.82,1.33-1.42,1.73s-1.29,0.59-2.05,0.59C48.02,528.38,47.33,528.18,46.73,527.78z M50.67,526.17c0.47-0.64,0.71-1.58,0.71-2.8
			s-0.24-2.16-0.71-2.8c-0.47-0.64-1.1-0.96-1.88-0.96c-0.79,0-1.43,0.32-1.9,0.96c-0.47,0.64-0.71,1.58-0.71,2.8
			s0.24,2.16,0.71,2.8s1.1,0.97,1.9,0.97C49.57,527.13,50.2,526.81,50.67,526.17z"/>
		<path d="M60.97,527.05v1.22h-7.04v-0.95l3.99-3.85c0.49-0.47,0.81-0.87,0.98-1.21c0.17-0.34,0.25-0.68,0.25-1.03
			c0-0.51-0.18-0.91-0.54-1.2c-0.36-0.28-0.88-0.43-1.55-0.43c-1.08,0-1.92,0.35-2.51,1.06l-0.95-0.83
			c0.38-0.47,0.88-0.83,1.51-1.09c0.62-0.26,1.31-0.39,2.08-0.39c1.03,0,1.84,0.24,2.45,0.73c0.61,0.49,0.91,1.16,0.91,2
			c0,0.52-0.11,1.02-0.34,1.48c-0.22,0.47-0.65,1-1.27,1.6l-3,2.88H60.97z"/>
	</g>
	<g>
		<path d="M37.45,446.05v1.22h-7.11v-9.8h6.92v1.22h-5.52v3.01h4.91v1.19h-4.91v3.16H37.45z"/>
		<path d="M41.96,437.47v9.8h-1.39v-8.58h-2.21v-1.22H41.96z"/>
		<path d="M46.04,446.78c-0.6-0.4-1.08-0.97-1.42-1.73s-0.52-1.65-0.52-2.69c0-1.04,0.17-1.93,0.52-2.69s0.82-1.33,1.42-1.73
			s1.29-0.6,2.06-0.6c0.77,0,1.45,0.2,2.05,0.6s1.08,0.97,1.42,1.73s0.52,1.65,0.52,2.69c0,1.04-0.17,1.93-0.52,2.69
			s-0.82,1.33-1.42,1.73s-1.29,0.59-2.05,0.59C47.33,447.38,46.64,447.18,46.04,446.78z M49.99,445.17c0.47-0.64,0.71-1.58,0.71-2.8
			s-0.24-2.16-0.71-2.8c-0.47-0.64-1.1-0.97-1.88-0.97c-0.79,0-1.43,0.32-1.9,0.97s-0.71,1.58-0.71,2.8s0.24,2.16,0.71,2.8
			c0.47,0.64,1.1,0.97,1.9,0.97C48.89,446.13,49.52,445.81,49.99,445.17z"/>
		<path d="M61.96,444.86H60.1v2.41h-1.36v-2.41H53.3v-0.98l5.01-6.41h1.51l-4.8,6.19h3.77v-2.13h1.32v2.13h1.86V444.86z"/>
	</g>
	<g>
		<path d="M38.12,392.05v1.22H31v-9.8h6.92v1.22H32.4v3.01h4.91v1.19H32.4v3.16H38.12z"/>
		<path d="M42.62,383.47v9.8h-1.39v-8.58h-2.21v-1.22H42.62z"/>
		<path d="M46.7,392.78c-0.6-0.4-1.08-0.97-1.42-1.73s-0.52-1.65-0.52-2.69c0-1.04,0.17-1.93,0.52-2.69s0.82-1.33,1.42-1.73
			s1.29-0.6,2.06-0.6c0.77,0,1.45,0.2,2.05,0.6s1.08,0.97,1.42,1.73s0.52,1.65,0.52,2.69c0,1.04-0.17,1.93-0.52,2.69
			s-0.82,1.33-1.42,1.73s-1.29,0.59-2.05,0.59C47.99,393.38,47.31,393.18,46.7,392.78z M50.65,391.17c0.47-0.64,0.71-1.58,0.71-2.8
			s-0.24-2.16-0.71-2.8c-0.47-0.64-1.1-0.97-1.88-0.97c-0.79,0-1.43,0.32-1.9,0.97s-0.71,1.58-0.71,2.8s0.24,2.16,0.71,2.8
			c0.47,0.64,1.1,0.97,1.9,0.97C49.55,392.13,50.18,391.81,50.65,391.17z"/>
		<path d="M59.99,388.16c0.66,0.53,0.99,1.25,0.99,2.16c0,0.58-0.14,1.1-0.41,1.56s-0.69,0.83-1.25,1.09
			c-0.56,0.27-1.24,0.4-2.05,0.4c-0.69,0-1.36-0.1-2-0.31s-1.18-0.5-1.6-0.88l0.64-1.11c0.34,0.32,0.77,0.57,1.29,0.76
			c0.52,0.19,1.07,0.29,1.65,0.29c0.74,0,1.31-0.16,1.72-0.47c0.41-0.31,0.61-0.74,0.61-1.28c0-0.59-0.22-1.03-0.67-1.34
			c-0.45-0.3-1.21-0.46-2.3-0.46h-2.23l0.52-5.12h5.53v1.22h-4.35l-0.27,2.69h1.09C58.3,387.37,59.33,387.63,59.99,388.16z"/>
	</g>
	<g>
		<path d="M37.81,338.05v1.22H30.7v-9.8h6.92v1.22H32.1v3.01h4.91v1.19H32.1v3.16H37.81z"/>
		<path d="M42.32,329.47v9.8h-1.39v-8.58h-2.21v-1.22H42.32z"/>
		<path d="M46.4,338.78c-0.6-0.4-1.08-0.97-1.42-1.73s-0.52-1.65-0.52-2.69c0-1.04,0.17-1.93,0.52-2.69s0.82-1.33,1.42-1.73
			s1.29-0.6,2.06-0.6c0.77,0,1.45,0.2,2.05,0.6s1.08,0.97,1.42,1.73s0.52,1.65,0.52,2.69c0,1.04-0.17,1.93-0.52,2.69
			s-0.82,1.33-1.42,1.73s-1.29,0.59-2.05,0.59C47.69,339.38,47,339.18,46.4,338.78z M50.35,337.17c0.47-0.64,0.71-1.58,0.71-2.8
			s-0.24-2.16-0.71-2.8c-0.47-0.64-1.1-0.97-1.88-0.97c-0.79,0-1.43,0.32-1.9,0.97s-0.71,1.58-0.71,2.8s0.24,2.16,0.71,2.8
			c0.47,0.64,1.1,0.97,1.9,0.97C49.25,338.13,49.88,337.81,50.35,337.17z"/>
		<path d="M59.76,333.68c0.51,0.24,0.91,0.59,1.2,1.04c0.29,0.45,0.43,0.97,0.43,1.56c0,0.62-0.15,1.16-0.45,1.63
			c-0.3,0.47-0.72,0.83-1.25,1.08c-0.53,0.26-1.12,0.38-1.77,0.38c-1.32,0-2.33-0.42-3.04-1.27c-0.71-0.85-1.07-2.05-1.07-3.61
			c0-1.09,0.19-2.02,0.58-2.79c0.39-0.77,0.93-1.35,1.62-1.75s1.5-0.6,2.43-0.6c0.48,0,0.92,0.05,1.34,0.15
			c0.42,0.1,0.78,0.24,1.09,0.43l-0.53,1.09c-0.47-0.31-1.09-0.46-1.88-0.46c-1.02,0-1.82,0.32-2.39,0.94
			c-0.58,0.63-0.87,1.55-0.87,2.75c0,0.15,0,0.27,0.01,0.35c0.28-0.42,0.67-0.74,1.16-0.96c0.49-0.22,1.04-0.33,1.66-0.33
			C58.67,333.32,59.25,333.44,59.76,333.68z M59.43,337.73c0.4-0.34,0.6-0.81,0.6-1.39s-0.2-1.04-0.61-1.38
			c-0.41-0.34-0.95-0.51-1.63-0.51c-0.44,0-0.83,0.08-1.17,0.25c-0.34,0.17-0.61,0.4-0.8,0.69c-0.19,0.29-0.29,0.61-0.29,0.97
			c0,0.35,0.09,0.66,0.27,0.95c0.18,0.29,0.45,0.51,0.8,0.69c0.35,0.17,0.77,0.26,1.25,0.26C58.51,338.24,59.03,338.07,59.43,337.73
			z"/>
	</g>
	<g>
		<path d="M38,284.05v1.22h-7.11v-9.8h6.92v1.22h-5.52v3.01h4.91v1.19h-4.91v3.16H38z"/>
		<path d="M42.5,275.47v9.8h-1.39v-8.58h-2.21v-1.22H42.5z"/>
		<path d="M46.58,284.78c-0.6-0.4-1.08-0.97-1.42-1.73s-0.52-1.65-0.52-2.69c0-1.04,0.17-1.93,0.52-2.69s0.82-1.33,1.42-1.73
			s1.29-0.6,2.06-0.6c0.77,0,1.45,0.2,2.05,0.6s1.08,0.97,1.42,1.73s0.52,1.65,0.52,2.69c0,1.04-0.17,1.93-0.52,2.69
			s-0.82,1.33-1.42,1.73s-1.29,0.59-2.05,0.59C47.88,285.38,47.19,285.18,46.58,284.78z M50.53,283.17c0.47-0.64,0.71-1.58,0.71-2.8
			s-0.24-2.16-0.71-2.8c-0.47-0.64-1.1-0.97-1.88-0.97c-0.79,0-1.43,0.32-1.9,0.97s-0.71,1.58-0.71,2.8s0.24,2.16,0.71,2.8
			c0.47,0.64,1.1,0.97,1.9,0.97C49.43,284.13,50.06,283.81,50.53,283.17z"/>
		<path d="M61.03,275.47v0.95l-3.96,8.85h-1.48l3.88-8.58h-4.48v1.75h-1.34v-2.97H61.03z"/>
	</g>
	<g>
		<path d="M37.63,230.05v1.22h-7.11v-9.8h6.92v1.22h-5.52v3.01h4.91v1.19h-4.91v3.16H37.63z"/>
		<path d="M42.13,221.47v9.8h-1.39v-8.58h-2.21v-1.22H42.13z"/>
		<path d="M46.21,230.78c-0.6-0.4-1.08-0.97-1.42-1.73s-0.52-1.65-0.52-2.69c0-1.04,0.17-1.93,0.52-2.69s0.82-1.33,1.42-1.73
			s1.29-0.6,2.06-0.6c0.77,0,1.45,0.2,2.05,0.6s1.08,0.97,1.42,1.73s0.52,1.65,0.52,2.69c0,1.04-0.17,1.93-0.52,2.69
			s-0.82,1.33-1.42,1.73s-1.29,0.59-2.05,0.59C47.5,231.38,46.82,231.18,46.21,230.78z M50.16,229.17c0.47-0.64,0.71-1.58,0.71-2.8
			s-0.24-2.16-0.71-2.8c-0.47-0.64-1.1-0.97-1.88-0.97c-0.79,0-1.43,0.32-1.9,0.97s-0.71,1.58-0.71,2.8s0.24,2.16,0.71,2.8
			c0.47,0.64,1.1,0.97,1.9,0.97C49.06,230.13,49.69,229.81,50.16,229.17z"/>
		<path d="M60.89,227.05c0.3,0.4,0.45,0.88,0.45,1.44c0,0.59-0.16,1.1-0.48,1.53c-0.32,0.43-0.77,0.77-1.36,1
			c-0.59,0.23-1.28,0.35-2.07,0.35c-0.78,0-1.47-0.12-2.05-0.35c-0.58-0.23-1.03-0.57-1.35-1c-0.32-0.43-0.48-0.95-0.48-1.53
			c0-0.56,0.15-1.04,0.44-1.44s0.72-0.71,1.28-0.92c-0.45-0.21-0.79-0.5-1.02-0.85c-0.23-0.35-0.35-0.77-0.35-1.26
			c0-0.54,0.15-1.01,0.44-1.41c0.29-0.4,0.71-0.71,1.24-0.92s1.15-0.32,1.85-0.32c0.71,0,1.33,0.11,1.87,0.32s0.95,0.52,1.25,0.92
			s0.44,0.87,0.44,1.41c0,0.48-0.12,0.89-0.36,1.25c-0.24,0.36-0.58,0.65-1.03,0.86C60.16,226.34,60.59,226.65,60.89,227.05z
			 M59.27,229.76c0.45-0.32,0.67-0.76,0.67-1.31c0-0.54-0.22-0.97-0.67-1.28c-0.45-0.31-1.06-0.47-1.83-0.47
			c-0.77,0-1.38,0.16-1.82,0.47c-0.44,0.31-0.66,0.74-0.66,1.28c0,0.55,0.22,0.99,0.66,1.31c0.44,0.32,1.05,0.48,1.82,0.48
			C58.21,230.24,58.82,230.08,59.27,229.76z M55.87,222.91c-0.38,0.29-0.57,0.67-0.57,1.16c0,0.48,0.19,0.87,0.57,1.15
			s0.9,0.42,1.58,0.42c0.68,0,1.22-0.14,1.6-0.42c0.39-0.28,0.58-0.66,0.58-1.15c0-0.49-0.2-0.87-0.6-1.16
			c-0.4-0.28-0.93-0.43-1.59-0.43C56.77,222.49,56.25,222.63,55.87,222.91z"/>
	</g>
	<g>
		<path d="M39.54,149.05v1.22h-7.11v-9.8h6.92v1.22h-5.52v3.01h4.91v1.19h-4.91v3.16H39.54z"/>
		<path d="M44.05,140.47v9.8h-1.39v-8.58h-2.21v-1.22H44.05z"/>
		<path d="M49.23,140.47v9.8h-1.39v-8.58h-2.21v-1.22H49.23z"/>
		<path d="M53.31,149.78c-0.6-0.4-1.08-0.97-1.42-1.73s-0.52-1.65-0.52-2.69c0-1.04,0.17-1.93,0.52-2.69s0.82-1.33,1.42-1.73
			s1.29-0.6,2.06-0.6c0.77,0,1.45,0.2,2.05,0.6s1.08,0.97,1.42,1.73s0.52,1.65,0.52,2.69c0,1.04-0.17,1.93-0.52,2.69
			s-0.82,1.33-1.42,1.73s-1.29,0.59-2.05,0.59C54.6,150.38,53.91,150.18,53.31,149.78z M57.26,148.17c0.47-0.64,0.71-1.58,0.71-2.8
			s-0.24-2.16-0.71-2.8c-0.47-0.64-1.1-0.97-1.88-0.97c-0.79,0-1.43,0.32-1.9,0.97s-0.71,1.58-0.71,2.8s0.24,2.16,0.71,2.8
			c0.47,0.64,1.1,0.97,1.9,0.97C56.16,149.13,56.79,148.81,57.26,148.17z"/>
	</g>
	<g>
		<rect x="108.5" y="396.5" class="st0" width="0.5" height="1"/>
	</g>
	<g>
		<path class="st1" d="M227,559H117c-4.42,0-8-3.58-8-8v-92c0-4.42,3.58-8,8-8h110c4.42,0,8,3.58,8,8v92
			C235,555.42,231.42,559,227,559z"/>
		<path class="st0" d="M227,559.5H117c-4.69,0-8.5-3.81-8.5-8.5v-92c0-4.69,3.81-8.5,8.5-8.5h110c4.69,0,8.5,3.81,8.5,8.5v92
			C235.5,555.69,231.69,559.5,227,559.5z M117,451.5c-4.14,0-7.5,3.36-7.5,7.5v92c0,4.14,3.36,7.5,7.5,7.5h110
			c4.14,0,7.5-3.36,7.5-7.5v-92c0-4.14-3.36-7.5-7.5-7.5H117z"/>
	</g>
	<g>
		<path class="st1" d="M226.5,217.5h-110c-4.42,0-8-3.58-8-8v-92c0-4.42,3.58-8,8-8h110c4.42,0,8,3.58,8,8v92
			C234.5,213.92,230.92,217.5,226.5,217.5z"/>
		<path class="st0" d="M226.5,218h-110c-4.69,0-8.5-3.81-8.5-8.5v-92c0-4.69,3.81-8.5,8.5-8.5h110c4.69,0,8.5,3.81,8.5,8.5v92
			C235,214.19,231.19,218,226.5,218z M116.5,110c-4.14,0-7.5,3.36-7.5,7.5v92c0,4.14,3.36,7.5,7.5,7.5h110c4.14,0,7.5-3.36,7.5-7.5
			v-92c0-4.14-3.36-7.5-7.5-7.5H116.5z"/>
	</g>
	<g>
		<rect x="252" y="53" class="st0" width="0.5" height="1"/>
	</g>
	<g>
		<path class="st1" d="M252,577h90v73c0,8.84-7.16,16-16,16h-74V577z"/>
		<path class="st0" d="M326,666.5h-74.5v-90h91V650C342.5,659.1,335.1,666.5,326,666.5z M252.5,665.5H326
			c8.55,0,15.5-6.95,15.5-15.5v-72.5h-89V665.5z"/>
	</g>
	<g>
		<path d="M281.84,626.05v1.22h-7.11v-9.8h6.92v1.22h-5.52v3.01h4.91v1.19h-4.91v3.16H281.84z"/>
		<path d="M286.35,617.46v9.8h-1.39v-8.58h-2.21v-1.22H286.35z"/>
		<path d="M295.38,626.05v1.22h-7.04v-0.95l3.99-3.85c0.49-0.47,0.81-0.87,0.98-1.21c0.17-0.34,0.25-0.68,0.25-1.03
			c0-0.51-0.18-0.91-0.54-1.2s-0.88-0.43-1.55-0.43c-1.08,0-1.92,0.35-2.51,1.06l-0.95-0.83c0.38-0.47,0.88-0.83,1.5-1.09
			s1.31-0.39,2.08-0.39c1.03,0,1.84,0.24,2.45,0.73c0.61,0.49,0.91,1.16,0.91,2c0,0.52-0.11,1.02-0.34,1.48
			c-0.22,0.47-0.65,1-1.27,1.6l-3,2.88H295.38z"/>
		<path d="M304.79,624.86h-1.86v2.41h-1.36v-2.41h-5.45v-0.98l5.01-6.41h1.51l-4.8,6.19h3.77v-2.13h1.32v2.13h1.86V624.86z"/>
		<path d="M310.19,617.46h1.4v9.8h-1.4V617.46z"/>
		<path d="M314.53,617.46h1.4v9.8h-1.4V617.46z"/>
		<path d="M318.87,617.46h1.4v9.8h-1.4V617.46z"/>
	</g>
</g>
<g id="Mapa_2P">
</g>
<g id="Mapa_3P">
</g>
<g id="Bordes">
	<g>
		<path class="st14" d="M343,650c0,8.8-7.2,16-16,16H17c-8.8,0-16-7.2-16-16V18.5c0-8.8,7.2-16,16-16h310c8.8,0,16,7.2,16,16V650z"
			/>
	</g>
</g>
<g id="Layer_8" class="st15">
</g>
</svg>
