<?xml version="1.0" encoding="utf-8"?>
<!-- Generator: Adobe Illustrator 24.3.0, SVG Export Plug-In . SVG Version: 6.00 Build 0)  -->
<svg version="1.1" xmlns="http://www.w3.org/2000/svg" xmlns:xlink="http://www.w3.org/1999/xlink" x="0px" y="0px"
	 viewBox="0 0 344 668" style="enable-background:new 0 0 344 668;" xml:space="preserve">
<style type="text/css">
	.st0{fill:#231F20;}
	.st1{fill:#FFFFFF;}
	.st2{fill:none;stroke:#231F20;stroke-miterlimit:10;}
	.st3{fill:#FF7B55;}
	.st4{fill:#FFBDAA;}
	.st5{fill:#00C6AE;}
	.st6{fill:#FFBD12;}
	.st7{fill:#C3D5FC;}
	.st8{fill:#1D1D1B;}
	.st9{fill:#D7F9F2;}
	.st10{fill:#8490FF;}
	.st11{fill:#FFFFFF;stroke:#1D1D1B;stroke-width:2;stroke-linecap:round;stroke-miterlimit:10;}
	.st12{fill:#FFB5D4;}
	.st13{fill:#FFEEFE;}
	.st14{fill:none;stroke:#231F20;stroke-width:2;stroke-miterlimit:10;}
	.st15{display:none;}
	.st16{display:inline;fill:none;stroke:#231F20;stroke-miterlimit:10;}
</style>
<g id="Mapa_SS">
</g>
<g id="Mapa_PB">
</g>
<g id="Mapa_PB_B_L_C">
</g>
<g id="Mapa_PB_B_L">
</g>
<g id="Mapa_PB_BIBLIOTECA">
</g>
<g id="Mapa_PB_COMEDOR">
	<g>
		<g>
			<g>
				<g>
					<g>
						<path class="st0" d="M343,650.56c0,8.8-7.2,16-16,16H17c-8.8,0-16-7.2-16-16V19.06c0-8.8,7.2-16,16-16h310c8.8,0,16,7.2,16,16
							V650.56z"/>
					</g>
				</g>
				<g>
					<g>
						<path class="st0" d="M327,667.56H17c-9.37,0-17-7.63-17-17V19.06c0-9.37,7.63-17,17-17h310c9.37,0,17,7.63,17,17v631.5
							C344,659.94,336.37,667.56,327,667.56z M17,4.06c-8.27,0-15,6.73-15,15v631.5c0,8.27,6.73,15,15,15h310c8.27,0,15-6.73,15-15
							V19.06c0-8.27-6.73-15-15-15H17z"/>
					</g>
				</g>
			</g>
			<g>
				<g>
					<g>
						<path class="st1" d="M343,648.56c0,8.8-7.2,16-16,16H17c-8.8,0-16-7.2-16-16V17.06c0-8.8,7.2-16,16-16h310c8.8,0,16,7.2,16,16
							V648.56z"/>
					</g>
				</g>
				<g>
					<g>
						<path class="st0" d="M327,665.56H17c-9.37,0-17-7.63-17-17V17.06c0-9.37,7.63-17,17-17h310c9.37,0,17,7.63,17,17v631.5
							C344,657.94,336.37,665.56,327,665.56z M17,2.06c-8.27,0-15,6.73-15,15v631.5c0,8.27,6.73,15,15,15h310c8.27,0,15-6.73,15-15
							V17.06c0-8.27-6.73-15-15-15H17z"/>
					</g>
				</g>
			</g>
		</g>
		<g>
			<g>
				<path class="st6" d="M91,395.5h-9c-4.97,0-9-4.03-9-9v0c0-4.97,4.03-9,9-9h9"/>
			</g>
			<g>
				<path class="st0" d="M91,396h-9c-5.24,0-9.5-4.26-9.5-9.5s4.26-9.5,9.5-9.5h9v1h-9c-4.69,0-8.5,3.81-8.5,8.5s3.81,8.5,8.5,8.5h9
					V396z"/>
			</g>
		</g>
		<g>
			<g>
				<path class="st0" d="M191,91.86h-39c-4.69,0-8.5-3.81-8.5-8.5v-10.5H91v-1h53.5v11.5c0,4.14,3.36,7.5,7.5,7.5h39
					c4.14,0,7.5-3.36,7.5-7.5v-11.5H252v1h-52.5v10.5C199.5,88.05,195.69,91.86,191,91.86z"/>
			</g>
		</g>
		<g>
			<g>
				<g>
					<path class="st6" d="M252,0.56v71h-53v11c0,4.42-3.58,8-8,8h-39c-4.42,0-8-3.58-8-8v-11H91v-71H252z"/>
				</g>
			</g>
			<g>
				<g>
					<path class="st0" d="M191,91.06h-39c-4.69,0-8.5-3.81-8.5-8.5v-10.5h-53v-72h162v72h-53v10.5
						C199.5,87.25,195.69,91.06,191,91.06z M91.5,71.06h53v11.5c0,4.14,3.36,7.5,7.5,7.5h39c4.14,0,7.5-3.36,7.5-7.5v-11.5h53v-70
						h-160V71.06z"/>
				</g>
			</g>
		</g>
		<g>
			<g>
				<path class="st0" d="M91.5,198.06h-91v-109h91V198.06z M1.5,197.06h89v-107h-89V197.06z"/>
			</g>
		</g>
		<g>
			<g>
				<path class="st0" d="M91.5,252.06h-91v-55h91V252.06z M1.5,251.06h89v-53h-89V251.06z"/>
			</g>
		</g>
		<g>
			<g>
				<g>
					<g>
						<path d="M1,252.56h90v46c0,4.42-3.58,8-8,8H1V252.56z"/>
					</g>
				</g>
				<g>
					<g>
						<path d="M83,307.06H0.5v-55h91v46.5C91.5,303.25,87.69,307.06,83,307.06z M1.5,306.06H83c4.14,0,7.5-3.36,7.5-7.5v-45.5h-89
							V306.06z"/>
					</g>
				</g>
			</g>
			<g>
				<g>
					<g>
						<path class="st1" d="M1,251.56h90v46c0,4.42-3.58,8-8,8H1V251.56z"/>
					</g>
				</g>
				<g>
					<g>
						<path class="st0" d="M83,306.06H0.5v-55h91v46.5C91.5,302.25,87.69,306.06,83,306.06z M1.5,305.06H83c4.14,0,7.5-3.36,7.5-7.5
							v-45.5h-89V305.06z"/>
					</g>
				</g>
			</g>
		</g>
		<g>
			<g>
				<path class="st0" d="M91.5,414.06h-91v-55H83c4.69,0,8.5,3.81,8.5,8.5V414.06z M1.5,413.06h89v-45.5c0-4.14-3.36-7.5-7.5-7.5
					H1.5V413.06z"/>
			</g>
		</g>
		<g>
			<g>
				<path class="st0" d="M91.5,522.06h-91v-109h91V522.06z M1.5,521.06h89v-107h-89V521.06z"/>
			</g>
		</g>
		<g>
			<g>
				<g>
					<g>
						<path d="M342,17.56v505h-90v-154c0-4.42,3.58-8,8-8h37.5v-108H260c-4.42,0-8-3.58-8-8v-243h74C334.84,1.56,342,8.72,342,17.56
							z"/>
					</g>
				</g>
				<g>
					<g>
						<path d="M342.5,523.06h-91v-154.5c0-4.69,3.81-8.5,8.5-8.5h37v-107h-37c-4.69,0-8.5-3.81-8.5-8.5V1.06H326
							c9.1,0,16.5,7.4,16.5,16.5V523.06z M252.5,522.06h89V17.56c0-8.55-6.95-15.5-15.5-15.5h-73.5v242.5c0,4.14,3.36,7.5,7.5,7.5
							h38v109h-38c-4.14,0-7.5,3.36-7.5,7.5V522.06z"/>
					</g>
				</g>
			</g>
			<g>
				<g>
					<g>
						<path class="st1" d="M342,16.56v505h-90v-154c0-4.42,3.58-8,8-8h37.5v-108H260c-4.42,0-8-3.58-8-8v-243h74
							C334.84,0.56,342,7.72,342,16.56z"/>
					</g>
				</g>
				<g>
					<g>
						<path class="st0" d="M342.5,522.06h-91v-154.5c0-4.69,3.81-8.5,8.5-8.5h37v-107h-37c-4.69,0-8.5-3.81-8.5-8.5V0.06H326
							c9.1,0,16.5,7.4,16.5,16.5V522.06z M252.5,521.06h89V16.56c0-8.55-6.95-15.5-15.5-15.5h-73.5v242.5c0,4.14,3.36,7.5,7.5,7.5
							h38v109h-38c-4.14,0-7.5,3.36-7.5,7.5V521.06z"/>
					</g>
				</g>
			</g>
		</g>
		<g>
			<g>
				<path class="st0" d="M91.5,90.06h-91v-73.5c0-9.1,7.4-16.5,16.5-16.5h74.5V90.06z M1.5,89.06h89v-88H17
					c-8.55,0-15.5,6.95-15.5,15.5V89.06z"/>
			</g>
		</g>
		<g>
			<g>
				<g>
					<g>
						<path d="M226.5,217.06h-110c-4.42,0-8-3.58-8-8v-92c0-4.42,3.58-8,8-8h110c4.42,0,8,3.58,8,8v92
							C234.5,213.48,230.92,217.06,226.5,217.06z"/>
					</g>
				</g>
				<g>
					<g>
						<path d="M226.5,217.56h-110c-4.69,0-8.5-3.81-8.5-8.5v-92c0-4.69,3.81-8.5,8.5-8.5h110c4.69,0,8.5,3.81,8.5,8.5v92
							C235,213.75,231.19,217.56,226.5,217.56z M116.5,109.56c-4.14,0-7.5,3.36-7.5,7.5v92c0,4.14,3.36,7.5,7.5,7.5h110
							c4.14,0,7.5-3.36,7.5-7.5v-92c0-4.14-3.36-7.5-7.5-7.5H116.5z"/>
					</g>
				</g>
			</g>
			<g>
				<g>
					<g>
						<path class="st1" d="M226.5,216.06h-110c-4.42,0-8-3.58-8-8v-92c0-4.42,3.58-8,8-8h110c4.42,0,8,3.58,8,8v92
							C234.5,212.48,230.92,216.06,226.5,216.06z"/>
					</g>
				</g>
				<g>
					<g>
						<path class="st0" d="M226.5,216.56h-110c-4.69,0-8.5-3.81-8.5-8.5v-92c0-4.69,3.81-8.5,8.5-8.5h110c4.69,0,8.5,3.81,8.5,8.5
							v92C235,212.75,231.19,216.56,226.5,216.56z M116.5,108.56c-4.14,0-7.5,3.36-7.5,7.5v92c0,4.14,3.36,7.5,7.5,7.5h110
							c4.14,0,7.5-3.36,7.5-7.5v-92c0-4.14-3.36-7.5-7.5-7.5H116.5z"/>
					</g>
				</g>
			</g>
		</g>
		<g>
			<g>
				<g>
					<g>
						<path d="M227,558.56H117c-4.42,0-8-3.58-8-8v-92c0-4.42,3.58-8,8-8h110c4.42,0,8,3.58,8,8v92
							C235,554.98,231.42,558.56,227,558.56z"/>
					</g>
				</g>
				<g>
					<g>
						<path d="M227,559.06H117c-4.69,0-8.5-3.81-8.5-8.5v-92c0-4.69,3.81-8.5,8.5-8.5h110c4.69,0,8.5,3.81,8.5,8.5v92
							C235.5,555.25,231.69,559.06,227,559.06z M117,451.06c-4.14,0-7.5,3.36-7.5,7.5v92c0,4.14,3.36,7.5,7.5,7.5h110
							c4.14,0,7.5-3.36,7.5-7.5v-92c0-4.14-3.36-7.5-7.5-7.5H117z"/>
					</g>
				</g>
			</g>
			<g>
				<g>
					<g>
						<path class="st1" d="M227,557.56H117c-4.42,0-8-3.58-8-8v-92c0-4.42,3.58-8,8-8h110c4.42,0,8,3.58,8,8v92
							C235,553.98,231.42,557.56,227,557.56z"/>
					</g>
				</g>
				<g>
					<g>
						<path class="st0" d="M227,558.06H117c-4.69,0-8.5-3.81-8.5-8.5v-92c0-4.69,3.81-8.5,8.5-8.5h110c4.69,0,8.5,3.81,8.5,8.5v92
							C235.5,554.25,231.69,558.06,227,558.06z M117,450.06c-4.14,0-7.5,3.36-7.5,7.5v92c0,4.14,3.36,7.5,7.5,7.5h110
							c4.14,0,7.5-3.36,7.5-7.5v-92c0-4.14-3.36-7.5-7.5-7.5H117z"/>
					</g>
				</g>
			</g>
		</g>
		<g>
			<g>
				<g>
					<g>
						<path d="M235,270.56v136c0,4.42-3.58,8-8,8H117c-4.42,0-8-3.58-8-8v-136h45.5c0,9.94,8.06,18,18,18s18-8.06,18-18H235z"/>
					</g>
				</g>
				<g>
					<g>
						<path d="M227,415.06H117c-4.69,0-8.5-3.81-8.5-8.5v-136.5H155v0.5c0,9.65,7.85,17.5,17.5,17.5s17.5-7.85,17.5-17.5v-0.5h45.5
							v136.5C235.5,411.25,231.69,415.06,227,415.06z M109.5,271.06v135.5c0,4.14,3.36,7.5,7.5,7.5h110c4.14,0,7.5-3.36,7.5-7.5
							v-135.5h-43.51c-0.27,9.97-8.46,18-18.49,18c-10.03,0-18.23-8.03-18.49-18H109.5z"/>
					</g>
				</g>
			</g>
			<g>
				<g>
					<g>
						<path class="st1" d="M235,269.56v136c0,4.42-3.58,8-8,8H117c-4.42,0-8-3.58-8-8v-136h45.5c0,9.94,8.06,18,18,18s18-8.06,18-18
							H235z"/>
					</g>
				</g>
				<g>
					<g>
						<path class="st0" d="M227,414.06H117c-4.69,0-8.5-3.81-8.5-8.5v-136.5H155v0.5c0,9.65,7.85,17.5,17.5,17.5
							s17.5-7.85,17.5-17.5v-0.5h45.5v136.5C235.5,410.25,231.69,414.06,227,414.06z M109.5,270.06v135.5c0,4.14,3.36,7.5,7.5,7.5
							h110c4.14,0,7.5-3.36,7.5-7.5v-135.5h-43.51c-0.27,9.97-8.46,18-18.49,18c-10.03,0-18.23-8.03-18.49-18H109.5z"/>
					</g>
				</g>
			</g>
		</g>
		<g>
			<g>
				<g>
					<g>
						<path d="M235,260.56v10h-44.5c0,9.94-8.06,18-18,18s-18-8.06-18-18H109v-10c0-4.42,3.58-8,8-8h110
							C231.42,252.56,235,256.14,235,260.56z"/>
					</g>
				</g>
				<g>
					<g>
						<path d="M172.5,289.06c-10.03,0-18.23-8.03-18.49-18H108.5v-10.5c0-4.69,3.81-8.5,8.5-8.5h110c4.69,0,8.5,3.81,8.5,8.5v10.5
							h-44.51C190.73,281.03,182.53,289.06,172.5,289.06z M109.5,270.06H155v0.5c0,9.65,7.85,17.5,17.5,17.5s17.5-7.85,17.5-17.5
							v-0.5h44.5v-9.5c0-4.14-3.36-7.5-7.5-7.5H117c-4.14,0-7.5,3.36-7.5,7.5V270.06z"/>
					</g>
				</g>
			</g>
			<g>
				<g>
					<g>
						<path class="st1" d="M235,259.56v10h-44.5c0,9.94-8.06,18-18,18s-18-8.06-18-18H109v-10c0-4.42,3.58-8,8-8h110
							C231.42,251.56,235,255.14,235,259.56z"/>
					</g>
				</g>
				<g>
					<g>
						<path class="st0" d="M172.5,288.06c-10.03,0-18.23-8.03-18.49-18H108.5v-10.5c0-4.69,3.81-8.5,8.5-8.5h110
							c4.69,0,8.5,3.81,8.5,8.5v10.5h-44.51C190.73,280.03,182.53,288.06,172.5,288.06z M109.5,269.06H155v0.5
							c0,9.65,7.85,17.5,17.5,17.5s17.5-7.85,17.5-17.5v-0.5h44.5v-9.5c0-4.14-3.36-7.5-7.5-7.5H117c-4.14,0-7.5,3.36-7.5,7.5
							V269.06z"/>
					</g>
				</g>
			</g>
		</g>
		<g>
			<g>
				<path d="M17.56,42.07c-0.69-0.23-1.23-0.52-1.62-0.89l0.52-1.09c0.37,0.34,0.85,0.61,1.44,0.82s1.18,0.32,1.8,0.32
					c0.81,0,1.42-0.14,1.82-0.41s0.6-0.64,0.6-1.1c0-0.34-0.11-0.61-0.33-0.82s-0.49-0.37-0.81-0.48c-0.32-0.11-0.78-0.24-1.36-0.38
					c-0.74-0.18-1.33-0.35-1.79-0.53c-0.45-0.18-0.84-0.45-1.16-0.82c-0.32-0.37-0.48-0.87-0.48-1.49c0-0.52,0.14-0.99,0.41-1.41
					c0.27-0.42,0.69-0.76,1.25-1.01s1.26-0.38,2.09-0.38c0.58,0,1.15,0.07,1.71,0.22s1.04,0.36,1.44,0.64l-0.46,1.12
					c-0.41-0.26-0.85-0.46-1.32-0.6c-0.47-0.13-0.92-0.2-1.37-0.2c-0.79,0-1.39,0.15-1.79,0.43c-0.4,0.29-0.59,0.66-0.59,1.12
					c0,0.34,0.11,0.61,0.34,0.82s0.5,0.37,0.83,0.49c0.33,0.12,0.78,0.24,1.35,0.37c0.74,0.18,1.33,0.35,1.78,0.53
					c0.45,0.18,0.83,0.45,1.16,0.81c0.32,0.36,0.48,0.85,0.48,1.47c0,0.51-0.14,0.98-0.42,1.41c-0.28,0.42-0.71,0.76-1.27,1.01
					c-0.57,0.25-1.27,0.37-2.1,0.37C18.96,42.41,18.25,42.3,17.56,42.07z"/>
			</g>
			<g>
				<path d="M31.78,39.85h-5.21l-1.08,2.45h-1.44l4.44-9.8h1.39l4.45,9.8h-1.47L31.78,39.85z M31.29,38.73l-2.11-4.8l-2.11,4.8
					H31.29z"/>
			</g>
			<g>
				<path d="M35.78,32.5h1.4v8.58h5.31v1.22h-6.71V32.5z"/>
			</g>
			<g>
				<path d="M50.39,39.85h-5.21L44.1,42.3h-1.44l4.44-9.8h1.39l4.45,9.8h-1.47L50.39,39.85z M49.9,38.73l-2.11-4.8l-2.11,4.8H49.9z"
					/>
			</g>
			<g>
				<path d="M58.16,32.5h4.13c1.04,0,1.96,0.21,2.76,0.62c0.8,0.41,1.43,0.99,1.87,1.73s0.67,1.59,0.67,2.55
					c0,0.96-0.22,1.81-0.67,2.55c-0.44,0.74-1.07,1.32-1.87,1.73c-0.8,0.41-1.72,0.62-2.76,0.62h-4.13V32.5z M62.2,41.08
					c0.79,0,1.49-0.15,2.09-0.46c0.6-0.31,1.07-0.74,1.39-1.29c0.33-0.55,0.49-1.2,0.49-1.92c0-0.73-0.16-1.37-0.49-1.92
					s-0.79-0.99-1.39-1.29c-0.6-0.31-1.3-0.46-2.09-0.46h-2.65v7.36H62.2z"/>
			</g>
			<g>
				<path d="M76.83,41.08v1.22h-7.11v-9.8h6.92v1.22h-5.52v3.01h4.91v1.19h-4.91v3.16H76.83z"/>
			</g>
			<g>
				<path d="M7.73,47.5h4.13c1.04,0,1.96,0.21,2.76,0.62c0.8,0.41,1.43,0.99,1.87,1.73s0.67,1.59,0.67,2.55
					c0,0.96-0.22,1.81-0.67,2.55c-0.44,0.74-1.07,1.32-1.87,1.73c-0.8,0.41-1.72,0.62-2.76,0.62H7.73V47.5z M11.77,56.08
					c0.79,0,1.49-0.15,2.09-0.46c0.6-0.31,1.07-0.74,1.39-1.29c0.33-0.55,0.49-1.2,0.49-1.92c0-0.73-0.16-1.37-0.49-1.92
					s-0.79-0.99-1.39-1.29c-0.6-0.31-1.3-0.46-2.09-0.46H9.13v7.36H11.77z"/>
			</g>
			<g>
				<path d="M21.04,56.76c-0.79-0.43-1.42-1.03-1.87-1.8c-0.45-0.77-0.68-1.62-0.68-2.56c0-0.94,0.23-1.8,0.68-2.56
					c0.45-0.77,1.08-1.37,1.87-1.8c0.79-0.43,1.68-0.65,2.67-0.65c0.98,0,1.87,0.22,2.66,0.65c0.79,0.43,1.41,1.03,1.86,1.79
					c0.45,0.76,0.67,1.62,0.67,2.57s-0.22,1.81-0.67,2.57c-0.45,0.76-1.07,1.36-1.86,1.79c-0.79,0.43-1.68,0.65-2.66,0.65
					C22.73,57.41,21.83,57.19,21.04,56.76z M25.65,55.68c0.57-0.33,1.03-0.78,1.36-1.35c0.33-0.57,0.5-1.21,0.5-1.92
					c0-0.71-0.17-1.35-0.5-1.92c-0.33-0.57-0.78-1.02-1.36-1.35c-0.57-0.33-1.22-0.49-1.94-0.49s-1.37,0.16-1.95,0.49
					c-0.58,0.33-1.04,0.78-1.37,1.35c-0.33,0.57-0.5,1.22-0.5,1.92c0,0.71,0.17,1.35,0.5,1.92c0.33,0.57,0.79,1.02,1.37,1.35
					c0.58,0.33,1.23,0.49,1.95,0.49S25.08,56,25.65,55.68z"/>
			</g>
			<g>
				<path d="M32.78,56.76c-0.79-0.43-1.41-1.03-1.85-1.79c-0.45-0.76-0.67-1.62-0.67-2.57s0.22-1.81,0.67-2.57
					c0.45-0.76,1.07-1.36,1.86-1.79c0.79-0.43,1.68-0.65,2.66-0.65c0.77,0,1.46,0.13,2.1,0.38s1.18,0.64,1.62,1.14l-0.91,0.88
					c-0.74-0.78-1.66-1.16-2.76-1.16c-0.73,0-1.39,0.16-1.97,0.49c-0.59,0.33-1.05,0.78-1.38,1.35c-0.33,0.57-0.5,1.22-0.5,1.92
					c0,0.71,0.17,1.35,0.5,1.92c0.33,0.57,0.79,1.02,1.38,1.35c0.59,0.33,1.25,0.49,1.97,0.49c1.09,0,2.01-0.39,2.76-1.18l0.91,0.88
					c-0.45,0.5-0.99,0.89-1.63,1.15c-0.64,0.26-1.34,0.39-2.11,0.39C34.45,57.41,33.57,57.19,32.78,56.76z"/>
			</g>
			<g>
				<path d="M48.29,56.08v1.22h-7.11v-9.8h6.92v1.22h-5.52v3.01h4.91v1.19h-4.91v3.16H48.29z"/>
			</g>
			<g>
				<path d="M58.98,47.5v9.8h-1.15l-5.88-7.31v7.31h-1.4v-9.8h1.15l5.88,7.31V47.5H58.98z"/>
			</g>
			<g>
				<path d="M63.87,48.72h-3.36V47.5h8.11v1.22h-3.36v8.58h-1.39V48.72z"/>
			</g>
			<g>
				<path d="M77.25,56.08v1.22h-7.11v-9.8h6.92v1.22h-5.52v3.01h4.91v1.19h-4.91v3.16H77.25z"/>
			</g>
			<g>
				<path d="M80.24,57.07c-0.69-0.23-1.23-0.52-1.62-0.89l0.52-1.09c0.37,0.34,0.85,0.61,1.44,0.82s1.18,0.32,1.8,0.32
					c0.81,0,1.42-0.14,1.82-0.41s0.6-0.64,0.6-1.1c0-0.34-0.11-0.61-0.33-0.82s-0.49-0.37-0.81-0.48c-0.32-0.11-0.78-0.24-1.36-0.38
					c-0.74-0.18-1.33-0.35-1.79-0.53c-0.45-0.18-0.84-0.45-1.16-0.82c-0.32-0.37-0.48-0.87-0.48-1.49c0-0.52,0.14-0.99,0.41-1.41
					c0.27-0.42,0.69-0.76,1.25-1.01s1.26-0.38,2.09-0.38c0.58,0,1.15,0.07,1.71,0.22s1.04,0.36,1.44,0.64l-0.46,1.12
					c-0.41-0.26-0.85-0.46-1.32-0.6c-0.47-0.13-0.92-0.2-1.37-0.2c-0.79,0-1.39,0.15-1.79,0.43c-0.4,0.29-0.59,0.66-0.59,1.12
					c0,0.34,0.11,0.61,0.34,0.82s0.5,0.37,0.83,0.49c0.33,0.12,0.78,0.24,1.35,0.37c0.74,0.18,1.33,0.35,1.78,0.53
					c0.45,0.18,0.83,0.45,1.16,0.81c0.32,0.36,0.48,0.85,0.48,1.47c0,0.51-0.14,0.98-0.42,1.41c-0.28,0.42-0.71,0.76-1.27,1.01
					c-0.57,0.25-1.27,0.37-2.1,0.37C81.64,57.41,80.93,57.3,80.24,57.07z"/>
			</g>
		</g>
		<g>
			<g>
				<path d="M29.92,463.98c-0.69-0.23-1.23-0.52-1.62-0.89l0.52-1.09c0.37,0.34,0.85,0.61,1.44,0.82s1.18,0.32,1.8,0.32
					c0.81,0,1.42-0.14,1.82-0.41s0.6-0.64,0.6-1.1c0-0.34-0.11-0.61-0.33-0.82s-0.49-0.37-0.81-0.48c-0.32-0.11-0.78-0.24-1.36-0.38
					c-0.74-0.18-1.33-0.35-1.79-0.53c-0.45-0.18-0.84-0.45-1.16-0.82c-0.32-0.37-0.48-0.87-0.48-1.49c0-0.52,0.14-0.99,0.41-1.41
					c0.27-0.42,0.69-0.76,1.25-1.01s1.26-0.38,2.09-0.38c0.58,0,1.15,0.07,1.71,0.22s1.04,0.36,1.44,0.64l-0.46,1.12
					c-0.41-0.26-0.85-0.46-1.32-0.6c-0.47-0.13-0.92-0.2-1.37-0.2c-0.79,0-1.39,0.15-1.79,0.43c-0.4,0.29-0.59,0.66-0.59,1.12
					c0,0.34,0.11,0.61,0.34,0.82s0.5,0.37,0.83,0.49c0.33,0.12,0.78,0.24,1.35,0.37c0.74,0.18,1.33,0.35,1.78,0.53
					c0.45,0.18,0.83,0.45,1.16,0.81c0.32,0.36,0.48,0.85,0.48,1.47c0,0.51-0.14,0.98-0.42,1.41c-0.28,0.42-0.71,0.76-1.27,1.01
					c-0.57,0.25-1.27,0.37-2.1,0.37C31.31,464.32,30.6,464.21,29.92,463.98z"/>
			</g>
			<g>
				<path d="M44.13,461.76h-5.21l-1.08,2.45h-1.44l4.44-9.8h1.39l4.45,9.8h-1.47L44.13,461.76z M43.64,460.64l-2.11-4.8l-2.11,4.8
					H43.64z"/>
			</g>
			<g>
				<path d="M48.14,454.41h1.4v8.58h5.31v1.22h-6.71V454.41z"/>
			</g>
			<g>
				<path d="M62.74,461.76h-5.21l-1.08,2.45h-1.44l4.44-9.8h1.39l4.45,9.8h-1.47L62.74,461.76z M62.25,460.64l-2.11-4.8l-2.11,4.8
					H62.25z"/>
			</g>
			<g>
				<path d="M23.5,474.99c0.33,0.42,0.49,0.94,0.49,1.58c0,0.85-0.32,1.5-0.96,1.96c-0.64,0.46-1.57,0.69-2.79,0.69h-4.68v-9.8h4.4
					c1.12,0,1.99,0.22,2.6,0.67c0.61,0.45,0.92,1.07,0.92,1.86c0,0.51-0.12,0.96-0.36,1.33c-0.24,0.37-0.56,0.66-0.96,0.85
					C22.72,474.29,23.17,474.57,23.5,474.99z M16.96,470.54v3.14h2.87c0.72,0,1.27-0.13,1.66-0.4c0.39-0.27,0.58-0.66,0.58-1.17
					c0-0.51-0.19-0.9-0.58-1.17c-0.39-0.27-0.94-0.4-1.66-0.4H16.96z M21.97,477.68c0.4-0.26,0.6-0.67,0.6-1.23
					c0-1.09-0.8-1.64-2.39-1.64h-3.22v3.26h3.22C20.97,478.08,21.57,477.94,21.97,477.68z"/>
			</g>
			<g>
				<path d="M32.4,476.76h-5.21l-1.08,2.45h-1.44l4.44-9.8h1.39l4.45,9.8h-1.47L32.4,476.76z M31.91,475.64l-2.11-4.8l-2.11,4.8
					H31.91z"/>
			</g>
			<g>
				<path d="M36.41,469.41h1.4v8.58h5.31v1.22h-6.71V469.41z"/>
			</g>
			<g>
				<path d="M44.72,469.41h1.4v9.8h-1.4V469.41z"/>
			</g>
			<g>
				<path d="M56.17,477.99v1.22h-7.11v-9.8h6.92v1.22h-5.52v3.01h4.91v1.19h-4.91v3.16H56.17z"/>
			</g>
			<g>
				<path d="M64.99,479.21l-2.11-3.01c-0.26,0.02-0.47,0.03-0.62,0.03h-2.42v2.98h-1.4v-9.8h3.82c1.27,0,2.27,0.3,3,0.91
					c0.73,0.61,1.09,1.44,1.09,2.51c0,0.76-0.19,1.4-0.56,1.93c-0.37,0.53-0.91,0.92-1.6,1.16l2.32,3.29H64.99z M64.25,474.46
					c0.47-0.38,0.7-0.93,0.7-1.64c0-0.71-0.23-1.25-0.7-1.63s-1.14-0.57-2.03-0.57h-2.38v4.41h2.38
					C63.11,475.04,63.78,474.85,64.25,474.46z"/>
			</g>
			<g>
				<path d="M70.37,478.67c-0.79-0.43-1.42-1.03-1.87-1.8c-0.45-0.77-0.68-1.62-0.68-2.56c0-0.94,0.23-1.8,0.68-2.56
					c0.45-0.77,1.08-1.37,1.87-1.8c0.79-0.43,1.68-0.65,2.67-0.65c0.98,0,1.87,0.22,2.66,0.65c0.79,0.43,1.41,1.03,1.86,1.79
					c0.45,0.76,0.67,1.62,0.67,2.57s-0.22,1.81-0.67,2.57c-0.45,0.76-1.07,1.36-1.86,1.79c-0.79,0.43-1.68,0.65-2.66,0.65
					C72.05,479.32,71.16,479.1,70.37,478.67z M74.98,477.58c0.57-0.33,1.03-0.78,1.36-1.35c0.33-0.57,0.5-1.21,0.5-1.92
					c0-0.71-0.17-1.35-0.5-1.92c-0.33-0.57-0.78-1.02-1.36-1.35c-0.57-0.33-1.22-0.49-1.94-0.49s-1.37,0.16-1.95,0.49
					c-0.58,0.33-1.04,0.78-1.37,1.35c-0.33,0.57-0.5,1.22-0.5,1.92c0,0.71,0.17,1.35,0.5,1.92c0.33,0.57,0.79,1.02,1.37,1.35
					c0.58,0.33,1.23,0.49,1.95,0.49S74.41,477.91,74.98,477.58z"/>
			</g>
		</g>
		<g>
			<g>
				<path d="M158.01,320.32c0.73,0.61,1.09,1.44,1.09,2.51c0,1.06-0.36,1.9-1.09,2.51s-1.73,0.91-3,0.91h-2.42v2.97h-1.4v-9.8h3.82
					C156.28,319.41,157.28,319.71,158.01,320.32z M157,324.46c0.47-0.38,0.7-0.92,0.7-1.63c0-0.71-0.23-1.25-0.7-1.63
					s-1.14-0.57-2.03-0.57h-2.38v4.4h2.38C155.86,325.02,156.54,324.83,157,324.46z"/>
			</g>
			<g>
				<path d="M166.92,326.76h-5.21l-1.08,2.45h-1.44l4.44-9.8h1.39l4.45,9.8h-1.47L166.92,326.76z M166.43,325.64l-2.11-4.8
					l-2.11,4.8H166.43z"/>
			</g>
			<g>
				<path d="M172.38,320.63h-3.36v-1.22h8.11v1.22h-3.36v8.58h-1.39V320.63z"/>
			</g>
			<g>
				<path d="M178.65,319.41h1.4v9.8h-1.4V319.41z"/>
			</g>
			<g>
				<path d="M184.74,328.67c-0.79-0.43-1.42-1.03-1.87-1.8c-0.45-0.77-0.68-1.62-0.68-2.56c0-0.94,0.23-1.8,0.68-2.56
					c0.45-0.77,1.08-1.37,1.87-1.8c0.79-0.43,1.68-0.65,2.67-0.65c0.98,0,1.87,0.22,2.66,0.65c0.79,0.43,1.41,1.03,1.86,1.79
					c0.45,0.76,0.67,1.62,0.67,2.57s-0.22,1.81-0.67,2.57c-0.45,0.76-1.07,1.36-1.86,1.79c-0.79,0.43-1.68,0.65-2.66,0.65
					C186.42,329.32,185.53,329.1,184.74,328.67z M189.35,327.58c0.57-0.33,1.03-0.78,1.36-1.35c0.33-0.57,0.5-1.21,0.5-1.92
					c0-0.71-0.17-1.35-0.5-1.92s-0.78-1.02-1.36-1.35c-0.57-0.33-1.22-0.49-1.94-0.49s-1.37,0.16-1.95,0.49
					c-0.58,0.33-1.04,0.78-1.37,1.35c-0.33,0.57-0.5,1.22-0.5,1.92c0,0.71,0.17,1.35,0.5,1.92c0.33,0.57,0.79,1.02,1.37,1.35
					c0.58,0.33,1.23,0.49,1.95,0.49S188.78,327.91,189.35,327.58z"/>
			</g>
			<g>
				<path d="M140.78,343.67c-0.79-0.43-1.41-1.03-1.85-1.79c-0.45-0.76-0.67-1.62-0.67-2.57s0.22-1.81,0.67-2.57
					c0.45-0.76,1.07-1.36,1.86-1.79c0.79-0.43,1.68-0.65,2.66-0.65c0.77,0,1.46,0.13,2.1,0.38s1.18,0.64,1.62,1.14l-0.91,0.88
					c-0.74-0.78-1.66-1.16-2.76-1.16c-0.73,0-1.39,0.16-1.97,0.49c-0.59,0.33-1.05,0.78-1.38,1.35c-0.33,0.57-0.5,1.22-0.5,1.92
					c0,0.71,0.17,1.35,0.5,1.92c0.33,0.57,0.79,1.02,1.38,1.35c0.59,0.33,1.25,0.49,1.97,0.49c1.09,0,2.01-0.39,2.76-1.18l0.91,0.88
					c-0.45,0.5-0.99,0.89-1.63,1.15c-0.64,0.26-1.34,0.39-2.11,0.39C142.46,344.32,141.57,344.1,140.78,343.67z"/>
			</g>
			<g>
				<path d="M156.29,342.99v1.22h-7.11v-9.8h6.92v1.22h-5.52v3.01h4.91v1.19h-4.91v3.16H156.29z"/>
			</g>
			<g>
				<path d="M166.99,334.41v9.8h-1.15l-5.88-7.31v7.31h-1.4v-9.8h1.15l5.88,7.31v-7.31H166.99z"/>
			</g>
			<g>
				<path d="M171.87,335.63h-3.36v-1.22h8.11v1.22h-3.36v8.58h-1.39V335.63z"/>
			</g>
			<g>
				<path d="M184.7,344.21l-2.11-3.01c-0.26,0.02-0.47,0.03-0.62,0.03h-2.42v2.98h-1.4v-9.8h3.82c1.27,0,2.27,0.3,3,0.91
					c0.73,0.61,1.09,1.44,1.09,2.51c0,0.76-0.19,1.4-0.56,1.93c-0.37,0.53-0.91,0.92-1.6,1.16l2.32,3.29H184.7z M183.95,339.46
					c0.47-0.38,0.7-0.93,0.7-1.64c0-0.71-0.23-1.25-0.7-1.63s-1.14-0.57-2.03-0.57h-2.38v4.41h2.38
					C182.81,340.04,183.49,339.85,183.95,339.46z"/>
			</g>
			<g>
				<path d="M194.56,341.76h-5.21l-1.08,2.45h-1.44l4.44-9.8h1.39l4.45,9.8h-1.47L194.56,341.76z M194.08,340.64l-2.11-4.8
					l-2.11,4.8H194.08z"/>
			</g>
			<g>
				<path d="M198.57,334.41h1.4v8.58h5.31v1.22h-6.71V334.41z"/>
			</g>
		</g>
		<g>
			<g>
				<path d="M13.67,275.35c-0.79-0.43-1.41-1.03-1.85-1.79c-0.45-0.76-0.67-1.62-0.67-2.57s0.22-1.81,0.67-2.57
					c0.45-0.76,1.07-1.36,1.86-1.79c0.79-0.43,1.68-0.65,2.66-0.65c0.77,0,1.46,0.13,2.1,0.38s1.18,0.64,1.62,1.14l-0.91,0.88
					c-0.74-0.78-1.66-1.16-2.76-1.16c-0.73,0-1.39,0.16-1.97,0.49c-0.59,0.33-1.05,0.78-1.38,1.35c-0.33,0.57-0.5,1.22-0.5,1.92
					c0,0.71,0.17,1.35,0.5,1.92c0.33,0.57,0.79,1.02,1.38,1.35c0.59,0.33,1.25,0.49,1.97,0.49c1.09,0,2.01-0.39,2.76-1.18l0.91,0.88
					c-0.45,0.5-0.99,0.89-1.63,1.15c-0.64,0.26-1.34,0.39-2.11,0.39C15.34,276,14.46,275.78,13.67,275.35z"/>
			</g>
			<g>
				<path d="M23.6,275.35c-0.79-0.43-1.42-1.03-1.87-1.8c-0.45-0.77-0.68-1.62-0.68-2.56c0-0.94,0.23-1.8,0.68-2.56
					c0.45-0.77,1.08-1.37,1.87-1.8c0.79-0.43,1.68-0.65,2.67-0.65c0.98,0,1.87,0.22,2.66,0.65c0.79,0.43,1.41,1.03,1.86,1.79
					c0.45,0.76,0.67,1.62,0.67,2.57s-0.22,1.81-0.67,2.57c-0.45,0.76-1.07,1.36-1.86,1.79c-0.79,0.43-1.68,0.65-2.66,0.65
					C25.29,276,24.4,275.78,23.6,275.35z M28.22,274.26c0.57-0.33,1.03-0.78,1.36-1.35c0.33-0.57,0.5-1.21,0.5-1.92
					c0-0.71-0.17-1.35-0.5-1.92c-0.33-0.57-0.78-1.02-1.36-1.35c-0.57-0.33-1.22-0.49-1.94-0.49s-1.37,0.16-1.95,0.49
					c-0.58,0.33-1.04,0.78-1.37,1.35c-0.33,0.57-0.5,1.22-0.5,1.92c0,0.71,0.17,1.35,0.5,1.92c0.33,0.57,0.79,1.02,1.37,1.35
					c0.58,0.33,1.23,0.49,1.95,0.49S27.64,274.59,28.22,274.26z"/>
			</g>
			<g>
				<path d="M42.04,266.09v9.8h-1.15l-5.88-7.31v7.31h-1.4v-9.8h1.15l5.88,7.31v-7.31H42.04z"/>
			</g>
			<g>
				<path d="M45.7,275.66c-0.69-0.23-1.23-0.52-1.62-0.89l0.52-1.09c0.37,0.34,0.85,0.61,1.44,0.82s1.18,0.32,1.8,0.32
					c0.81,0,1.42-0.14,1.82-0.41s0.6-0.64,0.6-1.1c0-0.34-0.11-0.61-0.33-0.82s-0.49-0.37-0.81-0.48c-0.32-0.11-0.78-0.24-1.36-0.38
					c-0.74-0.18-1.33-0.35-1.79-0.53c-0.45-0.18-0.84-0.45-1.16-0.82c-0.32-0.37-0.48-0.87-0.48-1.49c0-0.52,0.14-0.99,0.41-1.41
					c0.27-0.42,0.69-0.76,1.25-1.01s1.26-0.38,2.09-0.38c0.58,0,1.15,0.07,1.71,0.22s1.04,0.36,1.44,0.64l-0.46,1.12
					c-0.41-0.26-0.85-0.46-1.32-0.6c-0.47-0.13-0.92-0.2-1.37-0.2c-0.79,0-1.39,0.15-1.79,0.43c-0.4,0.29-0.59,0.66-0.59,1.12
					c0,0.34,0.11,0.61,0.34,0.82s0.5,0.37,0.83,0.49c0.33,0.12,0.78,0.24,1.35,0.37c0.74,0.18,1.33,0.35,1.78,0.53
					c0.45,0.18,0.83,0.45,1.16,0.81c0.32,0.36,0.48,0.85,0.48,1.47c0,0.51-0.14,0.98-0.42,1.41c-0.28,0.42-0.71,0.76-1.27,1.01
					c-0.57,0.25-1.27,0.37-2.1,0.37C47.1,276,46.39,275.89,45.7,275.66z"/>
			</g>
			<g>
				<path d="M60.79,274.67v1.22h-7.11v-9.8h6.92v1.22h-5.52v3.01h4.91v1.19h-4.91v3.16H60.79z"/>
			</g>
			<g>
				<path d="M62.68,275.63c-0.5-0.25-0.91-0.6-1.22-1.04l0.81-0.95c0.54,0.77,1.22,1.16,2.04,1.16c0.55,0,0.97-0.17,1.25-0.5
					c0.28-0.34,0.43-0.83,0.43-1.48v-5.5h-3.54v-1.22h4.93v6.65c0,1.08-0.26,1.9-0.78,2.44S65.32,276,64.32,276
					C63.73,276,63.18,275.88,62.68,275.63z"/>
			</g>
			<g>
				<path d="M71.99,275.35c-0.79-0.43-1.42-1.03-1.87-1.8c-0.45-0.77-0.68-1.62-0.68-2.56c0-0.94,0.23-1.8,0.68-2.56
					c0.45-0.77,1.08-1.37,1.87-1.8c0.79-0.43,1.68-0.65,2.67-0.65c0.98,0,1.87,0.22,2.66,0.65c0.79,0.43,1.41,1.03,1.86,1.79
					c0.45,0.76,0.67,1.62,0.67,2.57s-0.22,1.81-0.67,2.57c-0.45,0.76-1.07,1.36-1.86,1.79c-0.79,0.43-1.68,0.65-2.66,0.65
					C73.67,276,72.78,275.78,71.99,275.35z M76.6,274.26c0.57-0.33,1.03-0.78,1.36-1.35c0.33-0.57,0.5-1.21,0.5-1.92
					c0-0.71-0.17-1.35-0.5-1.92c-0.33-0.57-0.78-1.02-1.36-1.35c-0.57-0.33-1.22-0.49-1.94-0.49s-1.37,0.16-1.95,0.49
					c-0.58,0.33-1.04,0.78-1.37,1.35c-0.33,0.57-0.5,1.22-0.5,1.92c0,0.71,0.17,1.35,0.5,1.92c0.33,0.57,0.79,1.02,1.37,1.35
					c0.58,0.33,1.23,0.49,1.95,0.49S76.03,274.59,76.6,274.26z"/>
			</g>
			<g>
				<path d="M7.32,281.09h4.13c1.04,0,1.96,0.21,2.76,0.62c0.8,0.41,1.43,0.99,1.87,1.73s0.67,1.59,0.67,2.55
					c0,0.96-0.22,1.81-0.67,2.55c-0.44,0.74-1.07,1.32-1.87,1.73c-0.8,0.41-1.72,0.62-2.76,0.62H7.32V281.09z M11.36,289.67
					c0.79,0,1.49-0.15,2.09-0.46c0.6-0.31,1.07-0.74,1.39-1.29c0.33-0.55,0.49-1.2,0.49-1.92c0-0.73-0.16-1.37-0.49-1.92
					s-0.79-0.99-1.39-1.29c-0.6-0.31-1.3-0.46-2.09-0.46H8.72v7.36H11.36z"/>
			</g>
			<g>
				<path d="M18.88,281.09h1.4v9.8h-1.4V281.09z"/>
			</g>
			<g>
				<path d="M29.77,290.89l-2.11-3.01c-0.26,0.02-0.47,0.03-0.62,0.03h-2.42v2.98h-1.4v-9.8h3.82c1.27,0,2.27,0.3,3,0.91
					c0.73,0.61,1.09,1.44,1.09,2.51c0,0.76-0.19,1.4-0.56,1.93c-0.37,0.53-0.91,0.92-1.6,1.16l2.32,3.29H29.77z M29.03,286.14
					c0.47-0.38,0.7-0.93,0.7-1.64c0-0.71-0.23-1.25-0.7-1.63s-1.14-0.57-2.03-0.57h-2.38v4.41H27
					C27.89,286.72,28.56,286.52,29.03,286.14z"/>
			</g>
			<g>
				<path d="M40.51,289.67v1.22H33.4v-9.8h6.92v1.22H34.8v3.01h4.91v1.19H34.8v3.16H40.51z"/>
			</g>
			<g>
				<path d="M44.46,290.35c-0.79-0.43-1.41-1.03-1.85-1.79c-0.45-0.76-0.67-1.62-0.67-2.57s0.22-1.81,0.67-2.57
					c0.45-0.76,1.07-1.36,1.86-1.79c0.79-0.43,1.68-0.65,2.66-0.65c0.77,0,1.46,0.13,2.1,0.38s1.18,0.64,1.62,1.14l-0.91,0.88
					c-0.74-0.78-1.66-1.16-2.76-1.16c-0.73,0-1.39,0.16-1.97,0.49c-0.59,0.33-1.05,0.78-1.38,1.35c-0.33,0.57-0.5,1.22-0.5,1.92
					c0,0.71,0.17,1.35,0.5,1.92c0.33,0.57,0.79,1.02,1.38,1.35c0.59,0.33,1.25,0.49,1.97,0.49c1.09,0,2.01-0.39,2.76-1.18l0.91,0.88
					c-0.45,0.5-0.99,0.89-1.63,1.15c-0.64,0.26-1.34,0.39-2.11,0.39C46.14,291,45.25,290.78,44.46,290.35z"/>
			</g>
			<g>
				<path d="M54.69,282.31h-3.36v-1.22h8.11v1.22h-3.36v8.58h-1.39V282.31z"/>
			</g>
			<g>
				<path d="M60.96,281.09h1.4v9.8h-1.4V281.09z"/>
			</g>
			<g>
				<path d="M73.72,281.09l-4.3,9.8h-1.39l-4.31-9.8h1.51l3.53,8.05l3.56-8.05H73.72z"/>
			</g>
			<g>
				<path d="M76.61,290.35c-0.79-0.43-1.42-1.03-1.87-1.8c-0.45-0.77-0.68-1.62-0.68-2.56c0-0.94,0.23-1.8,0.68-2.56
					c0.45-0.77,1.08-1.37,1.87-1.8c0.79-0.43,1.68-0.65,2.67-0.65c0.98,0,1.87,0.22,2.66,0.65c0.79,0.43,1.41,1.03,1.86,1.79
					c0.45,0.76,0.67,1.62,0.67,2.57s-0.22,1.81-0.67,2.57c-0.45,0.76-1.07,1.36-1.86,1.79c-0.79,0.43-1.68,0.65-2.66,0.65
					C78.3,291,77.41,290.78,76.61,290.35z M81.23,289.26c0.57-0.33,1.03-0.78,1.36-1.35c0.33-0.57,0.5-1.21,0.5-1.92
					c0-0.71-0.17-1.35-0.5-1.92c-0.33-0.57-0.78-1.02-1.36-1.35c-0.57-0.33-1.22-0.49-1.94-0.49s-1.37,0.16-1.95,0.49
					c-0.58,0.33-1.04,0.78-1.37,1.35c-0.33,0.57-0.5,1.22-0.5,1.92c0,0.71,0.17,1.35,0.5,1.92c0.33,0.57,0.79,1.02,1.37,1.35
					c0.58,0.33,1.23,0.49,1.95,0.49S80.65,289.59,81.23,289.26z"/>
			</g>
		</g>
		<g>
			<g>
				<path d="M18.98,212.09h4.13c1.04,0,1.96,0.21,2.76,0.62c0.8,0.41,1.43,0.99,1.87,1.73s0.67,1.59,0.67,2.55
					c0,0.96-0.22,1.81-0.67,2.55c-0.44,0.74-1.07,1.32-1.87,1.73c-0.8,0.41-1.72,0.62-2.76,0.62h-4.13V212.09z M23.03,220.67
					c0.79,0,1.49-0.15,2.09-0.46c0.6-0.31,1.07-0.74,1.39-1.29c0.33-0.55,0.49-1.2,0.49-1.92c0-0.73-0.16-1.37-0.49-1.92
					s-0.79-0.99-1.39-1.29c-0.6-0.31-1.3-0.46-2.09-0.46h-2.65v7.36H23.03z"/>
			</g>
			<g>
				<path d="M32.35,213.31h-3.36v-1.22h8.11v1.22h-3.36v8.58h-1.39V213.31z"/>
			</g>
			<g>
				<path d="M40.24,221.35c-0.79-0.43-1.42-1.03-1.87-1.8c-0.45-0.77-0.68-1.62-0.68-2.56c0-0.94,0.23-1.8,0.68-2.56
					c0.45-0.77,1.08-1.37,1.87-1.8c0.79-0.43,1.68-0.65,2.67-0.65c0.98,0,1.87,0.22,2.66,0.65c0.79,0.43,1.41,1.03,1.86,1.79
					c0.45,0.76,0.67,1.62,0.67,2.57s-0.22,1.81-0.67,2.57c-0.45,0.76-1.07,1.36-1.86,1.79c-0.79,0.43-1.68,0.65-2.66,0.65
					C41.92,222,41.03,221.78,40.24,221.35z M44.85,220.26c0.57-0.33,1.03-0.78,1.36-1.35c0.33-0.57,0.5-1.21,0.5-1.92
					c0-0.71-0.17-1.35-0.5-1.92c-0.33-0.57-0.78-1.02-1.36-1.35c-0.57-0.33-1.22-0.49-1.94-0.49s-1.37,0.16-1.95,0.49
					c-0.58,0.33-1.04,0.78-1.37,1.35c-0.33,0.57-0.5,1.22-0.5,1.92c0,0.71,0.17,1.35,0.5,1.92c0.33,0.57,0.79,1.02,1.37,1.35
					c0.58,0.33,1.23,0.49,1.95,0.49S44.27,220.59,44.85,220.26z"/>
			</g>
			<g>
				<path d="M54.01,212.09h4.13c1.04,0,1.96,0.21,2.76,0.62c0.8,0.41,1.43,0.99,1.87,1.73s0.67,1.59,0.67,2.55
					c0,0.96-0.22,1.81-0.67,2.55c-0.44,0.74-1.07,1.32-1.87,1.73c-0.8,0.41-1.72,0.62-2.76,0.62h-4.13V212.09z M58.06,220.67
					c0.79,0,1.49-0.15,2.09-0.46c0.6-0.31,1.07-0.74,1.39-1.29c0.33-0.55,0.49-1.2,0.49-1.92c0-0.73-0.16-1.37-0.49-1.92
					s-0.79-0.99-1.39-1.29c-0.6-0.31-1.3-0.46-2.09-0.46h-2.65v7.36H58.06z"/>
			</g>
			<g>
				<path d="M72.69,220.67v1.22h-7.11v-9.8h6.92v1.22h-5.52v3.01h4.91v1.19h-4.91v3.16H72.69z"/>
			</g>
			<g>
				<path d="M17.14,234.44h-5.21l-1.08,2.45H9.42l4.44-9.8h1.39l4.45,9.8h-1.47L17.14,234.44z M16.65,233.32l-2.11-4.8l-2.11,4.8
					H16.65z"/>
			</g>
			<g>
				<path d="M21.15,227.09h1.4v8.58h5.31v1.22h-6.71V227.09z"/>
			</g>
			<g>
				<path d="M30.3,235.88c-0.73-0.75-1.09-1.82-1.09-3.22v-5.57h1.4v5.52c0,2.1,0.92,3.15,2.76,3.15c0.9,0,1.58-0.26,2.06-0.78
					c0.48-0.52,0.71-1.31,0.71-2.37v-5.52h1.36v5.57c0,1.41-0.36,2.49-1.09,3.23S34.66,237,33.35,237S31.03,236.63,30.3,235.88z"/>
			</g>
			<g>
				<path d="M49.46,236.89l-0.01-7.14l-3.54,5.95h-0.64l-3.54-5.91v7.1h-1.34v-9.8h1.15l4.09,6.89l4.03-6.89h1.15l0.01,9.8H49.46z"
					/>
			</g>
			<g>
				<path d="M62.17,227.09v9.8h-1.15l-5.88-7.31v7.31h-1.4v-9.8h1.15l5.88,7.31v-7.31H62.17z"/>
			</g>
			<g>
				<path d="M71.27,236.89l-2.94-4.05l-2.9,4.05h-1.61l3.68-5.03l-3.46-4.77h1.6l2.74,3.77l2.72-3.77h1.53l-3.46,4.73l3.71,5.07
					H71.27z"/>
			</g>
			<g>
				<path d="M75.07,236.66c-0.69-0.23-1.23-0.52-1.62-0.89l0.52-1.09c0.37,0.34,0.85,0.61,1.44,0.82s1.18,0.32,1.8,0.32
					c0.81,0,1.42-0.14,1.82-0.41s0.6-0.64,0.6-1.1c0-0.34-0.11-0.61-0.33-0.82s-0.49-0.37-0.81-0.48c-0.32-0.11-0.78-0.24-1.36-0.38
					c-0.74-0.18-1.33-0.35-1.79-0.53c-0.45-0.18-0.84-0.45-1.16-0.82c-0.32-0.37-0.48-0.87-0.48-1.49c0-0.52,0.14-0.99,0.41-1.41
					c0.27-0.42,0.69-0.76,1.25-1.01s1.26-0.38,2.09-0.38c0.58,0,1.15,0.07,1.71,0.22s1.04,0.36,1.44,0.64l-0.46,1.12
					c-0.41-0.26-0.85-0.46-1.32-0.6c-0.47-0.13-0.92-0.2-1.37-0.2c-0.79,0-1.39,0.15-1.79,0.43c-0.4,0.29-0.59,0.66-0.59,1.12
					c0,0.34,0.11,0.61,0.34,0.82s0.5,0.37,0.83,0.49c0.33,0.12,0.78,0.24,1.35,0.37c0.74,0.18,1.33,0.35,1.78,0.53
					c0.45,0.18,0.83,0.45,1.16,0.81c0.32,0.36,0.48,0.85,0.48,1.47c0,0.51-0.14,0.98-0.42,1.41c-0.28,0.42-0.71,0.76-1.27,1.01
					c-0.57,0.25-1.27,0.37-2.1,0.37C76.47,237,75.75,236.89,75.07,236.66z"/>
			</g>
		</g>
		<g>
			<g>
				<path d="M19.26,141c-0.5-0.25-0.91-0.6-1.22-1.04l0.81-0.95c0.54,0.77,1.22,1.16,2.04,1.16c0.55,0,0.97-0.17,1.25-0.5
					c0.28-0.34,0.43-0.83,0.43-1.48v-5.5h-3.54v-1.22h4.93v6.65c0,1.08-0.26,1.9-0.78,2.44s-1.28,0.82-2.29,0.82
					C20.31,141.37,19.76,141.24,19.26,141z"/>
			</g>
			<g>
				<path d="M32.85,138.8h-5.21l-1.08,2.45h-1.44l4.44-9.8h1.39l4.45,9.8h-1.47L32.85,138.8z M32.36,137.68l-2.11-4.8l-2.11,4.8
					H32.36z"/>
			</g>
			<g>
				<path d="M43.41,141.25l-2.11-3.01c-0.26,0.02-0.47,0.03-0.62,0.03h-2.42v2.98h-1.4v-9.8h3.82c1.27,0,2.27,0.3,3,0.91
					c0.73,0.61,1.09,1.44,1.09,2.51c0,0.76-0.19,1.4-0.56,1.93c-0.37,0.53-0.91,0.92-1.6,1.16l2.32,3.29H43.41z M42.67,136.51
					c0.47-0.38,0.7-0.93,0.7-1.64c0-0.71-0.23-1.25-0.7-1.63s-1.14-0.57-2.03-0.57h-2.38v4.41h2.38
					C41.52,137.08,42.2,136.89,42.67,136.51z"/>
			</g>
			<g>
				<path d="M47.03,131.46h4.13c1.04,0,1.96,0.21,2.76,0.62c0.8,0.41,1.43,0.99,1.87,1.73s0.67,1.59,0.67,2.55
					c0,0.96-0.22,1.81-0.67,2.55c-0.44,0.74-1.07,1.32-1.87,1.73c-0.8,0.41-1.72,0.62-2.76,0.62h-4.13V131.46z M51.08,140.04
					c0.79,0,1.49-0.15,2.09-0.46c0.6-0.31,1.07-0.74,1.39-1.29c0.33-0.55,0.49-1.2,0.49-1.92c0-0.73-0.16-1.37-0.49-1.92
					s-0.79-0.99-1.39-1.29c-0.6-0.31-1.3-0.46-2.09-0.46h-2.65v7.36H51.08z"/>
			</g>
			<g>
				<path d="M60.15,128.84h1.71l-2.35,1.82h-1.26L60.15,128.84z M58.6,131.46H60v9.8h-1.4V131.46z"/>
			</g>
			<g>
				<path d="M71.36,131.46v9.8h-1.15l-5.88-7.31v7.31h-1.4v-9.8h1.15l5.88,7.31v-7.31H71.36z"/>
			</g>
			<g>
				<path d="M15.64,156.25l-0.01-7.14l-3.54,5.95h-0.64l-3.54-5.91v7.1H6.55v-9.8H7.7l4.09,6.89l4.03-6.89h1.15l0.01,9.8H15.64z"/>
			</g>
			<g>
				<path d="M26.17,153.8h-5.21l-1.08,2.45h-1.44l4.44-9.8h1.39l4.45,9.8h-1.47L26.17,153.8z M25.68,152.68l-2.11-4.8l-2.11,4.8
					H25.68z"/>
			</g>
			<g>
				<path d="M31.63,147.67h-3.36v-1.22h8.11v1.22h-3.36v8.58h-1.39V147.67z"/>
			</g>
			<g>
				<path d="M45.01,155.04v1.22H37.9v-9.8h6.92v1.22H39.3v3.01h4.91v1.19H39.3v3.16H45.01z"/>
			</g>
			<g>
				<path d="M53.83,156.25l-2.11-3.01c-0.26,0.02-0.47,0.03-0.62,0.03h-2.42v2.98h-1.4v-9.8h3.82c1.27,0,2.27,0.3,3,0.91
					c0.73,0.61,1.09,1.44,1.09,2.51c0,0.76-0.19,1.4-0.56,1.93c-0.37,0.53-0.91,0.92-1.6,1.16l2.32,3.29H53.83z M53.09,151.51
					c0.47-0.38,0.7-0.93,0.7-1.64c0-0.71-0.23-1.25-0.7-1.63s-1.14-0.57-2.03-0.57h-2.38v4.41h2.38
					C51.94,152.08,52.62,151.89,53.09,151.51z"/>
			</g>
			<g>
				<path d="M65.88,146.46v9.8h-1.15l-5.88-7.31v7.31h-1.4v-9.8h1.15l5.88,7.31v-7.31H65.88z"/>
			</g>
			<g>
				<path d="M75.07,153.8h-5.21l-1.08,2.45h-1.44l4.44-9.8h1.39l4.45,9.8h-1.47L75.07,153.8z M74.58,152.68l-2.11-4.8l-2.11,4.8
					H74.58z"/>
			</g>
			<g>
				<path d="M79.07,146.46h1.4v8.58h5.31v1.22h-6.71V146.46z"/>
			</g>
		</g>
		<g>
			<g>
				<path class="st1" d="M109,197.56h35v-46c0-4.42-3.58-8-8-8h-27"/>
			</g>
			<g>
				<path class="st0" d="M144.5,198.06H109v-1h34.5v-45.5c0-4.14-3.36-7.5-7.5-7.5h-27v-1h27c4.69,0,8.5,3.81,8.5,8.5V198.06z"/>
			</g>
		</g>
		<g>
			<g>
				<path class="st1" d="M234,197.56h-35v-46c0-4.42,3.58-8,8-8h27"/>
			</g>
			<g>
				<path class="st0" d="M234,198.06h-35.5v-46.5c0-4.69,3.81-8.5,8.5-8.5h27v1h-27c-4.14,0-7.5,3.36-7.5,7.5v45.5H234V198.06z"/>
			</g>
		</g>
		<g>
			<g>
				<path class="st1" d="M234.5,467.56H199v46c0,4.42,3.63,8,8.11,8h27.39"/>
			</g>
			<g>
				<path class="st0" d="M234.5,522.06h-27.39c-4.75,0-8.61-3.81-8.61-8.5v-46.5h36v1h-35v45.5c0,4.14,3.42,7.5,7.61,7.5h27.39
					V522.06z"/>
			</g>
		</g>
		<g>
			<g>
				<path class="st1" d="M109,467.56h35V558h-27c-4.42,0-8-3.58-8-8V467.56"/>
			</g>
			<g>
				<path class="st0" d="M144.5,558.5H117c-4.69,0-8.5-3.81-8.5-8.5v-82.94h36V558.5z M109.5,468.06V550c0,4.14,3.36,7.5,7.5,7.5
					h26.5v-89.44H109.5z"/>
			</g>
		</g>
		<g>
			<g>
				<rect x="108.5" y="197.06" class="st0" width="126" height="1"/>
			</g>
		</g>
		<g>
			<g>
				<rect x="108.5" y="467.06" class="st0" width="126" height="1"/>
			</g>
		</g>
		<g>
			<g>
				<rect x="198.5" y="197.56" class="st0" width="1" height="18"/>
			</g>
		</g>
		<g>
			<g>
				<rect x="143.5" y="197.56" class="st0" width="1" height="18"/>
			</g>
		</g>
		<g>
			<g>
				<rect x="162.53" y="197.56" class="st0" width="1" height="18.5"/>
			</g>
		</g>
		<g>
			<g>
				<rect x="180.53" y="197.56" class="st0" width="1" height="18.5"/>
			</g>
		</g>
		<g>
			<g>
				<rect x="198.5" y="449.56" class="st0" width="1" height="18"/>
			</g>
		</g>
		<g>
			<g>
				<rect x="143.5" y="449.56" class="st0" width="1" height="18"/>
			</g>
		</g>
		<g>
			<g>
				<rect x="162.53" y="449.56" class="st0" width="1" height="18.5"/>
			</g>
		</g>
		<g>
			<g>
				<rect x="180.53" y="449.56" class="st0" width="1" height="18.5"/>
			</g>
		</g>
		<g>
			<g>
				<rect x="108.5" y="395.06" class="st0" width="0.5" height="1"/>
			</g>
		</g>
		<g>
			<g>
				<g>
					<g>
						<path d="M235,260.56v10h-44.5c0,9.94-8.06,18-18,18s-18-8.06-18-18H109v-10c0-4.42,3.58-8,8-8h110
							C231.42,252.56,235,256.14,235,260.56z"/>
					</g>
				</g>
				<g>
					<g>
						<path d="M172.5,289.06c-10.03,0-18.23-8.03-18.49-18H108.5v-10.5c0-4.69,3.81-8.5,8.5-8.5h110c4.69,0,8.5,3.81,8.5,8.5v10.5
							h-44.51C190.73,281.03,182.53,289.06,172.5,289.06z M109.5,270.06H155v0.5c0,9.65,7.85,17.5,17.5,17.5s17.5-7.85,17.5-17.5
							v-0.5h44.5v-9.5c0-4.14-3.36-7.5-7.5-7.5H117c-4.14,0-7.5,3.36-7.5,7.5V270.06z"/>
					</g>
				</g>
			</g>
			<g>
				<g>
					<g>
						<path class="st6" d="M235,259.56v10h-44.5c0,9.94-8.06,18-18,18s-18-8.06-18-18H109v-10c0-4.42,3.58-8,8-8h110
							C231.42,251.56,235,255.14,235,259.56z"/>
					</g>
				</g>
				<g>
					<g>
						<path class="st0" d="M172.5,288.06c-10.03,0-18.23-8.03-18.49-18H108.5v-10.5c0-4.69,3.81-8.5,8.5-8.5h110
							c4.69,0,8.5,3.81,8.5,8.5v10.5h-44.51C190.73,280.03,182.53,288.06,172.5,288.06z M109.5,269.06H155v0.5
							c0,9.65,7.85,17.5,17.5,17.5s17.5-7.85,17.5-17.5v-0.5h44.5v-9.5c0-4.14-3.36-7.5-7.5-7.5H117c-4.14,0-7.5,3.36-7.5,7.5
							V269.06z"/>
					</g>
				</g>
			</g>
		</g>
		<g>
			<g>
				<path class="st0" d="M227,558.06H117c-4.69,0-8.5-3.81-8.5-8.5v-92c0-4.69,3.81-8.5,8.5-8.5h110c4.69,0,8.5,3.81,8.5,8.5v92
					C235.5,554.25,231.69,558.06,227,558.06z M117,450.06c-4.14,0-7.5,3.36-7.5,7.5v92c0,4.14,3.36,7.5,7.5,7.5h110
					c4.14,0,7.5-3.36,7.5-7.5v-92c0-4.14-3.36-7.5-7.5-7.5H117z"/>
			</g>
		</g>
		<g>
			<g>
				<path class="st0" d="M226.5,216.56h-110c-4.69,0-8.5-3.81-8.5-8.5v-92c0-4.69,3.81-8.5,8.5-8.5h110c4.69,0,8.5,3.81,8.5,8.5v92
					C235,212.75,231.19,216.56,226.5,216.56z M116.5,108.56c-4.14,0-7.5,3.36-7.5,7.5v92c0,4.14,3.36,7.5,7.5,7.5h110
					c4.14,0,7.5-3.36,7.5-7.5v-92c0-4.14-3.36-7.5-7.5-7.5H116.5z"/>
			</g>
		</g>
		<g>
			<g>
				<path class="st1" d="M342,521.56v127c0,8.84-7.16,16-16,16H17c-8.84,0-16-7.16-16-16v-127h90v72h53v-11c0-4.42,3.58-8,8-8h39
					c4.42,0,8,3.58,8,8v11h53v-72H342z"/>
			</g>
			<g>
				<path class="st0" d="M326,665.06H17c-9.1,0-16.5-7.4-16.5-16.5v-127.5h91v72h52v-10.5c0-4.69,3.81-8.5,8.5-8.5h39
					c4.69,0,8.5,3.81,8.5,8.5v10.5h52v-72h91v127.5C342.5,657.66,335.1,665.06,326,665.06z M1.5,522.06v126.5
					c0,8.55,6.95,15.5,15.5,15.5h309c8.55,0,15.5-6.95,15.5-15.5v-126.5h-89v72h-54v-11.5c0-4.14-3.36-7.5-7.5-7.5h-39
					c-4.14,0-7.5,3.36-7.5,7.5v11.5h-54v-72H1.5z"/>
			</g>
		</g>
		<g>
			<g>
				<path d="M137.66,621.6c0.33,0.42,0.49,0.94,0.49,1.58c0,0.85-0.32,1.5-0.96,1.96c-0.64,0.46-1.57,0.69-2.79,0.69h-4.68v-9.8h4.4
					c1.12,0,1.99,0.22,2.6,0.67c0.61,0.45,0.92,1.07,0.92,1.86c0,0.51-0.12,0.96-0.36,1.33c-0.24,0.37-0.56,0.66-0.96,0.85
					C136.88,620.9,137.33,621.19,137.66,621.6z M131.12,617.16v3.14h2.87c0.72,0,1.27-0.13,1.66-0.4c0.39-0.27,0.58-0.66,0.58-1.17
					c0-0.51-0.19-0.9-0.58-1.17c-0.39-0.27-0.94-0.4-1.66-0.4H131.12z M136.13,624.3c0.4-0.26,0.6-0.67,0.6-1.23
					c0-1.09-0.8-1.64-2.39-1.64h-3.22v3.26h3.22C135.13,624.69,135.73,624.56,136.13,624.3z"/>
			</g>
			<g>
				<path d="M140.32,616.03h1.4v9.8h-1.4V616.03z"/>
			</g>
			<g>
				<path d="M152.6,621.6c0.33,0.42,0.49,0.94,0.49,1.58c0,0.85-0.32,1.5-0.96,1.96c-0.64,0.46-1.57,0.69-2.79,0.69h-4.68v-9.8h4.4
					c1.12,0,1.99,0.22,2.6,0.67c0.61,0.45,0.92,1.07,0.92,1.86c0,0.51-0.12,0.96-0.36,1.33c-0.24,0.37-0.56,0.66-0.96,0.85
					C151.82,620.9,152.27,621.19,152.6,621.6z M146.06,617.16v3.14h2.87c0.72,0,1.27-0.13,1.66-0.4c0.39-0.27,0.58-0.66,0.58-1.17
					c0-0.51-0.19-0.9-0.58-1.17c-0.39-0.27-0.94-0.4-1.66-0.4H146.06z M151.07,624.3c0.4-0.26,0.6-0.67,0.6-1.23
					c0-1.09-0.8-1.64-2.39-1.64h-3.22v3.26h3.22C150.07,624.69,150.67,624.56,151.07,624.3z"/>
			</g>
			<g>
				<path d="M155.26,616.03h1.4v8.58h5.31v1.22h-6.71V616.03z"/>
			</g>
			<g>
				<path d="M163.57,616.03h1.4v9.8h-1.4V616.03z"/>
			</g>
			<g>
				<path d="M169.66,625.29c-0.79-0.43-1.42-1.03-1.87-1.8c-0.45-0.77-0.68-1.62-0.68-2.56c0-0.94,0.23-1.8,0.68-2.56
					c0.45-0.77,1.08-1.37,1.87-1.8c0.79-0.43,1.68-0.65,2.67-0.65c0.98,0,1.87,0.22,2.66,0.65c0.79,0.43,1.41,1.03,1.86,1.79
					c0.45,0.76,0.67,1.62,0.67,2.57s-0.22,1.81-0.67,2.57c-0.45,0.76-1.07,1.36-1.86,1.79c-0.79,0.43-1.68,0.65-2.66,0.65
					C171.35,625.94,170.45,625.72,169.66,625.29z M174.27,624.2c0.57-0.33,1.03-0.78,1.36-1.35c0.33-0.57,0.5-1.21,0.5-1.92
					c0-0.71-0.17-1.35-0.5-1.92c-0.33-0.57-0.78-1.02-1.36-1.35c-0.57-0.33-1.22-0.49-1.94-0.49c-0.72,0-1.37,0.16-1.95,0.49
					c-0.58,0.33-1.04,0.78-1.37,1.35c-0.33,0.57-0.5,1.22-0.5,1.92c0,0.71,0.17,1.35,0.5,1.92c0.33,0.57,0.79,1.02,1.37,1.35
					c0.58,0.33,1.23,0.49,1.95,0.49C173.05,624.69,173.7,624.53,174.27,624.2z"/>
			</g>
			<g>
				<path d="M181.48,617.24h-3.36v-1.22h8.11v1.22h-3.36v8.58h-1.39V617.24z"/>
			</g>
			<g>
				<path d="M194.86,624.61v1.22h-7.11v-9.8h6.92v1.22h-5.52v3.01h4.91v1.19h-4.91v3.16H194.86z"/>
			</g>
			<g>
				<path d="M198.82,625.29c-0.79-0.43-1.41-1.03-1.86-1.79c-0.45-0.76-0.67-1.62-0.67-2.57s0.22-1.81,0.67-2.57
					c0.45-0.76,1.07-1.36,1.86-1.79c0.79-0.43,1.68-0.65,2.66-0.65c0.76,0,1.46,0.13,2.1,0.38s1.18,0.64,1.62,1.14l-0.91,0.88
					c-0.74-0.78-1.66-1.16-2.76-1.16c-0.73,0-1.39,0.16-1.97,0.49c-0.59,0.33-1.05,0.78-1.38,1.35c-0.33,0.57-0.5,1.22-0.5,1.92
					c0,0.71,0.17,1.35,0.5,1.92c0.33,0.57,0.79,1.02,1.38,1.35c0.59,0.33,1.25,0.49,1.97,0.49c1.09,0,2.01-0.39,2.76-1.18l0.91,0.88
					c-0.45,0.5-0.99,0.89-1.63,1.15c-0.64,0.26-1.34,0.39-2.11,0.39C200.49,625.94,199.61,625.72,198.82,625.29z"/>
			</g>
			<g>
				<path d="M213.21,623.38h-5.21l-1.08,2.45h-1.44l4.44-9.8h1.39l4.45,9.8h-1.47L213.21,623.38z M212.72,622.26l-2.11-4.8
					l-2.11,4.8H212.72z"/>
			</g>
		</g>
		<g>
			<g>
				<g>
					<path class="st7" d="M165.44,77.26c-1.25-0.01-2.52-0.03-3.77-0.04c-0.09,0-0.18,0-0.28,0c-0.25,0-0.46,0.2-0.46,0.45
						c0,0.25,0.2,0.46,0.45,0.46c0.37,0,0.73,0.01,1.1,0.01c0.27,0,0.55,0.01,0.82,0.01c0.24,0,0.85-0.13,0.87,0.26
						c0.02,0.31-0.36,0.28-0.57,0.28c-0.25,0-0.5,0-0.75-0.01c-0.47,0-0.93-0.01-1.4-0.01c-0.03,0-0.05,0-0.08,0
						c-0.25,0-0.46,0.2-0.46,0.45c0,0.25,0.2,0.46,0.45,0.46l2.55,0.03c0.09,0.05,0.16,0.15,0.16,0.25c0.01,0.33-0.38,0.29-0.6,0.29
						c-0.26,0-0.52-0.01-0.78-0.01c-0.44,0-0.87-0.01-1.31-0.01c-0.01,0-0.01,0-0.02,0c-0.25,0-0.46,0.2-0.46,0.45
						c0,0.25,0.2,0.46,0.45,0.46c1.57,0.02,3.14,0.03,4.71,0.06c0.67,0.01,1.34,0.01,1.88-0.45c0.23-0.2,0.41-0.45,0.53-0.73
						l13.65,0.13c0.22,0,0.39-0.17,0.4-0.39l0.01-0.54c0-0.22-0.17-0.39-0.39-0.4l-13.61-0.13c-0.14-0.42-0.42-0.79-0.8-1.02
						c-0.3-0.19-0.64-0.27-1-0.3C166.3,77.22,165.85,77.26,165.44,77.26z"/>
				</g>
				<g>
					<path class="st8" d="M166.37,81.3c-0.1,0-0.21,0-0.31,0c-1.26-0.03-2.54-0.04-3.78-0.05l-0.94-0.01c-0.18,0-0.34-0.07-0.47-0.2
						c-0.13-0.13-0.19-0.3-0.19-0.47c0-0.18,0.07-0.34,0.2-0.47c0.13-0.12,0.29-0.19,0.47-0.19c0,0,0,0,0.01,0l2.17,0.02
						c0.08,0,0.28,0.01,0.33-0.04c0,0,0.01-0.01,0-0.04c0-0.01-0.01-0.03-0.02-0.04l-2.48-0.02c-0.18,0-0.34-0.07-0.47-0.2
						c-0.12-0.13-0.19-0.3-0.19-0.47c0-0.37,0.3-0.66,0.67-0.66c0,0,0,0,0.01,0l1.7,0.02c0.17,0,0.35,0,0.53,0l0.05,0
						c0.07,0,0.27,0,0.31-0.03c0,0,0-0.01,0-0.02c0-0.03-0.01-0.03-0.01-0.03c-0.07-0.06-0.34-0.04-0.47-0.03
						c-0.07,0-0.13,0.01-0.18,0.01l-1.92-0.02c-0.18,0-0.34-0.07-0.47-0.2c-0.12-0.13-0.19-0.3-0.19-0.47c0-0.18,0.07-0.34,0.2-0.47
						c0.13-0.12,0.29-0.19,0.47-0.19c0,0,0,0,0.01,0l0.28,0c0.62,0.01,1.25,0.01,1.87,0.02c0.64,0.01,1.27,0.02,1.9,0.02l0,0
						c0.14,0,0.29,0,0.44-0.01c0.28-0.01,0.57-0.01,0.86,0.01c0.45,0.04,0.79,0.14,1.09,0.33c0.38,0.23,0.67,0.58,0.84,0.99
						l13.46,0.13c0.33,0,0.6,0.28,0.6,0.61l-0.01,0.54c0,0.16-0.07,0.31-0.18,0.43c-0.12,0.11-0.27,0.18-0.43,0.17l-13.51-0.13
						c-0.13,0.26-0.31,0.49-0.53,0.67C167.56,81.24,166.93,81.3,166.37,81.3z M161.37,80.32c-0.08,0-0.14,0.02-0.19,0.07
						c-0.05,0.05-0.07,0.11-0.07,0.17c0,0.06,0.02,0.12,0.07,0.17c0.05,0.05,0.11,0.07,0.17,0.07l0.94,0.01
						c1.24,0.01,2.52,0.02,3.78,0.05c0.73,0.01,1.28-0.01,1.74-0.4c0.2-0.17,0.36-0.39,0.47-0.64l0.06-0.13l13.79,0.14c0,0,0,0,0,0
						c0.05,0,0.09-0.02,0.13-0.05c0.03-0.03,0.05-0.08,0.05-0.13l0.01-0.54c0-0.1-0.08-0.18-0.18-0.18l-13.76-0.14l-0.05-0.14
						c-0.13-0.38-0.38-0.7-0.72-0.91c-0.24-0.15-0.53-0.23-0.9-0.27c-0.27-0.02-0.55-0.02-0.82-0.01c-0.15,0-0.31,0.01-0.45,0.01
						c-0.63-0.01-1.27-0.01-1.9-0.02c-0.62-0.01-1.25-0.02-1.87-0.02l-0.28,0c-0.06,0-0.12,0.02-0.17,0.07
						c-0.05,0.05-0.07,0.11-0.07,0.17c0,0.06,0.02,0.12,0.07,0.17c0.05,0.05,0.11,0.07,0.17,0.07l1.92,0.02c0.04,0,0.09,0,0.15-0.01
						c0.24-0.02,0.58-0.04,0.78,0.14c0.09,0.08,0.15,0.2,0.15,0.33c0.01,0.17-0.06,0.28-0.12,0.34c-0.17,0.17-0.44,0.17-0.63,0.17
						l-0.04,0c-0.18,0-0.35,0-0.53-0.01l-1.7-0.02c-0.14-0.01-0.24,0.11-0.24,0.24c0,0.06,0.02,0.12,0.07,0.17
						c0.05,0.05,0.11,0.07,0.17,0.07l2.61,0.03l0.05,0.03c0.16,0.09,0.27,0.25,0.27,0.43c0,0.18-0.07,0.29-0.13,0.35
						c-0.17,0.17-0.44,0.17-0.64,0.16L161.37,80.32C161.38,80.32,161.38,80.32,161.37,80.32z"/>
				</g>
			</g>
			<g>
				<g>
					<g>
						<path class="st7" d="M160.88,74.92L160.88,74.92c-0.01,0.32,0.25,0.59,0.57,0.59l9.88,0.2c0.32,0.01,0.59-0.25,0.59-0.57l0,0
							c0.01-0.32-0.25-0.59-0.57-0.59l-9.88-0.2C161.15,74.34,160.88,74.59,160.88,74.92z"/>
					</g>
					<g>
						<path class="st8" d="M171.43,75.92c0,0-0.01,0-0.01,0l-10.06-0.2c-0.39-0.01-0.7-0.33-0.7-0.72l0-0.17
							c0.01-0.39,0.33-0.7,0.71-0.7c0,0,0.01,0,0.01,0l10.06,0.2c0.39,0.01,0.7,0.33,0.7,0.72l0,0.17
							C172.13,75.61,171.82,75.92,171.43,75.92z M161.09,74.83l0,0.17c0,0.16,0.12,0.29,0.28,0.29l10.06,0.2
							c0.16,0,0.29-0.12,0.29-0.28l0-0.17c0-0.08-0.03-0.15-0.08-0.2c-0.05-0.06-0.12-0.09-0.2-0.09l-10.06-0.2
							C161.23,74.56,161.1,74.68,161.09,74.83L161.09,74.83z"/>
					</g>
				</g>
				<g>
					<g>
						<path class="st7" d="M170.92,75.72c0.07,0.12,0.16,0.23,0.26,0.29c0.45,0.29,1.08,0.3,1.62,0.36c0.7,0.08,1.41,0.15,2.12,0.21
							c2.23,0.18,4.49,0.26,6.72-0.03c0.46-0.06,1.17-0.22,1.41-0.68c0.09-0.17,0.08-0.3,0.08-0.35c-0.05-0.44-0.52-0.65-0.9-0.69
							c-0.58-0.06-1.18-0.03-1.76-0.04c-1.39-0.04-2.78-0.07-4.18-0.11c-1.6-0.04-3.2-0.08-4.8-0.12"/>
					</g>
					<g>
						<path class="st8" d="M178.45,76.95c-1.29,0-2.5-0.08-3.54-0.16c-0.64-0.05-1.34-0.12-2.12-0.21
							c-0.08-0.01-0.17-0.02-0.26-0.03c-0.48-0.05-1.03-0.1-1.45-0.37c-0.13-0.08-0.24-0.21-0.33-0.36
							c-0.06-0.1-0.03-0.23,0.07-0.29c0.1-0.06,0.23-0.03,0.29,0.07c0.06,0.1,0.13,0.18,0.2,0.22c0.34,0.22,0.81,0.26,1.26,0.31
							c0.09,0.01,0.18,0.02,0.27,0.03c0.78,0.09,1.47,0.15,2.11,0.2c1.86,0.15,4.3,0.28,6.67-0.03c0.66-0.09,1.1-0.29,1.25-0.57
							c0.06-0.11,0.06-0.19,0.05-0.23c-0.04-0.34-0.46-0.47-0.71-0.5c-0.37-0.04-0.76-0.04-1.14-0.04c-0.21,0-0.41,0-0.61,0
							l-8.98-0.23c-0.12,0-0.21-0.1-0.21-0.22c0-0.12,0.1-0.21,0.22-0.21l8.98,0.23c0.2,0.01,0.4,0,0.6,0c0.39,0,0.79,0,1.19,0.04
							c0.46,0.05,1.03,0.31,1.09,0.88c0.02,0.15-0.02,0.32-0.1,0.47c-0.22,0.42-0.74,0.68-1.57,0.79
							C180.59,76.9,179.49,76.95,178.45,76.95z"/>
					</g>
				</g>
			</g>
			<g>
				<g>
					<circle class="st1" cx="171.88" cy="67.11" r="9.82"/>
				</g>
				<g>
					<path class="st8" d="M171.88,77.15c-5.53,0-10.03-4.5-10.03-10.03s4.5-10.03,10.03-10.03c5.53,0,10.03,4.5,10.03,10.03
						S177.41,77.15,171.88,77.15z M171.88,57.51c-5.3,0-9.61,4.31-9.61,9.61c0,5.3,4.31,9.61,9.61,9.61c5.3,0,9.61-4.31,9.61-9.61
						C181.48,61.82,177.17,57.51,171.88,57.51z"/>
				</g>
			</g>
			<g>
				<g>
					<path class="st8" d="M166.13,64.33c-0.04,0-0.07-0.01-0.11-0.03c-0.1-0.06-0.14-0.19-0.08-0.29c0.38-0.67,1.26-1.11,2.23-1.11
						c0.96,0,1.85,0.41,2.25,1.07c0.06,0.1,0.03,0.23-0.07,0.29c-0.1,0.06-0.23,0.03-0.29-0.07c-0.32-0.53-1.05-0.86-1.86-0.86
						c-0.01,0-0.01,0-0.02,0c-0.81,0.01-1.56,0.37-1.86,0.9C166.28,64.29,166.2,64.33,166.13,64.33z"/>
				</g>
			</g>
			<g>
				<g>
					<path class="st8" d="M173.97,64.33c-0.04,0-0.07-0.01-0.11-0.03c-0.1-0.06-0.14-0.19-0.08-0.29c0.38-0.67,1.26-1.11,2.23-1.11
						c0.96,0,1.85,0.41,2.25,1.07c0.06,0.1,0.03,0.23-0.07,0.29c-0.1,0.06-0.23,0.03-0.29-0.07c-0.32-0.53-1.05-0.86-1.86-0.86
						c-0.01,0-0.01,0-0.02,0c-0.81,0.01-1.56,0.37-1.86,0.9C174.12,64.29,174.04,64.33,173.97,64.33z"/>
				</g>
			</g>
			<g>
				<g>
					<path class="st8" d="M172.32,72.44c-0.58,0-1.16-0.05-1.75-0.14c-1.21-0.2-2.72-0.55-3.65-1.48c-0.66-0.67-0.81-1.79-0.34-2.55
						c0.1-0.15,0.22-0.3,0.36-0.42c0.78-0.78,1.81-0.39,2.63-0.08c0.25,0.09,0.48,0.18,0.7,0.24c0.15,0.04,0.3,0.07,0.45,0.1
						c1,0.19,2.05,0.18,3.05-0.05c0.29-0.07,0.57-0.16,0.87-0.27c0.7-0.24,1.42-0.5,2.2-0.3c0.54,0.13,0.95,0.57,1.13,1.19l0,0
						c0.3,1.05-0.25,2.08-1.48,2.77C175.33,72.1,173.87,72.44,172.32,72.44z M168.08,67.82c-0.31,0-0.59,0.09-0.85,0.35
						c-0.12,0.1-0.21,0.21-0.29,0.33c-0.41,0.67-0.18,1.56,0.28,2.02c0.84,0.85,2.27,1.17,3.41,1.36c2.07,0.34,4.13,0.05,5.65-0.8
						c0.5-0.28,1.63-1.06,1.28-2.28l0,0c-0.08-0.28-0.29-0.76-0.83-0.89c-0.66-0.16-1.29,0.06-1.96,0.29
						c-0.3,0.1-0.61,0.21-0.92,0.28c-1.05,0.24-2.17,0.26-3.22,0.05c-0.16-0.03-0.32-0.07-0.48-0.11c-0.24-0.06-0.48-0.15-0.74-0.25
						C168.95,67.99,168.49,67.82,168.08,67.82z"/>
				</g>
			</g>
			<g>
				<g>
					<path class="st8" d="M168.67,71.68c-0.02,0-0.04,0-0.05-0.01c-0.11-0.03-0.18-0.15-0.15-0.26l0.88-3.43
						c0.03-0.11,0.15-0.18,0.26-0.15c0.11,0.03,0.18,0.15,0.15,0.26l-0.88,3.43C168.85,71.62,168.77,71.68,168.67,71.68z"/>
				</g>
			</g>
			<g>
				<g>
					<path class="st8" d="M172.63,72.35c-0.11,0-0.21-0.09-0.21-0.2l-0.15-3.61c-0.01-0.12,0.09-0.22,0.2-0.22
						c0.12,0,0.22,0.09,0.22,0.2l0.15,3.61C172.84,72.25,172.75,72.35,172.63,72.35C172.63,72.35,172.63,72.35,172.63,72.35z"/>
				</g>
			</g>
			<g>
				<g>
					<path class="st8" d="M176.37,71.25c-0.08,0-0.16-0.05-0.19-0.13l-1.39-3.09c-0.05-0.11,0-0.23,0.11-0.28
						c0.11-0.05,0.23,0,0.28,0.11l1.39,3.09c0.05,0.11,0,0.23-0.11,0.28C176.43,71.24,176.4,71.25,176.37,71.25z"/>
				</g>
			</g>
		</g>
		<g>
			<g>
				<g>
					<path class="st7" d="M165.44,276.26c-1.25-0.01-2.52-0.03-3.77-0.04c-0.09,0-0.18,0-0.28,0c-0.25,0-0.46,0.2-0.46,0.45
						c0,0.25,0.2,0.46,0.45,0.46c0.37,0,0.73,0.01,1.1,0.01c0.27,0,0.55,0.01,0.82,0.01c0.24,0,0.85-0.13,0.87,0.26
						c0.02,0.31-0.36,0.28-0.57,0.28c-0.25,0-0.5,0-0.75-0.01c-0.47,0-0.93-0.01-1.4-0.01c-0.03,0-0.05,0-0.08,0
						c-0.25,0-0.46,0.2-0.46,0.45c0,0.25,0.2,0.46,0.45,0.46l2.55,0.03c0.09,0.05,0.16,0.15,0.16,0.25c0.01,0.33-0.38,0.29-0.6,0.29
						c-0.26,0-0.52-0.01-0.78-0.01c-0.44,0-0.87-0.01-1.31-0.01c-0.01,0-0.01,0-0.02,0c-0.25,0-0.46,0.2-0.46,0.45
						c0,0.25,0.2,0.46,0.45,0.46c1.57,0.02,3.14,0.03,4.71,0.06c0.67,0.01,1.34,0.01,1.88-0.45c0.23-0.2,0.41-0.45,0.53-0.73
						l13.65,0.13c0.22,0,0.39-0.17,0.4-0.39l0.01-0.54c0-0.22-0.17-0.39-0.39-0.4l-13.61-0.13c-0.14-0.42-0.42-0.79-0.8-1.02
						c-0.3-0.19-0.64-0.27-1-0.3C166.3,276.22,165.85,276.26,165.44,276.26z"/>
				</g>
				<g>
					<path class="st8" d="M166.37,280.3c-0.1,0-0.21,0-0.31,0c-1.26-0.03-2.54-0.04-3.78-0.05l-0.94-0.01
						c-0.18,0-0.34-0.07-0.47-0.2c-0.13-0.13-0.19-0.3-0.19-0.47c0-0.18,0.07-0.34,0.2-0.47c0.13-0.12,0.29-0.19,0.47-0.19
						c0,0,0,0,0.01,0l2.17,0.02c0.08,0,0.28,0.01,0.33-0.04c0,0,0.01-0.01,0-0.04c0-0.01-0.01-0.03-0.02-0.04l-2.48-0.02
						c-0.18,0-0.34-0.07-0.47-0.2c-0.12-0.13-0.19-0.3-0.19-0.47c0-0.37,0.3-0.66,0.67-0.66c0,0,0,0,0.01,0l1.7,0.02
						c0.17,0,0.35,0,0.53,0l0.05,0c0.07,0,0.27,0,0.31-0.04c0,0,0-0.01,0-0.02c0-0.03-0.01-0.03-0.01-0.03
						c-0.07-0.06-0.34-0.04-0.47-0.03c-0.07,0-0.13,0.01-0.18,0.01l-1.92-0.02c-0.18,0-0.34-0.07-0.47-0.2
						c-0.12-0.13-0.19-0.3-0.19-0.47c0-0.18,0.07-0.34,0.2-0.47c0.13-0.12,0.29-0.19,0.47-0.19c0,0,0,0,0.01,0l0.28,0
						c0.62,0.01,1.25,0.01,1.87,0.02c0.64,0.01,1.27,0.02,1.9,0.02l0,0c0.14,0,0.29,0,0.44-0.01c0.28-0.01,0.57-0.01,0.86,0.01
						c0.45,0.04,0.79,0.14,1.09,0.33c0.38,0.23,0.67,0.58,0.84,0.99l13.46,0.13c0.33,0,0.6,0.28,0.6,0.61l-0.01,0.54
						c0,0.16-0.07,0.31-0.18,0.43c-0.12,0.11-0.27,0.18-0.43,0.17l-13.51-0.13c-0.13,0.26-0.31,0.49-0.53,0.67
						C167.56,280.24,166.93,280.3,166.37,280.3z M161.37,279.32c-0.08,0-0.14,0.02-0.19,0.07c-0.05,0.05-0.07,0.11-0.07,0.17
						c0,0.06,0.02,0.12,0.07,0.17c0.05,0.05,0.11,0.07,0.17,0.07l0.94,0.01c1.24,0.01,2.52,0.02,3.78,0.05
						c0.73,0.01,1.28-0.01,1.74-0.4c0.2-0.17,0.36-0.39,0.47-0.64l0.06-0.13l13.79,0.14c0,0,0,0,0,0c0.05,0,0.09-0.02,0.13-0.05
						c0.03-0.03,0.05-0.08,0.05-0.13l0.01-0.54c0-0.1-0.08-0.18-0.18-0.18l-13.76-0.14l-0.05-0.14c-0.13-0.38-0.38-0.7-0.72-0.91
						c-0.24-0.15-0.53-0.23-0.9-0.27c-0.27-0.02-0.55-0.02-0.82-0.01c-0.15,0-0.31,0.01-0.45,0.01c-0.63-0.01-1.27-0.01-1.9-0.02
						c-0.62-0.01-1.25-0.02-1.87-0.02l-0.28,0c-0.06,0-0.12,0.02-0.17,0.07c-0.05,0.05-0.07,0.11-0.07,0.17
						c0,0.06,0.02,0.12,0.07,0.17c0.05,0.05,0.11,0.07,0.17,0.07l1.92,0.02c0.04,0,0.09,0,0.15-0.01c0.24-0.02,0.58-0.04,0.78,0.14
						c0.09,0.08,0.15,0.2,0.15,0.33c0.01,0.17-0.06,0.28-0.12,0.34c-0.17,0.17-0.44,0.17-0.63,0.17l-0.04,0
						c-0.18,0-0.35,0-0.53-0.01l-1.7-0.02c-0.14-0.01-0.24,0.11-0.24,0.24c0,0.06,0.02,0.12,0.07,0.17s0.11,0.07,0.17,0.07
						l2.61,0.03l0.05,0.03c0.16,0.09,0.27,0.25,0.27,0.43c0,0.18-0.07,0.29-0.13,0.35c-0.17,0.17-0.44,0.17-0.64,0.16L161.37,279.32
						C161.38,279.32,161.38,279.32,161.37,279.32z"/>
				</g>
			</g>
			<g>
				<g>
					<g>
						<path class="st7" d="M160.88,273.92L160.88,273.92c-0.01,0.32,0.25,0.59,0.57,0.59l9.88,0.2c0.32,0.01,0.59-0.25,0.59-0.57
							l0,0c0.01-0.32-0.25-0.59-0.57-0.59l-9.88-0.2C161.15,273.34,160.88,273.59,160.88,273.92z"/>
					</g>
					<g>
						<path class="st8" d="M171.43,274.92c0,0-0.01,0-0.01,0l-10.06-0.2c-0.39-0.01-0.7-0.33-0.7-0.72l0-0.17
							c0.01-0.39,0.33-0.7,0.71-0.7c0,0,0.01,0,0.01,0l10.06,0.2c0.39,0.01,0.7,0.33,0.7,0.72l0,0.17
							C172.13,274.61,171.82,274.92,171.43,274.92z M161.09,273.83l0,0.17c0,0.16,0.12,0.29,0.28,0.29l10.06,0.2
							c0.16,0,0.29-0.12,0.29-0.28l0-0.17c0-0.08-0.03-0.15-0.08-0.2c-0.05-0.06-0.12-0.09-0.2-0.09l-10.06-0.2
							C161.23,273.56,161.1,273.68,161.09,273.83L161.09,273.83z"/>
					</g>
				</g>
				<g>
					<g>
						<path class="st7" d="M170.92,274.72c0.07,0.12,0.16,0.23,0.26,0.29c0.45,0.29,1.08,0.3,1.62,0.36
							c0.7,0.08,1.41,0.15,2.12,0.21c2.23,0.18,4.49,0.26,6.72-0.03c0.46-0.06,1.17-0.22,1.41-0.68c0.09-0.17,0.08-0.3,0.08-0.35
							c-0.05-0.44-0.52-0.65-0.9-0.69c-0.58-0.06-1.18-0.03-1.76-0.04c-1.39-0.04-2.78-0.07-4.18-0.11c-1.6-0.04-3.2-0.08-4.8-0.12"
							/>
					</g>
					<g>
						<path class="st8" d="M178.45,275.95c-1.29,0-2.5-0.08-3.54-0.16c-0.64-0.05-1.34-0.12-2.12-0.21
							c-0.08-0.01-0.17-0.02-0.26-0.03c-0.48-0.05-1.03-0.1-1.45-0.37c-0.13-0.08-0.24-0.21-0.33-0.36
							c-0.06-0.1-0.03-0.23,0.07-0.29c0.1-0.06,0.23-0.03,0.29,0.07c0.06,0.1,0.13,0.18,0.2,0.22c0.34,0.22,0.81,0.26,1.26,0.31
							c0.09,0.01,0.18,0.02,0.27,0.03c0.78,0.09,1.47,0.15,2.11,0.2c1.86,0.15,4.3,0.28,6.67-0.03c0.66-0.09,1.1-0.29,1.25-0.57
							c0.06-0.11,0.06-0.19,0.05-0.23c-0.04-0.34-0.46-0.47-0.71-0.5c-0.37-0.04-0.76-0.04-1.14-0.04c-0.21,0-0.41,0-0.61,0
							l-8.98-0.23c-0.12,0-0.21-0.1-0.21-0.22c0-0.12,0.1-0.21,0.22-0.21l8.98,0.23c0.2,0.01,0.4,0,0.6,0c0.39,0,0.79,0,1.19,0.04
							c0.46,0.05,1.03,0.31,1.09,0.88c0.02,0.15-0.02,0.32-0.1,0.47c-0.22,0.42-0.74,0.68-1.57,0.79
							C180.59,275.9,179.49,275.95,178.45,275.95z"/>
					</g>
				</g>
			</g>
			<g>
				<g>
					<circle class="st1" cx="171.88" cy="266.11" r="9.82"/>
				</g>
				<g>
					<path class="st8" d="M171.88,276.15c-5.53,0-10.03-4.5-10.03-10.03s4.5-10.03,10.03-10.03c5.53,0,10.03,4.5,10.03,10.03
						S177.41,276.15,171.88,276.15z M171.88,256.51c-5.3,0-9.61,4.31-9.61,9.61c0,5.3,4.31,9.61,9.61,9.61
						c5.3,0,9.61-4.31,9.61-9.61C181.48,260.82,177.17,256.51,171.88,256.51z"/>
				</g>
			</g>
			<g>
				<g>
					<path class="st8" d="M166.13,263.33c-0.04,0-0.07-0.01-0.11-0.03c-0.1-0.06-0.14-0.19-0.08-0.29c0.38-0.67,1.26-1.11,2.23-1.11
						c0.96,0,1.85,0.41,2.25,1.07c0.06,0.1,0.03,0.23-0.07,0.29c-0.1,0.06-0.23,0.03-0.29-0.07c-0.32-0.53-1.05-0.86-1.86-0.86
						c-0.01,0-0.01,0-0.02,0c-0.81,0.01-1.56,0.37-1.86,0.9C166.28,263.29,166.2,263.33,166.13,263.33z"/>
				</g>
			</g>
			<g>
				<g>
					<path class="st8" d="M173.97,263.33c-0.04,0-0.07-0.01-0.11-0.03c-0.1-0.06-0.14-0.19-0.08-0.29c0.38-0.67,1.26-1.11,2.23-1.11
						c0.96,0,1.85,0.41,2.25,1.07c0.06,0.1,0.03,0.23-0.07,0.29c-0.1,0.06-0.23,0.03-0.29-0.07c-0.32-0.53-1.05-0.86-1.86-0.86
						c-0.01,0-0.01,0-0.02,0c-0.81,0.01-1.56,0.37-1.86,0.9C174.12,263.29,174.04,263.33,173.97,263.33z"/>
				</g>
			</g>
			<g>
				<g>
					<path class="st8" d="M172.32,271.44c-0.58,0-1.16-0.05-1.75-0.14c-1.21-0.2-2.72-0.55-3.65-1.48
						c-0.66-0.67-0.81-1.79-0.34-2.55c0.1-0.15,0.22-0.3,0.36-0.42c0.78-0.78,1.81-0.39,2.63-0.08c0.25,0.09,0.48,0.18,0.7,0.24
						c0.15,0.04,0.3,0.07,0.45,0.1c1,0.19,2.05,0.18,3.05-0.05c0.29-0.07,0.57-0.16,0.87-0.27c0.7-0.24,1.42-0.5,2.2-0.3
						c0.54,0.13,0.95,0.57,1.13,1.19l0,0c0.3,1.05-0.25,2.08-1.48,2.77C175.33,271.1,173.87,271.44,172.32,271.44z M168.08,266.82
						c-0.31,0-0.59,0.09-0.85,0.35c-0.12,0.1-0.21,0.21-0.29,0.33c-0.41,0.67-0.18,1.56,0.28,2.02c0.84,0.85,2.27,1.17,3.41,1.36
						c2.07,0.34,4.13,0.05,5.65-0.8c0.5-0.28,1.63-1.06,1.28-2.28l0,0c-0.08-0.28-0.29-0.76-0.83-0.89
						c-0.66-0.16-1.29,0.06-1.96,0.29c-0.3,0.1-0.61,0.21-0.92,0.28c-1.05,0.24-2.17,0.26-3.22,0.05c-0.16-0.03-0.32-0.07-0.48-0.11
						c-0.24-0.06-0.48-0.15-0.74-0.25C168.95,266.99,168.49,266.82,168.08,266.82z"/>
				</g>
			</g>
			<g>
				<g>
					<path class="st8" d="M168.67,270.68c-0.02,0-0.04,0-0.05-0.01c-0.11-0.03-0.18-0.15-0.15-0.26l0.88-3.43
						c0.03-0.11,0.15-0.18,0.26-0.15c0.11,0.03,0.18,0.15,0.15,0.26l-0.88,3.43C168.85,270.62,168.77,270.68,168.67,270.68z"/>
				</g>
			</g>
			<g>
				<g>
					<path class="st8" d="M172.63,271.35c-0.11,0-0.21-0.09-0.21-0.2l-0.15-3.61c-0.01-0.12,0.09-0.22,0.2-0.22
						c0.12,0,0.22,0.09,0.22,0.2l0.15,3.61C172.84,271.25,172.75,271.35,172.63,271.35C172.63,271.35,172.63,271.35,172.63,271.35z"
						/>
				</g>
			</g>
			<g>
				<g>
					<path class="st8" d="M176.37,270.25c-0.08,0-0.16-0.05-0.19-0.13l-1.39-3.09c-0.05-0.11,0-0.23,0.11-0.28
						c0.11-0.05,0.23,0,0.28,0.11l1.39,3.09c0.05,0.11,0,0.23-0.11,0.28C176.43,270.24,176.4,270.25,176.37,270.25z"/>
				</g>
			</g>
		</g>
	</g>
	<g>
		<path class="st14" d="M343,648.75c0,8.8-7.2,16-16,16H17c-8.8,0-16-7.2-16-16V17.25c0-8.8,7.2-16,16-16h310c8.8,0,16,7.2,16,16
			V648.75z"/>
	</g>
</g>
<g id="Mapa_PB_LIBRERIA">
</g>
<g id="Mapa_PB_BANO">
</g>
<g id="Mapa_PB_SIN_FILTRO">
</g>
<g id="Mapa_1P">
</g>
<g id="MapaEP">
</g>
<g id="Mapa_2P">
</g>
<g id="Mapa_3P">
</g>
<g id="Bordes">
</g>
<g id="Layer_8" class="st15">
</g>
</svg>
