<?xml version="1.0" encoding="utf-8"?>
<!-- Generator: Adobe Illustrator 24.3.0, SVG Export Plug-In . SVG Version: 6.00 Build 0)  -->
<svg version="1.1" xmlns="http://www.w3.org/2000/svg" xmlns:xlink="http://www.w3.org/1999/xlink" x="0px" y="0px"
	 viewBox="0 0 344 668" style="enable-background:new 0 0 344 668;" xml:space="preserve">
<style type="text/css">
	.st0{fill:#231F20;}
	.st1{fill:#FFFFFF;}
	.st2{fill:none;stroke:#231F20;stroke-miterlimit:10;}
	.st3{fill:#FF7B55;}
	.st4{fill:#FFBDAA;}
	.st5{fill:#00C6AE;}
	.st6{fill:#FFBD12;}
	.st7{fill:#C3D5FC;}
	.st8{fill:#1D1D1B;}
	.st9{fill:#D7F9F2;}
	.st10{fill:#8490FF;}
	.st11{fill:#FFFFFF;stroke:#1D1D1B;stroke-width:2;stroke-linecap:round;stroke-miterlimit:10;}
	.st12{fill:#FFB5D4;}
	.st13{fill:#FFEEFE;}
	.st14{fill:none;stroke:#231F20;stroke-width:2;stroke-miterlimit:10;}
	.st15{display:none;}
	.st16{display:inline;fill:none;stroke:#231F20;stroke-miterlimit:10;}
</style>
<g id="Mapa_SS">
	<g>
		<g>
			<g>
				<path class="st0" d="M343,651c0,8.8-7.2,16-16,16H17c-8.8,0-16-7.2-16-16V19.5c0-8.8,7.2-16,16-16h310c8.8,0,16,7.2,16,16V651z"
					/>
			</g>
			<g>
				<path class="st0" d="M327,668H17c-9.37,0-17-7.63-17-17V19.5c0-9.37,7.63-17,17-17h310c9.37,0,17,7.63,17,17V651
					C344,660.37,336.37,668,327,668z M17,4.5c-8.27,0-15,6.73-15,15V651c0,8.27,6.73,15,15,15h310c8.27,0,15-6.73,15-15V19.5
					c0-8.27-6.73-15-15-15H17z"/>
			</g>
		</g>
		<g>
			<g>
				<path class="st1" d="M343,649c0,8.8-7.2,16-16,16H17c-8.8,0-16-7.2-16-16V17.5c0-8.8,7.2-16,16-16h310c8.8,0,16,7.2,16,16V649z"
					/>
			</g>
			<g>
				<path class="st0" d="M327,666H17c-9.37,0-17-7.63-17-17V17.5c0-9.37,7.63-17,17-17h310c9.37,0,17,7.63,17,17V649
					C344,658.37,336.37,666,327,666z M17,2.5c-8.27,0-15,6.73-15,15V649c0,8.27,6.73,15,15,15h310c8.27,0,15-6.73,15-15V17.5
					c0-8.27-6.73-15-15-15H17z"/>
			</g>
		</g>
	</g>
	<g>
		<rect x="91" y="72.4" class="st0" width="251" height="1"/>
	</g>
	<g>
		<rect x="232" y="71.5" class="st0" width="110" height="1"/>
	</g>
	<g>
		<g>
			<rect x="91" y="1" class="st3" width="36.5" height="71"/>
		</g>
		<g>
			<path class="st0" d="M128,72.5H90.5v-72H128V72.5z M91.5,71.5H127v-70H91.5V71.5z"/>
		</g>
	</g>
	<g>
		<path class="st0" d="M163,72.5h-36v-72h36V72.5z M128,71.5h34v-70h-34V71.5z"/>
	</g>
	<g>
		<g>
			<rect x="162.5" y="1" class="st4" width="36" height="71"/>
		</g>
		<g>
			<path class="st0" d="M199,72.5h-37v-72h37V72.5z M163,71.5h35v-70h-35V71.5z"/>
		</g>
	</g>
	<g>
		<g>
			<rect x="198.5" y="1" class="st3" width="35.5" height="71"/>
		</g>
		<g>
			<path class="st0" d="M234.5,72.5H198v-72h36.5V72.5z M199,71.5h34.5v-70H199V71.5z"/>
		</g>
	</g>
	<g>
		<path class="st0" d="M91.5,665.5H17c-9.1,0-16.5-7.4-16.5-16.5v-73.5h91V665.5z M1.5,576.5V649c0,8.55,6.95,15.5,15.5,15.5h73.5
			v-88H1.5z"/>
	</g>
	<g>
		<path class="st0" d="M91.5,144.5h-91v-55h91V144.5z M1.5,143.5h89v-53h-89V143.5z"/>
	</g>
	<g>
		<rect x="1" y="144" class="st4" width="90" height="54"/>
		<path class="st0" d="M91.5,198.5h-91v-55h91V198.5z M1.5,197.5h89v-53h-89V197.5z"/>
	</g>
	<g>
		<rect x="1" y="225.5" class="st4" width="90" height="26.5"/>
		<path class="st0" d="M91.5,252.5h-91V225h91V252.5z M1.5,251.5h89V226h-89V251.5z"/>
	</g>
	<g>
		<path class="st0" d="M91.5,226h-91v-28.5h91V226z M1.5,225h89v-26.5h-89V225z"/>
	</g>
	<g>
		<path class="st0" d="M342.5,252.5h-91V206c0-4.69,3.81-8.5,8.5-8.5h82.5V252.5z M252.5,251.5h89v-53H260c-4.14,0-7.5,3.36-7.5,7.5
			V251.5z"/>
	</g>
	<g>
		<g>
			<g>
				<path d="M1,253h90v46c0,4.42-3.58,8-8,8H1V253z"/>
			</g>
			<g>
				<path d="M83,307.5H0.5v-55h91V299C91.5,303.69,87.69,307.5,83,307.5z M1.5,306.5H83c4.14,0,7.5-3.36,7.5-7.5v-45.5h-89V306.5z"
					/>
			</g>
		</g>
		<g>
			<g>
				<path class="st3" d="M1,252h90v46c0,4.42-3.58,8-8,8H1V252z"/>
			</g>
			<g>
				<path class="st0" d="M83,306.5H0.5v-55h91V298C91.5,302.69,87.69,306.5,83,306.5z M1.5,305.5H83c4.14,0,7.5-3.36,7.5-7.5v-45.5
					h-89V305.5z"/>
			</g>
		</g>
	</g>
	<g>
		<path class="st0" d="M91.5,468.5h-91v-109H83c4.69,0,8.5,3.81,8.5,8.5V468.5z M1.5,467.5h89V368c0-4.14-3.36-7.5-7.5-7.5H1.5
			V467.5z"/>
	</g>
	<g>
		<rect x="252" y="252" class="st4" width="90" height="54"/>
		<path class="st0" d="M342.5,306.5h-91v-55h91V306.5z M252.5,305.5h89v-53h-89V305.5z"/>
	</g>
	<g>
		<path class="st0" d="M342.5,360.5h-91v-55h91V360.5z M252.5,359.5h89v-53h-89V359.5z"/>
	</g>
	<g>
		<rect x="252" y="360" class="st3" width="90" height="27.5"/>
		<path class="st0" d="M342.5,388h-91v-28.5h91V388z M252.5,387h89v-26.5h-89V387z"/>
	</g>
	<g>
		<g>
			<g>
				<path d="M342,388.5V415h-82c-4.42,0-8-3.58-8-8v-18.5H342z"/>
			</g>
			<g>
				<path d="M342.5,415.5H260c-4.69,0-8.5-3.81-8.5-8.5v-19h91V415.5z M252.5,389v18c0,4.14,3.36,7.5,7.5,7.5h81.5V389H252.5z"/>
			</g>
		</g>
		<g>
			<g>
				<path class="st1" d="M342,387.5V414h-82c-4.42,0-8-3.58-8-8v-18.5H342z"/>
			</g>
			<g>
				<path class="st0" d="M342.5,414.5H260c-4.69,0-8.5-3.81-8.5-8.5v-19h91V414.5z M252.5,388v18c0,4.14,3.36,7.5,7.5,7.5h81.5V388
					H252.5z"/>
			</g>
		</g>
	</g>
	<g>
		<rect x="297.5" y="414" class="st3" width="44.5" height="27.5"/>
		<path class="st0" d="M342.5,442H297v-28.5h45.5V442z M298,441h43.5v-26.5H298V441z"/>
	</g>
	<g>
		<path class="st0" d="M342.5,468.5H297V441h45.5V468.5z M298,467.5h43.5V442H298V467.5z"/>
	</g>
	<g>
		<path class="st0" d="M91.5,576.5h-91v-109h91V576.5z M1.5,575.5h89v-107h-89V575.5z"/>
	</g>
	<g>
		<path class="st4" d="M342,468v27.5h-90V476c0-4.42,3.58-8,8-8H342z"/>
		<path class="st0" d="M342.5,496h-91v-20c0-4.69,3.81-8.5,8.5-8.5h82.5V496z M252.5,495h89v-26.5H260c-4.14,0-7.5,3.36-7.5,7.5V495
			z"/>
	</g>
	<g>
		<path class="st1" d="M342,495.5V649c0,8.84-7.16,16-16,16H199v-63c0-4.42,3.58-8,8-8h45v-98.5H342z"/>
		<path class="st0" d="M326,665.5H198.5V602c0-4.69,3.81-8.5,8.5-8.5h44.5V495h91v154C342.5,658.1,335.1,665.5,326,665.5z
			 M199.5,664.5H326c8.55,0,15.5-6.95,15.5-15.5V496h-89v98.5H207c-4.14,0-7.5,3.36-7.5,7.5V664.5z"/>
	</g>
	<g>
		<path class="st4" d="M91,90H1V17C1,8.16,8.16,1,17,1h74V90z"/>
		<path class="st0" d="M91.5,90.5h-91V17C0.5,7.9,7.9,0.5,17,0.5h74.5V90.5z M1.5,89.5h89v-88H17C8.45,1.5,1.5,8.45,1.5,17V89.5z"/>
	</g>
	<g>
		<g>
			<g>
				<path d="M226.5,217.5h-110c-4.42,0-8-3.58-8-8v-92c0-4.42,3.58-8,8-8h110c4.42,0,8,3.58,8,8v92
					C234.5,213.92,230.92,217.5,226.5,217.5z"/>
			</g>
			<g>
				<path d="M226.5,218h-110c-4.69,0-8.5-3.81-8.5-8.5v-92c0-4.69,3.81-8.5,8.5-8.5h110c4.69,0,8.5,3.81,8.5,8.5v92
					C235,214.19,231.19,218,226.5,218z M116.5,110c-4.14,0-7.5,3.36-7.5,7.5v92c0,4.14,3.36,7.5,7.5,7.5h110
					c4.14,0,7.5-3.36,7.5-7.5v-92c0-4.14-3.36-7.5-7.5-7.5H116.5z"/>
			</g>
		</g>
		<g>
			<g>
				<path class="st1" d="M226.5,216.5h-110c-4.42,0-8-3.58-8-8v-92c0-4.42,3.58-8,8-8h110c4.42,0,8,3.58,8,8v92
					C234.5,212.92,230.92,216.5,226.5,216.5z"/>
			</g>
			<g>
				<path class="st0" d="M226.5,217h-110c-4.69,0-8.5-3.81-8.5-8.5v-92c0-4.69,3.81-8.5,8.5-8.5h110c4.69,0,8.5,3.81,8.5,8.5v92
					C235,213.19,231.19,217,226.5,217z M116.5,109c-4.14,0-7.5,3.36-7.5,7.5v92c0,4.14,3.36,7.5,7.5,7.5h110
					c4.14,0,7.5-3.36,7.5-7.5v-92c0-4.14-3.36-7.5-7.5-7.5H116.5z"/>
			</g>
		</g>
	</g>
	<g>
		<g>
			<g>
				<path d="M227,559H117c-4.42,0-8-3.58-8-8v-92c0-4.42,3.58-8,8-8h110c4.42,0,8,3.58,8,8v92C235,555.42,231.42,559,227,559z"/>
			</g>
			<g>
				<path d="M227,559.5H117c-4.69,0-8.5-3.81-8.5-8.5v-92c0-4.69,3.81-8.5,8.5-8.5h110c4.69,0,8.5,3.81,8.5,8.5v92
					C235.5,555.69,231.69,559.5,227,559.5z M117,451.5c-4.14,0-7.5,3.36-7.5,7.5v92c0,4.14,3.36,7.5,7.5,7.5h110
					c4.14,0,7.5-3.36,7.5-7.5v-92c0-4.14-3.36-7.5-7.5-7.5H117z"/>
			</g>
		</g>
		<g>
			<g>
				<path class="st1" d="M227,558H117c-4.42,0-8-3.58-8-8v-92c0-4.42,3.58-8,8-8h110c4.42,0,8,3.58,8,8v92
					C235,554.42,231.42,558,227,558z"/>
			</g>
			<g>
				<path class="st0" d="M227,558.5H117c-4.69,0-8.5-3.81-8.5-8.5v-92c0-4.69,3.81-8.5,8.5-8.5h110c4.69,0,8.5,3.81,8.5,8.5v92
					C235.5,554.69,231.69,558.5,227,558.5z M117,450.5c-4.14,0-7.5,3.36-7.5,7.5v92c0,4.14,3.36,7.5,7.5,7.5h110
					c4.14,0,7.5-3.36,7.5-7.5v-92c0-4.14-3.36-7.5-7.5-7.5H117z"/>
			</g>
		</g>
	</g>
	<g>
		<g>
			<g>
				<path d="M235,261v146c0,4.42-3.58,8-8,8H117c-4.42,0-8-3.58-8-8V261c0-4.42,3.58-8,8-8h110C231.42,253,235,256.58,235,261z"/>
			</g>
			<g>
				<path d="M227,415.5H117c-4.69,0-8.5-3.81-8.5-8.5V261c0-4.69,3.81-8.5,8.5-8.5h110c4.69,0,8.5,3.81,8.5,8.5v146
					C235.5,411.69,231.69,415.5,227,415.5z M117,253.5c-4.14,0-7.5,3.36-7.5,7.5v146c0,4.14,3.36,7.5,7.5,7.5h110
					c4.14,0,7.5-3.36,7.5-7.5V261c0-4.14-3.36-7.5-7.5-7.5H117z"/>
			</g>
		</g>
		<g>
			<g>
				<path class="st1" d="M235,260v146c0,4.42-3.58,8-8,8H117c-4.42,0-8-3.58-8-8V260c0-4.42,3.58-8,8-8h110
					C231.42,252,235,255.58,235,260z"/>
			</g>
			<g>
				<path class="st0" d="M227,414.5H117c-4.69,0-8.5-3.81-8.5-8.5V260c0-4.69,3.81-8.5,8.5-8.5h110c4.69,0,8.5,3.81,8.5,8.5v146
					C235.5,410.69,231.69,414.5,227,414.5z M117,252.5c-4.14,0-7.5,3.36-7.5,7.5v146c0,4.14,3.36,7.5,7.5,7.5h110
					c4.14,0,7.5-3.36,7.5-7.5V260c0-4.14-3.36-7.5-7.5-7.5H117z"/>
			</g>
		</g>
	</g>
	<g>
		<path d="M41.02,45.47c0.5,0.5,0.76,1.14,0.76,1.91c0,0.56-0.14,1.07-0.42,1.52s-0.7,0.81-1.25,1.08c-0.56,0.27-1.23,0.4-2.04,0.4
			c-0.7,0-1.37-0.11-2.02-0.31c-0.64-0.21-1.17-0.5-1.58-0.88l0.64-1.11c0.34,0.32,0.77,0.57,1.29,0.76
			c0.52,0.19,1.08,0.29,1.67,0.29c0.73,0,1.29-0.15,1.7-0.46c0.41-0.31,0.61-0.73,0.61-1.27c0-0.54-0.2-0.96-0.6-1.26
			s-1.01-0.45-1.82-0.45h-0.78v-0.98l2.46-3.02h-4.72v-1.22h6.47v0.95l-2.56,3.16C39.78,44.67,40.52,44.97,41.02,45.47z"/>
		<path d="M46.12,40.46v9.8h-1.39v-8.58h-2.21v-1.22H46.12z"/>
		<path d="M55.54,46.05c0.3,0.4,0.45,0.88,0.45,1.44c0,0.59-0.16,1.1-0.48,1.53c-0.32,0.43-0.77,0.77-1.36,1s-1.28,0.35-2.07,0.35
			c-0.78,0-1.47-0.12-2.05-0.35s-1.03-0.57-1.35-1c-0.32-0.43-0.48-0.95-0.48-1.53c0-0.56,0.15-1.04,0.44-1.44
			c0.29-0.4,0.72-0.71,1.28-0.92c-0.45-0.21-0.79-0.5-1.02-0.85c-0.23-0.36-0.35-0.78-0.35-1.26c0-0.54,0.15-1.01,0.44-1.41
			c0.29-0.4,0.71-0.71,1.24-0.92s1.15-0.32,1.85-0.32c0.71,0,1.33,0.11,1.87,0.32s0.95,0.52,1.25,0.92c0.29,0.4,0.44,0.87,0.44,1.41
			c0,0.48-0.12,0.89-0.36,1.25c-0.24,0.36-0.58,0.65-1.03,0.86C54.81,45.34,55.24,45.65,55.54,46.05z M53.91,48.76
			c0.45-0.32,0.67-0.76,0.67-1.31c0-0.54-0.22-0.97-0.67-1.28c-0.45-0.31-1.06-0.47-1.83-0.47c-0.77,0-1.38,0.16-1.82,0.47
			c-0.44,0.31-0.66,0.74-0.66,1.28c0,0.55,0.22,0.99,0.66,1.31c0.44,0.32,1.05,0.48,1.82,0.48C52.85,49.24,53.47,49.08,53.91,48.76z
			 M50.51,41.91c-0.38,0.29-0.57,0.67-0.57,1.16s0.19,0.87,0.57,1.15c0.38,0.28,0.9,0.42,1.58,0.42c0.68,0,1.22-0.14,1.6-0.42
			c0.39-0.28,0.58-0.66,0.58-1.15s-0.2-0.87-0.6-1.16c-0.4-0.29-0.93-0.43-1.59-0.43C51.42,41.49,50.89,41.63,50.51,41.91z"/>
	</g>
	<g>
		<path d="M105.21,45.47c0.5,0.5,0.76,1.14,0.76,1.91c0,0.56-0.14,1.07-0.42,1.52c-0.28,0.45-0.7,0.81-1.25,1.08
			c-0.56,0.27-1.23,0.4-2.04,0.4c-0.7,0-1.37-0.11-2.02-0.32s-1.17-0.5-1.58-0.88l0.64-1.11c0.34,0.32,0.77,0.57,1.29,0.76
			c0.52,0.19,1.08,0.29,1.67,0.29c0.73,0,1.29-0.15,1.7-0.46c0.41-0.31,0.61-0.73,0.61-1.27s-0.2-0.96-0.6-1.26
			s-1.01-0.45-1.82-0.45h-0.78v-0.98l2.46-3.02h-4.72v-1.22h6.47v0.95l-2.56,3.16C103.97,44.67,104.71,44.97,105.21,45.47z"/>
		<path d="M110.31,40.46v9.8h-1.39v-8.58h-2.21v-1.22H110.31z"/>
		<path d="M118.67,41.63c0.71,0.85,1.07,2.05,1.07,3.61c0,1.09-0.19,2.02-0.58,2.79c-0.39,0.77-0.93,1.35-1.62,1.75
			c-0.7,0.4-1.51,0.6-2.43,0.6c-0.48,0-0.92-0.05-1.34-0.15c-0.42-0.1-0.78-0.24-1.09-0.43l0.53-1.09c0.48,0.31,1.11,0.46,1.89,0.46
			c1.02,0,1.81-0.32,2.39-0.95c0.57-0.63,0.86-1.55,0.86-2.75v-0.35c-0.28,0.42-0.67,0.74-1.16,0.96s-1.05,0.33-1.67,0.33
			c-0.64,0-1.22-0.12-1.73-0.36s-0.91-0.59-1.19-1.04s-0.43-0.97-0.43-1.56c0-0.62,0.15-1.16,0.46-1.63
			c0.3-0.47,0.72-0.83,1.24-1.08c0.52-0.26,1.11-0.39,1.76-0.39C116.94,40.35,117.96,40.78,118.67,41.63z M116.93,45.03
			c0.35-0.17,0.61-0.4,0.81-0.69c0.19-0.29,0.29-0.61,0.29-0.97c0-0.35-0.09-0.66-0.27-0.95c-0.18-0.29-0.45-0.51-0.8-0.69
			c-0.35-0.17-0.77-0.26-1.27-0.26c-0.64,0-1.16,0.17-1.56,0.52c-0.4,0.34-0.6,0.81-0.6,1.39s0.2,1.04,0.6,1.38
			c0.4,0.34,0.94,0.51,1.62,0.51C116.19,45.28,116.58,45.2,116.93,45.03z"/>
	</g>
	<g>
		<path d="M139.49,45.47c0.5,0.5,0.76,1.14,0.76,1.91c0,0.56-0.14,1.07-0.42,1.52s-0.7,0.81-1.25,1.08c-0.56,0.27-1.23,0.4-2.04,0.4
			c-0.7,0-1.37-0.11-2.02-0.31c-0.64-0.21-1.17-0.5-1.58-0.88l0.64-1.11c0.34,0.32,0.77,0.57,1.29,0.76
			c0.52,0.19,1.08,0.29,1.67,0.29c0.73,0,1.29-0.15,1.7-0.46c0.41-0.31,0.61-0.73,0.61-1.27c0-0.54-0.2-0.96-0.6-1.26
			s-1.01-0.45-1.82-0.45h-0.78v-0.98l2.46-3.02h-4.72v-1.22h6.47v0.95l-2.56,3.16C138.25,44.67,138.98,44.97,139.49,45.47z"/>
		<path d="M148.36,49.05v1.22h-7.04v-0.95l3.99-3.85c0.49-0.47,0.81-0.87,0.98-1.21c0.17-0.34,0.25-0.68,0.25-1.03
			c0-0.51-0.18-0.91-0.54-1.2c-0.36-0.28-0.88-0.43-1.55-0.43c-1.08,0-1.92,0.35-2.51,1.06L141,41.84c0.38-0.47,0.88-0.83,1.51-1.09
			c0.62-0.26,1.31-0.39,2.08-0.39c1.03,0,1.84,0.24,2.45,0.73c0.61,0.49,0.91,1.16,0.91,2c0,0.52-0.11,1.02-0.34,1.48
			c-0.22,0.47-0.65,1-1.27,1.6l-3,2.88H148.36z"/>
		<path d="M151.41,49.78c-0.6-0.4-1.08-0.97-1.42-1.73s-0.52-1.65-0.52-2.69s0.17-1.93,0.52-2.69c0.35-0.76,0.82-1.33,1.42-1.73
			s1.29-0.59,2.06-0.59c0.77,0,1.45,0.2,2.05,0.59s1.08,0.97,1.42,1.73c0.35,0.76,0.52,1.65,0.52,2.69s-0.17,1.93-0.52,2.69
			s-0.82,1.33-1.42,1.73s-1.29,0.59-2.05,0.59C152.7,50.38,152.01,50.18,151.41,49.78z M155.36,48.17c0.47-0.64,0.71-1.58,0.71-2.8
			s-0.24-2.16-0.71-2.8c-0.47-0.64-1.1-0.96-1.88-0.96c-0.79,0-1.43,0.32-1.9,0.96c-0.47,0.64-0.71,1.58-0.71,2.8
			s0.24,2.16,0.71,2.8s1.1,0.97,1.9,0.97C154.26,49.13,154.88,48.81,155.36,48.17z"/>
	</g>
	<g>
		<path d="M176.54,45.47c0.5,0.5,0.76,1.14,0.76,1.91c0,0.56-0.14,1.07-0.42,1.52s-0.7,0.81-1.25,1.08c-0.56,0.27-1.23,0.4-2.04,0.4
			c-0.7,0-1.37-0.11-2.02-0.31c-0.64-0.21-1.17-0.5-1.58-0.88l0.64-1.11c0.34,0.32,0.77,0.57,1.29,0.76
			c0.52,0.19,1.08,0.29,1.67,0.29c0.73,0,1.29-0.15,1.7-0.46c0.41-0.31,0.61-0.73,0.61-1.27c0-0.54-0.2-0.96-0.6-1.26
			s-1.01-0.45-1.82-0.45h-0.78v-0.98l2.46-3.02h-4.72v-1.22h6.47v0.95l-2.56,3.16C175.31,44.67,176.04,44.97,176.54,45.47z"/>
		<path d="M185.42,49.05v1.22h-7.04v-0.95l3.99-3.85c0.48-0.47,0.81-0.87,0.98-1.21c0.17-0.34,0.25-0.68,0.25-1.03
			c0-0.51-0.18-0.91-0.54-1.2c-0.36-0.28-0.88-0.43-1.55-0.43c-1.08,0-1.92,0.35-2.51,1.06l-0.95-0.83
			c0.38-0.47,0.88-0.83,1.51-1.09c0.62-0.26,1.31-0.39,2.08-0.39c1.03,0,1.84,0.24,2.45,0.73s0.91,1.16,0.91,2
			c0,0.52-0.11,1.02-0.34,1.48c-0.22,0.47-0.65,1-1.27,1.6l-3,2.88H185.42z"/>
		<path d="M189.61,40.46v9.8h-1.39v-8.58h-2.21v-1.22H189.61z"/>
	</g>
	<g>
		<path d="M211.12,45.47c0.5,0.5,0.76,1.14,0.76,1.91c0,0.56-0.14,1.07-0.42,1.52s-0.7,0.81-1.25,1.08c-0.56,0.27-1.23,0.4-2.04,0.4
			c-0.7,0-1.37-0.11-2.02-0.31c-0.64-0.21-1.17-0.5-1.58-0.88l0.64-1.11c0.34,0.32,0.77,0.57,1.29,0.76s1.08,0.29,1.67,0.29
			c0.73,0,1.29-0.15,1.7-0.46c0.41-0.31,0.61-0.73,0.61-1.27c0-0.54-0.2-0.96-0.6-1.26s-1.01-0.45-1.82-0.45h-0.78v-0.98l2.46-3.02
			h-4.72v-1.22h6.47v0.95l-2.56,3.16C209.88,44.67,210.61,44.97,211.12,45.47z"/>
		<path d="M219.99,49.05v1.22h-7.04v-0.95l3.99-3.85c0.48-0.47,0.81-0.87,0.98-1.21c0.17-0.34,0.25-0.68,0.25-1.03
			c0-0.51-0.18-0.91-0.54-1.2c-0.36-0.28-0.88-0.43-1.55-0.43c-1.08,0-1.92,0.35-2.51,1.06l-0.95-0.83
			c0.38-0.47,0.88-0.83,1.51-1.09c0.62-0.26,1.31-0.39,2.08-0.39c1.03,0,1.84,0.24,2.45,0.73s0.91,1.16,0.91,2
			c0,0.52-0.11,1.02-0.34,1.48c-0.22,0.47-0.65,1-1.27,1.6l-3,2.88H219.99z"/>
		<path d="M228.03,49.05v1.22h-7.04v-0.95l3.99-3.85c0.49-0.47,0.81-0.87,0.98-1.21c0.17-0.34,0.25-0.68,0.25-1.03
			c0-0.51-0.18-0.91-0.54-1.2s-0.88-0.43-1.55-0.43c-1.08,0-1.92,0.35-2.51,1.06l-0.95-0.83c0.38-0.47,0.88-0.83,1.51-1.09
			s1.31-0.39,2.08-0.39c1.03,0,1.84,0.24,2.45,0.73c0.61,0.49,0.91,1.16,0.91,2c0,0.52-0.11,1.02-0.34,1.48
			c-0.22,0.47-0.65,1-1.28,1.6l-3,2.88H228.03z"/>
	</g>
	<g>
		<path d="M271.09,206.96h4.13c1.04,0,1.96,0.21,2.76,0.62c0.8,0.41,1.43,0.99,1.87,1.73c0.44,0.74,0.67,1.59,0.67,2.56
			c0,0.96-0.22,1.81-0.67,2.55s-1.07,1.32-1.87,1.73c-0.8,0.41-1.72,0.62-2.76,0.62h-4.13V206.96z M275.13,215.55
			c0.79,0,1.49-0.15,2.09-0.46c0.6-0.31,1.07-0.74,1.39-1.29c0.33-0.55,0.49-1.2,0.49-1.92c0-0.73-0.16-1.37-0.49-1.93
			c-0.33-0.55-0.79-0.99-1.39-1.29c-0.6-0.31-1.3-0.46-2.09-0.46h-2.65v7.36H275.13z"/>
		<path d="M289.77,215.55v1.22h-7.11v-9.8h6.92v1.22h-5.52v3.01h4.91v1.19h-4.91v3.16H289.77z"/>
		<path d="M298.85,207.88c0.73,0.61,1.09,1.44,1.09,2.51s-0.36,1.9-1.09,2.51c-0.73,0.61-1.73,0.91-3,0.91h-2.42v2.97h-1.4v-9.8
			h3.82C297.12,206.96,298.12,207.27,298.85,207.88z M297.84,212.01c0.47-0.38,0.7-0.92,0.7-1.63s-0.23-1.25-0.7-1.63
			c-0.47-0.38-1.14-0.57-2.03-0.57h-2.38v4.4h2.38C296.7,212.58,297.38,212.39,297.84,212.01z"/>
		<path d="M305.91,206.96h4.13c1.04,0,1.96,0.21,2.76,0.62c0.8,0.41,1.43,0.99,1.87,1.73c0.44,0.74,0.67,1.59,0.67,2.56
			c0,0.96-0.22,1.81-0.67,2.55s-1.07,1.32-1.87,1.73c-0.8,0.41-1.72,0.62-2.76,0.62h-4.13V206.96z M309.95,215.55
			c0.79,0,1.49-0.15,2.09-0.46c0.6-0.31,1.07-0.74,1.39-1.29c0.33-0.55,0.49-1.2,0.49-1.92c0-0.73-0.16-1.37-0.49-1.93
			c-0.33-0.55-0.79-0.99-1.39-1.29s-1.3-0.46-2.09-0.46h-2.65v7.36H309.95z"/>
		<path d="M324.58,215.55v1.22h-7.11v-9.8h6.92v1.22h-5.52v3.01h4.91v1.19h-4.91v3.16H324.58z"/>
		<path d="M269.14,229.31h-5.21l-1.08,2.45h-1.44l4.44-9.8h1.39l4.45,9.8h-1.47L269.14,229.31z M268.65,228.2l-2.11-4.8l-2.11,4.8
			H268.65z"/>
		<path d="M273.15,221.96h1.4v8.58h5.31v1.22h-6.71V221.96z"/>
		<path d="M282.3,230.76c-0.73-0.75-1.09-1.82-1.09-3.22v-5.57h1.4v5.52c0,2.1,0.92,3.15,2.76,3.15c0.9,0,1.58-0.26,2.06-0.78
			c0.48-0.52,0.71-1.31,0.71-2.37v-5.52h1.36v5.57c0,1.41-0.36,2.48-1.09,3.23s-1.75,1.11-3.05,1.11S283.03,231.5,282.3,230.76z"/>
		<path d="M301.46,231.76l-0.01-7.14l-3.54,5.95h-0.64l-3.54-5.91v7.1h-1.34v-9.8h1.15l4.09,6.89l4.03-6.89h1.15l0.01,9.8H301.46z"
			/>
		<path d="M314.17,221.96v9.8h-1.15l-5.88-7.31v7.31h-1.4v-9.8h1.15l5.88,7.31v-7.31H314.17z"/>
		<path d="M323.27,231.76l-2.94-4.05l-2.9,4.05h-1.61l3.68-5.03l-3.46-4.77h1.6l2.74,3.77l2.72-3.77h1.53l-3.46,4.73l3.71,5.07
			H323.27z"/>
		<path d="M327.07,231.53c-0.69-0.23-1.23-0.52-1.62-0.89l0.52-1.09c0.37,0.34,0.85,0.61,1.44,0.82c0.58,0.21,1.18,0.32,1.8,0.32
			c0.81,0,1.42-0.14,1.82-0.41c0.4-0.28,0.6-0.64,0.6-1.1c0-0.34-0.11-0.61-0.33-0.82s-0.49-0.37-0.81-0.48
			c-0.32-0.11-0.78-0.24-1.37-0.38c-0.74-0.18-1.33-0.35-1.79-0.53s-0.84-0.45-1.16-0.82c-0.32-0.37-0.48-0.87-0.48-1.49
			c0-0.52,0.14-0.99,0.41-1.41s0.69-0.76,1.25-1.01c0.56-0.25,1.25-0.38,2.09-0.38c0.58,0,1.15,0.08,1.71,0.22
			c0.56,0.15,1.04,0.36,1.44,0.64l-0.46,1.12c-0.41-0.26-0.85-0.46-1.32-0.59c-0.47-0.14-0.92-0.2-1.37-0.2
			c-0.79,0-1.39,0.14-1.79,0.43s-0.6,0.66-0.6,1.12c0,0.34,0.11,0.61,0.34,0.82c0.22,0.21,0.5,0.37,0.83,0.49
			c0.33,0.12,0.78,0.24,1.35,0.37c0.74,0.18,1.33,0.35,1.78,0.53c0.45,0.18,0.83,0.45,1.15,0.81c0.32,0.36,0.48,0.85,0.48,1.47
			c0,0.51-0.14,0.98-0.42,1.41c-0.28,0.42-0.71,0.76-1.27,1.01c-0.57,0.25-1.27,0.37-2.1,0.37
			C328.46,231.88,327.75,231.76,327.07,231.53z"/>
		<path d="M285.28,246.23c-0.79-0.43-1.41-1.03-1.85-1.79c-0.45-0.76-0.67-1.62-0.67-2.57c0-0.95,0.22-1.81,0.67-2.57
			c0.45-0.76,1.07-1.36,1.86-1.79s1.68-0.65,2.66-0.65c0.77,0,1.46,0.13,2.1,0.39c0.63,0.26,1.18,0.64,1.62,1.14l-0.91,0.88
			c-0.74-0.77-1.66-1.16-2.76-1.16c-0.73,0-1.39,0.16-1.97,0.49s-1.05,0.78-1.38,1.35c-0.33,0.57-0.5,1.22-0.5,1.93
			c0,0.71,0.17,1.35,0.5,1.92c0.33,0.57,0.79,1.03,1.38,1.35s1.25,0.49,1.97,0.49c1.09,0,2.01-0.39,2.76-1.18l0.91,0.88
			c-0.45,0.5-0.99,0.89-1.63,1.15c-0.64,0.26-1.34,0.39-2.11,0.39C286.95,246.88,286.07,246.66,285.28,246.23z"/>
		<path d="M301.61,242.54c0.33,0.42,0.49,0.94,0.49,1.58c0,0.85-0.32,1.5-0.96,1.96c-0.64,0.46-1.57,0.69-2.79,0.69h-4.68v-9.8h4.4
			c1.12,0,1.99,0.22,2.6,0.67c0.61,0.45,0.92,1.07,0.92,1.86c0,0.51-0.12,0.96-0.36,1.33c-0.24,0.37-0.56,0.66-0.96,0.85
			C300.83,241.84,301.28,242.13,301.61,242.54z M295.07,238.1v3.14h2.87c0.72,0,1.27-0.13,1.66-0.4c0.39-0.27,0.58-0.66,0.58-1.17
			c0-0.51-0.19-0.9-0.58-1.17c-0.39-0.27-0.94-0.4-1.66-0.4H295.07z M300.08,245.24c0.4-0.26,0.6-0.67,0.6-1.23
			c0-1.09-0.8-1.64-2.39-1.64h-3.22v3.26h3.22C299.08,245.63,299.68,245.5,300.08,245.24z"/>
		<path d="M306,246.23c-0.79-0.43-1.41-1.03-1.86-1.79c-0.45-0.76-0.67-1.62-0.67-2.57c0-0.95,0.22-1.81,0.67-2.57
			c0.45-0.76,1.07-1.36,1.86-1.79c0.79-0.43,1.68-0.65,2.66-0.65c0.76,0,1.46,0.13,2.1,0.39c0.63,0.26,1.18,0.64,1.62,1.14
			l-0.91,0.88c-0.74-0.77-1.66-1.16-2.76-1.16c-0.73,0-1.39,0.16-1.97,0.49c-0.59,0.33-1.05,0.78-1.38,1.35
			c-0.33,0.57-0.5,1.22-0.5,1.93c0,0.71,0.17,1.35,0.5,1.92c0.33,0.57,0.79,1.03,1.38,1.35c0.59,0.33,1.25,0.49,1.97,0.49
			c1.09,0,2.01-0.39,2.76-1.18l0.91,0.88c-0.45,0.5-0.99,0.89-1.63,1.15c-0.64,0.26-1.34,0.39-2.11,0.39
			C307.67,246.88,306.79,246.66,306,246.23z"/>
	</g>
	<g>
		<path d="M259.73,322.18h-3.36v-1.22h8.11v1.22h-3.36v8.58h-1.39V322.18z"/>
		<path d="M273.11,329.55v1.22H266v-9.8h6.92v1.22h-5.52v3.01h4.91v1.19h-4.91v3.16H273.11z"/>
		<path d="M276.1,330.53c-0.69-0.23-1.23-0.52-1.62-0.89l0.52-1.09c0.37,0.34,0.85,0.61,1.44,0.82c0.58,0.21,1.18,0.32,1.8,0.32
			c0.81,0,1.42-0.14,1.82-0.41c0.4-0.28,0.6-0.64,0.6-1.1c0-0.34-0.11-0.61-0.33-0.82s-0.49-0.37-0.81-0.48
			c-0.32-0.11-0.78-0.24-1.37-0.38c-0.74-0.18-1.33-0.35-1.79-0.53s-0.84-0.45-1.16-0.82c-0.32-0.37-0.48-0.87-0.48-1.49
			c0-0.52,0.14-0.99,0.41-1.41s0.69-0.76,1.25-1.01c0.56-0.25,1.25-0.38,2.09-0.38c0.58,0,1.15,0.08,1.71,0.22
			c0.56,0.15,1.04,0.36,1.44,0.64l-0.46,1.12c-0.41-0.26-0.85-0.46-1.32-0.59c-0.47-0.14-0.92-0.2-1.37-0.2
			c-0.79,0-1.39,0.14-1.79,0.43s-0.6,0.66-0.6,1.12c0,0.34,0.11,0.61,0.34,0.82c0.22,0.21,0.5,0.37,0.83,0.49
			c0.33,0.12,0.78,0.24,1.35,0.37c0.74,0.18,1.33,0.35,1.78,0.53c0.45,0.18,0.83,0.45,1.15,0.81c0.32,0.36,0.48,0.85,0.48,1.47
			c0,0.51-0.14,0.98-0.42,1.41c-0.28,0.42-0.71,0.76-1.27,1.01c-0.57,0.25-1.27,0.37-2.1,0.37
			C277.5,330.88,276.79,330.76,276.1,330.53z"/>
		<path d="M285.82,330.23c-0.79-0.43-1.42-1.03-1.87-1.8s-0.68-1.62-0.68-2.56c0-0.94,0.23-1.8,0.68-2.56s1.08-1.37,1.87-1.8
			s1.68-0.65,2.67-0.65c0.98,0,1.87,0.22,2.66,0.65s1.41,1.03,1.86,1.79c0.45,0.76,0.67,1.62,0.67,2.57c0,0.95-0.22,1.81-0.67,2.57
			c-0.45,0.76-1.07,1.36-1.86,1.79s-1.68,0.65-2.66,0.65C287.51,330.88,286.62,330.66,285.82,330.23z M290.44,329.14
			c0.57-0.33,1.03-0.78,1.36-1.35c0.33-0.57,0.5-1.21,0.5-1.92c0-0.71-0.17-1.35-0.5-1.93c-0.33-0.57-0.78-1.02-1.36-1.35
			s-1.22-0.49-1.94-0.49s-1.37,0.16-1.95,0.49s-1.04,0.78-1.37,1.35s-0.5,1.22-0.5,1.93c0,0.71,0.17,1.35,0.5,1.92
			c0.33,0.57,0.79,1.03,1.37,1.35s1.23,0.49,1.95,0.49S289.86,329.47,290.44,329.14z"/>
		<path d="M302.39,330.76l-2.11-3.01c-0.26,0.02-0.47,0.03-0.62,0.03h-2.42v2.98h-1.4v-9.8h3.82c1.27,0,2.27,0.3,3,0.91
			c0.73,0.61,1.09,1.44,1.09,2.51c0,0.76-0.19,1.4-0.56,1.93c-0.37,0.53-0.91,0.92-1.6,1.16l2.32,3.29H302.39z M301.64,326.02
			c0.47-0.38,0.7-0.93,0.7-1.64s-0.23-1.25-0.7-1.63c-0.47-0.38-1.14-0.57-2.03-0.57h-2.38v4.41h2.38
			C300.5,326.59,301.18,326.4,301.64,326.02z"/>
		<path d="M313.12,329.55v1.22h-7.11v-9.8h6.92v1.22h-5.52v3.01h4.91v1.19h-4.91v3.16H313.12z"/>
		<path d="M321.94,330.76l-2.11-3.01c-0.26,0.02-0.47,0.03-0.62,0.03h-2.42v2.98h-1.4v-9.8h3.82c1.27,0,2.27,0.3,3,0.91
			c0.73,0.61,1.09,1.44,1.09,2.51c0,0.76-0.19,1.4-0.56,1.93c-0.37,0.53-0.91,0.92-1.6,1.16l2.32,3.29H321.94z M321.2,326.02
			c0.47-0.38,0.7-0.93,0.7-1.64s-0.23-1.25-0.7-1.63c-0.47-0.38-1.14-0.57-2.03-0.57h-2.38v4.41h2.38
			C320.06,326.59,320.73,326.4,321.2,326.02z"/>
		<path d="M327.12,318.35h1.71l-2.35,1.82h-1.26L327.12,318.35z M325.57,320.96h1.4v9.8h-1.4V320.96z"/>
		<path d="M336.15,328.31h-5.21l-1.08,2.45h-1.44l4.44-9.8h1.39l4.45,9.8h-1.47L336.15,328.31z M335.66,327.2l-2.11-4.8l-2.11,4.8
			H335.66z"/>
		<path d="M285.28,345.23c-0.79-0.43-1.41-1.03-1.85-1.79c-0.45-0.76-0.67-1.62-0.67-2.57c0-0.95,0.22-1.81,0.67-2.57
			c0.45-0.76,1.07-1.36,1.86-1.79s1.68-0.65,2.66-0.65c0.77,0,1.46,0.13,2.1,0.39c0.63,0.26,1.18,0.64,1.62,1.14l-0.91,0.88
			c-0.74-0.77-1.66-1.16-2.76-1.16c-0.73,0-1.39,0.16-1.97,0.49s-1.05,0.78-1.38,1.35c-0.33,0.57-0.5,1.22-0.5,1.93
			c0,0.71,0.17,1.35,0.5,1.92c0.33,0.57,0.79,1.03,1.38,1.35s1.25,0.49,1.97,0.49c1.09,0,2.01-0.39,2.76-1.18l0.91,0.88
			c-0.45,0.5-0.99,0.89-1.63,1.15c-0.64,0.26-1.34,0.39-2.11,0.39C286.95,345.88,286.07,345.66,285.28,345.23z"/>
		<path d="M301.61,341.54c0.33,0.42,0.49,0.94,0.49,1.58c0,0.85-0.32,1.5-0.96,1.96c-0.64,0.46-1.57,0.69-2.79,0.69h-4.68v-9.8h4.4
			c1.12,0,1.99,0.22,2.6,0.67c0.61,0.45,0.92,1.07,0.92,1.86c0,0.51-0.12,0.96-0.36,1.33c-0.24,0.37-0.56,0.66-0.96,0.85
			C300.83,340.84,301.28,341.13,301.61,341.54z M295.07,337.1v3.14h2.87c0.72,0,1.27-0.13,1.66-0.4c0.39-0.27,0.58-0.66,0.58-1.17
			c0-0.51-0.19-0.9-0.58-1.17c-0.39-0.27-0.94-0.4-1.66-0.4H295.07z M300.08,344.24c0.4-0.26,0.6-0.67,0.6-1.23
			c0-1.09-0.8-1.64-2.39-1.64h-3.22v3.26h3.22C299.08,344.63,299.68,344.5,300.08,344.24z"/>
		<path d="M306,345.23c-0.79-0.43-1.41-1.03-1.86-1.79c-0.45-0.76-0.67-1.62-0.67-2.57c0-0.95,0.22-1.81,0.67-2.57
			c0.45-0.76,1.07-1.36,1.86-1.79c0.79-0.43,1.68-0.65,2.66-0.65c0.76,0,1.46,0.13,2.1,0.39c0.63,0.26,1.18,0.64,1.62,1.14
			l-0.91,0.88c-0.74-0.77-1.66-1.16-2.76-1.16c-0.73,0-1.39,0.16-1.97,0.49c-0.59,0.33-1.05,0.78-1.38,1.35
			c-0.33,0.57-0.5,1.22-0.5,1.93c0,0.71,0.17,1.35,0.5,1.92c0.33,0.57,0.79,1.03,1.38,1.35c0.59,0.33,1.25,0.49,1.97,0.49
			c1.09,0,2.01-0.39,2.76-1.18l0.91,0.88c-0.45,0.5-0.99,0.89-1.63,1.15c-0.64,0.26-1.34,0.39-2.11,0.39
			C307.67,345.88,306.79,345.66,306,345.23z"/>
	</g>
	<g>
		<path d="M292.13,266.47c0.5,0.5,0.76,1.14,0.76,1.91c0,0.56-0.14,1.07-0.42,1.52c-0.28,0.45-0.7,0.81-1.25,1.08
			c-0.56,0.27-1.23,0.4-2.04,0.4c-0.7,0-1.37-0.11-2.02-0.31c-0.64-0.21-1.17-0.5-1.58-0.88l0.64-1.11
			c0.34,0.32,0.77,0.57,1.29,0.76c0.52,0.19,1.08,0.29,1.67,0.29c0.73,0,1.29-0.15,1.7-0.46c0.41-0.31,0.61-0.73,0.61-1.27
			c0-0.54-0.2-0.96-0.6-1.26c-0.4-0.3-1.01-0.45-1.82-0.45h-0.78v-0.98l2.46-3.02h-4.72v-1.22h6.47v0.95l-2.56,3.16
			C290.89,265.67,291.63,265.97,292.13,266.47z"/>
		<path d="M301.01,270.05v1.22h-7.04v-0.95l3.99-3.85c0.49-0.47,0.81-0.87,0.98-1.21c0.17-0.34,0.25-0.68,0.25-1.03
			c0-0.51-0.18-0.91-0.54-1.2s-0.88-0.43-1.55-0.43c-1.08,0-1.92,0.35-2.51,1.06l-0.95-0.83c0.38-0.47,0.88-0.83,1.51-1.09
			s1.31-0.39,2.08-0.39c1.03,0,1.84,0.24,2.45,0.73c0.61,0.49,0.91,1.16,0.91,2c0,0.52-0.11,1.02-0.34,1.48
			c-0.22,0.47-0.65,1-1.28,1.6l-3,2.88H301.01z"/>
		<path d="M308.11,266.47c0.5,0.5,0.76,1.14,0.76,1.91c0,0.56-0.14,1.07-0.42,1.52c-0.28,0.45-0.7,0.81-1.25,1.08
			c-0.55,0.27-1.23,0.4-2.04,0.4c-0.7,0-1.37-0.11-2.02-0.31c-0.64-0.21-1.17-0.5-1.58-0.88l0.64-1.11
			c0.34,0.32,0.76,0.57,1.29,0.76c0.52,0.19,1.08,0.29,1.67,0.29c0.73,0,1.29-0.15,1.7-0.46s0.61-0.73,0.61-1.27
			c0-0.54-0.2-0.96-0.6-1.26c-0.4-0.3-1.01-0.45-1.82-0.45h-0.78v-0.98l2.46-3.02H302v-1.22h6.47v0.95l-2.56,3.16
			C306.87,265.67,307.6,265.97,308.11,266.47z"/>
	</g>
	<g>
		<path d="M291.58,293.47c0.5,0.5,0.76,1.14,0.76,1.91c0,0.56-0.14,1.07-0.42,1.52s-0.7,0.81-1.25,1.08
			c-0.56,0.27-1.23,0.4-2.04,0.4c-0.7,0-1.37-0.11-2.02-0.31c-0.64-0.21-1.17-0.5-1.58-0.88l0.64-1.11
			c0.34,0.32,0.76,0.57,1.29,0.76c0.52,0.19,1.08,0.29,1.67,0.29c0.73,0,1.29-0.15,1.7-0.46s0.61-0.73,0.61-1.27
			c0-0.54-0.2-0.96-0.6-1.26s-1.01-0.45-1.82-0.45h-0.79v-0.98l2.46-3.02h-4.72v-1.22h6.47v0.95l-2.56,3.16
			C290.35,292.67,291.08,292.97,291.58,293.47z"/>
		<path d="M300.46,297.05v1.22h-7.04v-0.95l3.99-3.85c0.49-0.47,0.81-0.87,0.98-1.21c0.17-0.34,0.25-0.68,0.25-1.03
			c0-0.51-0.18-0.91-0.54-1.2s-0.88-0.43-1.55-0.43c-1.08,0-1.92,0.35-2.51,1.06l-0.95-0.83c0.38-0.47,0.88-0.83,1.5-1.09
			s1.31-0.39,2.08-0.39c1.03,0,1.84,0.24,2.45,0.73c0.61,0.49,0.91,1.16,0.91,2c0,0.52-0.11,1.02-0.34,1.48
			c-0.22,0.47-0.65,1-1.27,1.6l-3,2.88H300.46z"/>
		<path d="M309.87,295.86h-1.86v2.41h-1.36v-2.41h-5.45v-0.98l5.01-6.41h1.51l-4.8,6.19h3.77v-2.13h1.32v2.13h1.86V295.86z"/>
	</g>
	<g>
		<path d="M292.12,374.47c0.5,0.5,0.76,1.14,0.76,1.91c0,0.56-0.14,1.07-0.42,1.52s-0.7,0.81-1.25,1.08
			c-0.56,0.27-1.23,0.4-2.04,0.4c-0.7,0-1.37-0.11-2.02-0.31c-0.64-0.21-1.17-0.5-1.58-0.88l0.64-1.11
			c0.34,0.32,0.77,0.57,1.29,0.76s1.08,0.29,1.67,0.29c0.73,0,1.29-0.15,1.7-0.46c0.41-0.31,0.61-0.73,0.61-1.27
			c0-0.54-0.2-0.96-0.6-1.26s-1.01-0.45-1.82-0.45h-0.78v-0.98l2.46-3.02h-4.72v-1.22h6.47v0.95l-2.56,3.16
			C290.88,373.67,291.61,373.97,292.12,374.47z"/>
		<path d="M300.99,378.05v1.22h-7.04v-0.95l3.99-3.85c0.48-0.47,0.81-0.87,0.98-1.21c0.17-0.34,0.25-0.68,0.25-1.03
			c0-0.51-0.18-0.91-0.54-1.2c-0.36-0.28-0.88-0.43-1.55-0.43c-1.08,0-1.92,0.35-2.51,1.06l-0.95-0.83
			c0.38-0.47,0.88-0.83,1.51-1.09c0.62-0.26,1.31-0.39,2.08-0.39c1.03,0,1.84,0.24,2.45,0.73s0.91,1.16,0.91,2
			c0,0.52-0.11,1.02-0.34,1.48c-0.22,0.47-0.65,1-1.27,1.6l-3,2.88H300.99z"/>
		<path d="M308.03,374.16c0.66,0.53,0.99,1.25,0.99,2.16c0,0.58-0.14,1.1-0.41,1.56c-0.28,0.46-0.69,0.83-1.25,1.09
			c-0.55,0.27-1.24,0.4-2.05,0.4c-0.69,0-1.36-0.11-2-0.31c-0.64-0.21-1.18-0.5-1.6-0.88l0.64-1.11c0.34,0.32,0.76,0.57,1.29,0.76
			c0.52,0.19,1.07,0.29,1.65,0.29c0.74,0,1.31-0.16,1.71-0.47s0.61-0.74,0.61-1.28c0-0.59-0.22-1.03-0.67-1.34
			c-0.45-0.3-1.21-0.45-2.3-0.45h-2.23l0.52-5.13h5.53v1.22h-4.35l-0.27,2.69h1.09C306.34,373.37,307.37,373.63,308.03,374.16z"/>
	</g>
	<g>
		<path d="M291.84,401.47c0.5,0.5,0.76,1.14,0.76,1.91c0,0.56-0.14,1.07-0.42,1.52s-0.7,0.81-1.25,1.08
			c-0.56,0.27-1.23,0.4-2.04,0.4c-0.7,0-1.37-0.11-2.02-0.31c-0.64-0.21-1.17-0.5-1.58-0.88l0.64-1.11
			c0.34,0.32,0.76,0.57,1.29,0.76c0.52,0.19,1.08,0.29,1.67,0.29c0.73,0,1.29-0.15,1.7-0.46s0.61-0.73,0.61-1.27
			c0-0.54-0.2-0.96-0.6-1.26s-1.01-0.45-1.82-0.45h-0.79v-0.98l2.46-3.02h-4.72v-1.22h6.47v0.95l-2.56,3.16
			C290.6,400.67,291.33,400.97,291.84,401.47z"/>
		<path d="M300.71,405.05v1.22h-7.04v-0.95l3.99-3.85c0.49-0.47,0.81-0.87,0.98-1.21c0.17-0.34,0.25-0.68,0.25-1.03
			c0-0.51-0.18-0.91-0.54-1.2s-0.88-0.43-1.55-0.43c-1.08,0-1.92,0.35-2.51,1.06l-0.95-0.83c0.38-0.47,0.88-0.83,1.5-1.09
			s1.31-0.39,2.08-0.39c1.03,0,1.84,0.24,2.45,0.73c0.61,0.49,0.91,1.16,0.91,2c0,0.52-0.11,1.02-0.34,1.48
			c-0.22,0.47-0.65,1-1.27,1.6l-3,2.88H300.71z"/>
		<path d="M307.78,400.68c0.51,0.24,0.91,0.59,1.2,1.04c0.29,0.45,0.43,0.97,0.43,1.56c0,0.62-0.15,1.16-0.46,1.62
			c-0.3,0.47-0.72,0.83-1.25,1.08s-1.12,0.38-1.77,0.38c-1.32,0-2.33-0.42-3.04-1.27s-1.07-2.05-1.07-3.61
			c0-1.09,0.19-2.02,0.58-2.79s0.93-1.35,1.62-1.75s1.5-0.59,2.43-0.59c0.48,0,0.92,0.05,1.34,0.15s0.78,0.24,1.09,0.43l-0.53,1.09
			c-0.47-0.31-1.09-0.46-1.88-0.46c-1.02,0-1.82,0.32-2.39,0.95c-0.58,0.63-0.87,1.55-0.87,2.75c0,0.15,0,0.27,0.01,0.35
			c0.28-0.42,0.67-0.74,1.16-0.96c0.49-0.22,1.04-0.33,1.66-0.33C306.69,400.31,307.27,400.44,307.78,400.68z M307.45,404.72
			c0.4-0.34,0.6-0.81,0.6-1.38c0-0.58-0.2-1.04-0.61-1.38s-0.95-0.51-1.63-0.51c-0.44,0-0.83,0.08-1.17,0.25s-0.61,0.4-0.8,0.69
			c-0.19,0.29-0.29,0.61-0.29,0.97c0,0.35,0.09,0.66,0.27,0.95c0.18,0.28,0.45,0.51,0.8,0.69c0.35,0.17,0.77,0.26,1.25,0.26
			C306.52,405.24,307.04,405.07,307.45,404.72z"/>
	</g>
	<g>
		<path d="M313.97,428.47c0.5,0.5,0.76,1.14,0.76,1.91c0,0.56-0.14,1.07-0.42,1.52c-0.28,0.45-0.7,0.81-1.25,1.08
			c-0.55,0.27-1.23,0.4-2.04,0.4c-0.7,0-1.37-0.11-2.02-0.31c-0.64-0.21-1.17-0.5-1.58-0.88l0.64-1.11
			c0.34,0.32,0.76,0.57,1.29,0.76c0.52,0.19,1.08,0.29,1.67,0.29c0.73,0,1.29-0.15,1.7-0.46s0.61-0.73,0.61-1.27
			c0-0.54-0.2-0.96-0.6-1.26c-0.4-0.3-1.01-0.45-1.82-0.45h-0.78v-0.98l2.46-3.02h-4.72v-1.22h6.47v0.95l-2.56,3.16
			C312.73,427.67,313.47,427.97,313.97,428.47z"/>
		<path d="M322.85,432.05v1.22h-7.04v-0.95l3.99-3.85c0.49-0.47,0.81-0.87,0.98-1.21c0.17-0.34,0.25-0.68,0.25-1.03
			c0-0.51-0.18-0.91-0.54-1.2c-0.36-0.28-0.88-0.43-1.55-0.43c-1.08,0-1.92,0.35-2.51,1.06l-0.95-0.83c0.38-0.47,0.88-0.83,1.5-1.09
			c0.62-0.26,1.31-0.39,2.08-0.39c1.03,0,1.84,0.24,2.45,0.73c0.61,0.49,0.91,1.16,0.91,2c0,0.52-0.11,1.02-0.34,1.48
			c-0.22,0.47-0.65,1-1.27,1.6l-3,2.88H322.85z"/>
		<path d="M331.09,423.46v0.95l-3.96,8.85h-1.48l3.88-8.58h-4.48v1.75h-1.34v-2.97H331.09z"/>
	</g>
	<g>
		<path d="M313.63,455.47c0.5,0.5,0.76,1.14,0.76,1.91c0,0.56-0.14,1.07-0.42,1.52s-0.7,0.81-1.25,1.08
			c-0.56,0.27-1.23,0.4-2.04,0.4c-0.7,0-1.37-0.11-2.02-0.31c-0.64-0.21-1.17-0.5-1.58-0.88l0.64-1.11
			c0.34,0.32,0.77,0.57,1.29,0.76s1.08,0.29,1.67,0.29c0.73,0,1.29-0.15,1.7-0.46c0.41-0.31,0.61-0.73,0.61-1.27
			c0-0.54-0.2-0.96-0.6-1.26s-1.01-0.45-1.82-0.45h-0.78v-0.98l2.46-3.02h-4.72v-1.22h6.47v0.95l-2.56,3.16
			C312.39,454.67,313.12,454.97,313.63,455.47z"/>
		<path d="M322.5,459.05v1.22h-7.04v-0.95l3.99-3.85c0.48-0.47,0.81-0.87,0.98-1.21c0.17-0.34,0.25-0.68,0.25-1.03
			c0-0.51-0.18-0.91-0.54-1.2c-0.36-0.28-0.88-0.43-1.55-0.43c-1.08,0-1.92,0.35-2.51,1.06l-0.95-0.83
			c0.38-0.47,0.88-0.83,1.51-1.09c0.62-0.26,1.31-0.39,2.08-0.39c1.03,0,1.84,0.24,2.45,0.73s0.91,1.16,0.91,2
			c0,0.52-0.11,1.02-0.34,1.48c-0.22,0.47-0.65,1-1.27,1.6l-3,2.88H322.5z"/>
		<path d="M330.93,456.05c0.3,0.4,0.45,0.88,0.45,1.44c0,0.59-0.16,1.1-0.48,1.53c-0.32,0.43-0.77,0.77-1.36,1s-1.28,0.35-2.07,0.35
			c-0.78,0-1.47-0.12-2.05-0.35c-0.58-0.23-1.03-0.57-1.35-1c-0.32-0.43-0.48-0.95-0.48-1.53c0-0.56,0.15-1.04,0.44-1.44
			c0.29-0.4,0.72-0.71,1.28-0.92c-0.45-0.21-0.79-0.5-1.02-0.85c-0.23-0.36-0.35-0.78-0.35-1.26c0-0.54,0.15-1.01,0.44-1.41
			c0.29-0.4,0.71-0.71,1.24-0.92c0.53-0.21,1.15-0.32,1.85-0.32c0.71,0,1.33,0.11,1.87,0.32c0.54,0.21,0.95,0.52,1.25,0.92
			c0.29,0.4,0.44,0.87,0.44,1.41c0,0.48-0.12,0.89-0.36,1.25s-0.58,0.65-1.03,0.86C330.2,455.34,330.63,455.65,330.93,456.05z
			 M329.31,458.76c0.45-0.32,0.67-0.76,0.67-1.31c0-0.54-0.22-0.97-0.67-1.28c-0.45-0.31-1.06-0.47-1.83-0.47
			c-0.78,0-1.38,0.16-1.82,0.47c-0.44,0.31-0.66,0.74-0.66,1.28c0,0.55,0.22,0.99,0.66,1.31c0.44,0.32,1.04,0.48,1.82,0.48
			C328.25,459.24,328.86,459.08,329.31,458.76z M325.9,451.91c-0.38,0.29-0.57,0.67-0.57,1.16s0.19,0.87,0.57,1.15
			c0.38,0.28,0.9,0.42,1.58,0.42c0.68,0,1.21-0.14,1.6-0.42c0.39-0.28,0.58-0.66,0.58-1.15s-0.2-0.87-0.59-1.16
			c-0.4-0.29-0.93-0.43-1.59-0.43C326.81,451.49,326.29,451.63,325.9,451.91z"/>
	</g>
	<g>
		<path d="M291.82,482.47c0.5,0.5,0.76,1.14,0.76,1.91c0,0.56-0.14,1.07-0.42,1.52s-0.7,0.81-1.25,1.08
			c-0.56,0.27-1.23,0.4-2.04,0.4c-0.7,0-1.37-0.11-2.02-0.31c-0.64-0.21-1.17-0.5-1.58-0.88l0.64-1.11
			c0.34,0.32,0.77,0.57,1.29,0.76s1.08,0.29,1.67,0.29c0.73,0,1.29-0.15,1.7-0.46c0.41-0.31,0.61-0.73,0.61-1.27
			c0-0.54-0.2-0.96-0.6-1.26s-1.01-0.45-1.82-0.45h-0.78v-0.98l2.46-3.02h-4.72v-1.22h6.47v0.95l-2.56,3.16
			C290.58,481.67,291.31,481.97,291.82,482.47z"/>
		<path d="M300.69,486.05v1.22h-7.04v-0.95l3.99-3.85c0.48-0.47,0.81-0.87,0.98-1.21c0.17-0.34,0.25-0.68,0.25-1.03
			c0-0.51-0.18-0.91-0.54-1.2c-0.36-0.28-0.88-0.43-1.55-0.43c-1.08,0-1.92,0.35-2.51,1.06l-0.95-0.83
			c0.38-0.47,0.88-0.83,1.51-1.09c0.62-0.26,1.31-0.39,2.08-0.39c1.03,0,1.84,0.24,2.45,0.73s0.91,1.16,0.91,2
			c0,0.52-0.11,1.02-0.34,1.48c-0.22,0.47-0.65,1-1.27,1.6l-3,2.88H300.69z"/>
		<path d="M308.06,478.63c0.71,0.85,1.07,2.05,1.07,3.61c0,1.09-0.19,2.02-0.58,2.79s-0.93,1.35-1.62,1.75
			c-0.7,0.4-1.51,0.59-2.43,0.59c-0.48,0-0.92-0.05-1.34-0.15s-0.78-0.24-1.09-0.43l0.53-1.09c0.48,0.31,1.11,0.46,1.89,0.46
			c1.02,0,1.81-0.32,2.39-0.95c0.57-0.63,0.86-1.55,0.86-2.75v-0.35c-0.28,0.42-0.67,0.74-1.16,0.96c-0.5,0.22-1.05,0.33-1.67,0.33
			c-0.64,0-1.22-0.12-1.73-0.36c-0.51-0.24-0.91-0.59-1.19-1.04c-0.28-0.45-0.43-0.97-0.43-1.56c0-0.62,0.15-1.16,0.46-1.62
			c0.3-0.47,0.71-0.83,1.24-1.08c0.52-0.26,1.11-0.38,1.76-0.38C306.33,477.35,307.35,477.78,308.06,478.63z M306.32,482.03
			c0.34-0.17,0.61-0.4,0.8-0.69c0.19-0.29,0.29-0.61,0.29-0.97c0-0.35-0.09-0.66-0.27-0.95c-0.18-0.28-0.45-0.51-0.8-0.69
			c-0.35-0.17-0.77-0.26-1.27-0.26c-0.64,0-1.16,0.17-1.56,0.52c-0.4,0.34-0.6,0.81-0.6,1.38c0,0.58,0.2,1.04,0.6,1.38
			c0.4,0.34,0.94,0.51,1.63,0.51C305.58,482.28,305.97,482.2,306.32,482.03z"/>
	</g>
	<g>
		<path d="M9.13,608.96h4.13c1.04,0,1.96,0.21,2.76,0.62c0.8,0.41,1.43,0.99,1.87,1.73c0.44,0.74,0.67,1.59,0.67,2.56
			c0,0.96-0.22,1.81-0.67,2.55s-1.07,1.32-1.87,1.73c-0.8,0.41-1.72,0.62-2.76,0.62H9.13V608.96z M13.17,617.55
			c0.79,0,1.49-0.15,2.09-0.46c0.6-0.31,1.07-0.74,1.39-1.29c0.33-0.55,0.49-1.2,0.49-1.92c0-0.73-0.16-1.37-0.49-1.93
			c-0.33-0.55-0.79-0.99-1.39-1.29s-1.3-0.46-2.09-0.46h-2.65v7.36H13.17z"/>
		<path d="M27.8,617.55v1.22h-7.11v-9.8h6.92v1.22h-5.52v3.01h4.91v1.19h-4.91v3.16H27.8z"/>
		<path d="M36.89,609.88c0.73,0.61,1.09,1.44,1.09,2.51s-0.36,1.9-1.09,2.51c-0.73,0.61-1.73,0.91-3,0.91h-2.42v2.97h-1.4v-9.8h3.82
			C35.16,608.96,36.16,609.27,36.89,609.88z M35.88,614.01c0.47-0.38,0.7-0.92,0.7-1.63s-0.23-1.25-0.7-1.63
			c-0.47-0.38-1.14-0.57-2.03-0.57h-2.38v4.4h2.38C34.74,614.58,35.42,614.39,35.88,614.01z"/>
		<path d="M41.93,618.23c-0.79-0.43-1.42-1.03-1.87-1.8c-0.45-0.76-0.68-1.62-0.68-2.56c0-0.94,0.23-1.8,0.68-2.56
			c0.45-0.77,1.08-1.37,1.87-1.8c0.79-0.43,1.68-0.65,2.67-0.65c0.98,0,1.87,0.22,2.66,0.65c0.79,0.43,1.41,1.03,1.86,1.79
			c0.45,0.76,0.67,1.62,0.67,2.57c0,0.95-0.22,1.81-0.67,2.57c-0.45,0.76-1.07,1.36-1.86,1.79c-0.79,0.43-1.68,0.65-2.66,0.65
			C43.61,618.88,42.72,618.66,41.93,618.23z M46.54,617.14c0.57-0.33,1.03-0.78,1.36-1.35c0.33-0.57,0.5-1.21,0.5-1.92
			c0-0.71-0.17-1.35-0.5-1.93c-0.33-0.57-0.78-1.02-1.36-1.35s-1.22-0.49-1.94-0.49s-1.37,0.16-1.95,0.49s-1.04,0.78-1.37,1.35
			c-0.33,0.57-0.5,1.22-0.5,1.93c0,0.71,0.17,1.35,0.5,1.92c0.33,0.57,0.79,1.03,1.37,1.35s1.23,0.49,1.95,0.49
			S45.97,617.47,46.54,617.14z M45.46,606.35h1.71l-2.35,1.82h-1.26L45.46,606.35z"/>
		<path d="M52.66,618.53c-0.69-0.23-1.23-0.52-1.62-0.89l0.52-1.09c0.37,0.34,0.85,0.61,1.44,0.82c0.58,0.21,1.18,0.32,1.8,0.32
			c0.81,0,1.42-0.14,1.82-0.41s0.6-0.64,0.6-1.1c0-0.34-0.11-0.61-0.33-0.82s-0.49-0.37-0.81-0.48c-0.32-0.11-0.78-0.24-1.36-0.38
			c-0.74-0.18-1.33-0.35-1.79-0.53s-0.84-0.45-1.16-0.82c-0.32-0.37-0.48-0.87-0.48-1.49c0-0.52,0.14-0.99,0.41-1.41
			c0.27-0.42,0.69-0.76,1.25-1.01s1.26-0.38,2.09-0.38c0.58,0,1.15,0.08,1.71,0.22c0.56,0.15,1.04,0.36,1.44,0.64l-0.46,1.12
			c-0.41-0.26-0.85-0.46-1.32-0.59c-0.47-0.14-0.92-0.2-1.37-0.2c-0.79,0-1.39,0.14-1.79,0.43c-0.4,0.29-0.59,0.66-0.59,1.12
			c0,0.34,0.11,0.61,0.34,0.82c0.22,0.21,0.5,0.37,0.83,0.49c0.33,0.12,0.78,0.24,1.35,0.37c0.74,0.18,1.33,0.35,1.78,0.53
			c0.45,0.18,0.83,0.45,1.16,0.81c0.32,0.36,0.48,0.85,0.48,1.47c0,0.51-0.14,0.98-0.42,1.41c-0.28,0.42-0.71,0.76-1.27,1.01
			c-0.57,0.25-1.27,0.37-2.1,0.37C54.06,618.88,53.35,618.76,52.66,618.53z"/>
		<path d="M60.63,608.96h1.4v9.8h-1.4V608.96z"/>
		<path d="M66.92,610.18h-3.36v-1.22h8.11v1.22h-3.36v8.58h-1.39V610.18z"/>
		<path d="M74.8,618.23c-0.79-0.43-1.42-1.03-1.87-1.8c-0.45-0.76-0.68-1.62-0.68-2.56c0-0.94,0.23-1.8,0.68-2.56
			c0.45-0.77,1.08-1.37,1.87-1.8c0.79-0.43,1.68-0.65,2.67-0.65c0.98,0,1.87,0.22,2.66,0.65c0.79,0.43,1.41,1.03,1.86,1.79
			c0.45,0.76,0.67,1.62,0.67,2.57c0,0.95-0.22,1.81-0.67,2.57c-0.45,0.76-1.07,1.36-1.86,1.79c-0.79,0.43-1.68,0.65-2.66,0.65
			C76.49,618.88,75.59,618.66,74.8,618.23z M79.41,617.14c0.57-0.33,1.03-0.78,1.36-1.35c0.33-0.57,0.5-1.21,0.5-1.92
			c0-0.71-0.17-1.35-0.5-1.93c-0.33-0.57-0.78-1.02-1.36-1.35s-1.22-0.49-1.94-0.49s-1.37,0.16-1.95,0.49s-1.04,0.78-1.37,1.35
			c-0.33,0.57-0.5,1.22-0.5,1.93c0,0.71,0.17,1.35,0.5,1.92c0.33,0.57,0.79,1.03,1.37,1.35s1.23,0.49,1.95,0.49
			S78.84,617.47,79.41,617.14z"/>
		<path d="M33.28,633.23c-0.79-0.43-1.41-1.03-1.85-1.79c-0.45-0.76-0.67-1.62-0.67-2.57c0-0.95,0.22-1.81,0.67-2.57
			c0.45-0.76,1.07-1.36,1.86-1.79c0.79-0.43,1.68-0.65,2.66-0.65c0.77,0,1.46,0.13,2.1,0.39c0.63,0.26,1.18,0.64,1.62,1.14
			l-0.91,0.88c-0.74-0.77-1.66-1.16-2.76-1.16c-0.73,0-1.39,0.16-1.97,0.49c-0.59,0.33-1.05,0.78-1.38,1.35
			c-0.33,0.57-0.5,1.22-0.5,1.93c0,0.71,0.17,1.35,0.5,1.92c0.33,0.57,0.79,1.03,1.38,1.35c0.59,0.33,1.25,0.49,1.97,0.49
			c1.09,0,2.01-0.39,2.76-1.18l0.91,0.88c-0.45,0.5-0.99,0.89-1.63,1.15c-0.64,0.26-1.34,0.39-2.11,0.39
			C34.95,633.88,34.07,633.66,33.28,633.23z"/>
		<path d="M49.61,629.54c0.33,0.42,0.49,0.94,0.49,1.58c0,0.85-0.32,1.5-0.96,1.96c-0.64,0.46-1.57,0.69-2.79,0.69h-4.68v-9.8h4.4
			c1.12,0,1.99,0.22,2.6,0.67c0.61,0.45,0.92,1.07,0.92,1.86c0,0.51-0.12,0.96-0.36,1.33c-0.24,0.37-0.56,0.66-0.96,0.85
			C48.83,628.84,49.28,629.13,49.61,629.54z M43.07,625.1v3.14h2.87c0.72,0,1.27-0.13,1.66-0.4s0.58-0.66,0.58-1.17
			c0-0.51-0.19-0.9-0.58-1.17c-0.39-0.27-0.94-0.4-1.66-0.4H43.07z M48.08,632.24c0.4-0.26,0.6-0.67,0.6-1.23
			c0-1.09-0.8-1.64-2.39-1.64h-3.22v3.26h3.22C47.08,632.63,47.68,632.5,48.08,632.24z"/>
		<path d="M54,633.23c-0.79-0.43-1.41-1.03-1.85-1.79c-0.45-0.76-0.67-1.62-0.67-2.57c0-0.95,0.22-1.81,0.67-2.57
			c0.45-0.76,1.07-1.36,1.86-1.79c0.79-0.43,1.68-0.65,2.66-0.65c0.77,0,1.46,0.13,2.1,0.39c0.63,0.26,1.18,0.64,1.62,1.14
			l-0.91,0.88c-0.74-0.77-1.66-1.16-2.76-1.16c-0.73,0-1.39,0.16-1.97,0.49c-0.59,0.33-1.05,0.78-1.38,1.35
			c-0.33,0.57-0.5,1.22-0.5,1.93c0,0.71,0.17,1.35,0.5,1.92c0.33,0.57,0.79,1.03,1.38,1.35c0.59,0.33,1.25,0.49,1.97,0.49
			c1.09,0,2.01-0.39,2.76-1.18l0.91,0.88c-0.45,0.5-0.99,0.89-1.63,1.15c-0.64,0.26-1.34,0.39-2.11,0.39
			C55.67,633.88,54.79,633.66,54,633.23z"/>
	</g>
	<g>
		<path d="M21.83,511.18h-3.36v-1.22h8.11v1.22h-3.36v8.58h-1.39V511.18z"/>
		<path d="M33.86,517.31h-5.21l-1.08,2.45h-1.44l4.44-9.8h1.39l4.45,9.8h-1.47L33.86,517.31z M33.37,516.2l-2.11-4.8l-2.11,4.8
			H33.37z"/>
		<path d="M37.86,509.96h1.4v8.58h5.31v1.22h-6.71V509.96z"/>
		<path d="M46.18,509.96h1.4v8.58h5.31v1.22h-6.71V509.96z"/>
		<path d="M61.61,518.55v1.22H54.5v-9.8h6.92v1.22H55.9v3.01h4.91v1.19H55.9v3.16H61.61z"/>
		<path d="M70.43,519.76l-2.11-3.01c-0.26,0.02-0.47,0.03-0.62,0.03h-2.42v2.98h-1.4v-9.8h3.82c1.27,0,2.27,0.3,3,0.91
			c0.73,0.61,1.09,1.44,1.09,2.51c0,0.76-0.19,1.4-0.56,1.93c-0.37,0.53-0.91,0.92-1.6,1.16l2.32,3.29H70.43z M69.68,515.02
			c0.47-0.38,0.7-0.93,0.7-1.64s-0.23-1.25-0.7-1.63c-0.47-0.38-1.14-0.57-2.03-0.57h-2.38v4.41h2.38
			C68.54,515.59,69.22,515.4,69.68,515.02z"/>
		<path d="M23.64,525.88c0.73,0.61,1.09,1.44,1.09,2.51s-0.36,1.9-1.09,2.51c-0.73,0.61-1.73,0.91-3,0.91h-2.42v2.97h-1.4v-9.8h3.82
			C21.91,524.96,22.91,525.27,23.64,525.88z M22.63,530.01c0.47-0.38,0.7-0.92,0.7-1.63s-0.23-1.25-0.7-1.63
			c-0.47-0.38-1.14-0.57-2.03-0.57h-2.38v4.4h2.38C21.49,530.58,22.16,530.39,22.63,530.01z"/>
		<path d="M33.34,534.76l-2.11-3.01c-0.26,0.02-0.47,0.03-0.62,0.03h-2.42v2.98h-1.4v-9.8h3.82c1.27,0,2.27,0.3,3,0.91
			c0.73,0.61,1.09,1.44,1.09,2.51c0,0.76-0.19,1.4-0.56,1.93c-0.37,0.53-0.91,0.92-1.6,1.16l2.32,3.29H33.34z M32.6,530.02
			c0.47-0.38,0.7-0.93,0.7-1.64s-0.23-1.25-0.7-1.63c-0.47-0.38-1.14-0.57-2.03-0.57h-2.38v4.41h2.38
			C31.46,530.59,32.13,530.4,32.6,530.02z"/>
		<path d="M38.72,534.23c-0.79-0.43-1.42-1.03-1.87-1.8c-0.45-0.76-0.68-1.62-0.68-2.56c0-0.94,0.23-1.8,0.68-2.56
			c0.45-0.77,1.08-1.37,1.87-1.8c0.79-0.43,1.68-0.65,2.67-0.65c0.98,0,1.87,0.22,2.66,0.65c0.79,0.43,1.41,1.03,1.86,1.79
			c0.45,0.76,0.67,1.62,0.67,2.57c0,0.95-0.22,1.81-0.67,2.57c-0.45,0.76-1.07,1.36-1.86,1.79c-0.79,0.43-1.68,0.65-2.66,0.65
			C40.4,534.88,39.51,534.66,38.72,534.23z M43.33,533.14c0.57-0.33,1.03-0.78,1.36-1.35c0.33-0.57,0.5-1.21,0.5-1.92
			c0-0.71-0.17-1.35-0.5-1.93c-0.33-0.57-0.78-1.02-1.36-1.35s-1.22-0.49-1.94-0.49s-1.37,0.16-1.95,0.49s-1.04,0.78-1.37,1.35
			c-0.33,0.57-0.5,1.22-0.5,1.93c0,0.71,0.17,1.35,0.5,1.92c0.33,0.57,0.79,1.03,1.37,1.35s1.23,0.49,1.95,0.49
			S42.76,533.47,43.33,533.14z"/>
		<path d="M50.53,526.18h-3.36v-1.22h8.11v1.22h-3.36v8.58h-1.39V526.18z"/>
		<path d="M58.41,534.23c-0.79-0.43-1.42-1.03-1.87-1.8c-0.45-0.76-0.68-1.62-0.68-2.56c0-0.94,0.23-1.8,0.68-2.56
			c0.45-0.77,1.08-1.37,1.87-1.8c0.79-0.43,1.68-0.65,2.67-0.65c0.98,0,1.87,0.22,2.66,0.65c0.79,0.43,1.41,1.03,1.86,1.79
			c0.45,0.76,0.67,1.62,0.67,2.57c0,0.95-0.22,1.81-0.67,2.57c-0.45,0.76-1.07,1.36-1.86,1.79c-0.79,0.43-1.68,0.65-2.66,0.65
			C60.1,534.88,59.21,534.66,58.41,534.23z M63.03,533.14c0.57-0.33,1.03-0.78,1.36-1.35c0.33-0.57,0.5-1.21,0.5-1.92
			c0-0.71-0.17-1.35-0.5-1.93c-0.33-0.57-0.78-1.02-1.36-1.35s-1.22-0.49-1.94-0.49s-1.37,0.16-1.95,0.49s-1.04,0.78-1.37,1.35
			c-0.33,0.57-0.5,1.22-0.5,1.93c0,0.71,0.17,1.35,0.5,1.92c0.33,0.57,0.79,1.03,1.37,1.35s1.23,0.49,1.95,0.49
			S62.45,533.47,63.03,533.14z"/>
		<path d="M69.15,534.53c-0.69-0.23-1.23-0.52-1.62-0.89l0.52-1.09c0.37,0.34,0.85,0.61,1.44,0.82c0.58,0.21,1.18,0.32,1.8,0.32
			c0.81,0,1.42-0.14,1.82-0.41s0.6-0.64,0.6-1.1c0-0.34-0.11-0.61-0.33-0.82s-0.49-0.37-0.81-0.48c-0.32-0.11-0.78-0.24-1.36-0.38
			c-0.74-0.18-1.33-0.35-1.79-0.53s-0.84-0.45-1.16-0.82c-0.32-0.37-0.48-0.87-0.48-1.49c0-0.52,0.14-0.99,0.41-1.41
			c0.27-0.42,0.69-0.76,1.25-1.01s1.26-0.38,2.09-0.38c0.58,0,1.15,0.08,1.71,0.22c0.56,0.15,1.04,0.36,1.44,0.64l-0.46,1.12
			c-0.41-0.26-0.85-0.46-1.32-0.59c-0.47-0.14-0.92-0.2-1.37-0.2c-0.79,0-1.39,0.14-1.79,0.43c-0.4,0.29-0.59,0.66-0.59,1.12
			c0,0.34,0.11,0.61,0.34,0.82c0.22,0.21,0.5,0.37,0.83,0.49c0.33,0.12,0.78,0.24,1.35,0.37c0.74,0.18,1.33,0.35,1.78,0.53
			c0.45,0.18,0.83,0.45,1.16,0.81c0.32,0.36,0.48,0.85,0.48,1.47c0,0.51-0.14,0.98-0.42,1.41c-0.28,0.42-0.71,0.76-1.27,1.01
			c-0.57,0.25-1.27,0.37-2.1,0.37C70.54,534.88,69.83,534.76,69.15,534.53z"/>
	</g>
	<g>
		<path d="M27.14,418.73c-0.79-0.43-1.41-1.03-1.85-1.79c-0.45-0.76-0.67-1.62-0.67-2.57c0-0.95,0.22-1.81,0.67-2.57
			c0.45-0.76,1.07-1.36,1.86-1.79c0.79-0.43,1.68-0.65,2.66-0.65c0.77,0,1.46,0.13,2.1,0.38s1.18,0.64,1.62,1.14l-0.91,0.88
			c-0.74-0.78-1.66-1.16-2.76-1.16c-0.73,0-1.39,0.16-1.97,0.49c-0.59,0.33-1.05,0.78-1.38,1.35c-0.33,0.57-0.5,1.22-0.5,1.93
			s0.17,1.35,0.5,1.92c0.33,0.57,0.79,1.02,1.38,1.35c0.59,0.33,1.25,0.49,1.97,0.49c1.09,0,2.01-0.39,2.76-1.18l0.91,0.88
			c-0.45,0.5-0.99,0.89-1.63,1.15s-1.34,0.39-2.11,0.39C28.81,419.38,27.93,419.16,27.14,418.73z"/>
		<path d="M42.64,418.05v1.22h-7.11v-9.8h6.92v1.22h-5.52v3.01h4.91v1.19h-4.91v3.16H42.64z"/>
		<path d="M54,419.27l-0.01-7.14l-3.54,5.95H49.8l-3.54-5.91v7.1h-1.34v-9.8h1.15l4.09,6.89l4.03-6.89h1.15l0.01,9.8H54z"/>
		<path d="M64.53,416.81h-5.21l-1.08,2.45H56.8l4.44-9.8h1.39l4.45,9.8H65.6L64.53,416.81z M64.04,415.7l-2.11-4.8l-2.11,4.8H64.04z
			"/>
	</g>
	<g>
		<path d="M159.35,327.81h-5.21l-1.08,2.45h-1.44l4.44-9.8h1.39l4.45,9.8h-1.47L159.35,327.81z M158.87,326.7l-2.11-4.8l-2.11,4.8
			H158.87z"/>
		<path d="M164.16,329.26c-0.73-0.75-1.09-1.82-1.09-3.22v-5.57h1.4v5.52c0,2.1,0.92,3.15,2.76,3.15c0.9,0,1.58-0.26,2.06-0.78
			s0.71-1.31,0.71-2.37v-5.52h1.36v5.57c0,1.41-0.36,2.48-1.09,3.23s-1.75,1.11-3.05,1.11S164.89,330,164.16,329.26z"/>
		<path d="M174.22,320.46h1.4v8.58h5.31v1.22h-6.71V320.46z"/>
		<path d="M188.82,327.81h-5.21l-1.08,2.45h-1.44l4.44-9.8h1.39l4.45,9.8h-1.47L188.82,327.81z M188.33,326.7l-2.11-4.8l-2.11,4.8
			H188.33z"/>
		<path d="M154.11,345.26l-0.01-7.14l-3.54,5.95h-0.64l-3.54-5.91v7.1h-1.34v-9.8h1.15l4.09,6.89l4.03-6.89h1.15l0.01,9.8H154.11z"
			/>
		<path d="M164.63,342.81h-5.21l-1.08,2.45h-1.44l4.44-9.8h1.39l4.45,9.8h-1.47L164.63,342.81z M164.14,341.7l-2.11-4.8l-2.11,4.8
			H164.14z"/>
		<path d="M175.29,340.31h1.34v3.82c-0.49,0.4-1.05,0.71-1.69,0.92c-0.64,0.21-1.32,0.32-2.02,0.32c-0.99,0-1.88-0.22-2.67-0.65
			c-0.79-0.43-1.42-1.03-1.87-1.79c-0.45-0.76-0.68-1.62-0.68-2.57c0-0.95,0.23-1.81,0.68-2.58c0.45-0.77,1.08-1.36,1.88-1.79
			c0.8-0.43,1.7-0.64,2.69-0.64c0.78,0,1.5,0.13,2.14,0.39c0.64,0.26,1.18,0.63,1.63,1.13l-0.87,0.87
			c-0.78-0.76-1.73-1.13-2.84-1.13c-0.75,0-1.42,0.16-2.01,0.48c-0.59,0.32-1.06,0.77-1.39,1.34s-0.5,1.22-0.5,1.94
			c0,0.71,0.17,1.35,0.5,1.92c0.34,0.57,0.8,1.03,1.39,1.35c0.59,0.33,1.26,0.49,1.99,0.49c0.88,0,1.64-0.21,2.3-0.63V340.31z"/>
		<path d="M187.73,335.46v9.8h-1.15l-5.88-7.31v7.31h-1.4v-9.8h1.15l5.88,7.31v-7.31H187.73z"/>
		<path d="M196.92,342.81h-5.21l-1.08,2.45h-1.44l4.44-9.8h1.39l4.45,9.8h-1.47L196.92,342.81z M196.43,341.7l-2.11-4.8l-2.11,4.8
			H196.43z"/>
	</g>
	<g>
		<path d="M41.86,293.47c0.5,0.5,0.76,1.14,0.76,1.91c0,0.56-0.14,1.07-0.42,1.52s-0.7,0.81-1.25,1.08c-0.56,0.27-1.23,0.4-2.04,0.4
			c-0.7,0-1.37-0.11-2.02-0.31c-0.64-0.21-1.17-0.5-1.58-0.88l0.64-1.11c0.34,0.32,0.77,0.57,1.29,0.76
			c0.52,0.19,1.08,0.29,1.67,0.29c0.73,0,1.29-0.15,1.7-0.46c0.41-0.31,0.61-0.73,0.61-1.27c0-0.54-0.2-0.96-0.6-1.26
			s-1.01-0.45-1.82-0.45h-0.78v-0.98l2.46-3.02h-4.72v-1.22h6.47v0.95l-2.56,3.16C40.62,292.67,41.36,292.97,41.86,293.47z"/>
		<path d="M46.96,288.46v9.8h-1.39v-8.58h-2.21v-1.22H46.96z"/>
		<path d="M51.04,297.78c-0.6-0.4-1.08-0.97-1.42-1.73s-0.52-1.65-0.52-2.69s0.17-1.93,0.52-2.69c0.35-0.76,0.82-1.33,1.42-1.73
			s1.29-0.59,2.06-0.59c0.77,0,1.45,0.2,2.05,0.59s1.08,0.97,1.42,1.73c0.35,0.76,0.52,1.65,0.52,2.69s-0.17,1.93-0.52,2.69
			s-0.82,1.33-1.42,1.73s-1.29,0.59-2.05,0.59C52.33,298.38,51.64,298.18,51.04,297.78z M54.98,296.17c0.47-0.64,0.71-1.58,0.71-2.8
			s-0.24-2.16-0.71-2.8c-0.47-0.64-1.1-0.96-1.88-0.96c-0.79,0-1.43,0.32-1.9,0.96c-0.47,0.64-0.71,1.58-0.71,2.8
			s0.24,2.16,0.71,2.8s1.1,0.97,1.9,0.97C53.88,297.13,54.51,296.81,54.98,296.17z"/>
	</g>
	<g>
		<path d="M43.94,266.47c0.5,0.5,0.76,1.14,0.76,1.91c0,0.56-0.14,1.07-0.42,1.52s-0.7,0.81-1.25,1.08c-0.56,0.27-1.23,0.4-2.04,0.4
			c-0.7,0-1.37-0.11-2.02-0.31c-0.64-0.21-1.17-0.5-1.58-0.88l0.64-1.11c0.34,0.32,0.77,0.57,1.29,0.76
			c0.52,0.19,1.08,0.29,1.67,0.29c0.73,0,1.29-0.15,1.7-0.46c0.41-0.31,0.61-0.73,0.61-1.27c0-0.54-0.2-0.96-0.6-1.26
			s-1.01-0.45-1.82-0.45h-0.78v-0.98l2.46-3.02h-4.72v-1.22h6.47v0.95l-2.56,3.16C42.7,265.67,43.43,265.97,43.94,266.47z"/>
		<path d="M49.03,261.46v9.8h-1.39v-8.58h-2.21v-1.22H49.03z"/>
		<path d="M54.21,261.46v9.8h-1.39v-8.58h-2.21v-1.22H54.21z"/>
	</g>
	<g>
		<path d="M41.51,239.47c0.5,0.5,0.76,1.14,0.76,1.91c0,0.56-0.14,1.07-0.42,1.52s-0.7,0.81-1.25,1.08c-0.56,0.27-1.23,0.4-2.04,0.4
			c-0.7,0-1.37-0.11-2.02-0.31c-0.64-0.21-1.17-0.5-1.58-0.88l0.64-1.11c0.34,0.32,0.77,0.57,1.29,0.76
			c0.52,0.19,1.08,0.29,1.67,0.29c0.73,0,1.29-0.15,1.7-0.46c0.41-0.31,0.61-0.73,0.61-1.27c0-0.54-0.2-0.96-0.6-1.26
			s-1.01-0.45-1.82-0.45h-0.78v-0.98l2.46-3.02h-4.72v-1.22h6.47v0.95l-2.56,3.16C40.27,238.67,41.01,238.97,41.51,239.47z"/>
		<path d="M46.61,234.46v9.8h-1.39v-8.58h-2.21v-1.22H46.61z"/>
		<path d="M55.64,243.05v1.22h-7.04v-0.95l3.99-3.85c0.49-0.47,0.81-0.87,0.98-1.21c0.17-0.34,0.25-0.68,0.25-1.03
			c0-0.51-0.18-0.91-0.54-1.2c-0.36-0.28-0.88-0.43-1.55-0.43c-1.08,0-1.92,0.35-2.51,1.06l-0.95-0.83
			c0.38-0.47,0.88-0.83,1.51-1.09c0.62-0.26,1.31-0.39,2.08-0.39c1.03,0,1.84,0.24,2.45,0.73c0.61,0.49,0.91,1.16,0.91,2
			c0,0.52-0.11,1.02-0.34,1.48c-0.22,0.47-0.65,1-1.27,1.6l-3,2.88H55.64z"/>
	</g>
	<g>
		<path d="M41.52,212.47c0.5,0.5,0.76,1.14,0.76,1.91c0,0.56-0.14,1.07-0.42,1.52s-0.7,0.81-1.25,1.08c-0.56,0.27-1.23,0.4-2.04,0.4
			c-0.7,0-1.37-0.11-2.02-0.31c-0.64-0.21-1.17-0.5-1.58-0.88l0.64-1.11c0.34,0.32,0.77,0.57,1.29,0.76
			c0.52,0.19,1.08,0.29,1.67,0.29c0.73,0,1.29-0.15,1.7-0.46c0.41-0.31,0.61-0.73,0.61-1.27c0-0.54-0.2-0.96-0.6-1.26
			s-1.01-0.45-1.82-0.45h-0.78v-0.98l2.46-3.02h-4.72v-1.22h6.47v0.95l-2.56,3.16C40.29,211.67,41.02,211.97,41.52,212.47z"/>
		<path d="M46.62,207.46v9.8h-1.39v-8.58h-2.21v-1.22H46.62z"/>
		<path d="M54.71,212.47c0.5,0.5,0.76,1.14,0.76,1.91c0,0.56-0.14,1.07-0.42,1.52s-0.7,0.81-1.25,1.08c-0.56,0.27-1.23,0.4-2.04,0.4
			c-0.7,0-1.37-0.11-2.02-0.31c-0.64-0.21-1.17-0.5-1.58-0.88l0.64-1.11c0.34,0.32,0.77,0.57,1.29,0.76
			c0.52,0.19,1.08,0.29,1.67,0.29c0.73,0,1.29-0.15,1.7-0.46c0.41-0.31,0.61-0.73,0.61-1.27c0-0.54-0.2-0.96-0.6-1.26
			s-1.01-0.45-1.82-0.45h-0.78v-0.98l2.46-3.02h-4.72v-1.22h6.47v0.95l-2.56,3.16C53.48,211.67,54.21,211.97,54.71,212.47z"/>
	</g>
	<g>
		<path d="M40.85,184.47c0.5,0.5,0.76,1.14,0.76,1.91c0,0.56-0.14,1.07-0.42,1.52s-0.7,0.81-1.25,1.08c-0.56,0.27-1.23,0.4-2.04,0.4
			c-0.7,0-1.37-0.11-2.02-0.31c-0.64-0.21-1.17-0.5-1.58-0.88l0.64-1.11c0.34,0.32,0.77,0.57,1.29,0.76
			c0.52,0.19,1.08,0.29,1.67,0.29c0.73,0,1.29-0.15,1.7-0.46c0.41-0.31,0.61-0.73,0.61-1.27c0-0.54-0.2-0.96-0.6-1.26
			s-1.01-0.45-1.82-0.45H37v-0.98l2.46-3.02h-4.72v-1.22h6.47v0.95l-2.56,3.16C39.61,183.67,40.34,183.97,40.85,184.47z"/>
		<path d="M45.94,179.46v9.8h-1.39v-8.58h-2.21v-1.22H45.94z"/>
		<path d="M56.61,186.86h-1.86v2.41h-1.36v-2.41h-5.45v-0.98l5.01-6.41h1.51l-4.8,6.19h3.77v-2.13h1.32v2.13h1.86V186.86z"/>
	</g>
	<g>
		<path d="M41.51,157.47c0.5,0.5,0.76,1.14,0.76,1.91c0,0.56-0.14,1.07-0.42,1.52s-0.7,0.81-1.25,1.08c-0.56,0.27-1.23,0.4-2.04,0.4
			c-0.7,0-1.37-0.11-2.02-0.31c-0.64-0.21-1.17-0.5-1.58-0.88l0.64-1.11c0.34,0.32,0.77,0.57,1.29,0.76
			c0.52,0.19,1.08,0.29,1.67,0.29c0.73,0,1.29-0.15,1.7-0.46c0.41-0.31,0.61-0.73,0.61-1.27c0-0.54-0.2-0.96-0.6-1.26
			s-1.01-0.45-1.82-0.45h-0.78v-0.98l2.46-3.02h-4.72v-1.22h6.47v0.95l-2.56,3.16C40.27,156.67,41.01,156.97,41.51,157.47z"/>
		<path d="M46.61,152.46v9.8h-1.39v-8.58h-2.21v-1.22H46.61z"/>
		<path d="M54.64,157.16c0.66,0.53,0.99,1.25,0.99,2.16c0,0.58-0.14,1.1-0.41,1.56c-0.28,0.46-0.69,0.83-1.25,1.09
			c-0.56,0.27-1.24,0.4-2.05,0.4c-0.69,0-1.36-0.11-2-0.31c-0.64-0.21-1.18-0.5-1.6-0.88l0.64-1.11c0.34,0.32,0.77,0.57,1.29,0.76
			c0.52,0.19,1.07,0.29,1.65,0.29c0.74,0,1.31-0.16,1.72-0.47c0.41-0.31,0.61-0.74,0.61-1.28c0-0.59-0.22-1.03-0.67-1.34
			c-0.45-0.3-1.21-0.45-2.3-0.45h-2.23l0.52-5.13h5.53v1.22h-4.35l-0.27,2.69h1.09C52.95,156.37,53.98,156.63,54.64,157.16z"/>
	</g>
	<g>
		<path d="M168.01,157.47c0.5,0.5,0.76,1.14,0.76,1.91c0,0.56-0.14,1.07-0.42,1.52s-0.7,0.81-1.25,1.08
			c-0.56,0.27-1.23,0.4-2.04,0.4c-0.7,0-1.37-0.11-2.02-0.31c-0.64-0.21-1.17-0.5-1.58-0.88l0.64-1.11
			c0.34,0.32,0.77,0.57,1.29,0.76c0.52,0.19,1.08,0.29,1.67,0.29c0.73,0,1.29-0.15,1.7-0.46c0.41-0.31,0.61-0.73,0.61-1.27
			c0-0.54-0.2-0.96-0.6-1.26s-1.01-0.45-1.82-0.45h-0.78v-0.98l2.46-3.02h-4.72v-1.22h6.47v0.95l-2.56,3.16
			C166.77,156.67,167.51,156.97,168.01,157.47z"/>
		<path d="M173.11,152.46v9.8h-1.39v-8.58h-2.21v-1.22H173.11z"/>
		<path d="M181.13,157.16c0.66,0.53,0.99,1.25,0.99,2.16c0,0.58-0.14,1.1-0.41,1.56c-0.28,0.46-0.69,0.83-1.25,1.09
			c-0.55,0.27-1.24,0.4-2.05,0.4c-0.69,0-1.36-0.11-2-0.31c-0.64-0.21-1.18-0.5-1.6-0.88l0.64-1.11c0.34,0.32,0.76,0.57,1.29,0.76
			c0.52,0.19,1.07,0.29,1.65,0.29c0.74,0,1.31-0.16,1.71-0.47s0.61-0.74,0.61-1.28c0-0.59-0.22-1.03-0.67-1.34
			c-0.45-0.3-1.21-0.45-2.3-0.45h-2.23l0.52-5.13h5.53v1.22h-4.35l-0.27,2.69h1.09C179.45,156.37,180.48,156.63,181.13,157.16z"/>
	</g>
	<g>
		<path d="M41.21,130.47c0.5,0.5,0.76,1.14,0.76,1.91c0,0.56-0.14,1.07-0.42,1.52s-0.7,0.81-1.25,1.08c-0.56,0.27-1.23,0.4-2.04,0.4
			c-0.7,0-1.37-0.11-2.02-0.31c-0.64-0.21-1.17-0.5-1.58-0.88l0.64-1.11c0.34,0.32,0.77,0.57,1.29,0.76
			c0.52,0.19,1.08,0.29,1.67,0.29c0.73,0,1.29-0.15,1.7-0.46c0.41-0.31,0.61-0.73,0.61-1.27c0-0.54-0.2-0.96-0.6-1.26
			s-1.01-0.45-1.82-0.45h-0.78v-0.98l2.46-3.02h-4.72v-1.22h6.47v0.95l-2.56,3.16C39.97,129.67,40.71,129.97,41.21,130.47z"/>
		<path d="M46.31,125.46v9.8h-1.39v-8.58h-2.21v-1.22H46.31z"/>
		<path d="M54.4,129.68c0.51,0.24,0.91,0.59,1.2,1.04c0.29,0.45,0.43,0.97,0.43,1.56c0,0.62-0.15,1.16-0.45,1.62
			c-0.3,0.47-0.72,0.83-1.25,1.08s-1.12,0.38-1.77,0.38c-1.32,0-2.33-0.42-3.04-1.27c-0.71-0.85-1.07-2.05-1.07-3.61
			c0-1.09,0.19-2.02,0.58-2.79s0.93-1.35,1.62-1.75s1.5-0.59,2.43-0.59c0.48,0,0.92,0.05,1.34,0.15s0.78,0.24,1.09,0.43l-0.53,1.09
			c-0.47-0.31-1.09-0.46-1.88-0.46c-1.02,0-1.82,0.32-2.39,0.95c-0.58,0.63-0.87,1.55-0.87,2.75c0,0.15,0,0.27,0.01,0.35
			c0.28-0.42,0.67-0.74,1.16-0.96c0.49-0.22,1.04-0.33,1.66-0.33C53.32,129.31,53.9,129.44,54.4,129.68z M54.08,133.72
			c0.4-0.34,0.6-0.81,0.6-1.38c0-0.58-0.2-1.04-0.61-1.38c-0.41-0.34-0.95-0.51-1.63-0.51c-0.44,0-0.83,0.08-1.17,0.25
			c-0.34,0.17-0.61,0.4-0.8,0.69c-0.19,0.29-0.29,0.61-0.29,0.97c0,0.35,0.09,0.66,0.27,0.95c0.18,0.28,0.45,0.51,0.8,0.69
			c0.35,0.17,0.77,0.26,1.25,0.26C53.15,134.24,53.67,134.07,54.08,133.72z"/>
	</g>
	<g>
		<path d="M41.34,103.47c0.5,0.5,0.76,1.14,0.76,1.91c0,0.56-0.14,1.07-0.42,1.52s-0.7,0.81-1.25,1.08c-0.56,0.27-1.23,0.4-2.04,0.4
			c-0.7,0-1.37-0.11-2.02-0.31c-0.64-0.21-1.17-0.5-1.58-0.88l0.64-1.11c0.34,0.32,0.77,0.57,1.29,0.76
			c0.52,0.19,1.08,0.29,1.67,0.29c0.73,0,1.29-0.15,1.7-0.46c0.41-0.31,0.61-0.73,0.61-1.27c0-0.54-0.2-0.96-0.6-1.26
			s-1.01-0.45-1.82-0.45h-0.78v-0.98l2.46-3.02h-4.72v-1.22h6.47v0.95l-2.56,3.16C40.11,102.67,40.84,102.97,41.34,103.47z"/>
		<path d="M46.44,98.46v9.8h-1.39v-8.58h-2.21v-1.22H46.44z"/>
		<path d="M55.72,98.46v0.95l-3.96,8.85h-1.48l3.88-8.58h-4.48v1.75h-1.34v-2.97H55.72z"/>
	</g>
	<g>
		<path class="st5" d="M109,198h35v-46c0-4.42-3.58-8-8-8h-27"/>
		<path class="st0" d="M144.5,198.5H109v-1h34.5V152c0-4.14-3.36-7.5-7.5-7.5h-27v-1h27c4.69,0,8.5,3.81,8.5,8.5V198.5z"/>
	</g>
	<g>
		<path class="st5" d="M234,198h-35v-46c0-4.42,3.58-8,8-8h27"/>
		<path class="st0" d="M234,198.5h-35.5V152c0-4.69,3.81-8.5,8.5-8.5h27v1h-27c-4.14,0-7.5,3.36-7.5,7.5v45.5H234V198.5z"/>
	</g>
	<g>
		<path class="st5" d="M234.5,468H199v46c0,4.42,3.63,8,8.11,8h27.39"/>
		<path class="st0" d="M234.5,522.5h-27.39c-4.75,0-8.61-3.81-8.61-8.5v-46.5h36v1h-35V514c0,4.14,3.42,7.5,7.61,7.5h27.39V522.5z"
			/>
	</g>
	<g>
		<path class="st5" d="M109,468h35v46c0,4.42-3.58,8-8,8h-27"/>
		<path class="st0" d="M136,522.5h-27v-1h27c4.14,0,7.5-3.36,7.5-7.5v-45.5H109v-1h35.5V514C144.5,518.69,140.69,522.5,136,522.5z"
			/>
	</g>
	<g>
		<rect x="108.5" y="197.5" class="st0" width="126" height="1"/>
	</g>
	<g>
		<rect x="108.5" y="467.5" class="st0" width="126" height="1"/>
	</g>
	<g>
		<rect x="198.5" y="198" class="st0" width="1" height="18"/>
	</g>
	<g>
		<rect x="143.5" y="198" class="st0" width="1" height="18"/>
	</g>
	<g>
		<rect x="162.53" y="198" class="st0" width="1" height="18.5"/>
	</g>
	<g>
		<rect x="180.53" y="198" class="st0" width="1" height="18.5"/>
	</g>
	<g>
		<rect x="198.5" y="450" class="st0" width="1" height="18"/>
	</g>
	<g>
		<rect x="143.5" y="450" class="st0" width="1" height="18"/>
	</g>
	<g>
		<rect x="162.53" y="450" class="st0" width="1" height="18.5"/>
	</g>
	<g>
		<rect x="180.53" y="450" class="st0" width="1" height="18.5"/>
	</g>
	<g>
		<path class="st6" d="M180.5,252v9c0,4.97-4.03,9-9,9h0c-4.97,0-9-4.03-9-9v-9"/>
		<path class="st0" d="M171.5,270.5c-5.24,0-9.5-4.26-9.5-9.5v-9h1v9c0,4.69,3.81,8.5,8.5,8.5c4.69,0,8.5-3.81,8.5-8.5v-9h1v9
			C181,266.24,176.74,270.5,171.5,270.5z"/>
	</g>
	<g>
		<rect x="108.5" y="395.5" class="st0" width="0.5" height="1"/>
	</g>
	<g>
		<path class="st0" d="M227,558.5H117c-4.69,0-8.5-3.81-8.5-8.5v-92c0-4.69,3.81-8.5,8.5-8.5h110c4.69,0,8.5,3.81,8.5,8.5v92
			C235.5,554.69,231.69,558.5,227,558.5z M117,450.5c-4.14,0-7.5,3.36-7.5,7.5v92c0,4.14,3.36,7.5,7.5,7.5h110
			c4.14,0,7.5-3.36,7.5-7.5v-92c0-4.14-3.36-7.5-7.5-7.5H117z"/>
	</g>
	<g>
		<path class="st0" d="M226.5,217h-110c-4.69,0-8.5-3.81-8.5-8.5v-92c0-4.69,3.81-8.5,8.5-8.5h110c4.69,0,8.5,3.81,8.5,8.5v92
			C235,213.19,231.19,217,226.5,217z M116.5,109c-4.14,0-7.5,3.36-7.5,7.5v92c0,4.14,3.36,7.5,7.5,7.5h110c4.14,0,7.5-3.36,7.5-7.5
			v-92c0-4.14-3.36-7.5-7.5-7.5H116.5z"/>
	</g>
	<g>
		<rect x="1" y="279" class="st0" width="90" height="1"/>
	</g>
	<g>
		<rect x="252" y="279" class="st0" width="90" height="1"/>
	</g>
	<g>
		<rect x="1" y="170" class="st0" width="90" height="1"/>
	</g>
	<g>
		<rect x="1" y="116" class="st0" width="90" height="1"/>
	</g>
	<g>
		<rect x="127" y="72" class="st0" width="1" height="1"/>
	</g>
	<g>
		<rect x="162" y="72" class="st0" width="1" height="1"/>
	</g>
	<g>
		<rect x="198" y="72" class="st0" width="1" height="1"/>
	</g>
	<g>
		<path class="st6" d="M235,396v10c0,4.42-3.58,8-8,8H117c-4.42,0-8-3.58-8-8v-10h44.5c0-9.94,8.06-18,18-18s18,8.06,18,18H235z"/>
		<path class="st0" d="M227,414.5H117c-4.69,0-8.5-3.81-8.5-8.5v-10.5h44.51c0.27-9.97,8.46-18,18.49-18
			c10.03,0,18.23,8.03,18.49,18h45.51V406C235.5,410.69,231.69,414.5,227,414.5z M109.5,396.5v9.5c0,4.14,3.36,7.5,7.5,7.5h110
			c4.14,0,7.5-3.36,7.5-7.5v-9.5H189V396c0-9.65-7.85-17.5-17.5-17.5S154,386.35,154,396v0.5H109.5z"/>
	</g>
	<g>
		<path class="st0" d="M227,414.5H117c-4.69,0-8.5-3.81-8.5-8.5V260c0-4.69,3.81-8.5,8.5-8.5h110c4.69,0,8.5,3.81,8.5,8.5v146
			C235.5,410.69,231.69,414.5,227,414.5z M117,252.5c-4.14,0-7.5,3.36-7.5,7.5v146c0,4.14,3.36,7.5,7.5,7.5h110
			c4.14,0,7.5-3.36,7.5-7.5V260c0-4.14-3.36-7.5-7.5-7.5H117z"/>
	</g>
	<g>
		<g>
			<g>
				<path class="st7" d="M165.44,404.18c-1.25-0.01-2.52-0.03-3.77-0.04c-0.09,0-0.18,0-0.28,0c-0.25,0-0.46,0.2-0.46,0.45
					c0,0.25,0.2,0.46,0.45,0.46c0.37,0,0.73,0.01,1.1,0.01c0.27,0,0.55,0.01,0.82,0.01c0.24,0,0.85-0.13,0.87,0.26
					c0.02,0.31-0.36,0.28-0.57,0.28c-0.25,0-0.5,0-0.75-0.01c-0.47,0-0.93-0.01-1.4-0.01c-0.03,0-0.05,0-0.08,0
					c-0.25,0-0.46,0.2-0.46,0.45c0,0.25,0.2,0.46,0.45,0.46l2.55,0.03c0.09,0.05,0.16,0.15,0.16,0.25c0.01,0.33-0.38,0.29-0.6,0.29
					c-0.26,0-0.52-0.01-0.78-0.01c-0.44,0-0.87-0.01-1.31-0.01c-0.01,0-0.01,0-0.02,0c-0.25,0-0.46,0.2-0.46,0.45
					c0,0.25,0.2,0.46,0.45,0.46c1.57,0.02,3.14,0.03,4.71,0.06c0.67,0.01,1.34,0.01,1.88-0.45c0.23-0.2,0.41-0.45,0.53-0.73
					l13.65,0.13c0.22,0,0.39-0.17,0.4-0.39l0.01-0.54c0-0.22-0.17-0.39-0.39-0.4l-13.61-0.13c-0.14-0.42-0.42-0.79-0.8-1.02
					c-0.3-0.19-0.64-0.27-1-0.3C166.3,404.15,165.85,404.18,165.44,404.18z"/>
			</g>
			<g>
				<path class="st8" d="M166.37,408.22c-0.1,0-0.21,0-0.31,0c-1.26-0.03-2.54-0.04-3.78-0.05l-0.94-0.01
					c-0.18,0-0.34-0.07-0.47-0.2c-0.13-0.13-0.19-0.3-0.19-0.47c0-0.18,0.07-0.34,0.2-0.47c0.13-0.12,0.29-0.19,0.47-0.19
					c0,0,0,0,0.01,0l2.17,0.02c0.08,0,0.28,0.01,0.33-0.04c0,0,0.01-0.01,0-0.04c0-0.01-0.01-0.03-0.02-0.04l-2.48-0.02
					c-0.18,0-0.34-0.07-0.47-0.2c-0.12-0.13-0.19-0.3-0.19-0.47c0-0.37,0.3-0.66,0.67-0.66c0,0,0,0,0.01,0l1.7,0.02
					c0.17,0,0.35,0,0.53,0l0.05,0c0.07,0,0.27,0,0.31-0.04c0,0,0-0.01,0-0.02c0-0.03-0.01-0.03-0.01-0.03
					c-0.07-0.06-0.34-0.04-0.47-0.03c-0.07,0-0.13,0.01-0.18,0.01l-1.92-0.02c-0.18,0-0.34-0.07-0.47-0.2
					c-0.12-0.13-0.19-0.3-0.19-0.47c0-0.18,0.07-0.34,0.2-0.47c0.13-0.12,0.29-0.19,0.47-0.19c0,0,0,0,0.01,0l0.28,0
					c0.62,0.01,1.25,0.01,1.87,0.02c0.64,0.01,1.27,0.02,1.9,0.02l0,0c0.14,0,0.29,0,0.44-0.01c0.28-0.01,0.57-0.01,0.86,0.01
					c0.45,0.04,0.79,0.14,1.09,0.33c0.38,0.23,0.67,0.58,0.84,0.99l13.46,0.13c0.33,0,0.6,0.28,0.6,0.61l-0.01,0.54
					c0,0.16-0.07,0.31-0.18,0.43c-0.12,0.11-0.27,0.18-0.43,0.17l-13.51-0.13c-0.13,0.26-0.31,0.49-0.53,0.67
					C167.56,408.16,166.93,408.22,166.37,408.22z M161.37,407.25c-0.08,0-0.14,0.02-0.19,0.07c-0.05,0.05-0.07,0.11-0.07,0.17
					c0,0.06,0.02,0.12,0.07,0.17c0.05,0.05,0.11,0.07,0.17,0.07l0.94,0.01c1.24,0.01,2.52,0.02,3.78,0.05
					c0.73,0.01,1.28-0.01,1.74-0.4c0.2-0.17,0.36-0.39,0.47-0.64l0.06-0.13l13.79,0.14c0,0,0,0,0,0c0.05,0,0.09-0.02,0.13-0.05
					c0.03-0.03,0.05-0.08,0.05-0.13l0.01-0.54c0-0.1-0.08-0.18-0.18-0.18l-13.76-0.14l-0.05-0.14c-0.13-0.38-0.38-0.7-0.72-0.91
					c-0.24-0.15-0.53-0.23-0.9-0.27c-0.27-0.02-0.55-0.02-0.82-0.01c-0.15,0-0.31,0.01-0.45,0.01c-0.63-0.01-1.27-0.01-1.9-0.02
					c-0.62-0.01-1.25-0.02-1.87-0.02l-0.28,0c-0.06,0-0.12,0.02-0.17,0.07c-0.05,0.05-0.07,0.11-0.07,0.17
					c0,0.06,0.02,0.12,0.07,0.17c0.05,0.05,0.11,0.07,0.17,0.07l1.92,0.02c0.04,0,0.09,0,0.15-0.01c0.24-0.02,0.58-0.04,0.78,0.14
					c0.09,0.08,0.15,0.2,0.15,0.33c0.01,0.17-0.06,0.28-0.12,0.34c-0.17,0.17-0.44,0.17-0.63,0.17l-0.04,0c-0.18,0-0.35,0-0.53-0.01
					l-1.7-0.02c-0.14-0.01-0.24,0.11-0.24,0.24c0,0.06,0.02,0.12,0.07,0.17s0.11,0.07,0.17,0.07l2.61,0.03l0.05,0.03
					c0.16,0.09,0.27,0.25,0.27,0.43c0,0.18-0.07,0.29-0.13,0.35c-0.17,0.17-0.44,0.17-0.64,0.16L161.37,407.25
					C161.38,407.25,161.38,407.25,161.37,407.25z"/>
			</g>
		</g>
		<g>
			<g>
				<g>
					<path class="st7" d="M160.88,401.84L160.88,401.84c-0.01,0.32,0.25,0.59,0.57,0.59l9.88,0.2c0.32,0.01,0.59-0.25,0.59-0.57l0,0
						c0.01-0.32-0.25-0.59-0.57-0.59l-9.88-0.2C161.15,401.26,160.88,401.52,160.88,401.84z"/>
				</g>
				<g>
					<path class="st8" d="M171.43,402.84c0,0-0.01,0-0.01,0l-10.06-0.2c-0.39-0.01-0.7-0.33-0.7-0.72l0-0.17
						c0.01-0.39,0.33-0.7,0.71-0.7c0,0,0.01,0,0.01,0l10.06,0.2c0.39,0.01,0.7,0.33,0.7,0.72l0,0.17
						C172.13,402.54,171.82,402.84,171.43,402.84z M161.09,401.76l0,0.17c0,0.16,0.12,0.29,0.28,0.29l10.06,0.2
						c0.16,0,0.29-0.12,0.29-0.28l0-0.17c0-0.08-0.03-0.15-0.08-0.2c-0.05-0.06-0.12-0.09-0.2-0.09l-10.06-0.2
						C161.23,401.48,161.1,401.6,161.09,401.76L161.09,401.76z"/>
				</g>
			</g>
			<g>
				<g>
					<path class="st7" d="M170.92,402.64c0.07,0.12,0.16,0.23,0.26,0.29c0.45,0.29,1.08,0.3,1.62,0.36c0.7,0.08,1.41,0.15,2.12,0.21
						c2.23,0.18,4.49,0.26,6.72-0.03c0.46-0.06,1.17-0.22,1.41-0.68c0.09-0.17,0.08-0.3,0.08-0.35c-0.05-0.44-0.52-0.65-0.9-0.69
						c-0.58-0.06-1.18-0.03-1.76-0.04c-1.39-0.04-2.78-0.07-4.18-0.11c-1.6-0.04-3.2-0.08-4.8-0.12"/>
				</g>
				<g>
					<path class="st8" d="M178.45,403.88c-1.29,0-2.5-0.08-3.54-0.16c-0.64-0.05-1.34-0.12-2.12-0.21
						c-0.08-0.01-0.17-0.02-0.26-0.03c-0.48-0.05-1.03-0.1-1.45-0.37c-0.13-0.08-0.24-0.21-0.33-0.36c-0.06-0.1-0.03-0.23,0.07-0.29
						c0.1-0.06,0.23-0.03,0.29,0.07c0.06,0.1,0.13,0.18,0.2,0.22c0.34,0.22,0.81,0.26,1.26,0.31c0.09,0.01,0.18,0.02,0.27,0.03
						c0.78,0.09,1.47,0.15,2.11,0.2c1.86,0.15,4.3,0.28,6.67-0.03c0.66-0.09,1.1-0.29,1.25-0.57c0.06-0.11,0.06-0.19,0.05-0.23
						c-0.04-0.34-0.46-0.47-0.71-0.5c-0.37-0.04-0.76-0.04-1.14-0.04c-0.21,0-0.41,0-0.61,0l-8.98-0.23c-0.12,0-0.21-0.1-0.21-0.22
						c0-0.12,0.1-0.21,0.22-0.21l8.98,0.23c0.2,0.01,0.4,0,0.6,0c0.39,0,0.79,0,1.19,0.04c0.46,0.05,1.03,0.31,1.09,0.88
						c0.02,0.15-0.02,0.32-0.1,0.47c-0.22,0.42-0.74,0.68-1.57,0.79C180.59,403.83,179.49,403.88,178.45,403.88z"/>
				</g>
			</g>
		</g>
		<g>
			<g>
				<circle class="st1" cx="171.88" cy="394.04" r="9.82"/>
			</g>
			<g>
				<path class="st8" d="M171.88,404.07c-5.53,0-10.03-4.5-10.03-10.03s4.5-10.03,10.03-10.03c5.53,0,10.03,4.5,10.03,10.03
					S177.41,404.07,171.88,404.07z M171.88,384.43c-5.3,0-9.61,4.31-9.61,9.61c0,5.3,4.31,9.61,9.61,9.61c5.3,0,9.61-4.31,9.61-9.61
					C181.48,388.74,177.17,384.43,171.88,384.43z"/>
			</g>
		</g>
		<g>
			<g>
				<path class="st8" d="M166.13,391.25c-0.04,0-0.07-0.01-0.11-0.03c-0.1-0.06-0.14-0.19-0.08-0.29c0.38-0.67,1.26-1.11,2.23-1.11
					c0.96,0,1.85,0.41,2.25,1.07c0.06,0.1,0.03,0.23-0.07,0.29c-0.1,0.06-0.23,0.03-0.29-0.07c-0.32-0.53-1.05-0.86-1.86-0.86
					c-0.01,0-0.01,0-0.02,0c-0.81,0.01-1.56,0.37-1.86,0.9C166.28,391.21,166.2,391.25,166.13,391.25z"/>
			</g>
		</g>
		<g>
			<g>
				<path class="st8" d="M173.97,391.25c-0.04,0-0.07-0.01-0.11-0.03c-0.1-0.06-0.14-0.19-0.08-0.29c0.38-0.67,1.26-1.11,2.23-1.11
					c0.96,0,1.85,0.41,2.25,1.07c0.06,0.1,0.03,0.23-0.07,0.29c-0.1,0.06-0.23,0.03-0.29-0.07c-0.32-0.53-1.05-0.86-1.86-0.86
					c-0.01,0-0.01,0-0.02,0c-0.81,0.01-1.56,0.37-1.86,0.9C174.12,391.21,174.04,391.25,173.97,391.25z"/>
			</g>
		</g>
		<g>
			<g>
				<path class="st8" d="M172.32,399.37c-0.58,0-1.16-0.05-1.75-0.14c-1.21-0.2-2.72-0.55-3.65-1.48c-0.66-0.67-0.81-1.79-0.34-2.55
					c0.1-0.15,0.22-0.3,0.36-0.42c0.78-0.78,1.81-0.39,2.63-0.08c0.25,0.09,0.48,0.18,0.7,0.24c0.15,0.04,0.3,0.07,0.45,0.1
					c1,0.19,2.05,0.18,3.05-0.05c0.29-0.07,0.57-0.16,0.87-0.27c0.7-0.24,1.42-0.5,2.2-0.3c0.54,0.13,0.95,0.57,1.13,1.19l0,0
					c0.3,1.05-0.25,2.08-1.48,2.77C175.33,399.03,173.87,399.37,172.32,399.37z M168.08,394.74c-0.31,0-0.59,0.09-0.85,0.35
					c-0.12,0.1-0.21,0.21-0.29,0.33c-0.41,0.67-0.18,1.56,0.28,2.02c0.84,0.85,2.27,1.17,3.41,1.36c2.07,0.34,4.13,0.05,5.65-0.8
					c0.5-0.28,1.63-1.06,1.28-2.28l0,0c-0.08-0.28-0.29-0.76-0.83-0.89c-0.66-0.16-1.29,0.06-1.96,0.29
					c-0.3,0.1-0.61,0.21-0.92,0.28c-1.05,0.24-2.17,0.26-3.22,0.05c-0.16-0.03-0.32-0.07-0.48-0.11c-0.24-0.06-0.48-0.15-0.74-0.25
					C168.95,394.92,168.49,394.74,168.08,394.74z"/>
			</g>
		</g>
		<g>
			<g>
				<path class="st8" d="M168.67,398.61c-0.02,0-0.04,0-0.05-0.01c-0.11-0.03-0.18-0.15-0.15-0.26l0.88-3.43
					c0.03-0.11,0.15-0.18,0.26-0.15c0.11,0.03,0.18,0.15,0.15,0.26l-0.88,3.43C168.85,398.54,168.77,398.61,168.67,398.61z"/>
			</g>
		</g>
		<g>
			<g>
				<path class="st8" d="M172.63,399.28c-0.11,0-0.21-0.09-0.21-0.2l-0.15-3.61c-0.01-0.12,0.09-0.22,0.2-0.22
					c0.12,0,0.22,0.09,0.22,0.2l0.15,3.61C172.84,399.17,172.75,399.27,172.63,399.28C172.63,399.28,172.63,399.28,172.63,399.28z"
					/>
			</g>
		</g>
		<g>
			<g>
				<path class="st8" d="M176.37,398.17c-0.08,0-0.16-0.05-0.19-0.13l-1.39-3.09c-0.05-0.11,0-0.23,0.11-0.28
					c0.11-0.05,0.23,0,0.28,0.11l1.39,3.09c0.05,0.11,0,0.23-0.11,0.28C176.43,398.17,176.4,398.17,176.37,398.17z"/>
			</g>
		</g>
	</g>
	<g>
		<g>
			<g>
				<g>
					<rect x="116.35" y="170.21" class="st1" width="13.98" height="11.55"/>
				</g>
				<g>
					<path class="st8" d="M130.53,181.95h-14.37v-11.94h14.37V181.95z M116.55,181.55h13.58V170.4h-13.58V181.55z"/>
				</g>
			</g>
			<g>
				<g>
					<path class="st1" d="M133.72,161.25c-0.09,0-0.18,0.01-0.26,0.03h-14.35v14.84c2.56,0,5.13,0.01,7.69,0.02
						c1.29,0.01,2.6,0.01,3.89,0.06c1.08,0.04,2.17,0.05,3.22-0.23c0.93-0.25,1.64-0.95,2.05-1.81c0.61-1.28,0.76-2.76,0.82-4.16
						c0.02-0.43,0.02-0.87,0.02-1.3C136.8,164.58,135.42,161.25,133.72,161.25z"/>
				</g>
				<g>
					<path class="st8" d="M131.64,176.42c-0.31,0-0.63-0.01-0.96-0.02c-1.23-0.05-2.48-0.06-3.7-0.06l-0.18,0
						c-2.47-0.01-5.1-0.02-7.69-0.02h-0.2v-15.23h14.52c0.08-0.02,0.18-0.03,0.28-0.03c1.84,0,3.28,3.36,3.28,7.65
						c0,0.52-0.01,0.93-0.02,1.31c-0.05,1.34-0.2,2.9-0.84,4.24c-0.47,0.97-1.26,1.67-2.18,1.91
						C133.22,176.36,132.47,176.42,131.64,176.42z M119.31,175.92c2.52,0,5.08,0.01,7.49,0.02l0.18,0c1.22,0,2.48,0.01,3.71,0.06
						c1.2,0.05,2.2,0.03,3.16-0.22c0.81-0.21,1.51-0.83,1.92-1.7c0.61-1.28,0.75-2.78,0.8-4.08c0.02-0.38,0.02-0.78,0.02-1.3
						c0-3.93-1.32-7.25-2.88-7.25c-0.08,0-0.16,0.01-0.23,0.03l-0.04,0h-14.15V175.92z"/>
				</g>
			</g>
			<g>
				<g>
					<g>
						<ellipse class="st9" cx="119.28" cy="168.7" rx="3.08" ry="7.45"/>
					</g>
				</g>
				<g>
					<g>
						<path d="M119.28,176.35c-1.84,0-3.28-3.36-3.28-7.65s1.44-7.65,3.28-7.65c1.84,0,3.28,3.36,3.28,7.65
							S121.11,176.35,119.28,176.35z M119.28,161.45c-1.56,0-2.88,3.32-2.88,7.25s1.32,7.25,2.88,7.25s2.88-3.32,2.88-7.25
							S120.84,161.45,119.28,161.45z"/>
					</g>
				</g>
			</g>
			<g>
				<g>
					<ellipse class="st8" cx="118.78" cy="168.61" rx="0.98" ry="3.03"/>
				</g>
			</g>
			<g>
				<g>
					<ellipse class="st8" cx="127.74" cy="167.64" rx="1.86" ry="2.28"/>
				</g>
			</g>
			<g>
				<g>
					<ellipse class="st8" cx="134.97" cy="167.52" rx="1.86" ry="2.28"/>
				</g>
			</g>
			<g>
				<g>
					<path class="st8" d="M126.75,170.47c-1.64,0-2.97-1.33-2.97-2.97c0-1.64,1.33-2.97,2.97-2.97c1.64,0,2.97,1.33,2.97,2.97
						C129.72,169.14,128.39,170.47,126.75,170.47z M126.75,164.93c-1.42,0-2.57,1.15-2.57,2.57c0,1.42,1.15,2.57,2.57,2.57
						c1.42,0,2.57-1.15,2.57-2.57C129.32,166.08,128.17,164.93,126.75,164.93z"/>
				</g>
			</g>
			<g>
				<g>
					<path class="st8" d="M134.02,170.47c-1.64,0-2.97-1.33-2.97-2.97c0-1.64,1.33-2.97,2.97-2.97c1.64,0,2.97,1.33,2.97,2.97
						C136.99,169.14,135.65,170.47,134.02,170.47z M134.02,164.93c-1.42,0-2.57,1.15-2.57,2.57c0,1.42,1.15,2.57,2.57,2.57
						c1.42,0,2.57-1.15,2.57-2.57C136.59,166.08,135.43,164.93,134.02,164.93z"/>
				</g>
			</g>
		</g>
		<g>
			<g>
				<g>
					<rect x="207.35" y="170.21" class="st1" width="13.98" height="11.55"/>
				</g>
				<g>
					<path class="st8" d="M221.53,181.95h-14.37v-11.94h14.37V181.95z M207.55,181.55h13.58V170.4h-13.58V181.55z"/>
				</g>
			</g>
			<g>
				<g>
					<path class="st1" d="M224.72,161.25c-0.09,0-0.18,0.01-0.26,0.03h-14.35v14.84c2.56,0,5.13,0.01,7.69,0.02
						c1.29,0.01,2.6,0.01,3.89,0.06c1.08,0.04,2.17,0.05,3.22-0.23c0.93-0.25,1.64-0.95,2.05-1.81c0.61-1.28,0.76-2.76,0.82-4.16
						c0.02-0.43,0.02-0.87,0.02-1.3C227.8,164.58,226.42,161.25,224.72,161.25z"/>
				</g>
				<g>
					<path class="st8" d="M222.64,176.42c-0.31,0-0.63-0.01-0.96-0.02c-1.23-0.05-2.48-0.06-3.7-0.06l-0.18,0
						c-2.47-0.01-5.1-0.02-7.69-0.02h-0.2v-15.23h14.52c0.08-0.02,0.18-0.03,0.28-0.03c1.84,0,3.28,3.36,3.28,7.65
						c0,0.52-0.01,0.93-0.02,1.31c-0.05,1.34-0.2,2.9-0.84,4.24c-0.47,0.97-1.26,1.67-2.18,1.91
						C224.22,176.36,223.47,176.42,222.64,176.42z M210.31,175.92c2.52,0,5.08,0.01,7.49,0.02l0.18,0c1.22,0,2.48,0.01,3.71,0.06
						c1.2,0.05,2.2,0.03,3.16-0.22c0.81-0.21,1.51-0.83,1.92-1.7c0.61-1.28,0.75-2.78,0.8-4.08c0.02-0.38,0.02-0.78,0.02-1.3
						c0-3.93-1.32-7.25-2.88-7.25c-0.08,0-0.16,0.01-0.23,0.03l-0.04,0h-14.15V175.92z"/>
				</g>
			</g>
			<g>
				<g>
					<g>
						<ellipse class="st9" cx="210.28" cy="168.7" rx="3.08" ry="7.45"/>
					</g>
				</g>
				<g>
					<g>
						<path d="M210.28,176.35c-1.84,0-3.28-3.36-3.28-7.65s1.44-7.65,3.28-7.65s3.28,3.36,3.28,7.65S212.11,176.35,210.28,176.35z
							 M210.28,161.45c-1.56,0-2.88,3.32-2.88,7.25s1.32,7.25,2.88,7.25s2.88-3.32,2.88-7.25S211.84,161.45,210.28,161.45z"/>
					</g>
				</g>
			</g>
			<g>
				<g>
					<ellipse class="st8" cx="209.78" cy="168.61" rx="0.98" ry="3.03"/>
				</g>
			</g>
			<g>
				<g>
					<ellipse class="st8" cx="218.74" cy="167.64" rx="1.86" ry="2.28"/>
				</g>
			</g>
			<g>
				<g>
					<ellipse class="st8" cx="225.97" cy="167.52" rx="1.86" ry="2.28"/>
				</g>
			</g>
			<g>
				<g>
					<path class="st8" d="M217.75,170.47c-1.64,0-2.97-1.33-2.97-2.97c0-1.64,1.33-2.97,2.97-2.97c1.64,0,2.97,1.33,2.97,2.97
						C220.72,169.14,219.39,170.47,217.75,170.47z M217.75,164.93c-1.42,0-2.57,1.15-2.57,2.57c0,1.42,1.15,2.57,2.57,2.57
						c1.42,0,2.57-1.15,2.57-2.57C220.32,166.08,219.17,164.93,217.75,164.93z"/>
				</g>
			</g>
			<g>
				<g>
					<path class="st8" d="M225.02,170.47c-1.64,0-2.97-1.33-2.97-2.97c0-1.64,1.33-2.97,2.97-2.97c1.64,0,2.97,1.33,2.97,2.97
						C227.99,169.14,226.65,170.47,225.02,170.47z M225.02,164.93c-1.42,0-2.57,1.15-2.57,2.57c0,1.42,1.15,2.57,2.57,2.57
						c1.42,0,2.57-1.15,2.57-2.57C227.59,166.08,226.43,164.93,225.02,164.93z"/>
				</g>
			</g>
		</g>
		<g>
			<g>
				<g>
					<rect x="116.35" y="495.21" class="st1" width="13.98" height="11.55"/>
				</g>
				<g>
					<path class="st8" d="M130.53,506.95h-14.37v-11.94h14.37V506.95z M116.55,506.55h13.58V495.4h-13.58V506.55z"/>
				</g>
			</g>
			<g>
				<g>
					<path class="st1" d="M133.72,486.25c-0.09,0-0.18,0.01-0.26,0.03h-14.35v14.84c2.56,0,5.13,0.01,7.69,0.02
						c1.29,0.01,2.6,0.01,3.89,0.06c1.08,0.04,2.17,0.05,3.22-0.23c0.93-0.25,1.64-0.95,2.05-1.81c0.61-1.28,0.76-2.76,0.82-4.16
						c0.02-0.43,0.02-0.87,0.02-1.3C136.8,489.58,135.42,486.25,133.72,486.25z"/>
				</g>
				<g>
					<path class="st8" d="M131.64,501.42c-0.31,0-0.63-0.01-0.96-0.02c-1.23-0.05-2.48-0.06-3.7-0.06l-0.18,0
						c-2.47-0.01-5.1-0.02-7.69-0.02h-0.2v-15.23h14.52c0.08-0.02,0.18-0.03,0.28-0.03c1.84,0,3.28,3.36,3.28,7.65
						c0,0.52-0.01,0.93-0.02,1.31c-0.05,1.34-0.2,2.9-0.84,4.24c-0.47,0.97-1.26,1.67-2.18,1.91
						C133.22,501.36,132.47,501.42,131.64,501.42z M119.31,500.92c2.52,0,5.08,0.01,7.49,0.02l0.18,0c1.22,0,2.48,0.01,3.71,0.06
						c1.2,0.05,2.2,0.03,3.16-0.22c0.81-0.21,1.51-0.83,1.92-1.7c0.61-1.28,0.75-2.78,0.8-4.08c0.02-0.38,0.02-0.78,0.02-1.3
						c0-3.93-1.32-7.25-2.88-7.25c-0.08,0-0.16,0.01-0.23,0.03l-0.04,0h-14.15V500.92z"/>
				</g>
			</g>
			<g>
				<g>
					<g>
						<ellipse class="st9" cx="119.28" cy="493.7" rx="3.08" ry="7.45"/>
					</g>
				</g>
				<g>
					<g>
						<path d="M119.28,501.35c-1.84,0-3.28-3.36-3.28-7.65c0-4.29,1.44-7.65,3.28-7.65c1.84,0,3.28,3.36,3.28,7.65
							C122.55,497.99,121.11,501.35,119.28,501.35z M119.28,486.45c-1.56,0-2.88,3.32-2.88,7.25c0,3.93,1.32,7.25,2.88,7.25
							s2.88-3.32,2.88-7.25C122.16,489.77,120.84,486.45,119.28,486.45z"/>
					</g>
				</g>
			</g>
			<g>
				<g>
					<ellipse class="st8" cx="118.78" cy="493.61" rx="0.98" ry="3.03"/>
				</g>
			</g>
			<g>
				<g>
					<ellipse class="st8" cx="127.74" cy="492.64" rx="1.86" ry="2.28"/>
				</g>
			</g>
			<g>
				<g>
					<ellipse class="st8" cx="134.97" cy="492.52" rx="1.86" ry="2.28"/>
				</g>
			</g>
			<g>
				<g>
					<path class="st8" d="M126.75,495.47c-1.64,0-2.97-1.33-2.97-2.97c0-1.64,1.33-2.97,2.97-2.97c1.64,0,2.97,1.33,2.97,2.97
						C129.72,494.14,128.39,495.47,126.75,495.47z M126.75,489.93c-1.42,0-2.57,1.15-2.57,2.57c0,1.42,1.15,2.57,2.57,2.57
						c1.42,0,2.57-1.15,2.57-2.57C129.32,491.08,128.17,489.93,126.75,489.93z"/>
				</g>
			</g>
			<g>
				<g>
					<path class="st8" d="M134.02,495.47c-1.64,0-2.97-1.33-2.97-2.97c0-1.64,1.33-2.97,2.97-2.97c1.64,0,2.97,1.33,2.97,2.97
						C136.99,494.14,135.65,495.47,134.02,495.47z M134.02,489.93c-1.42,0-2.57,1.15-2.57,2.57c0,1.42,1.15,2.57,2.57,2.57
						c1.42,0,2.57-1.15,2.57-2.57C136.59,491.08,135.43,489.93,134.02,489.93z"/>
				</g>
			</g>
		</g>
		<g>
			<g>
				<g>
					<rect x="207.35" y="495.21" class="st1" width="13.98" height="11.55"/>
				</g>
				<g>
					<path class="st8" d="M221.53,506.95h-14.37v-11.94h14.37V506.95z M207.55,506.55h13.58V495.4h-13.58V506.55z"/>
				</g>
			</g>
			<g>
				<g>
					<path class="st1" d="M224.72,486.25c-0.09,0-0.18,0.01-0.26,0.03h-14.35v14.84c2.56,0,5.13,0.01,7.69,0.02
						c1.29,0.01,2.6,0.01,3.89,0.06c1.08,0.04,2.17,0.05,3.22-0.23c0.93-0.25,1.64-0.95,2.05-1.81c0.61-1.28,0.76-2.76,0.82-4.16
						c0.02-0.43,0.02-0.87,0.02-1.3C227.8,489.58,226.42,486.25,224.72,486.25z"/>
				</g>
				<g>
					<path class="st8" d="M222.64,501.42c-0.31,0-0.63-0.01-0.96-0.02c-1.23-0.05-2.48-0.06-3.7-0.06l-0.18,0
						c-2.47-0.01-5.1-0.02-7.69-0.02h-0.2v-15.23h14.52c0.08-0.02,0.18-0.03,0.28-0.03c1.84,0,3.28,3.36,3.28,7.65
						c0,0.52-0.01,0.93-0.02,1.31c-0.05,1.34-0.2,2.9-0.84,4.24c-0.47,0.97-1.26,1.67-2.18,1.91
						C224.22,501.36,223.47,501.42,222.64,501.42z M210.31,500.92c2.52,0,5.08,0.01,7.49,0.02l0.18,0c1.22,0,2.48,0.01,3.71,0.06
						c1.2,0.05,2.2,0.03,3.16-0.22c0.81-0.21,1.51-0.83,1.92-1.7c0.61-1.28,0.75-2.78,0.8-4.08c0.02-0.38,0.02-0.78,0.02-1.3
						c0-3.93-1.32-7.25-2.88-7.25c-0.08,0-0.16,0.01-0.23,0.03l-0.04,0h-14.15V500.92z"/>
				</g>
			</g>
			<g>
				<g>
					<g>
						<ellipse class="st9" cx="210.28" cy="493.7" rx="3.08" ry="7.45"/>
					</g>
				</g>
				<g>
					<g>
						<path d="M210.28,501.35c-1.84,0-3.28-3.36-3.28-7.65c0-4.29,1.44-7.65,3.28-7.65s3.28,3.36,3.28,7.65
							C213.55,497.99,212.11,501.35,210.28,501.35z M210.28,486.45c-1.56,0-2.88,3.32-2.88,7.25c0,3.93,1.32,7.25,2.88,7.25
							s2.88-3.32,2.88-7.25C213.16,489.77,211.84,486.45,210.28,486.45z"/>
					</g>
				</g>
			</g>
			<g>
				<g>
					<ellipse class="st8" cx="209.78" cy="493.61" rx="0.98" ry="3.03"/>
				</g>
			</g>
			<g>
				<g>
					<ellipse class="st8" cx="218.74" cy="492.64" rx="1.86" ry="2.28"/>
				</g>
			</g>
			<g>
				<g>
					<ellipse class="st8" cx="225.97" cy="492.52" rx="1.86" ry="2.28"/>
				</g>
			</g>
			<g>
				<g>
					<path class="st8" d="M217.75,495.47c-1.64,0-2.97-1.33-2.97-2.97c0-1.64,1.33-2.97,2.97-2.97c1.64,0,2.97,1.33,2.97,2.97
						C220.72,494.14,219.39,495.47,217.75,495.47z M217.75,489.93c-1.42,0-2.57,1.15-2.57,2.57c0,1.42,1.15,2.57,2.57,2.57
						c1.42,0,2.57-1.15,2.57-2.57C220.32,491.08,219.17,489.93,217.75,489.93z"/>
				</g>
			</g>
			<g>
				<g>
					<path class="st8" d="M225.02,495.47c-1.64,0-2.97-1.33-2.97-2.97c0-1.64,1.33-2.97,2.97-2.97c1.64,0,2.97,1.33,2.97,2.97
						C227.99,494.14,226.65,495.47,225.02,495.47z M225.02,489.93c-1.42,0-2.57,1.15-2.57,2.57c0,1.42,1.15,2.57,2.57,2.57
						c1.42,0,2.57-1.15,2.57-2.57C227.59,491.08,226.43,489.93,225.02,489.93z"/>
				</g>
			</g>
		</g>
	</g>
</g>
<g id="Mapa_PB">
</g>
<g id="Mapa_1P">
</g>
<g id="MapaEP">
</g>
<g id="Mapa_2P">
</g>
<g id="Mapa_3P">
</g>
<g id="Bordes">
	<g>
		<path class="st14" d="M343,649c0,8.8-7.2,16-16,16H17c-8.8,0-16-7.2-16-16V17.5c0-8.8,7.2-16,16-16h310c8.8,0,16,7.2,16,16V649z"
			/>
	</g>
</g>
<g id="Layer_8" class="st15">
</g>
</svg>
