<?xml version="1.0" encoding="utf-8"?>
<!-- Generator: Adobe Illustrator 24.3.0, SVG Export Plug-In . SVG Version: 6.00 Build 0)  -->
<svg version="1.1" xmlns="http://www.w3.org/2000/svg" xmlns:xlink="http://www.w3.org/1999/xlink" x="0px" y="0px"
	 viewBox="0 0 344 668" style="enable-background:new 0 0 344 668;" xml:space="preserve">
<style type="text/css">
	.st0{fill:#231F20;}
	.st1{fill:#FFFFFF;}
	.st2{fill:none;stroke:#231F20;stroke-miterlimit:10;}
	.st3{fill:#FF7B55;}
	.st4{fill:#FFBDAA;}
	.st5{fill:#00C6AE;}
	.st6{fill:#FFBD12;}
	.st7{fill:#C3D5FC;}
	.st8{fill:#1D1D1B;}
	.st9{fill:#D7F9F2;}
	.st10{fill:#8490FF;}
	.st11{fill:#FFFFFF;stroke:#1D1D1B;stroke-width:2;stroke-linecap:round;stroke-miterlimit:10;}
	.st12{fill:#FFB5D4;}
	.st13{fill:#FFEEFE;}
	.st14{fill:none;stroke:#231F20;stroke-width:2;stroke-miterlimit:10;}
	.st15{display:none;}
	.st16{display:inline;fill:none;stroke:#231F20;stroke-miterlimit:10;}
</style>
<g id="Mapa_SS">
</g>
<g id="Mapa_PB">
</g>
<g id="Mapa_1P">
	<g>
		<g>
			<g>
				<path class="st0" d="M343,651c0,8.8-7.2,16-16,16H17c-8.8,0-16-7.2-16-16V19.5c0-8.8,7.2-16,16-16h310c8.8,0,16,7.2,16,16V651z"
					/>
			</g>
			<g>
				<path class="st0" d="M327,668H17c-9.37,0-17-7.63-17-17V19.5c0-9.37,7.63-17,17-17h310c9.37,0,17,7.63,17,17V651
					C344,660.37,336.37,668,327,668z M17,4.5c-8.27,0-15,6.73-15,15V651c0,8.27,6.73,15,15,15h310c8.27,0,15-6.73,15-15V19.5
					c0-8.27-6.73-15-15-15H17z"/>
			</g>
		</g>
		<g>
			<g>
				<path class="st1" d="M343,649c0,8.8-7.2,16-16,16H17c-8.8,0-16-7.2-16-16V17.5c0-8.8,7.2-16,16-16h310c8.8,0,16,7.2,16,16V649z"
					/>
			</g>
			<g>
				<path class="st0" d="M327,666H17c-9.37,0-17-7.63-17-17V17.5c0-9.37,7.63-17,17-17h310c9.37,0,17,7.63,17,17V649
					C344,658.37,336.37,666,327,666z M17,2.5c-8.27,0-15,6.73-15,15V649c0,8.27,6.73,15,15,15h310c8.27,0,15-6.73,15-15V17.5
					c0-8.27-6.73-15-15-15H17z"/>
			</g>
		</g>
	</g>
	<g>
		<path class="st6" d="M163,252v-9c0-4.97,4.03-9,9-9h0c4.97,0,9,4.03,9,9v9"/>
		<path class="st0" d="M181.5,252h-1v-9c0-4.69-3.81-8.5-8.5-8.5c-4.69,0-8.5,3.81-8.5,8.5v9h-1v-9c0-5.24,4.26-9.5,9.5-9.5
			s9.5,4.26,9.5,9.5V252z"/>
	</g>
	<g>
		<path class="st0" d="M191,92.3h-39c-4.69,0-8.5-3.81-8.5-8.5V73.3H91v-1h53.5v11.5c0,4.14,3.36,7.5,7.5,7.5h39
			c4.14,0,7.5-3.36,7.5-7.5V72.3H252v1h-52.5v10.5C199.5,88.49,195.69,92.3,191,92.3z"/>
	</g>
	<g>
		<path class="st3" d="M252,90V1h74c8.84,0,16,7.16,16,16v73H252z"/>
		<path class="st0" d="M342.5,90.5h-91v-90H326c9.1,0,16.5,7.4,16.5,16.5V90.5z M252.5,89.5h89V17c0-8.55-6.95-15.5-15.5-15.5h-73.5
			V89.5z"/>
	</g>
	<g>
		<path class="st0" d="M191,91.5h-39c-4.69,0-8.5-3.81-8.5-8.5V72.5h-53v-72h162v72h-53V83C199.5,87.69,195.69,91.5,191,91.5z
			 M91.5,71.5h53V83c0,4.14,3.36,7.5,7.5,7.5h39c4.14,0,7.5-3.36,7.5-7.5V71.5h53v-70h-160V71.5z"/>
	</g>
	<g>
		<path class="st4" d="M252,576h90v73c0,8.84-7.16,16-16,16h-74V576z"/>
		<path class="st0" d="M326,665.5h-74.5v-90h91V649C342.5,658.1,335.1,665.5,326,665.5z M252.5,664.5H326
			c8.55,0,15.5-6.95,15.5-15.5v-72.5h-89V664.5z"/>
	</g>
	<g>
		<path class="st4" d="M91,576v89H17c-8.84,0-16-7.16-16-16v-73H91z"/>
		<path class="st0" d="M91.5,665.5H17c-9.1,0-16.5-7.4-16.5-16.5v-73.5h91V665.5z M1.5,576.5V649c0,8.55,6.95,15.5,15.5,15.5h73.5
			v-88H1.5z"/>
	</g>
	<g>
		<path class="st3" d="M252,594v71H91v-71h53v-11c0-4.42,3.58-8,8-8h39c4.42,0,8,3.58,8,8v11H252z"/>
		<path class="st0" d="M252.5,665.5h-162v-72h53V583c0-4.69,3.81-8.5,8.5-8.5h39c4.69,0,8.5,3.81,8.5,8.5v10.5h53V665.5z
			 M91.5,664.5h160v-70h-53V583c0-4.14-3.36-7.5-7.5-7.5h-39c-4.14,0-7.5,3.36-7.5,7.5v11.5h-53V664.5z"/>
	</g>
	<g>
		<path class="st0" d="M91.5,144.5h-91v-55h91V144.5z M1.5,143.5h89v-53h-89V143.5z"/>
	</g>
	<g>
		<rect x="1" y="144" class="st4" width="90" height="54"/>
		<path class="st0" d="M91.5,198.5h-91v-55h91V198.5z M1.5,197.5h89v-53h-89V197.5z"/>
	</g>
	<g>
		<rect x="1" y="198" class="st4" width="90" height="54"/>
		<path class="st0" d="M91.5,252.5h-91v-55h91V252.5z M1.5,251.5h89v-53h-89V251.5z"/>
	</g>
	<g>
		<path class="st0" d="M342.5,144.5h-91v-55h91V144.5z M252.5,143.5h89v-53h-89V143.5z"/>
	</g>
	<g>
		<path class="st0" d="M342.5,198.5h-91v-55h91V198.5z M252.5,197.5h89v-53h-89V197.5z"/>
	</g>
	<g>
		<rect x="252" y="198" class="st4" width="90" height="54"/>
		<path class="st0" d="M342.5,252.5h-91v-55h91V252.5z M252.5,251.5h89v-53h-89V251.5z"/>
	</g>
	<g>
		<rect x="1" y="252" class="st3" width="90" height="54"/>
		<path class="st0" d="M91.5,306.5h-91v-55h91V306.5z M1.5,305.5h89v-53h-89V305.5z"/>
	</g>
	<g>
		<path class="st0" d="M91.5,360.5h-91v-55h91V360.5z M1.5,359.5h89v-53h-89V359.5z"/>
	</g>
	<g>
		<rect x="1" y="360" class="st3" width="90" height="54"/>
		<path class="st0" d="M91.5,414.5h-91v-55h91V414.5z M1.5,413.5h89v-53h-89V413.5z"/>
	</g>
	<g>
		<rect x="1" y="414" class="st3" width="90" height="54"/>
		<path class="st0" d="M91.5,468.5h-91v-55h91V468.5z M1.5,467.5h89v-53h-89V467.5z"/>
	</g>
	<g>
		<rect x="252" y="252" class="st3" width="90" height="54"/>
		<path class="st0" d="M342.5,306.5h-91v-55h91V306.5z M252.5,305.5h89v-53h-89V305.5z"/>
	</g>
	<g>
		<rect x="252" y="306" class="st4" width="90" height="54"/>
		<path class="st0" d="M342.5,360.5h-91v-55h91V360.5z M252.5,359.5h89v-53h-89V359.5z"/>
	</g>
	<g>
		<rect x="252" y="360" class="st4" width="90" height="54"/>
		<path class="st0" d="M342.5,414.5h-91v-55h91V414.5z M252.5,413.5h89v-53h-89V413.5z"/>
	</g>
	<g>
		<rect x="252" y="414" class="st3" width="90" height="54"/>
		<path class="st0" d="M342.5,468.5h-91v-55h91V468.5z M252.5,467.5h89v-53h-89V467.5z"/>
	</g>
	<g>
		<path class="st0" d="M91.5,522.5h-91v-55h91V522.5z M1.5,521.5h89v-53h-89V521.5z"/>
	</g>
	<g>
		<path class="st0" d="M91.5,576.5h-91v-55h91V576.5z M1.5,575.5h89v-53h-89V575.5z"/>
	</g>
	<g>
		<path class="st0" d="M342.5,522.5h-91v-55h91V522.5z M252.5,521.5h89v-53h-89V521.5z"/>
	</g>
	<g>
		<path class="st0" d="M342.5,576.5h-91v-55h91V576.5z M252.5,575.5h89v-53h-89V575.5z"/>
	</g>
	<g>
		<path class="st0" d="M91.5,90.5h-91V17C0.5,7.9,7.9,0.5,17,0.5h74.5V90.5z M1.5,89.5h89v-88H17C8.45,1.5,1.5,8.45,1.5,17V89.5z"/>
	</g>
	<g>
		<g>
			<g>
				<path d="M226.5,217.5h-110c-4.42,0-8-3.58-8-8v-92c0-4.42,3.58-8,8-8h110c4.42,0,8,3.58,8,8v92
					C234.5,213.92,230.92,217.5,226.5,217.5z"/>
			</g>
			<g>
				<path d="M226.5,218h-110c-4.69,0-8.5-3.81-8.5-8.5v-92c0-4.69,3.81-8.5,8.5-8.5h110c4.69,0,8.5,3.81,8.5,8.5v92
					C235,214.19,231.19,218,226.5,218z M116.5,110c-4.14,0-7.5,3.36-7.5,7.5v92c0,4.14,3.36,7.5,7.5,7.5h110
					c4.14,0,7.5-3.36,7.5-7.5v-92c0-4.14-3.36-7.5-7.5-7.5H116.5z"/>
			</g>
		</g>
		<g>
			<g>
				<path class="st1" d="M226.5,216.5h-110c-4.42,0-8-3.58-8-8v-92c0-4.42,3.58-8,8-8h110c4.42,0,8,3.58,8,8v92
					C234.5,212.92,230.92,216.5,226.5,216.5z"/>
			</g>
			<g>
				<path class="st0" d="M226.5,217h-110c-4.69,0-8.5-3.81-8.5-8.5v-92c0-4.69,3.81-8.5,8.5-8.5h110c4.69,0,8.5,3.81,8.5,8.5v92
					C235,213.19,231.19,217,226.5,217z M116.5,109c-4.14,0-7.5,3.36-7.5,7.5v92c0,4.14,3.36,7.5,7.5,7.5h110
					c4.14,0,7.5-3.36,7.5-7.5v-92c0-4.14-3.36-7.5-7.5-7.5H116.5z"/>
			</g>
		</g>
	</g>
	<g>
		<g>
			<g>
				<path d="M227,559H117c-4.42,0-8-3.58-8-8v-92c0-4.42,3.58-8,8-8h110c4.42,0,8,3.58,8,8v92C235,555.42,231.42,559,227,559z"/>
			</g>
			<g>
				<path d="M227,559.5H117c-4.69,0-8.5-3.81-8.5-8.5v-92c0-4.69,3.81-8.5,8.5-8.5h110c4.69,0,8.5,3.81,8.5,8.5v92
					C235.5,555.69,231.69,559.5,227,559.5z M117,451.5c-4.14,0-7.5,3.36-7.5,7.5v92c0,4.14,3.36,7.5,7.5,7.5h110
					c4.14,0,7.5-3.36,7.5-7.5v-92c0-4.14-3.36-7.5-7.5-7.5H117z"/>
			</g>
		</g>
		<g>
			<g>
				<path class="st1" d="M227,558H117c-4.42,0-8-3.58-8-8v-92c0-4.42,3.58-8,8-8h110c4.42,0,8,3.58,8,8v92
					C235,554.42,231.42,558,227,558z"/>
			</g>
			<g>
				<path class="st0" d="M227,558.5H117c-4.69,0-8.5-3.81-8.5-8.5v-92c0-4.69,3.81-8.5,8.5-8.5h110c4.69,0,8.5,3.81,8.5,8.5v92
					C235.5,554.69,231.69,558.5,227,558.5z M117,450.5c-4.14,0-7.5,3.36-7.5,7.5v92c0,4.14,3.36,7.5,7.5,7.5h110
					c4.14,0,7.5-3.36,7.5-7.5v-92c0-4.14-3.36-7.5-7.5-7.5H117z"/>
			</g>
		</g>
	</g>
	<g>
		<g>
			<g>
				<path d="M235,261v146c0,4.42-3.58,8-8,8H117c-4.42,0-8-3.58-8-8V261c0-4.42,3.58-8,8-8h110C231.42,253,235,256.58,235,261z"/>
			</g>
			<g>
				<path d="M227,415.5H117c-4.69,0-8.5-3.81-8.5-8.5V261c0-4.69,3.81-8.5,8.5-8.5h110c4.69,0,8.5,3.81,8.5,8.5v146
					C235.5,411.69,231.69,415.5,227,415.5z M117,253.5c-4.14,0-7.5,3.36-7.5,7.5v146c0,4.14,3.36,7.5,7.5,7.5h110
					c4.14,0,7.5-3.36,7.5-7.5V261c0-4.14-3.36-7.5-7.5-7.5H117z"/>
			</g>
		</g>
		<g>
			<g>
				<path class="st1" d="M235,260v146c0,4.42-3.58,8-8,8H117c-4.42,0-8-3.58-8-8V260c0-4.42,3.58-8,8-8h110
					C231.42,252,235,255.58,235,260z"/>
			</g>
			<g>
				<path class="st0" d="M227,414.5H117c-4.69,0-8.5-3.81-8.5-8.5V260c0-4.69,3.81-8.5,8.5-8.5h110c4.69,0,8.5,3.81,8.5,8.5v146
					C235.5,410.69,231.69,414.5,227,414.5z M117,252.5c-4.14,0-7.5,3.36-7.5,7.5v146c0,4.14,3.36,7.5,7.5,7.5h110
					c4.14,0,7.5-3.36,7.5-7.5V260c0-4.14-3.36-7.5-7.5-7.5H117z"/>
			</g>
		</g>
	</g>
	<g>
		<path d="M41.44,40.46v9.8h-1.39v-8.58h-2.21v-1.22H41.44z"/>
		<path d="M46.62,40.46v9.8h-1.39v-8.58h-2.21v-1.22H46.62z"/>
		<path d="M51.8,40.46v9.8h-1.39v-8.58H48.2v-1.22H51.8z"/>
	</g>
	<g>
		<path d="M166.01,40.46v9.8h-1.39v-8.58h-2.21v-1.22H166.01z"/>
		<path d="M171.19,40.46v9.8h-1.39v-8.58h-2.21v-1.22H171.19z"/>
		<path d="M180.22,49.05v1.22h-7.04v-0.95l3.99-3.85c0.49-0.47,0.81-0.87,0.98-1.21c0.17-0.34,0.25-0.68,0.25-1.03
			c0-0.51-0.18-0.91-0.54-1.2s-0.88-0.43-1.55-0.43c-1.08,0-1.92,0.35-2.51,1.06l-0.95-0.83c0.38-0.47,0.88-0.83,1.51-1.09
			s1.31-0.39,2.08-0.39c1.03,0,1.84,0.24,2.45,0.73c0.61,0.49,0.91,1.16,0.91,2c0,0.52-0.11,1.02-0.34,1.48
			c-0.22,0.47-0.65,1-1.28,1.6l-3,2.88H180.22z"/>
	</g>
	<g>
		<path d="M292.03,40.46v9.8h-1.38v-8.58h-2.21v-1.22H292.03z"/>
		<path d="M297.21,40.46v9.8h-1.39v-8.58h-2.21v-1.22H297.21z"/>
		<path d="M305.3,45.47c0.5,0.5,0.76,1.14,0.76,1.91c0,0.56-0.14,1.07-0.42,1.52s-0.7,0.81-1.25,1.08c-0.56,0.27-1.23,0.4-2.04,0.4
			c-0.7,0-1.37-0.11-2.02-0.31c-0.64-0.21-1.17-0.5-1.58-0.88l0.64-1.11c0.34,0.32,0.76,0.57,1.29,0.76
			c0.52,0.19,1.08,0.29,1.67,0.29c0.73,0,1.29-0.15,1.7-0.46s0.61-0.73,0.61-1.27c0-0.54-0.2-0.96-0.6-1.26s-1.01-0.45-1.82-0.45
			h-0.79v-0.98l2.46-3.02h-4.72v-1.22h6.47v0.95l-2.56,3.16C304.06,44.67,304.79,44.97,305.3,45.47z"/>
	</g>
	<g>
		<path d="M291.35,112.46v9.8h-1.39v-8.58h-2.21v-1.22H291.35z"/>
		<path d="M296.53,112.46v9.8h-1.39v-8.58h-2.21v-1.22H296.53z"/>
		<path d="M307.2,119.86h-1.86v2.41h-1.36v-2.41h-5.45v-0.98l5.01-6.41h1.51l-4.8,6.19h3.77v-2.13h1.32v2.13h1.86V119.86z"/>
	</g>
	<g>
		<path d="M292.01,166.46v9.8h-1.38v-8.58h-2.21v-1.22H292.01z"/>
		<path d="M297.19,166.46v9.8h-1.39v-8.58h-2.21v-1.22H297.19z"/>
		<path d="M305.22,171.16c0.66,0.53,0.99,1.25,0.99,2.16c0,0.58-0.14,1.1-0.41,1.56c-0.28,0.46-0.69,0.83-1.25,1.09
			c-0.55,0.27-1.24,0.4-2.05,0.4c-0.69,0-1.36-0.11-2-0.31c-0.64-0.21-1.18-0.5-1.6-0.88l0.64-1.11c0.34,0.32,0.76,0.57,1.29,0.76
			c0.52,0.19,1.07,0.29,1.65,0.29c0.74,0,1.31-0.16,1.71-0.47s0.61-0.74,0.61-1.28c0-0.59-0.22-1.03-0.67-1.34
			c-0.45-0.3-1.21-0.45-2.3-0.45h-2.23l0.52-5.13h5.53v1.22h-4.35l-0.27,2.69h1.09C303.53,170.37,304.56,170.63,305.22,171.16z"/>
	</g>
	<g>
		<path d="M291.71,220.46v9.8h-1.39v-8.58h-2.21v-1.22H291.71z"/>
		<path d="M296.89,220.46v9.8h-1.39v-8.58h-2.21v-1.22H296.89z"/>
		<path d="M304.99,224.68c0.51,0.24,0.91,0.59,1.2,1.04c0.29,0.45,0.43,0.97,0.43,1.56c0,0.62-0.15,1.16-0.45,1.62
			c-0.3,0.47-0.72,0.83-1.25,1.08s-1.12,0.38-1.77,0.38c-1.32,0-2.33-0.42-3.04-1.27c-0.71-0.85-1.07-2.05-1.07-3.61
			c0-1.09,0.19-2.02,0.58-2.79s0.93-1.35,1.62-1.75s1.5-0.59,2.43-0.59c0.48,0,0.92,0.05,1.34,0.15s0.79,0.24,1.09,0.43l-0.53,1.09
			c-0.47-0.31-1.09-0.46-1.88-0.46c-1.02,0-1.82,0.32-2.39,0.95c-0.58,0.63-0.87,1.55-0.87,2.75c0,0.15,0.01,0.27,0.01,0.35
			c0.28-0.42,0.67-0.74,1.16-0.96c0.49-0.22,1.04-0.33,1.66-0.33C303.9,224.31,304.48,224.44,304.99,224.68z M304.66,228.72
			c0.4-0.34,0.6-0.81,0.6-1.38c0-0.58-0.2-1.04-0.61-1.38c-0.41-0.34-0.95-0.51-1.63-0.51c-0.44,0-0.83,0.08-1.17,0.25
			c-0.34,0.17-0.61,0.4-0.8,0.69c-0.19,0.29-0.29,0.61-0.29,0.97c0,0.35,0.09,0.66,0.27,0.95c0.18,0.28,0.45,0.51,0.8,0.69
			c0.35,0.17,0.77,0.26,1.25,0.26C303.74,229.24,304.26,229.07,304.66,228.72z"/>
	</g>
	<g>
		<path d="M291.84,274.46v9.8h-1.38v-8.58h-2.21v-1.22H291.84z"/>
		<path d="M297.02,274.46v9.8h-1.39v-8.58h-2.21v-1.22H297.02z"/>
		<path d="M306.31,274.46v0.95l-3.96,8.85h-1.48l3.88-8.58h-4.48v1.75h-1.34v-2.97H306.31z"/>
	</g>
	<g>
		<path d="M291.52,328.46v9.8h-1.38v-8.58h-2.21v-1.22H291.52z"/>
		<path d="M296.7,328.46v9.8h-1.39v-8.58h-2.21v-1.22H296.7z"/>
		<path d="M306.12,334.05c0.3,0.4,0.45,0.88,0.45,1.44c0,0.59-0.16,1.1-0.48,1.53c-0.32,0.43-0.77,0.77-1.36,1s-1.28,0.35-2.07,0.35
			c-0.78,0-1.47-0.12-2.05-0.35c-0.58-0.23-1.03-0.57-1.35-1c-0.32-0.43-0.48-0.95-0.48-1.53c0-0.56,0.15-1.04,0.44-1.44
			c0.29-0.4,0.72-0.71,1.28-0.92c-0.45-0.21-0.79-0.5-1.02-0.85c-0.23-0.36-0.35-0.78-0.35-1.26c0-0.54,0.15-1.01,0.44-1.41
			c0.29-0.4,0.71-0.71,1.24-0.92c0.53-0.21,1.15-0.32,1.85-0.32c0.71,0,1.33,0.11,1.87,0.32c0.54,0.21,0.95,0.52,1.25,0.92
			c0.29,0.4,0.44,0.87,0.44,1.41c0,0.48-0.12,0.89-0.36,1.25s-0.58,0.65-1.03,0.86C305.4,333.34,305.83,333.65,306.12,334.05z
			 M304.5,336.76c0.45-0.32,0.67-0.76,0.67-1.31c0-0.54-0.22-0.97-0.67-1.28c-0.45-0.31-1.06-0.47-1.83-0.47
			c-0.78,0-1.38,0.16-1.82,0.47c-0.44,0.31-0.66,0.74-0.66,1.28c0,0.55,0.22,0.99,0.66,1.31c0.44,0.32,1.04,0.48,1.82,0.48
			C303.44,337.24,304.05,337.08,304.5,336.76z M301.1,329.91c-0.38,0.29-0.57,0.67-0.57,1.16s0.19,0.87,0.57,1.15
			c0.38,0.28,0.9,0.42,1.58,0.42c0.68,0,1.21-0.14,1.6-0.42c0.39-0.28,0.58-0.66,0.58-1.15s-0.2-0.87-0.59-1.16
			c-0.4-0.29-0.93-0.43-1.59-0.43C302,329.49,301.48,329.63,301.1,329.91z"/>
	</g>
	<g>
		<path d="M291.71,382.46v9.8h-1.39v-8.58h-2.21v-1.22H291.71z"/>
		<path d="M296.89,382.46v9.8h-1.39v-8.58h-2.21v-1.22H296.89z"/>
		<path d="M305.26,383.63c0.71,0.85,1.07,2.05,1.07,3.61c0,1.09-0.19,2.02-0.58,2.79s-0.93,1.35-1.62,1.75s-1.5,0.59-2.43,0.59
			c-0.48,0-0.92-0.05-1.34-0.15c-0.42-0.1-0.78-0.24-1.09-0.43l0.53-1.09c0.47,0.31,1.11,0.46,1.89,0.46c1.02,0,1.81-0.32,2.39-0.95
			c0.57-0.63,0.86-1.55,0.86-2.75v-0.35c-0.28,0.42-0.67,0.74-1.16,0.96c-0.49,0.22-1.05,0.33-1.67,0.33
			c-0.64,0-1.22-0.12-1.73-0.36c-0.51-0.24-0.91-0.59-1.19-1.04c-0.29-0.45-0.43-0.97-0.43-1.56c0-0.62,0.15-1.16,0.46-1.62
			c0.3-0.47,0.72-0.83,1.24-1.08s1.11-0.38,1.76-0.38C303.53,382.35,304.54,382.78,305.26,383.63z M303.51,387.03
			c0.35-0.17,0.61-0.4,0.81-0.69c0.19-0.29,0.29-0.61,0.29-0.97c0-0.35-0.09-0.66-0.27-0.95c-0.18-0.28-0.45-0.51-0.8-0.69
			c-0.35-0.17-0.77-0.26-1.27-0.26c-0.64,0-1.16,0.17-1.56,0.52c-0.4,0.34-0.59,0.81-0.59,1.38c0,0.58,0.2,1.04,0.6,1.38
			c0.4,0.34,0.94,0.51,1.62,0.51C302.78,387.28,303.17,387.2,303.51,387.03z"/>
	</g>
	<g>
		<path d="M289.95,436.46v9.8h-1.39v-8.58h-2.21v-1.22H289.95z"/>
		<path d="M298.98,445.05v1.22h-7.04v-0.95l3.99-3.85c0.49-0.47,0.81-0.87,0.98-1.21c0.17-0.34,0.25-0.68,0.25-1.03
			c0-0.51-0.18-0.91-0.54-1.2s-0.88-0.43-1.55-0.43c-1.08,0-1.92,0.35-2.51,1.06l-0.95-0.83c0.38-0.47,0.88-0.83,1.51-1.09
			s1.31-0.39,2.08-0.39c1.03,0,1.84,0.24,2.45,0.73c0.61,0.49,0.91,1.16,0.91,2c0,0.52-0.11,1.02-0.34,1.48
			c-0.22,0.47-0.65,1-1.28,1.6l-3,2.88H298.98z"/>
		<path d="M302.03,445.78c-0.6-0.4-1.08-0.97-1.42-1.73s-0.52-1.65-0.52-2.69s0.17-1.93,0.52-2.69c0.35-0.76,0.82-1.33,1.42-1.73
			s1.29-0.59,2.07-0.59c0.77,0,1.45,0.2,2.05,0.59s1.08,0.97,1.42,1.73c0.34,0.76,0.52,1.65,0.52,2.69s-0.17,1.93-0.52,2.69
			s-0.82,1.33-1.42,1.73s-1.29,0.59-2.05,0.59C303.32,446.38,302.63,446.18,302.03,445.78z M305.98,444.17
			c0.47-0.64,0.71-1.58,0.71-2.8s-0.24-2.16-0.71-2.8c-0.47-0.64-1.1-0.96-1.88-0.96c-0.79,0-1.43,0.32-1.9,0.96
			c-0.47,0.64-0.71,1.58-0.71,2.8s0.24,2.16,0.71,2.8s1.1,0.97,1.9,0.97C304.88,445.13,305.5,444.81,305.98,444.17z"/>
	</g>
	<g>
		<path d="M292.01,490.46v9.8h-1.38v-8.58h-2.21v-1.22H292.01z"/>
		<path d="M301.04,499.05v1.22H294v-0.95l3.99-3.85c0.49-0.47,0.81-0.87,0.98-1.21c0.17-0.34,0.25-0.68,0.25-1.03
			c0-0.51-0.18-0.91-0.54-1.2s-0.88-0.43-1.55-0.43c-1.08,0-1.92,0.35-2.51,1.06l-0.95-0.83c0.38-0.47,0.88-0.83,1.51-1.09
			s1.31-0.39,2.08-0.39c1.03,0,1.84,0.24,2.45,0.73c0.61,0.49,0.91,1.16,0.91,2c0,0.52-0.11,1.02-0.34,1.48
			c-0.22,0.47-0.65,1-1.28,1.6l-3,2.88H301.04z"/>
		<path d="M305.23,490.46v9.8h-1.39v-8.58h-2.21v-1.22H305.23z"/>
	</g>
	<g>
		<path d="M290.58,544.46v9.8h-1.39v-8.58h-2.21v-1.22H290.58z"/>
		<path d="M299.61,553.05v1.22h-7.04v-0.95l3.99-3.85c0.49-0.47,0.81-0.87,0.98-1.21c0.17-0.34,0.25-0.68,0.25-1.03
			c0-0.51-0.18-0.91-0.54-1.2c-0.36-0.28-0.88-0.43-1.55-0.43c-1.08,0-1.92,0.35-2.51,1.06l-0.95-0.83c0.38-0.47,0.88-0.83,1.5-1.09
			c0.62-0.26,1.31-0.39,2.08-0.39c1.03,0,1.84,0.24,2.45,0.73c0.61,0.49,0.91,1.16,0.91,2c0,0.52-0.11,1.02-0.34,1.48
			c-0.22,0.47-0.65,1-1.27,1.6l-3,2.88H299.61z"/>
		<path d="M307.65,553.05v1.22h-7.04v-0.95l3.99-3.85c0.48-0.47,0.81-0.87,0.98-1.21c0.17-0.34,0.25-0.68,0.25-1.03
			c0-0.51-0.18-0.91-0.54-1.2c-0.36-0.28-0.88-0.43-1.55-0.43c-1.08,0-1.92,0.35-2.51,1.06l-0.95-0.83
			c0.38-0.47,0.88-0.83,1.51-1.09c0.62-0.26,1.31-0.39,2.08-0.39c1.03,0,1.84,0.24,2.45,0.73s0.91,1.16,0.91,2
			c0,0.52-0.11,1.02-0.34,1.48c-0.22,0.47-0.65,1-1.27,1.6l-3,2.88H307.65z"/>
	</g>
	<g>
		<path d="M290.6,616.46v9.8h-1.38v-8.58H287v-1.22H290.6z"/>
		<path d="M299.63,625.05v1.22h-7.04v-0.95l3.99-3.85c0.49-0.47,0.81-0.87,0.98-1.21c0.17-0.34,0.25-0.68,0.25-1.03
			c0-0.51-0.18-0.91-0.54-1.2s-0.88-0.43-1.55-0.43c-1.08,0-1.92,0.35-2.51,1.06l-0.95-0.83c0.38-0.47,0.88-0.83,1.51-1.09
			s1.31-0.39,2.08-0.39c1.03,0,1.84,0.24,2.45,0.73c0.61,0.49,0.91,1.16,0.91,2c0,0.52-0.11,1.02-0.34,1.48
			c-0.22,0.47-0.65,1-1.28,1.6l-3,2.88H299.63z"/>
		<path d="M306.73,621.47c0.5,0.5,0.76,1.14,0.76,1.91c0,0.56-0.14,1.07-0.42,1.52c-0.28,0.45-0.7,0.81-1.25,1.08
			c-0.55,0.27-1.23,0.4-2.04,0.4c-0.7,0-1.37-0.11-2.02-0.31c-0.64-0.21-1.17-0.5-1.58-0.88l0.64-1.11
			c0.34,0.32,0.76,0.57,1.29,0.76c0.52,0.19,1.08,0.29,1.67,0.29c0.73,0,1.29-0.15,1.7-0.46s0.61-0.73,0.61-1.27
			c0-0.54-0.2-0.96-0.6-1.26c-0.4-0.3-1.01-0.45-1.82-0.45h-0.78v-0.98l2.46-3.02h-4.72v-1.22h6.47v0.95l-2.56,3.16
			C305.49,620.67,306.22,620.97,306.73,621.47z"/>
	</g>
	<g>
		<path d="M164.05,616.46v9.8h-1.39v-8.58h-2.21v-1.22H164.05z"/>
		<path d="M173.08,625.05v1.22h-7.04v-0.95l3.99-3.85c0.49-0.47,0.81-0.87,0.98-1.21c0.17-0.34,0.25-0.68,0.25-1.03
			c0-0.51-0.18-0.91-0.54-1.2c-0.36-0.28-0.88-0.43-1.55-0.43c-1.08,0-1.92,0.35-2.51,1.06l-0.95-0.83
			c0.38-0.47,0.88-0.83,1.51-1.09c0.62-0.26,1.31-0.39,2.08-0.39c1.03,0,1.84,0.24,2.45,0.73c0.61,0.49,0.91,1.16,0.91,2
			c0,0.52-0.11,1.02-0.34,1.48c-0.22,0.47-0.65,1-1.27,1.6l-3,2.88H173.08z"/>
		<path d="M182.49,623.86h-1.86v2.41h-1.36v-2.41h-5.45v-0.98l5.01-6.41h1.51l-4.8,6.19h3.77v-2.13h1.32v2.13h1.86V623.86z"/>
	</g>
	<g>
		<path d="M164.58,166.46v9.8h-1.39v-8.58h-2.21v-1.22H164.58z"/>
		<path d="M173.61,175.05v1.22h-7.04v-0.95l3.99-3.85c0.49-0.47,0.81-0.87,0.98-1.21c0.17-0.34,0.25-0.68,0.25-1.03
			c0-0.51-0.18-0.91-0.54-1.2c-0.36-0.28-0.88-0.43-1.55-0.43c-1.08,0-1.92,0.35-2.51,1.06l-0.95-0.83
			c0.38-0.47,0.88-0.83,1.51-1.09c0.62-0.26,1.31-0.39,2.08-0.39c1.03,0,1.84,0.24,2.45,0.73c0.61,0.49,0.91,1.16,0.91,2
			c0,0.52-0.11,1.02-0.34,1.48c-0.22,0.47-0.65,1-1.27,1.6l-3,2.88H173.61z"/>
		<path d="M180.65,171.16c0.66,0.53,0.99,1.25,0.99,2.16c0,0.58-0.14,1.1-0.41,1.56c-0.28,0.46-0.69,0.83-1.25,1.09
			c-0.56,0.27-1.24,0.4-2.05,0.4c-0.69,0-1.36-0.11-2-0.31c-0.64-0.21-1.18-0.5-1.6-0.88l0.64-1.11c0.34,0.32,0.77,0.57,1.29,0.76
			c0.52,0.19,1.07,0.29,1.65,0.29c0.74,0,1.31-0.16,1.72-0.47c0.41-0.31,0.61-0.74,0.61-1.28c0-0.59-0.22-1.03-0.67-1.34
			s-1.21-0.45-2.3-0.45h-2.23l0.52-5.13h5.53v1.22h-4.35l-0.27,2.69h1.09C178.96,170.37,179.99,170.63,180.65,171.16z"/>
	</g>
	<g>
		<path d="M39.38,616.46v9.8H38v-8.58h-2.21v-1.22H39.38z"/>
		<path d="M43.46,625.78c-0.6-0.4-1.08-0.97-1.42-1.73s-0.52-1.65-0.52-2.69s0.17-1.93,0.52-2.69c0.35-0.76,0.82-1.33,1.42-1.73
			s1.29-0.59,2.06-0.59c0.77,0,1.45,0.2,2.05,0.59s1.08,0.97,1.42,1.73c0.35,0.76,0.52,1.65,0.52,2.69s-0.17,1.93-0.52,2.69
			s-0.82,1.33-1.42,1.73s-1.29,0.59-2.05,0.59C44.75,626.38,44.06,626.18,43.46,625.78z M47.41,624.17c0.47-0.64,0.71-1.58,0.71-2.8
			s-0.24-2.16-0.71-2.8c-0.47-0.64-1.1-0.96-1.88-0.96c-0.79,0-1.43,0.32-1.9,0.96c-0.47,0.64-0.71,1.58-0.71,2.8
			s0.24,2.16,0.71,2.8s1.1,0.97,1.9,0.97C46.31,625.13,46.94,624.81,47.41,624.17z"/>
		<path d="M53.86,616.46v9.8h-1.39v-8.58h-2.21v-1.22H53.86z"/>
	</g>
	<g>
		<path d="M37.95,544.46v9.8h-1.39v-8.58h-2.21v-1.22H37.95z"/>
		<path d="M42.03,553.78c-0.6-0.4-1.08-0.97-1.42-1.73s-0.52-1.65-0.52-2.69s0.17-1.93,0.52-2.69c0.35-0.76,0.82-1.33,1.42-1.73
			s1.29-0.59,2.06-0.59c0.77,0,1.45,0.2,2.05,0.59s1.08,0.97,1.42,1.73c0.35,0.76,0.52,1.65,0.52,2.69s-0.17,1.93-0.52,2.69
			s-0.82,1.33-1.42,1.73s-1.29,0.59-2.05,0.59C43.33,554.38,42.64,554.18,42.03,553.78z M45.98,552.17c0.47-0.64,0.71-1.58,0.71-2.8
			s-0.24-2.16-0.71-2.8c-0.47-0.64-1.1-0.96-1.88-0.96c-0.79,0-1.43,0.32-1.9,0.96c-0.47,0.64-0.71,1.58-0.71,2.8
			s0.24,2.16,0.71,2.8s1.1,0.97,1.9,0.97C44.88,553.13,45.51,552.81,45.98,552.17z"/>
		<path d="M56.28,553.05v1.22h-7.04v-0.95l3.99-3.85c0.49-0.47,0.81-0.87,0.98-1.21c0.17-0.34,0.25-0.68,0.25-1.03
			c0-0.51-0.18-0.91-0.54-1.2c-0.36-0.28-0.88-0.43-1.55-0.43c-1.08,0-1.92,0.35-2.51,1.06l-0.95-0.83
			c0.38-0.47,0.88-0.83,1.51-1.09c0.62-0.26,1.31-0.39,2.08-0.39c1.03,0,1.84,0.24,2.45,0.73c0.61,0.49,0.91,1.16,0.91,2
			c0,0.52-0.11,1.02-0.34,1.48c-0.22,0.47-0.65,1-1.27,1.6l-3,2.88H56.28z"/>
	</g>
	<g>
		<path d="M38.02,490.46v9.8h-1.39v-8.58h-2.21v-1.22H38.02z"/>
		<path d="M42.1,499.78c-0.6-0.4-1.08-0.97-1.42-1.73s-0.52-1.65-0.52-2.69s0.17-1.93,0.52-2.69c0.35-0.76,0.82-1.33,1.42-1.73
			s1.29-0.59,2.06-0.59c0.77,0,1.45,0.2,2.05,0.59s1.08,0.97,1.42,1.73c0.35,0.76,0.52,1.65,0.52,2.69s-0.17,1.93-0.52,2.69
			s-0.82,1.33-1.42,1.73s-1.29,0.59-2.05,0.59C43.39,500.38,42.7,500.18,42.1,499.78z M46.05,498.17c0.47-0.64,0.71-1.58,0.71-2.8
			s-0.24-2.16-0.71-2.8c-0.47-0.64-1.1-0.96-1.88-0.96c-0.79,0-1.43,0.32-1.9,0.96c-0.47,0.64-0.71,1.58-0.71,2.8
			s0.24,2.16,0.71,2.8s1.1,0.97,1.9,0.97C44.95,499.13,45.57,498.81,46.05,498.17z"/>
		<path d="M55.31,495.47c0.5,0.5,0.76,1.14,0.76,1.91c0,0.56-0.14,1.07-0.42,1.52s-0.7,0.81-1.25,1.08c-0.56,0.27-1.23,0.4-2.04,0.4
			c-0.7,0-1.37-0.11-2.02-0.31c-0.64-0.21-1.17-0.5-1.58-0.88l0.64-1.11c0.34,0.32,0.77,0.57,1.29,0.76
			c0.52,0.19,1.08,0.29,1.67,0.29c0.73,0,1.29-0.15,1.7-0.46c0.41-0.31,0.61-0.73,0.61-1.27c0-0.54-0.2-0.96-0.6-1.26
			s-1.01-0.45-1.82-0.45h-0.78v-0.98l2.46-3.02H49.2v-1.22h6.47v0.95l-2.56,3.16C54.07,494.67,54.8,494.97,55.31,495.47z"/>
	</g>
	<g>
		<path d="M37.27,436.46v9.8h-1.39v-8.58h-2.21v-1.22H37.27z"/>
		<path d="M41.35,445.78c-0.6-0.4-1.08-0.97-1.42-1.73s-0.52-1.65-0.52-2.69s0.17-1.93,0.52-2.69c0.35-0.76,0.82-1.33,1.42-1.73
			s1.29-0.59,2.06-0.59c0.77,0,1.45,0.2,2.05,0.59s1.08,0.97,1.42,1.73c0.35,0.76,0.52,1.65,0.52,2.69s-0.17,1.93-0.52,2.69
			s-0.82,1.33-1.42,1.73s-1.29,0.59-2.05,0.59C42.64,446.38,41.95,446.18,41.35,445.78z M45.3,444.17c0.47-0.64,0.71-1.58,0.71-2.8
			s-0.24-2.16-0.71-2.8c-0.47-0.64-1.1-0.96-1.88-0.96c-0.79,0-1.43,0.32-1.9,0.96c-0.47,0.64-0.71,1.58-0.71,2.8
			s0.24,2.16,0.71,2.8s1.1,0.97,1.9,0.97C44.2,445.13,44.83,444.81,45.3,444.17z"/>
		<path d="M57.27,443.86h-1.86v2.41h-1.36v-2.41h-5.45v-0.98l5.01-6.41h1.51l-4.8,6.19h3.77v-2.13h1.32v2.13h1.86V443.86z"/>
	</g>
	<g>
		<path d="M37.93,382.46v9.8h-1.39v-8.58h-2.21v-1.22H37.93z"/>
		<path d="M42.01,391.78c-0.6-0.4-1.08-0.97-1.42-1.73s-0.52-1.65-0.52-2.69s0.17-1.93,0.52-2.69c0.35-0.76,0.82-1.33,1.42-1.73
			s1.29-0.59,2.06-0.59c0.77,0,1.45,0.2,2.05,0.59s1.08,0.97,1.42,1.73c0.35,0.76,0.52,1.65,0.52,2.69s-0.17,1.93-0.52,2.69
			s-0.82,1.33-1.42,1.73s-1.29,0.59-2.05,0.59C43.3,392.38,42.62,392.18,42.01,391.78z M45.96,390.17c0.47-0.64,0.71-1.58,0.71-2.8
			s-0.24-2.16-0.71-2.8c-0.47-0.64-1.1-0.96-1.88-0.96c-0.79,0-1.43,0.32-1.9,0.96c-0.47,0.64-0.71,1.58-0.71,2.8
			s0.24,2.16,0.71,2.8s1.1,0.97,1.9,0.97C44.86,391.13,45.49,390.81,45.96,390.17z"/>
		<path d="M55.3,387.16c0.66,0.53,0.99,1.25,0.99,2.16c0,0.58-0.14,1.1-0.41,1.56c-0.28,0.46-0.69,0.83-1.25,1.09
			c-0.56,0.27-1.24,0.4-2.05,0.4c-0.69,0-1.36-0.11-2-0.31c-0.64-0.21-1.18-0.5-1.6-0.88l0.64-1.11c0.34,0.32,0.77,0.57,1.29,0.76
			c0.52,0.19,1.07,0.29,1.65,0.29c0.74,0,1.31-0.16,1.72-0.47c0.41-0.31,0.61-0.74,0.61-1.28c0-0.59-0.22-1.03-0.67-1.34
			c-0.45-0.3-1.21-0.45-2.3-0.45h-2.23l0.52-5.13h5.53v1.22h-4.35l-0.27,2.69h1.09C53.61,386.37,54.64,386.63,55.3,387.16z"/>
	</g>
	<g>
		<path d="M37.63,328.46v9.8h-1.39v-8.58h-2.21v-1.22H37.63z"/>
		<path d="M41.71,337.78c-0.6-0.4-1.08-0.97-1.42-1.73s-0.52-1.65-0.52-2.69s0.17-1.93,0.52-2.69c0.35-0.76,0.82-1.33,1.42-1.73
			s1.29-0.59,2.06-0.59c0.77,0,1.45,0.2,2.05,0.59s1.08,0.97,1.42,1.73c0.35,0.76,0.52,1.65,0.52,2.69s-0.17,1.93-0.52,2.69
			s-0.82,1.33-1.42,1.73s-1.29,0.59-2.05,0.59C43,338.38,42.32,338.18,41.71,337.78z M45.66,336.17c0.47-0.64,0.71-1.58,0.71-2.8
			s-0.24-2.16-0.71-2.8c-0.47-0.64-1.1-0.96-1.88-0.96c-0.79,0-1.43,0.32-1.9,0.96c-0.47,0.64-0.71,1.58-0.71,2.8
			s0.24,2.16,0.71,2.8s1.1,0.97,1.9,0.97C44.56,337.13,45.19,336.81,45.66,336.17z"/>
		<path d="M55.07,332.68c0.51,0.24,0.91,0.59,1.2,1.04c0.29,0.45,0.43,0.97,0.43,1.56c0,0.62-0.15,1.16-0.45,1.62
			c-0.3,0.47-0.72,0.83-1.25,1.08s-1.12,0.38-1.77,0.38c-1.32,0-2.33-0.42-3.04-1.27c-0.71-0.85-1.07-2.05-1.07-3.61
			c0-1.09,0.19-2.02,0.58-2.79s0.93-1.35,1.62-1.75s1.5-0.59,2.43-0.59c0.48,0,0.92,0.05,1.34,0.15s0.78,0.24,1.09,0.43l-0.53,1.09
			c-0.47-0.31-1.09-0.46-1.88-0.46c-1.02,0-1.82,0.32-2.39,0.95c-0.58,0.63-0.87,1.55-0.87,2.75c0,0.15,0,0.27,0.01,0.35
			c0.28-0.42,0.67-0.74,1.16-0.96c0.49-0.22,1.04-0.33,1.66-0.33C53.98,332.31,54.56,332.44,55.07,332.68z M54.74,336.72
			c0.4-0.34,0.6-0.81,0.6-1.38c0-0.58-0.2-1.04-0.61-1.38c-0.41-0.34-0.95-0.51-1.63-0.51c-0.44,0-0.83,0.08-1.17,0.25
			c-0.34,0.17-0.61,0.4-0.8,0.69c-0.19,0.29-0.29,0.61-0.29,0.97c0,0.35,0.09,0.66,0.27,0.95c0.18,0.28,0.45,0.51,0.8,0.69
			c0.35,0.17,0.77,0.26,1.25,0.26C53.82,337.24,54.34,337.07,54.74,336.72z"/>
	</g>
	<g>
		<path d="M37.81,274.46v9.8h-1.39v-8.58h-2.21v-1.22H37.81z"/>
		<path d="M41.9,283.78c-0.6-0.4-1.08-0.97-1.42-1.73s-0.52-1.65-0.52-2.69s0.17-1.93,0.52-2.69c0.35-0.76,0.82-1.33,1.42-1.73
			s1.29-0.59,2.06-0.59c0.77,0,1.45,0.2,2.05,0.59s1.08,0.97,1.42,1.73c0.35,0.76,0.52,1.65,0.52,2.69s-0.17,1.93-0.52,2.69
			s-0.82,1.33-1.42,1.73s-1.29,0.59-2.05,0.59C43.19,284.38,42.5,284.18,41.9,283.78z M45.84,282.17c0.47-0.64,0.71-1.58,0.71-2.8
			s-0.24-2.16-0.71-2.8c-0.47-0.64-1.1-0.96-1.88-0.96c-0.79,0-1.43,0.32-1.9,0.96c-0.47,0.64-0.71,1.58-0.71,2.8
			s0.24,2.16,0.71,2.8s1.1,0.97,1.9,0.97C44.74,283.13,45.37,282.81,45.84,282.17z"/>
		<path d="M56.34,274.46v0.95l-3.96,8.85h-1.48l3.88-8.58h-4.48v1.75h-1.34v-2.97H56.34z"/>
	</g>
	<g>
		<path d="M37.44,220.46v9.8h-1.39v-8.58h-2.21v-1.22H37.44z"/>
		<path d="M41.52,229.78c-0.6-0.4-1.08-0.97-1.42-1.73s-0.52-1.65-0.52-2.69s0.17-1.93,0.52-2.69c0.35-0.76,0.82-1.33,1.42-1.73
			s1.29-0.59,2.06-0.59c0.77,0,1.45,0.2,2.05,0.59s1.08,0.97,1.42,1.73c0.35,0.76,0.52,1.65,0.52,2.69s-0.17,1.93-0.52,2.69
			s-0.82,1.33-1.42,1.73s-1.29,0.59-2.05,0.59C42.81,230.38,42.13,230.18,41.52,229.78z M45.47,228.17c0.47-0.64,0.71-1.58,0.71-2.8
			s-0.24-2.16-0.71-2.8c-0.47-0.64-1.1-0.96-1.88-0.96c-0.79,0-1.43,0.32-1.9,0.96c-0.47,0.64-0.71,1.58-0.71,2.8
			s0.24,2.16,0.71,2.8s1.1,0.97,1.9,0.97C44.37,229.13,45,228.81,45.47,228.17z"/>
		<path d="M56.2,226.05c0.3,0.4,0.45,0.88,0.45,1.44c0,0.59-0.16,1.1-0.48,1.53c-0.32,0.43-0.77,0.77-1.36,1s-1.28,0.35-2.07,0.35
			c-0.78,0-1.47-0.12-2.05-0.35s-1.03-0.57-1.35-1c-0.32-0.43-0.48-0.95-0.48-1.53c0-0.56,0.15-1.04,0.44-1.44
			c0.29-0.4,0.72-0.71,1.28-0.92c-0.45-0.21-0.79-0.5-1.02-0.85c-0.23-0.36-0.35-0.78-0.35-1.26c0-0.54,0.15-1.01,0.44-1.41
			c0.29-0.4,0.71-0.71,1.24-0.92s1.15-0.32,1.85-0.32c0.71,0,1.33,0.11,1.87,0.32s0.95,0.52,1.25,0.92c0.29,0.4,0.44,0.87,0.44,1.41
			c0,0.48-0.12,0.89-0.36,1.25c-0.24,0.36-0.58,0.65-1.03,0.86C55.48,225.34,55.9,225.65,56.2,226.05z M54.58,228.76
			c0.45-0.32,0.67-0.76,0.67-1.31c0-0.54-0.22-0.97-0.67-1.28c-0.45-0.31-1.06-0.47-1.83-0.47c-0.77,0-1.38,0.16-1.82,0.47
			c-0.44,0.31-0.66,0.74-0.66,1.28c0,0.55,0.22,0.99,0.66,1.31c0.44,0.32,1.05,0.48,1.82,0.48
			C53.52,229.24,54.13,229.08,54.58,228.76z M51.18,221.91c-0.38,0.29-0.57,0.67-0.57,1.16s0.19,0.87,0.57,1.15
			c0.38,0.28,0.9,0.42,1.58,0.42c0.68,0,1.22-0.14,1.6-0.42c0.39-0.28,0.58-0.66,0.58-1.15s-0.2-0.87-0.6-1.16
			c-0.4-0.29-0.93-0.43-1.59-0.43C52.08,221.49,51.56,221.63,51.18,221.91z"/>
	</g>
	<g>
		<path d="M37.63,166.46v9.8h-1.39v-8.58h-2.21v-1.22H37.63z"/>
		<path d="M41.71,175.78c-0.6-0.4-1.08-0.97-1.42-1.73s-0.52-1.65-0.52-2.69s0.17-1.93,0.52-2.69c0.35-0.76,0.82-1.33,1.42-1.73
			s1.29-0.59,2.06-0.59c0.77,0,1.45,0.2,2.05,0.59s1.08,0.97,1.42,1.73c0.35,0.76,0.52,1.65,0.52,2.69s-0.17,1.93-0.52,2.69
			s-0.82,1.33-1.42,1.73s-1.29,0.59-2.05,0.59C43,176.38,42.32,176.18,41.71,175.78z M45.66,174.17c0.47-0.64,0.71-1.58,0.71-2.8
			s-0.24-2.16-0.71-2.8c-0.47-0.64-1.1-0.96-1.88-0.96c-0.79,0-1.43,0.32-1.9,0.96c-0.47,0.64-0.71,1.58-0.71,2.8
			s0.24,2.16,0.71,2.8s1.1,0.97,1.9,0.97C44.56,175.13,45.19,174.81,45.66,174.17z"/>
		<path d="M55.34,167.63c0.71,0.85,1.07,2.05,1.07,3.61c0,1.09-0.19,2.02-0.58,2.79s-0.93,1.35-1.62,1.75
			c-0.7,0.4-1.51,0.59-2.43,0.59c-0.48,0-0.92-0.05-1.34-0.15c-0.42-0.1-0.78-0.24-1.09-0.43l0.53-1.09
			c0.48,0.31,1.11,0.46,1.89,0.46c1.02,0,1.81-0.32,2.39-0.95c0.57-0.63,0.86-1.55,0.86-2.75v-0.35c-0.28,0.42-0.67,0.74-1.16,0.96
			c-0.49,0.22-1.05,0.33-1.67,0.33c-0.64,0-1.22-0.12-1.73-0.36c-0.51-0.24-0.91-0.59-1.19-1.04c-0.28-0.45-0.43-0.97-0.43-1.56
			c0-0.62,0.15-1.16,0.46-1.62c0.3-0.47,0.72-0.83,1.24-1.08c0.52-0.26,1.11-0.38,1.76-0.38C53.61,166.35,54.62,166.78,55.34,167.63
			z M53.59,171.03c0.35-0.17,0.61-0.4,0.81-0.69c0.19-0.29,0.29-0.61,0.29-0.97c0-0.35-0.09-0.66-0.27-0.95
			c-0.18-0.28-0.45-0.51-0.8-0.69c-0.35-0.17-0.77-0.26-1.27-0.26c-0.64,0-1.16,0.17-1.56,0.52c-0.4,0.34-0.6,0.81-0.6,1.38
			c0,0.58,0.2,1.04,0.6,1.38c0.4,0.34,0.94,0.51,1.62,0.51C52.85,171.28,53.25,171.2,53.59,171.03z"/>
	</g>
	<g>
		<path d="M39.36,112.46v9.8h-1.39v-8.58h-2.21v-1.22H39.36z"/>
		<path d="M44.54,112.46v9.8h-1.39v-8.58h-2.21v-1.22H44.54z"/>
		<path d="M48.62,121.78c-0.6-0.4-1.08-0.97-1.42-1.73s-0.52-1.65-0.52-2.69s0.17-1.93,0.52-2.69c0.35-0.76,0.82-1.33,1.42-1.73
			s1.29-0.59,2.06-0.59c0.77,0,1.45,0.2,2.05,0.59s1.08,0.97,1.42,1.73c0.35,0.76,0.52,1.65,0.52,2.69s-0.17,1.93-0.52,2.69
			s-0.82,1.33-1.42,1.73s-1.29,0.59-2.05,0.59C49.91,122.38,49.22,122.18,48.62,121.78z M52.57,120.17c0.47-0.64,0.71-1.58,0.71-2.8
			s-0.24-2.16-0.71-2.8c-0.47-0.64-1.1-0.96-1.88-0.96c-0.79,0-1.43,0.32-1.9,0.96c-0.47,0.64-0.71,1.58-0.71,2.8
			s0.24,2.16,0.71,2.8s1.1,0.97,1.9,0.97C51.47,121.13,52.1,120.81,52.57,120.17z"/>
	</g>
	<g>
		<path class="st5" d="M109,198h35v-46c0-4.42-3.58-8-8-8h-27"/>
		<path class="st0" d="M144.5,198.5H109v-1h34.5V152c0-4.14-3.36-7.5-7.5-7.5h-27v-1h27c4.69,0,8.5,3.81,8.5,8.5V198.5z"/>
	</g>
	<g>
		<path class="st5" d="M234,198h-35v-46c0-4.42,3.58-8,8-8h27"/>
		<path class="st0" d="M234,198.5h-35.5V152c0-4.69,3.81-8.5,8.5-8.5h27v1h-27c-4.14,0-7.5,3.36-7.5,7.5v45.5H234V198.5z"/>
	</g>
	<g>
		<path class="st5" d="M234.5,468H199v46c0,4.42,3.63,8,8.11,8h27.39"/>
		<path class="st0" d="M234.5,522.5h-27.39c-4.75,0-8.61-3.81-8.61-8.5v-46.5h36v1h-35V514c0,4.14,3.42,7.5,7.61,7.5h27.39V522.5z"
			/>
	</g>
	<g>
		<path class="st5" d="M109,468h35v46c0,4.42-3.58,8-8,8h-27"/>
		<path class="st0" d="M136,522.5h-27v-1h27c4.14,0,7.5-3.36,7.5-7.5v-45.5H109v-1h35.5V514C144.5,518.69,140.69,522.5,136,522.5z"
			/>
	</g>
	<g>
		<rect x="108.5" y="197.5" class="st0" width="126" height="1"/>
	</g>
	<g>
		<rect x="108.5" y="467.5" class="st0" width="126" height="1"/>
	</g>
	<g>
		<rect x="198.5" y="198" class="st0" width="1" height="18"/>
	</g>
	<g>
		<rect x="143.5" y="198" class="st0" width="1" height="18"/>
	</g>
	<g>
		<rect x="162.53" y="198" class="st0" width="1" height="18.5"/>
	</g>
	<g>
		<rect x="180.53" y="198" class="st0" width="1" height="18.5"/>
	</g>
	<g>
		<rect x="198.5" y="450" class="st0" width="1" height="18"/>
	</g>
	<g>
		<rect x="143.5" y="450" class="st0" width="1" height="18"/>
	</g>
	<g>
		<rect x="162.53" y="450" class="st0" width="1" height="18.5"/>
	</g>
	<g>
		<rect x="180.53" y="450" class="st0" width="1" height="18.5"/>
	</g>
	<g>
		<rect x="108.5" y="395.5" class="st0" width="0.5" height="1"/>
	</g>
	<g>
		<path class="st0" d="M227,558.5H117c-4.69,0-8.5-3.81-8.5-8.5v-92c0-4.69,3.81-8.5,8.5-8.5h110c4.69,0,8.5,3.81,8.5,8.5v92
			C235.5,554.69,231.69,558.5,227,558.5z M117,450.5c-4.14,0-7.5,3.36-7.5,7.5v92c0,4.14,3.36,7.5,7.5,7.5h110
			c4.14,0,7.5-3.36,7.5-7.5v-92c0-4.14-3.36-7.5-7.5-7.5H117z"/>
	</g>
	<g>
		<path class="st0" d="M226.5,217h-110c-4.69,0-8.5-3.81-8.5-8.5v-92c0-4.69,3.81-8.5,8.5-8.5h110c4.69,0,8.5,3.81,8.5,8.5v92
			C235,213.19,231.19,217,226.5,217z M116.5,109c-4.14,0-7.5,3.36-7.5,7.5v92c0,4.14,3.36,7.5,7.5,7.5h110c4.14,0,7.5-3.36,7.5-7.5
			v-92c0-4.14-3.36-7.5-7.5-7.5H116.5z"/>
	</g>
	<g>
		<g>
			<g>
				<g>
					<rect x="116.35" y="170.21" class="st1" width="13.98" height="11.55"/>
				</g>
				<g>
					<path class="st8" d="M130.53,181.95h-14.37v-11.94h14.37V181.95z M116.55,181.55h13.58V170.4h-13.58V181.55z"/>
				</g>
			</g>
			<g>
				<g>
					<path class="st1" d="M133.72,161.25c-0.09,0-0.18,0.01-0.26,0.03h-14.35v14.84c2.56,0,5.13,0.01,7.69,0.02
						c1.29,0.01,2.6,0.01,3.89,0.06c1.08,0.04,2.17,0.05,3.22-0.23c0.93-0.25,1.64-0.95,2.05-1.81c0.61-1.28,0.76-2.76,0.82-4.16
						c0.02-0.43,0.02-0.87,0.02-1.3C136.8,164.58,135.42,161.25,133.72,161.25z"/>
				</g>
				<g>
					<path class="st8" d="M131.64,176.42c-0.31,0-0.63-0.01-0.96-0.02c-1.23-0.05-2.48-0.06-3.7-0.06l-0.18,0
						c-2.47-0.01-5.1-0.02-7.69-0.02h-0.2v-15.23h14.52c0.08-0.02,0.18-0.03,0.28-0.03c1.84,0,3.28,3.36,3.28,7.65
						c0,0.52-0.01,0.93-0.02,1.31c-0.05,1.34-0.2,2.9-0.84,4.24c-0.47,0.97-1.26,1.67-2.18,1.91
						C133.22,176.36,132.47,176.42,131.64,176.42z M119.31,175.92c2.52,0,5.08,0.01,7.49,0.02l0.18,0c1.22,0,2.48,0.01,3.71,0.06
						c1.2,0.05,2.2,0.03,3.16-0.22c0.81-0.21,1.51-0.83,1.92-1.7c0.61-1.28,0.75-2.78,0.8-4.08c0.02-0.38,0.02-0.78,0.02-1.3
						c0-3.93-1.32-7.25-2.88-7.25c-0.08,0-0.16,0.01-0.23,0.03l-0.04,0h-14.15V175.92z"/>
				</g>
			</g>
			<g>
				<g>
					<g>
						<ellipse class="st9" cx="119.28" cy="168.7" rx="3.08" ry="7.45"/>
					</g>
				</g>
				<g>
					<g>
						<path d="M119.28,176.35c-1.84,0-3.28-3.36-3.28-7.65s1.44-7.65,3.28-7.65c1.84,0,3.28,3.36,3.28,7.65
							S121.11,176.35,119.28,176.35z M119.28,161.45c-1.56,0-2.88,3.32-2.88,7.25s1.32,7.25,2.88,7.25s2.88-3.32,2.88-7.25
							S120.84,161.45,119.28,161.45z"/>
					</g>
				</g>
			</g>
			<g>
				<g>
					<ellipse class="st8" cx="118.78" cy="168.61" rx="0.98" ry="3.03"/>
				</g>
			</g>
			<g>
				<g>
					<ellipse class="st8" cx="127.74" cy="167.64" rx="1.86" ry="2.28"/>
				</g>
			</g>
			<g>
				<g>
					<ellipse class="st8" cx="134.97" cy="167.52" rx="1.86" ry="2.28"/>
				</g>
			</g>
			<g>
				<g>
					<path class="st8" d="M126.75,170.47c-1.64,0-2.97-1.33-2.97-2.97c0-1.64,1.33-2.97,2.97-2.97c1.64,0,2.97,1.33,2.97,2.97
						C129.72,169.14,128.39,170.47,126.75,170.47z M126.75,164.93c-1.42,0-2.57,1.15-2.57,2.57c0,1.42,1.15,2.57,2.57,2.57
						c1.42,0,2.57-1.15,2.57-2.57C129.32,166.08,128.17,164.93,126.75,164.93z"/>
				</g>
			</g>
			<g>
				<g>
					<path class="st8" d="M134.02,170.47c-1.64,0-2.97-1.33-2.97-2.97c0-1.64,1.33-2.97,2.97-2.97c1.64,0,2.97,1.33,2.97,2.97
						C136.99,169.14,135.65,170.47,134.02,170.47z M134.02,164.93c-1.42,0-2.57,1.15-2.57,2.57c0,1.42,1.15,2.57,2.57,2.57
						c1.42,0,2.57-1.15,2.57-2.57C136.59,166.08,135.43,164.93,134.02,164.93z"/>
				</g>
			</g>
		</g>
		<g>
			<g>
				<g>
					<rect x="207.35" y="170.21" class="st1" width="13.98" height="11.55"/>
				</g>
				<g>
					<path class="st8" d="M221.53,181.95h-14.37v-11.94h14.37V181.95z M207.55,181.55h13.58V170.4h-13.58V181.55z"/>
				</g>
			</g>
			<g>
				<g>
					<path class="st1" d="M224.72,161.25c-0.09,0-0.18,0.01-0.26,0.03h-14.35v14.84c2.56,0,5.13,0.01,7.69,0.02
						c1.29,0.01,2.6,0.01,3.89,0.06c1.08,0.04,2.17,0.05,3.22-0.23c0.93-0.25,1.64-0.95,2.05-1.81c0.61-1.28,0.76-2.76,0.82-4.16
						c0.02-0.43,0.02-0.87,0.02-1.3C227.8,164.58,226.42,161.25,224.72,161.25z"/>
				</g>
				<g>
					<path class="st8" d="M222.64,176.42c-0.31,0-0.63-0.01-0.96-0.02c-1.23-0.05-2.48-0.06-3.7-0.06l-0.18,0
						c-2.47-0.01-5.1-0.02-7.69-0.02h-0.2v-15.23h14.52c0.08-0.02,0.18-0.03,0.28-0.03c1.84,0,3.28,3.36,3.28,7.65
						c0,0.52-0.01,0.93-0.02,1.31c-0.05,1.34-0.2,2.9-0.84,4.24c-0.47,0.97-1.26,1.67-2.18,1.91
						C224.22,176.36,223.47,176.42,222.64,176.42z M210.31,175.92c2.52,0,5.08,0.01,7.49,0.02l0.18,0c1.22,0,2.48,0.01,3.71,0.06
						c1.2,0.05,2.2,0.03,3.16-0.22c0.81-0.21,1.51-0.83,1.92-1.7c0.61-1.28,0.75-2.78,0.8-4.08c0.02-0.38,0.02-0.78,0.02-1.3
						c0-3.93-1.32-7.25-2.88-7.25c-0.08,0-0.16,0.01-0.23,0.03l-0.04,0h-14.15V175.92z"/>
				</g>
			</g>
			<g>
				<g>
					<g>
						<ellipse class="st9" cx="210.28" cy="168.7" rx="3.08" ry="7.45"/>
					</g>
				</g>
				<g>
					<g>
						<path d="M210.28,176.35c-1.84,0-3.28-3.36-3.28-7.65s1.44-7.65,3.28-7.65s3.28,3.36,3.28,7.65S212.11,176.35,210.28,176.35z
							 M210.28,161.45c-1.56,0-2.88,3.32-2.88,7.25s1.32,7.25,2.88,7.25s2.88-3.32,2.88-7.25S211.84,161.45,210.28,161.45z"/>
					</g>
				</g>
			</g>
			<g>
				<g>
					<ellipse class="st8" cx="209.78" cy="168.61" rx="0.98" ry="3.03"/>
				</g>
			</g>
			<g>
				<g>
					<ellipse class="st8" cx="218.74" cy="167.64" rx="1.86" ry="2.28"/>
				</g>
			</g>
			<g>
				<g>
					<ellipse class="st8" cx="225.97" cy="167.52" rx="1.86" ry="2.28"/>
				</g>
			</g>
			<g>
				<g>
					<path class="st8" d="M217.75,170.47c-1.64,0-2.97-1.33-2.97-2.97c0-1.64,1.33-2.97,2.97-2.97c1.64,0,2.97,1.33,2.97,2.97
						C220.72,169.14,219.39,170.47,217.75,170.47z M217.75,164.93c-1.42,0-2.57,1.15-2.57,2.57c0,1.42,1.15,2.57,2.57,2.57
						c1.42,0,2.57-1.15,2.57-2.57C220.32,166.08,219.17,164.93,217.75,164.93z"/>
				</g>
			</g>
			<g>
				<g>
					<path class="st8" d="M225.02,170.47c-1.64,0-2.97-1.33-2.97-2.97c0-1.64,1.33-2.97,2.97-2.97c1.64,0,2.97,1.33,2.97,2.97
						C227.99,169.14,226.65,170.47,225.02,170.47z M225.02,164.93c-1.42,0-2.57,1.15-2.57,2.57c0,1.42,1.15,2.57,2.57,2.57
						c1.42,0,2.57-1.15,2.57-2.57C227.59,166.08,226.43,164.93,225.02,164.93z"/>
				</g>
			</g>
		</g>
		<g>
			<g>
				<g>
					<rect x="116.35" y="495.21" class="st1" width="13.98" height="11.55"/>
				</g>
				<g>
					<path class="st8" d="M130.53,506.95h-14.37v-11.94h14.37V506.95z M116.55,506.55h13.58V495.4h-13.58V506.55z"/>
				</g>
			</g>
			<g>
				<g>
					<path class="st1" d="M133.72,486.25c-0.09,0-0.18,0.01-0.26,0.03h-14.35v14.84c2.56,0,5.13,0.01,7.69,0.02
						c1.29,0.01,2.6,0.01,3.89,0.06c1.08,0.04,2.17,0.05,3.22-0.23c0.93-0.25,1.64-0.95,2.05-1.81c0.61-1.28,0.76-2.76,0.82-4.16
						c0.02-0.43,0.02-0.87,0.02-1.3C136.8,489.58,135.42,486.25,133.72,486.25z"/>
				</g>
				<g>
					<path class="st8" d="M131.64,501.42c-0.31,0-0.63-0.01-0.96-0.02c-1.23-0.05-2.48-0.06-3.7-0.06l-0.18,0
						c-2.47-0.01-5.1-0.02-7.69-0.02h-0.2v-15.23h14.52c0.08-0.02,0.18-0.03,0.28-0.03c1.84,0,3.28,3.36,3.28,7.65
						c0,0.52-0.01,0.93-0.02,1.31c-0.05,1.34-0.2,2.9-0.84,4.24c-0.47,0.97-1.26,1.67-2.18,1.91
						C133.22,501.36,132.47,501.42,131.64,501.42z M119.31,500.92c2.52,0,5.08,0.01,7.49,0.02l0.18,0c1.22,0,2.48,0.01,3.71,0.06
						c1.2,0.05,2.2,0.03,3.16-0.22c0.81-0.21,1.51-0.83,1.92-1.7c0.61-1.28,0.75-2.78,0.8-4.08c0.02-0.38,0.02-0.78,0.02-1.3
						c0-3.93-1.32-7.25-2.88-7.25c-0.08,0-0.16,0.01-0.23,0.03l-0.04,0h-14.15V500.92z"/>
				</g>
			</g>
			<g>
				<g>
					<g>
						<ellipse class="st9" cx="119.28" cy="493.7" rx="3.08" ry="7.45"/>
					</g>
				</g>
				<g>
					<g>
						<path d="M119.28,501.35c-1.84,0-3.28-3.36-3.28-7.65c0-4.29,1.44-7.65,3.28-7.65c1.84,0,3.28,3.36,3.28,7.65
							C122.55,497.99,121.11,501.35,119.28,501.35z M119.28,486.45c-1.56,0-2.88,3.32-2.88,7.25c0,3.93,1.32,7.25,2.88,7.25
							s2.88-3.32,2.88-7.25C122.16,489.77,120.84,486.45,119.28,486.45z"/>
					</g>
				</g>
			</g>
			<g>
				<g>
					<ellipse class="st8" cx="118.78" cy="493.61" rx="0.98" ry="3.03"/>
				</g>
			</g>
			<g>
				<g>
					<ellipse class="st8" cx="127.74" cy="492.64" rx="1.86" ry="2.28"/>
				</g>
			</g>
			<g>
				<g>
					<ellipse class="st8" cx="134.97" cy="492.52" rx="1.86" ry="2.28"/>
				</g>
			</g>
			<g>
				<g>
					<path class="st8" d="M126.75,495.47c-1.64,0-2.97-1.33-2.97-2.97c0-1.64,1.33-2.97,2.97-2.97c1.64,0,2.97,1.33,2.97,2.97
						C129.72,494.14,128.39,495.47,126.75,495.47z M126.75,489.93c-1.42,0-2.57,1.15-2.57,2.57c0,1.42,1.15,2.57,2.57,2.57
						c1.42,0,2.57-1.15,2.57-2.57C129.32,491.08,128.17,489.93,126.75,489.93z"/>
				</g>
			</g>
			<g>
				<g>
					<path class="st8" d="M134.02,495.47c-1.64,0-2.97-1.33-2.97-2.97c0-1.64,1.33-2.97,2.97-2.97c1.64,0,2.97,1.33,2.97,2.97
						C136.99,494.14,135.65,495.47,134.02,495.47z M134.02,489.93c-1.42,0-2.57,1.15-2.57,2.57c0,1.42,1.15,2.57,2.57,2.57
						c1.42,0,2.57-1.15,2.57-2.57C136.59,491.08,135.43,489.93,134.02,489.93z"/>
				</g>
			</g>
		</g>
		<g>
			<g>
				<g>
					<rect x="207.35" y="495.21" class="st1" width="13.98" height="11.55"/>
				</g>
				<g>
					<path class="st8" d="M221.53,506.95h-14.37v-11.94h14.37V506.95z M207.55,506.55h13.58V495.4h-13.58V506.55z"/>
				</g>
			</g>
			<g>
				<g>
					<path class="st1" d="M224.72,486.25c-0.09,0-0.18,0.01-0.26,0.03h-14.35v14.84c2.56,0,5.13,0.01,7.69,0.02
						c1.29,0.01,2.6,0.01,3.89,0.06c1.08,0.04,2.17,0.05,3.22-0.23c0.93-0.25,1.64-0.95,2.05-1.81c0.61-1.28,0.76-2.76,0.82-4.16
						c0.02-0.43,0.02-0.87,0.02-1.3C227.8,489.58,226.42,486.25,224.72,486.25z"/>
				</g>
				<g>
					<path class="st8" d="M222.64,501.42c-0.31,0-0.63-0.01-0.96-0.02c-1.23-0.05-2.48-0.06-3.7-0.06l-0.18,0
						c-2.47-0.01-5.1-0.02-7.69-0.02h-0.2v-15.23h14.52c0.08-0.02,0.18-0.03,0.28-0.03c1.84,0,3.28,3.36,3.28,7.65
						c0,0.52-0.01,0.93-0.02,1.31c-0.05,1.34-0.2,2.9-0.84,4.24c-0.47,0.97-1.26,1.67-2.18,1.91
						C224.22,501.36,223.47,501.42,222.64,501.42z M210.31,500.92c2.52,0,5.08,0.01,7.49,0.02l0.18,0c1.22,0,2.48,0.01,3.71,0.06
						c1.2,0.05,2.2,0.03,3.16-0.22c0.81-0.21,1.51-0.83,1.92-1.7c0.61-1.28,0.75-2.78,0.8-4.08c0.02-0.38,0.02-0.78,0.02-1.3
						c0-3.93-1.32-7.25-2.88-7.25c-0.08,0-0.16,0.01-0.23,0.03l-0.04,0h-14.15V500.92z"/>
				</g>
			</g>
			<g>
				<g>
					<g>
						<ellipse class="st9" cx="210.28" cy="493.7" rx="3.08" ry="7.45"/>
					</g>
				</g>
				<g>
					<g>
						<path d="M210.28,501.35c-1.84,0-3.28-3.36-3.28-7.65c0-4.29,1.44-7.65,3.28-7.65s3.28,3.36,3.28,7.65
							C213.55,497.99,212.11,501.35,210.28,501.35z M210.28,486.45c-1.56,0-2.88,3.32-2.88,7.25c0,3.93,1.32,7.25,2.88,7.25
							s2.88-3.32,2.88-7.25C213.16,489.77,211.84,486.45,210.28,486.45z"/>
					</g>
				</g>
			</g>
			<g>
				<g>
					<ellipse class="st8" cx="209.78" cy="493.61" rx="0.98" ry="3.03"/>
				</g>
			</g>
			<g>
				<g>
					<ellipse class="st8" cx="218.74" cy="492.64" rx="1.86" ry="2.28"/>
				</g>
			</g>
			<g>
				<g>
					<ellipse class="st8" cx="225.97" cy="492.52" rx="1.86" ry="2.28"/>
				</g>
			</g>
			<g>
				<g>
					<path class="st8" d="M217.75,495.47c-1.64,0-2.97-1.33-2.97-2.97c0-1.64,1.33-2.97,2.97-2.97c1.64,0,2.97,1.33,2.97,2.97
						C220.72,494.14,219.39,495.47,217.75,495.47z M217.75,489.93c-1.42,0-2.57,1.15-2.57,2.57c0,1.42,1.15,2.57,2.57,2.57
						c1.42,0,2.57-1.15,2.57-2.57C220.32,491.08,219.17,489.93,217.75,489.93z"/>
				</g>
			</g>
			<g>
				<g>
					<path class="st8" d="M225.02,495.47c-1.64,0-2.97-1.33-2.97-2.97c0-1.64,1.33-2.97,2.97-2.97c1.64,0,2.97,1.33,2.97,2.97
						C227.99,494.14,226.65,495.47,225.02,495.47z M225.02,489.93c-1.42,0-2.57,1.15-2.57,2.57c0,1.42,1.15,2.57,2.57,2.57
						c1.42,0,2.57-1.15,2.57-2.57C227.59,491.08,226.43,489.93,225.02,489.93z"/>
				</g>
			</g>
		</g>
	</g>
</g>
<g id="MapaEP">
</g>
<g id="Mapa_2P">
</g>
<g id="Mapa_3P">
</g>
<g id="Bordes">
	<g>
		<path class="st14" d="M343,649c0,8.8-7.2,16-16,16H17c-8.8,0-16-7.2-16-16V17.5c0-8.8,7.2-16,16-16h310c8.8,0,16,7.2,16,16V649z"
			/>
	</g>
</g>
<g id="Layer_8" class="st15">
</g>
</svg>
